<?xml version="1.0" encoding="UTF-8"?>
<svg width="215px" height="200px" viewBox="0 0 215 200" version="1.1" xmlns="http://www.w3.org/2000/svg" xmlns:xlink="http://www.w3.org/1999/xlink">
    <!-- Generator: Sketch 46.1 (44463) - http://www.bohemiancoding.com/sketch -->
    <title>computer</title>
    <desc>Created with Sketch.</desc>
    <defs></defs>
    <g id="Page-1" stroke="none" stroke-width="1" fill="none" fill-rule="evenodd">
        <g id="home-copy-2" transform="translate(-1033.000000, -514.000000)" fill-rule="nonzero" fill="#2B3B46">
            <g id="Pasaporte" transform="translate(256.000000, 450.000000)">
                <g id="Group-Copy-2" transform="translate(720.000000, 0.000000)">
                    <g id="computer" transform="translate(57.000000, 64.000000)">
                        <path d="M153.528452,192.831381 L128.535565,192.831381 L128.535565,174.979079 C128.535565,173.008368 126.935983,171.408787 124.965272,171.408787 C122.994561,171.408787 121.394979,173.008368 121.394979,174.979079 L121.394979,192.831381 L92.8313808,192.831381 L92.8313808,174.979079 C92.8313808,173.008368 91.2317992,171.408787 89.2610879,171.408787 C87.2903766,171.408787 85.690795,173.008368 85.690795,174.979079 L85.690795,192.831381 L60.6979079,192.831381 C58.7271967,192.831381 57.1276151,194.430962 57.1276151,196.401674 C57.1276151,198.372385 58.7271967,199.971967 60.6979079,199.971967 L153.529289,199.971967 C155.5,199.971967 157.099582,198.372385 157.099582,196.401674 C157.099582,194.430962 155.499582,192.831381 153.528452,192.831381 Z" id="Shape"></path>
                        <path d="M107.220084,142.845188 L107.184519,142.845188 C105.213808,142.845188 103.631799,144.44477 103.631799,146.415481 C103.631799,148.386192 105.249372,149.985774 107.220084,149.985774 C109.194561,149.985774 110.790377,148.386192 110.790377,146.415481 C110.790377,144.44477 109.194561,142.845188 107.220084,142.845188 Z" id="Shape"></path>
                        <path d="M172.426778,48.9677824 C173.123013,49.6640167 174.037238,50.0138075 174.951046,50.0138075 C175.865272,50.0138075 176.779079,49.6640167 177.475314,48.9677824 C178.87113,47.5715481 178.87113,45.3150628 177.475314,43.9192469 L170.334728,36.7782427 C168.938912,35.3820084 166.682008,35.3820084 165.286192,36.7782427 C163.889958,38.174477 163.889958,40.4309623 165.286192,41.8267782 L172.426778,48.9677824 Z" id="Shape"></path>
                        <path d="M172.426778,70.3903766 C173.123013,71.0866109 174.037238,71.4364017 174.951046,71.4364017 C175.865272,71.4364017 176.779079,71.0866109 177.475314,70.3903766 C178.87113,68.9941423 178.87113,66.7376569 177.475314,65.341841 L148.912134,36.7782427 C147.5159,35.3820084 145.259414,35.3820084 143.863598,36.7782427 C142.467364,38.174477 142.467364,40.4309623 143.863598,41.8267782 L172.426778,70.3903766 Z" id="Shape"></path>
                        <path d="M196.37364,0.0280334728 L17.8523013,0.0280334728 C8.67615063,0.0280334728 0,8.7041841 0,17.8799163 L0,146.415481 C0,155.591632 8.67615063,164.267782 17.8523013,164.267782 L196.374059,164.267782 C205.550209,164.267782 214.22636,155.591632 214.22636,146.415481 L214.22636,17.8799163 C214.225941,8.7041841 205.549791,0.0280334728 196.37364,0.0280334728 Z M207.084937,146.415481 C207.084937,151.621339 201.579498,157.126778 196.37364,157.126778 L17.8523013,157.126778 C12.6464435,157.126778 7.14100418,151.621339 7.14100418,146.415481 L7.14100418,17.8799163 C7.14100418,12.6740586 12.6464435,7.16861925 17.8523013,7.16861925 L196.374059,7.16861925 C201.579916,7.16861925 207.085356,12.6740586 207.085356,17.8799163 L207.085356,146.415481 L207.084937,146.415481 Z" id="Shape"></path>
                        <path d="M196.37364,14.3096234 L17.8523013,14.3096234 C15.88159,14.3096234 14.2820084,15.909205 14.2820084,17.8799163 L14.2820084,132.133891 C14.2820084,134.104603 15.88159,135.704184 17.8523013,135.704184 L196.374059,135.704184 C198.34477,135.704184 199.944351,134.104603 199.944351,132.133891 L199.944351,17.8799163 C199.944351,15.909205 198.34477,14.3096234 196.37364,14.3096234 Z M192.803347,128.563598 L21.4225941,128.563598 L21.4225941,21.4506276 L192.803347,21.4506276 L192.803347,128.563598 Z" id="Shape"></path>
                    </g>
                </g>
            </g>
        </g>
    </g>
</svg>