<?xml version="1.0" encoding="UTF-8"?>
<svg width="32px" height="32px" viewBox="0 0 32 32" version="1.1" xmlns="http://www.w3.org/2000/svg" xmlns:xlink="http://www.w3.org/1999/xlink">
    <!-- Generator: Sketch 46.1 (44463) - http://www.bohemiancoding.com/sketch -->
    <title>contact</title>
    <desc>Created with Sketch.</desc>
    <defs></defs>
    <g id="Page-1" stroke="none" stroke-width="1" fill="none" fill-rule="evenodd">
        <g id="home0" transform="translate(-1122.000000, -48.000000)">
            <g id="header" transform="translate(-363.000000, 0.000000)">
                <g id="menu" transform="translate(363.000000, 0.000000)">
                    <g id="Group" transform="translate(1122.000000, 48.000000)">
                        <g id="contact">
                            <rect id="Rectangle-3" x="0" y="0" width="32" height="32"></rect>
                            <g id="handshake" transform="translate(0.000000, 0.666667)" fill-rule="nonzero" fill="#FFFFFF">
                                <path d="M3.99401626,7.83947967 C3.13339837,7.83947967 2.43304065,8.5398374 2.43304065,9.40045528 C2.43304065,10.2610732 3.13339837,10.9614309 3.99401626,10.9614309 C4.85463415,10.9614309 5.55499187,10.2610732 5.55499187,9.40045528 C5.55499187,8.5398374 4.85463415,7.83947967 3.99401626,7.83947967 Z M3.99401626,9.92078049 C3.70731707,9.92078049 3.47369106,9.68715447 3.47369106,9.40045528 C3.47369106,9.1137561 3.70731707,8.88013008 3.99401626,8.88013008 C4.28071545,8.88013008 4.51434146,9.1137561 4.51434146,9.40045528 C4.51434146,9.68715447 4.28071545,9.92078049 3.99401626,9.92078049 Z" id="Shape"></path>
                                <path d="M31.939122,12.3699512 L31.2033821,11.6342114 L23.7575285,19.080065 C23.7294309,19.0483252 23.7070569,19.0124228 23.676878,18.9817236 L19.2988618,14.6037073 L19.9716423,13.9309268 L19.2359024,13.195187 L17.6910569,14.7400325 C16.8632195,15.5673496 15.5816585,15.6818211 14.6279024,15.0829268 L18.4091057,11.3313821 C18.409626,11.3308618 18.409626,11.3303415 18.4101463,11.3298211 L28.2963252,1.44364228 L27.5605854,0.707902439 L18.0427967,10.2256911 L17.3700163,9.55291057 C17.2727154,9.45508943 17.1400325,9.40045528 17.0021463,9.40045528 L15.1362602,9.40045528 L14.248065,8.51226016 L6.9635122,1.22770732 L6.22777236,1.96344715 L11.0631545,6.79882927 L4.40819512,13.4537886 L0.703479675,10.057626 L0,10.8251057 L6.07531707,16.393626 L6.07531707,17.7256585 C6.07531707,17.8635447 6.12995122,17.9962276 6.22777236,18.0935285 L8.47817886,20.343935 C8.27265041,20.6212683 8.15661789,20.9532358 8.15661789,21.3049756 C8.15661789,22.1812033 8.85489431,22.8924878 9.72331707,22.923187 C9.75349593,23.7723577 10.435122,24.4539837 11.2842927,24.4841626 C11.3144715,25.3333333 11.9960976,26.0149593 12.8452683,26.0451382 C12.8759675,26.913561 13.5877724,27.6118374 14.4634797,27.6118374 C14.6846179,27.6118374 14.8989919,27.5665691 15.0967154,27.4827967 L15.1362602,27.5223415 C15.5291057,27.9157073 16.0520325,28.1321626 16.6082602,28.1321626 C17.1644878,28.1321626 17.6868943,27.9157073 18.0797398,27.5223415 L23.676878,21.9252033 C24.0702439,21.5318374 24.2866992,21.0094309 24.2866992,20.4537236 C24.2866992,20.3205203 24.2726504,20.1893984 24.2481951,20.060878 L31.939122,12.3699512 Z M5.17619512,14.1577886 L11.7988943,7.53456911 L13.1444553,8.88013008 L6.58003252,15.4445528 L5.17619512,14.1577886 Z M10.1931707,21.7175935 C10.0828618,21.8273821 9.93665041,21.8882602 9.78055285,21.8882602 C9.45899187,21.8882602 9.19726829,21.6265366 9.19726829,21.3049756 C9.19726829,21.148878 9.25814634,21.0026667 9.36793496,20.8923577 L11.8436423,18.4166504 C11.9539512,18.3068618 12.1001626,18.2459837 12.2562602,18.2459837 C12.5778211,18.2459837 12.8395447,18.5077073 12.8395447,18.8292683 C12.8395447,18.9853659 12.7786667,19.1315772 12.668878,19.2418862 L10.1931707,21.7175935 Z M11.7541463,23.2785691 C11.6438374,23.3883577 11.497626,23.4492358 11.3415285,23.4492358 C11.0199675,23.4492358 10.7582439,23.1875122 10.7582439,22.8659512 C10.7582439,22.7098537 10.819122,22.5636423 10.9289106,22.4533333 L13.4046179,19.977626 C13.5149268,19.8678374 13.6611382,19.8069593 13.8172358,19.8069593 C14.1387967,19.8069593 14.4005203,20.0686829 14.4005203,20.3902439 C14.4005203,20.5463415 14.3396423,20.6925528 14.2298537,20.8028618 L11.7541463,23.2785691 Z M13.315122,24.8395447 C13.204813,24.9493333 13.0586016,25.0102114 12.9025041,25.0102114 C12.5809431,25.0102114 12.3192195,24.7484878 12.3192195,24.4269268 C12.3192195,24.2708293 12.3800976,24.1246179 12.4898862,24.0143089 L14.9655935,21.5386016 C15.0759024,21.428813 15.2221138,21.367935 15.3782114,21.367935 C15.6997724,21.367935 15.9614959,21.6296585 15.9614959,21.9512195 C15.9614959,22.1073171 15.9006179,22.2535285 15.7908293,22.3638374 L13.315122,24.8395447 Z M14.8760976,26.4005203 C14.7657886,26.5103089 14.6195772,26.571187 14.4634797,26.571187 C14.1419187,26.571187 13.8801951,26.3094634 13.8801951,25.9879024 C13.8801951,25.8318049 13.9410732,25.6855935 14.0508618,25.5752846 L16.5265691,23.0995772 C16.636878,22.9897886 16.7830894,22.9289106 16.939187,22.9289106 C17.260748,22.9289106 17.5224715,23.1906341 17.5224715,23.5121951 C17.5224715,23.6682927 17.4615935,23.8145041 17.3518049,23.924813 L14.8760976,26.4005203 Z M22.9411382,21.1894634 L17.344,26.7866016 C16.9657236,27.164878 16.3205203,27.1752846 15.9219512,26.8266667 L18.088065,24.6605528 C18.3940163,24.3540813 18.563122,23.9461463 18.563122,23.5121951 C18.563122,22.6359675 17.8648455,21.9246829 16.9964228,21.8939837 C16.9662439,21.044813 16.2846179,20.363187 15.4354472,20.3330081 C15.4052683,19.4838374 14.7236423,18.8022114 13.8744715,18.7720325 C13.8437724,17.9036098 13.1319675,17.2053333 12.2562602,17.2053333 C11.8223089,17.2053333 11.414374,17.374439 11.1079024,17.6809106 L9.19726829,19.5915447 L7.11596748,17.5102439 L7.11596748,16.3800976 L13.8801951,9.61586992 L14.5529756,10.2886504 C14.6502764,10.3864715 14.7829593,10.4411057 14.9208455,10.4411057 L16.7867317,10.4411057 L17.3054959,10.9598699 L13.4811057,14.7546016 C13.3827642,14.8524228 13.3270894,14.9861463 13.3276098,15.1250732 C13.3281301,15.264 13.3838049,15.3972033 13.4826667,15.4945041 C14.8506016,16.8421463 17.0692683,16.8338211 18.4267967,15.475252 L18.563122,15.3394472 L22.9411382,19.7174634 C23.1378211,19.9141463 23.2460488,20.1753496 23.2460488,20.4537236 C23.2460488,20.7320976 23.1378211,20.9927805 22.9411382,21.1894634 Z" id="Shape"></path>
                                <path d="M3.62822764,21.8565203 L2.71505691,22.3560325 C2.8862439,22.668748 3.07147967,22.9804228 3.26556098,23.2816911 L4.14074797,22.7186992 C3.9596748,22.4377236 3.78744715,22.1479024 3.62822764,21.8565203 Z" id="Shape"></path>
                                <path d="M11.052748,28.2913821 L10.688,29.2659512 C11.0215285,29.3908293 11.3654634,29.5053008 11.7109593,29.6062439 L12.0033821,28.6077398 C11.6823415,28.513561 11.3628618,28.4074146 11.052748,28.2913821 Z" id="Shape"></path>
                                <path d="M7.5415935,26.3708618 L6.91668293,27.2033821 C7.20286179,27.4182764 7.50100813,27.6253659 7.8017561,27.8189268 L8.36474797,26.9437398 C8.08481301,26.763187 7.80747967,26.5706667 7.5415935,26.3708618 Z" id="Shape"></path>
                                <path d="M9.22796748,27.4573008 L8.72845528,28.3699512 C9.04169106,28.5411382 9.36585366,28.704 9.69209756,28.8533333 L10.1255285,27.9073821 C9.82165854,27.767935 9.51986992,27.6165203 9.22796748,27.4573008 Z" id="Shape"></path>
                                <path d="M6.02588618,25.0565203 L5.28962602,25.7917398 C5.54250407,26.0451382 5.80786992,26.2922927 6.0779187,26.526439 L6.76006504,25.7402276 C6.50822764,25.5222114 6.2615935,25.2917073 6.02588618,25.0565203 Z" id="Shape"></path>
                                <path d="M4.71206504,23.5413333 L3.87954472,24.1657236 C4.09495935,24.4529431 4.32234146,24.7349593 4.55544715,25.0039675 L5.34165854,24.3218211 C5.12520325,24.0715447 4.91343089,23.8087805 4.71206504,23.5413333 Z" id="Shape"></path>
                                <path d="M1.94809756,16.1287805 L0.91004878,16.2026667 C0.93502439,16.5590894 0.973528455,16.9191545 1.024,17.2734959 L2.0542439,17.1267642 C2.00741463,16.7963577 1.9715122,16.460748 1.94809756,16.1287805 Z" id="Shape"></path>
                                <path d="M0.91004878,14.0490407 C0.884552846,14.4028618 0.872065041,14.7644878 0.872065041,15.1240325 L0.872065041,15.1255935 L1.91271545,15.1240325 C1.91271545,14.7889431 1.92468293,14.4517724 1.94809756,14.1229268 L0.91004878,14.0490407 Z" id="Shape"></path>
                                <path d="M2.23115447,18.1127805 L1.21443902,18.3339187 C1.2904065,18.6840976 1.37990244,19.0353171 1.4803252,19.3776911 L2.47882927,19.0852683 C2.38569106,18.7663089 2.30243902,18.4390244 2.23115447,18.1127805 Z" id="Shape"></path>
                                <path d="M2.79518699,20.0359024 L1.82009756,20.4001301 C1.94497561,20.7341789 2.08338211,21.068748 2.23219512,21.3939512 L3.17866667,20.961561 C3.04026016,20.6582114 2.91121951,20.3470569 2.79518699,20.0359024 Z" id="Shape"></path>
                                <path d="M28.7443252,20.9610407 C28.604878,21.2649106 28.4534634,21.5666992 28.2937236,21.8586016 L29.2068943,22.3581138 C29.3780813,22.044878 29.5409431,21.7207154 29.6902764,21.3944715 L28.7443252,20.9610407 Z" id="Shape"></path>
                                <path d="M27.7812033,22.7213008 C27.6001301,23.0022764 27.4070894,23.2790894 27.2078049,23.5449756 L28.0403252,24.1698862 C28.2546992,23.884748 28.4617886,23.5866016 28.6563902,23.284813 L27.7812033,22.7213008 Z" id="Shape"></path>
                                <path d="M26.5771707,24.3254634 C26.3591545,24.5773008 26.1291707,24.8244553 25.8934634,25.0596423 L26.6286829,25.7959024 C26.8820813,25.5430244 27.1292358,25.2776585 27.3633821,25.0076098 L26.5771707,24.3254634 Z" id="Shape"></path>
                                <path d="M29.4452033,19.0826667 C29.3510244,19.4026667 29.244878,19.7226667 29.1288455,20.0338211 L30.1034146,20.3980488 C30.228813,20.0634797 30.3427642,19.7190244 30.4437073,19.3750894 L29.4452033,19.0826667 Z" id="Shape"></path>
                                <path d="M29.8692683,17.1241626 C29.8219187,17.4550894 29.7620813,17.7870569 29.6918374,18.1112195 L30.7090732,18.3313171 C30.7845203,17.9832195 30.8485203,17.6267967 30.8989919,17.2708943 L29.8692683,17.1241626 Z" id="Shape"></path>
                                <path d="M25.1587642,25.7438699 C24.9079675,25.9613659 24.6452033,26.1731382 24.3777561,26.3739837 L25.0021463,27.2065041 C25.2888455,26.9916098 25.5708618,26.7642276 25.8403902,26.5306016 L25.1587642,25.7438699 Z" id="Shape"></path>
                                <path d="M12.9753496,28.8554146 L12.755252,29.8721301 C13.1033496,29.9475772 13.4597724,30.0115772 13.8156748,30.0620488 L13.9624065,29.0323252 C13.6314797,28.9849756 13.2995122,28.9251382 12.9753496,28.8554146 Z" id="Shape"></path>
                                <path d="M30.0102764,15.1240325 C30.0102764,15.4586016 29.9988293,15.7962927 29.9754146,16.1266992 L31.0134634,16.200065 C31.038439,15.8446829 31.0509268,15.4825366 31.0509268,15.1240325 L30.0102764,15.1240325 Z" id="Shape"></path>
                                <path d="M17.963187,29.0312846 C17.6333008,29.0781138 17.2976911,29.1140163 16.9652033,29.1374309 L17.0390894,30.1754797 C17.3955122,30.1505041 17.7555772,30.112 18.1099187,30.0615285 L17.963187,29.0312846 Z" id="Shape"></path>
                                <path d="M15.9614959,29.172813 C15.6269268,29.172813 15.2902764,29.1613659 14.9598699,29.1379512 L14.8865041,30.176 C15.2413659,30.2009756 15.6035122,30.2134634 15.9620163,30.2134634 L15.9614959,29.172813 Z" id="Shape"></path>
                                <path d="M23.555122,26.9458211 C23.2762276,27.1253333 22.9864065,27.297561 22.6934634,27.4578211 L23.1929756,28.3709919 C23.507252,28.1987642 23.8184065,28.0140488 24.1181138,27.8210081 L23.555122,26.9458211 Z" id="Shape"></path>
                                <path d="M21.7979837,27.9068618 C21.4946341,28.0452683 21.1834797,28.1748293 20.8728455,28.2903415 L21.2365528,29.2654309 C21.5706016,29.1405528 21.9051707,29.0021463 22.230374,28.8533333 L21.7979837,27.9068618 Z" id="Shape"></path>
                                <path d="M19.9216911,28.6072195 C19.6027317,28.7003577 19.2759675,28.7836098 18.9492033,28.8548943 L19.1703415,29.8716098 C19.5205203,29.7956423 19.8717398,29.7061463 20.2141138,29.6057236 L19.9216911,28.6072195 Z" id="Shape"></path>
                                <path d="M22.0310894,1.35414634 L21.5726829,2.28865041 C21.8614634,2.43017886 22.1585691,2.5899187 22.4556748,2.76318699 L22.9801626,1.86406504 C22.6612033,1.67830894 22.3417236,1.50660163 22.0310894,1.35414634 Z" id="Shape"></path>
                                <path d="M15.9614959,0.034601626 L15.744,0.0361626016 L15.7590894,1.07681301 L15.9614959,1.07525203 C16.2362276,1.07525203 16.5047154,1.08149593 16.7669593,1.09398374 L16.8158699,0.0543739837 C16.5374959,0.0413658537 16.2533984,0.034601626 15.9614959,0.034601626 Z" id="Shape"></path>
                                <path d="M20.0117073,0.566894309 L19.7198049,1.5659187 C20.0346016,1.65801626 20.3509593,1.76572358 20.6600325,1.88643902 L21.0393496,0.917593496 C20.7016585,0.785430894 20.3561626,0.667837398 20.0117073,0.566894309 Z" id="Shape"></path>
                                <path d="M17.8882602,0.141268293 L17.7675447,1.17463415 C18.1036748,1.21417886 18.4356423,1.26621138 18.7540813,1.32969106 L18.9570081,0.308813008 C18.6120325,0.240130081 18.2524878,0.183934959 17.8882602,0.141268293 Z" id="Shape"></path>
                                <path d="M10.4829919,1.05964228 C10.1494634,1.18972358 9.81697561,1.33333333 9.49437398,1.48682927 L9.94029268,2.42705691 C10.2410407,2.2844878 10.5511545,2.1502439 10.8617886,2.02900813 L10.4829919,1.05964228 Z" id="Shape"></path>
                                <path d="M12.540878,0.424325203 C12.1917398,0.505495935 11.841561,0.599674797 11.500748,0.705300813 L11.8082602,1.69964228 C12.1251382,1.60130081 12.4508618,1.51336585 12.776065,1.4379187 L12.540878,0.424325203 Z" id="Shape"></path>
                                <path d="M14.6684878,0.0892357724 C14.3110244,0.119934959 13.9509593,0.163121951 13.5986992,0.218796748 L13.7610407,1.24695935 C14.0883252,1.19492683 14.4234146,1.15434146 14.7564228,1.1262439 L14.6684878,0.0892357724 Z" id="Shape"></path>
                            </g>
                        </g>
                    </g>
                </g>
            </g>
        </g>
    </g>
</svg>