<?xml version="1.0" encoding="UTF-8"?>
<svg width="32px" height="32px" viewBox="0 0 32 32" version="1.1" xmlns="http://www.w3.org/2000/svg" xmlns:xlink="http://www.w3.org/1999/xlink">
    <!-- Generator: Sketch 46.1 (44463) - http://www.bohemiancoding.com/sketch -->
    <title>faq</title>
    <desc>Created with Sketch.</desc>
    <defs></defs>
    <g id="Page-1" stroke="none" stroke-width="1" fill="none" fill-rule="evenodd">
        <g id="home0" transform="translate(-908.000000, -48.000000)" fill-rule="nonzero">
            <g id="header" transform="translate(-363.000000, 0.000000)">
                <g id="menu" transform="translate(363.000000, 0.000000)">
                    <g id="Group-2" transform="translate(908.000000, 48.000000)">
                        <g id="faq">
                            <g id="question">
                                <circle id="Oval" fill="#2B3B46" cx="22.73675" cy="15.32625" r="1"></circle>
                                <circle id="Oval" fill="#2B3B46" cx="6.568375" cy="19.368375" r="1.347375"></circle>
                                <circle id="Oval" fill="#2B3B46" cx="10.6104375" cy="19.368375" r="1.347375"></circle>
                                <path d="M29.0843125,2.9053125 C27.221375,1.0450625 24.745875,0.0133125 22.11375,0.000125 C19.4755625,-0.0110625 16.9730625,1.0210625 15.0726875,2.9120625 C14.3270625,3.6540625 13.7134375,4.4894375 13.2424375,5.38975 C13.241625,5.38975 13.2408125,5.389625 13.24,5.389625 L13.2374375,5.389625 C9.713125,5.40725 6.3984375,6.78875 3.9039375,9.279625 C1.40975,11.77025 0.0233125,15.0823125 0.0003125,18.605875 C-0.022875,22.151375 1.348375,25.497125 3.861375,28.0265625 C6.4068125,30.588875 9.7983125,31.9999375 13.411125,31.9999375 L24.659625,31.9999375 C24.9920625,31.9999375 25.28475,31.79975 25.40525,31.489875 C25.5256875,31.18025 25.445375,30.835125 25.2005,30.610625 C24.8336875,30.27425 24.27475,29.7465 23.695,29.14225 C23.157625,28.582 23.1210625,27.7085 23.610125,27.1105 C25.532875,24.75925 26.596625,21.7929375 26.6098125,18.751875 C27.523875,18.2771875 28.3689375,17.658625 29.116125,16.9065625 C30.9929375,15.0174375 32.0170625,12.5185 31.99975,9.870375 C31.9825,7.239 30.9470625,4.765375 29.0843125,2.9053125 Z M28.39925,16.1944375 C26.6895,17.915375 24.411625,18.863125 21.9850625,18.863125 L14.4224375,18.863125 C14.6146875,18.6768125 14.82575,18.466625 15.04075,18.2425 C15.743625,17.5098125 15.7903125,16.36625 15.149375,15.5824375 C14.09575,14.294 13.42675,12.7300625 13.21225,11.0883125 C13.1795,10.8376875 12.964875,10.651 12.712125,10.651 C12.4076875,10.651 12.171,10.9185 12.2105625,11.220375 C12.4495625,13.0475 13.1943125,14.7880625 14.367125,16.222125 C14.684875,16.61075 14.661,17.178625 14.3115625,17.5429375 C13.895625,17.9765 13.4939375,18.3566875 13.22475,18.6038125 C13.001375,18.8089375 12.913375,19.1311875 13.0235625,19.4136875 C13.132625,19.6930625 13.3966875,19.873625 13.696625,19.873625 L21.985,19.873625 C23.2374375,19.873625 24.4541875,19.646125 25.5888125,19.2113125 C25.4766875,21.8579375 24.5064375,24.418125 22.827875,26.470875 C22.0156875,27.464 22.0749375,28.9131875 22.96575,29.841875 C23.382625,30.2764375 23.7885625,30.6721875 24.12425,30.9894375 L13.4110625,30.9894375 C10.0694375,30.9894375 6.9325625,29.68425 4.5781875,27.3144375 C2.25625,24.9773125 0.9893125,21.8869375 1.01075,18.6125625 C1.053625,12.0671875 6.2909375,6.6889375 12.7794375,6.41225 C12.505125,7.1246875 12.31475,7.8684375 12.2130625,8.6314375 C12.1729375,8.9330625 12.4101875,9.2004375 12.7145,9.2004375 L12.7150625,9.2004375 C12.9670625,9.2004375 13.181625,9.0148125 13.2149375,8.7650625 C13.472125,6.8365 14.3620625,5.044625 15.785375,3.6284375 C17.4830625,1.9391875 19.7111875,1.0105625 22.0639375,1.0105625 C22.0788125,1.0105625 22.0936875,1.010625 22.1086875,1.0106875 C26.9735625,1.035 30.9573125,5.0124375 30.989125,9.8770625 C31.0048125,12.2540625 30.085,14.497625 28.39925,16.1944375 Z" id="Shape" fill="#FFFFFF"></path>
                            </g>
                        </g>
                    </g>
                </g>
            </g>
        </g>
    </g>
</svg>