<?xml version="1.0" encoding="UTF-8"?>
<svg width="44px" height="32px" viewBox="0 0 44 32" version="1.1" xmlns="http://www.w3.org/2000/svg" xmlns:xlink="http://www.w3.org/1999/xlink">
    <!-- Generator: Sketch 46.1 (44463) - http://www.bohemiancoding.com/sketch -->
    <title>ine</title>
    <desc>Created with Sketch.</desc>
    <defs></defs>
    <g id="Page-1" stroke="none" stroke-width="1" fill="none" fill-rule="evenodd">
        <g id="home-copy" transform="translate(-645.000000, -565.000000)" fill-rule="nonzero" fill="#2B3B46">
            <g id="header" transform="translate(-363.000000, 0.000000)">
                <g id="form" transform="translate(733.000000, 413.000000)">
                    <g id="INE" transform="translate(257.000000, 128.000000)">
                        <g id="Group">
                            <g id="ine" transform="translate(18.000000, 24.000000)">
                                <path d="M40.5694545,0 L3.06690909,0 C1.376,0 0,1.376 0,3.06690909 L0,3.63636364 L0,10.9090909 L0,28.9330909 C0,30.624 1.376,32 3.06690909,32 L40.5694545,32 C42.2603636,32 43.6363636,30.624 43.6363636,28.9330909 L43.6363636,10.9090909 L43.6363636,3.63636364 L43.6363636,3.06690909 C43.6363636,1.376 42.2603636,0 40.5694545,0 Z M2.18181818,5.81818182 C2.58327273,5.81818182 2.90909091,5.49236364 2.90909091,5.09090909 L5.81818182,5.09090909 C5.81818182,5.49236364 6.144,5.81818182 6.54545455,5.81818182 C6.94690909,5.81818182 7.27272727,5.49236364 7.27272727,5.09090909 L10.1818182,5.09090909 C10.1818182,5.49236364 10.5076364,5.81818182 10.9090909,5.81818182 C11.3105455,5.81818182 11.6363636,5.49236364 11.6363636,5.09090909 L14.5454545,5.09090909 C14.5454545,5.49236364 14.8712727,5.81818182 15.2727273,5.81818182 C15.6741818,5.81818182 16,5.49236364 16,5.09090909 L18.9090909,5.09090909 C18.9090909,5.49236364 19.2349091,5.81818182 19.6363636,5.81818182 C20.0378182,5.81818182 20.3636364,5.49236364 20.3636364,5.09090909 L23.2727273,5.09090909 C23.2727273,5.49236364 23.5985455,5.81818182 24,5.81818182 C24.4014545,5.81818182 24.7272727,5.49236364 24.7272727,5.09090909 L27.6363636,5.09090909 C27.6363636,5.49236364 27.9621818,5.81818182 28.3636364,5.81818182 C28.7650909,5.81818182 29.0909091,5.49236364 29.0909091,5.09090909 L32,5.09090909 C32,5.49236364 32.3258182,5.81818182 32.7272727,5.81818182 C33.1287273,5.81818182 33.4545455,5.49236364 33.4545455,5.09090909 L36.3636364,5.09090909 C36.3636364,5.49236364 36.6894545,5.81818182 37.0909091,5.81818182 C37.4923636,5.81818182 37.8181818,5.49236364 37.8181818,5.09090909 L40.7272727,5.09090909 C40.7272727,5.49236364 41.0530909,5.81818182 41.4545455,5.81818182 C41.856,5.81818182 42.1818182,5.49236364 42.1818182,5.09090909 L42.1818182,9.45454545 C42.1818182,9.05309091 41.856,8.72727273 41.4545455,8.72727273 C41.0530909,8.72727273 40.7272727,9.05309091 40.7272727,9.45454545 L37.8181818,9.45454545 C37.8181818,9.05309091 37.4923636,8.72727273 37.0909091,8.72727273 C36.6894545,8.72727273 36.3636364,9.05309091 36.3636364,9.45454545 L33.4545455,9.45454545 C33.4545455,9.05309091 33.1287273,8.72727273 32.7272727,8.72727273 C32.3258182,8.72727273 32,9.05309091 32,9.45454545 L29.0909091,9.45454545 C29.0909091,9.05309091 28.7650909,8.72727273 28.3636364,8.72727273 C27.9621818,8.72727273 27.6363636,9.05309091 27.6363636,9.45454545 L24.7272727,9.45454545 C24.7272727,9.05309091 24.4014545,8.72727273 24,8.72727273 C23.5985455,8.72727273 23.2727273,9.05309091 23.2727273,9.45454545 L20.3636364,9.45454545 C20.3636364,9.05309091 20.0378182,8.72727273 19.6363636,8.72727273 C19.2349091,8.72727273 18.9090909,9.05309091 18.9090909,9.45454545 L16,9.45454545 C16,9.05309091 15.6741818,8.72727273 15.2727273,8.72727273 C14.8712727,8.72727273 14.5454545,9.05309091 14.5454545,9.45454545 L11.6363636,9.45454545 C11.6363636,9.05309091 11.3105455,8.72727273 10.9090909,8.72727273 C10.5076364,8.72727273 10.1818182,9.05309091 10.1818182,9.45454545 L7.27272727,9.45454545 C7.27272727,9.05309091 6.94690909,8.72727273 6.54545455,8.72727273 C6.144,8.72727273 5.81818182,9.05309091 5.81818182,9.45454545 L2.90909091,9.45454545 C2.90909091,9.05309091 2.58327273,8.72727273 2.18181818,8.72727273 C1.78036364,8.72727273 1.45454545,9.05309091 1.45454545,9.45454545 L1.45454545,5.09090909 C1.45454545,5.49236364 1.78036364,5.81818182 2.18181818,5.81818182 Z M42.1818182,28.9330909 C42.1818182,29.8225455 41.4589091,30.5454545 40.5694545,30.5454545 L3.06690909,30.5454545 C2.17745455,30.5454545 1.45454545,29.8225455 1.45454545,28.9330909 L1.45454545,10.9090909 L42.1818182,10.9090909 L42.1818182,28.9330909 Z M1.45454545,3.63636364 L1.45454545,3.06690909 C1.45454545,2.17745455 2.17745455,1.45454545 3.06690909,1.45454545 L40.5694545,1.45454545 C41.4589091,1.45454545 42.1818182,2.17745455 42.1818182,3.06690909 L42.1818182,3.63636364 L1.45454545,3.63636364 Z" id="Shape"></path>
                                <path d="M36.8356364,28.3636364 L40,28.3636364 L40,12.3636364 L24,12.3636364 L24,28.3636364 L27.1643636,28.3636364 L36.8356364,28.3636364 Z M28.3636364,26.9090909 L28.3636364,26.9054545 C28.3636364,26.5890909 28.536,26.2989091 28.7861818,26.1621818 L30.6610909,25.2385455 C31.0385455,25.0509091 31.2727273,24.6734545 31.2727273,24.2530909 L31.2727273,23.2189091 L30.8334545,23.0290909 C30.1709091,22.744 29.7381818,22.192 29.5105455,21.3410909 L29.4065455,20.9534545 L29.024,20.8341818 C28.9396364,20.808 28.8494545,20.7258182 28.8494545,20.6065455 L28.8494545,20.1214545 C28.8494545,20.0189091 28.9185455,19.9454545 28.9832727,19.9112727 L29.3250909,19.7294545 L29.3658182,19.344 C29.4109091,18.9112727 29.5054545,18.5149091 29.6501818,18.1650909 C29.7127273,18.0116364 29.7658182,17.8974545 29.8094545,17.8043636 C29.9221818,17.5621818 29.9905455,17.3832727 30.0152727,17.1825455 C30.5469091,17.4043636 31.1490909,17.4938182 31.7898182,17.4421818 C31.8589091,17.4363636 31.9294545,17.4334545 32.0014545,17.4334545 C34.1243636,17.4334545 34.5243636,18.4036364 34.6356364,19.352 L34.6807273,19.7316364 L35.0189091,19.9105455 C35.0836364,19.9447273 35.1534545,20.0174545 35.1534545,20.1214545 L35.1534545,20.6065455 C35.1534545,20.7258182 35.0632727,20.808 34.9789091,20.8341818 L34.5963636,20.9534545 L34.4923636,21.3410909 C34.2647273,22.192 33.832,22.7447273 33.1694545,23.0290909 L32.7272727,23.2189091 L32.7272727,24.2574545 C32.7272727,24.672 32.9563636,25.048 33.3265455,25.2370909 L35.1592727,26.1723636 C35.4429091,26.3141818 35.6232727,26.5949091 35.6356364,26.9098182 L28.3636364,26.9098182 L28.3636364,26.9090909 Z M25.4545455,13.8181818 L38.5454545,13.8181818 L38.5454545,26.9090909 L37.0887273,26.9090909 C37.0756364,26.0407273 36.5905455,25.2625455 35.8130909,24.872 L34.2727273,24.0858182 C34.9810909,23.6327273 35.4916364,22.9505455 35.7956364,22.0487273 C36.2938182,21.7461818 36.6065455,21.2065455 36.6065455,20.6058182 L36.6065455,20.1207273 C36.6065455,19.6283636 36.392,19.1694545 36.0298182,18.8516364 C35.7701818,17.4712727 34.8334545,15.9781818 32.0007273,15.9781818 C31.8894545,15.9781818 31.7796364,15.9825455 31.6734545,15.9912727 C31.2916364,16.0210909 30.7381818,15.9912727 30.2647273,15.6727273 C30.0429091,15.5243636 29.9316364,15.4101818 29.8749091,15.3374545 C29.6429091,15.0443636 29.256,14.944 28.912,15.0850909 C28.568,15.2269091 28.3665455,15.5716364 28.4087273,15.9403636 C28.4298182,16.1272727 28.4618182,16.3454545 28.5098182,16.5847273 C28.5709091,16.8909091 28.5752727,16.9781818 28.5723636,17.0014545 C28.5658182,17.0269091 28.5243636,17.1170909 28.4909091,17.1898182 C28.44,17.2989091 28.3774545,17.4334545 28.304,17.6130909 C28.1454545,17.9970909 28.0312727,18.416 27.9614545,18.864 C27.6050909,19.1818182 27.3956364,19.6363636 27.3956364,20.1214545 L27.3956364,20.6065455 C27.3956364,21.2072727 27.7090909,21.7469091 28.2065455,22.0494545 C28.5098182,22.9476364 29.0174545,23.6283636 29.7214545,24.0807273 L28.1178182,24.8712727 C27.3716364,25.2785455 26.9090909,26.0574545 26.9090909,26.9054545 L26.9090909,26.9090909 L25.4545455,26.9090909 L25.4545455,13.8181818 Z" id="Shape"></path>
                                <path d="M4.36363636,15.2727273 L10.9090909,15.2727273 C11.3112727,15.2727273 11.6363636,14.9476364 11.6363636,14.5454545 C11.6363636,14.1432727 11.3112727,13.8181818 10.9090909,13.8181818 L4.36363636,13.8181818 C3.96145455,13.8181818 3.63636364,14.1432727 3.63636364,14.5454545 C3.63636364,14.9476364 3.96145455,15.2727273 4.36363636,15.2727273 Z" id="Shape"></path>
                                <path d="M13.8181818,15.2727273 L20.3636364,15.2727273 C20.7658182,15.2727273 21.0909091,14.9476364 21.0909091,14.5454545 C21.0909091,14.1432727 20.7658182,13.8181818 20.3636364,13.8181818 L13.8181818,13.8181818 C13.416,13.8181818 13.0909091,14.1432727 13.0909091,14.5454545 C13.0909091,14.9476364 13.416,15.2727273 13.8181818,15.2727273 Z" id="Shape"></path>
                                <path d="M4.36363636,18.9090909 L5.09090909,18.9090909 C5.49309091,18.9090909 5.81818182,18.584 5.81818182,18.1818182 C5.81818182,17.7796364 5.49309091,17.4545455 5.09090909,17.4545455 L4.36363636,17.4545455 C3.96145455,17.4545455 3.63636364,17.7796364 3.63636364,18.1818182 C3.63636364,18.584 3.96145455,18.9090909 4.36363636,18.9090909 Z" id="Shape"></path>
                                <path d="M9.45454545,18.9090909 C9.85672727,18.9090909 10.1818182,18.584 10.1818182,18.1818182 C10.1818182,17.7796364 9.85672727,17.4545455 9.45454545,17.4545455 L8,17.4545455 C7.59781818,17.4545455 7.27272727,17.7796364 7.27272727,18.1818182 C7.27272727,18.584 7.59781818,18.9090909 8,18.9090909 L9.45454545,18.9090909 Z" id="Shape"></path>
                                <path d="M12.3636364,18.9090909 L13.0909091,18.9090909 C13.4930909,18.9090909 13.8181818,18.584 13.8181818,18.1818182 C13.8181818,17.7796364 13.4930909,17.4545455 13.0909091,17.4545455 L12.3636364,17.4545455 C11.9614545,17.4545455 11.6363636,17.7796364 11.6363636,18.1818182 C11.6363636,18.584 11.9614545,18.9090909 12.3636364,18.9090909 Z" id="Shape"></path>
                                <path d="M17.4545455,18.9090909 C17.8567273,18.9090909 18.1818182,18.584 18.1818182,18.1818182 C18.1818182,17.7796364 17.8567273,17.4545455 17.4545455,17.4545455 L16,17.4545455 C15.5978182,17.4545455 15.2727273,17.7796364 15.2727273,18.1818182 C15.2727273,18.584 15.5978182,18.9090909 16,18.9090909 L17.4545455,18.9090909 Z" id="Shape"></path>
                                <path d="M19.8472727,17.6654545 C19.7156364,17.8029091 19.6363636,17.9847273 19.6363636,18.1818182 C19.6363636,18.3781818 19.7156364,18.56 19.8472727,18.6981818 C19.9847273,18.8290909 20.1745455,18.9090909 20.3636364,18.9090909 C20.5527273,18.9090909 20.7418182,18.8290909 20.88,18.6981818 C21.0109091,18.56 21.0909091,18.3709091 21.0909091,18.1818182 C21.0909091,17.9927273 21.0109091,17.8029091 20.88,17.6654545 C20.6109091,17.3963636 20.1163636,17.3963636 19.8472727,17.6654545 Z" id="Shape"></path>
                                <path d="M8.47345455,21.3818182 C6.88072727,22.2109091 6.344,23.7970909 6.14909091,25.4414545 C5.848,25.1890909 5.54690909,24.9374545 5.24654545,24.6850909 C4.53381818,24.088 3.49963636,25.1112727 4.21818182,25.7134545 C4.89818182,26.2829091 5.57890909,26.8530909 6.25890909,27.4232727 C6.73745455,27.8247273 7.47854545,27.5709091 7.50036364,26.9090909 C7.55345455,25.3338182 7.62763636,23.4603636 9.208,22.6378182 C10.0385455,22.2058182 9.304,20.9498182 8.47345455,21.3818182 Z" id="Shape"></path>
                                <path d="M18.1134545,23.5432727 C17.0530909,23.4763636 15.5010909,25.1105455 14.6836364,23.6545455 C14.4945455,23.3170909 14.0196364,23.1905455 13.6887273,23.3934545 C12.6589091,24.0254545 11.3127273,24.9345455 10.2298182,23.7570909 C9.59490909,23.0669091 8.568,24.0974545 9.20145455,24.7854545 C10.5614545,26.264 12.3112727,25.8138182 13.8552727,24.9767273 C14.2029091,25.3658182 14.6341818,25.6501818 15.1912727,25.7629091 C15.768,25.8792727 18.1185455,24.9330909 18.2458182,25.1076364 C18.7927273,25.856 20.0552727,25.1309091 19.5018182,24.3730909 C19.1258182,23.8596364 18.7789091,23.5847273 18.1134545,23.5432727 Z" id="Shape"></path>
                                <circle id="Oval" cx="30.5454545" cy="7.27272727" r="1"></circle>
                                <circle id="Oval" cx="34.9090909" cy="7.27272727" r="1"></circle>
                                <circle id="Oval" cx="17.4545455" cy="7.27272727" r="1"></circle>
                                <circle id="Oval" cx="21.8181818" cy="7.27272727" r="1"></circle>
                                <circle id="Oval" cx="26.1818182" cy="7.27272727" r="1"></circle>
                                <circle id="Oval" cx="39.2727273" cy="7.27272727" r="1"></circle>
                                <circle id="Oval" cx="13.0909091" cy="7.27272727" r="1"></circle>
                                <circle id="Oval" cx="4.36363636" cy="7.27272727" r="1"></circle>
                                <circle id="Oval" cx="8.72727273" cy="7.27272727" r="1"></circle>
                            </g>
                        </g>
                    </g>
                </g>
            </g>
        </g>
    </g>
</svg>