<?xml version="1.0" encoding="UTF-8"?>
<svg width="56px" height="56px" viewBox="0 0 56 56" version="1.1" xmlns="http://www.w3.org/2000/svg" xmlns:xlink="http://www.w3.org/1999/xlink">
    <!-- Generator: Sketch 46.1 (44463) - http://www.bohemiancoding.com/sketch -->
    <title>mail</title>
    <desc>Created with Sketch.</desc>
    <defs></defs>
    <g id="Page-1" stroke="none" stroke-width="1" fill="none" fill-rule="evenodd">
        <g id="home0" transform="translate(-963.000000, -2244.000000)" fill-rule="nonzero" fill="#0865CA">
            <g id="section-steps" transform="translate(77.000000, 1976.000000)">
                <g id="Group-7" transform="translate(810.000000, 268.000000)">
                    <g id="mail" transform="translate(76.000000, 0.000000)">
                        <path d="M44.8,24.2666667 L13.0666667,24.2666667 C10.4934667,24.2666667 8.4,26.3601333 8.4,28.9333333 L8.4,44.8 C8.4,47.3732 10.4934667,49.4666667 13.0666667,49.4666667 L23.3333333,49.4666667 L23.3333333,56 L25.2,56 L25.2,49.4666667 L39.2,49.4666667 C39.7152,49.4666667 40.1333333,49.0494667 40.1333333,48.5333333 L40.1333333,43.8666667 C40.1333333,42.1306667 41.3252,40.6662667 42.9333333,40.2518667 L42.9333333,48.5333333 L42.9333333,56 L44.8,56 L44.8,49.4666667 C47.3732,49.4666667 49.4666667,47.3732 49.4666667,44.8 L49.4666667,28.9333333 C49.4666667,26.3601333 47.3732,24.2666667 44.8,24.2666667 Z M13.0666667,26.1333333 L44.8,26.1333333 C46.1477333,26.1333333 47.2742667,27.09 47.5402667,28.3602667 L28.0196,37.2334667 L10.3226667,28.3845333 C10.5784,27.1021333 11.7105333,26.1333333 13.0666667,26.1333333 Z M47.6,44.8 C47.6,46.3437333 46.3437333,47.6 44.8,47.6 L44.8,39.2 C44.8,38.6838667 44.3818667,38.2666667 43.8666667,38.2666667 C40.7782667,38.2666667 38.2666667,40.7782667 38.2666667,43.8666667 L38.2666667,47.6 L13.0666667,47.6 C11.5229333,47.6 10.2666667,46.3437333 10.2666667,44.8 L10.2666667,30.4434667 L27.5828,39.1010667 C27.7134667,39.1673333 27.8572,39.2 28,39.2 C28.1316,39.2 28.2632,39.172 28.3864,39.116 L47.6,30.3828 L47.6,44.8 Z" id="Shape"></path>
                        <path d="M49,3.73333333 L7,3.73333333 C5.19866667,3.73333333 3.73333333,5.19866667 3.73333333,7 C3.73333333,8.80133333 5.19866667,10.2666667 7,10.2666667 L49,10.2666667 C50.8013333,10.2666667 52.2666667,8.80133333 52.2666667,7 C52.2666667,5.19866667 50.8013333,3.73333333 49,3.73333333 Z M49,8.4 L7,8.4 C6.22813333,8.4 5.6,7.77186667 5.6,7 C5.6,6.22813333 6.22813333,5.6 7,5.6 L49,5.6 C49.7718667,5.6 50.4,6.22813333 50.4,7 C50.4,7.77186667 49.7718667,8.4 49,8.4 Z" id="Shape"></path>
                        <path d="M54.1333333,0 L54.1333333,20.5333333 L10.2666667,20.5333333 L10.2666667,22.4 L55.0666667,22.4 C55.5818667,22.4 56,21.9828 56,21.4666667 L56,0 L54.1333333,0 Z" id="Shape"></path>
                        <path d="M1.86666667,20.5333333 L1.86666667,0 L0,0 L0,21.4666667 C0,21.9828 0.418133333,22.4 0.933333333,22.4 L4.66666667,22.4 L4.66666667,20.5333333 L1.86666667,20.5333333 Z" id="Shape"></path>
                        <rect id="Rectangle-path" x="50.4" y="12.1333333" width="1.86666667" height="1.86666667"></rect>
                        <rect id="Rectangle-path" x="46.6666667" y="12.1333333" width="1.86666667" height="1.86666667"></rect>
                        <rect id="Rectangle-path" x="42.9333333" y="12.1333333" width="1.86666667" height="1.86666667"></rect>
                        <path d="M8.12653333,12.4068 C7.7616,12.0418667 7.17173333,12.0418667 6.8068,12.4068 L4.0068,15.2068 L5.32653333,16.5265333 L6.53333333,15.3197333 L6.53333333,24.2666667 L8.4,24.2666667 L8.4,15.3197333 L9.6068,16.5265333 L10.9265333,15.2068 L8.12653333,12.4068 Z" id="Shape"></path>
                    </g>
                </g>
            </g>
        </g>
    </g>
</svg>