<?xml version="1.0" encoding="UTF-8"?>
<svg width="119px" height="200px" viewBox="0 0 119 200" version="1.1" xmlns="http://www.w3.org/2000/svg" xmlns:xlink="http://www.w3.org/1999/xlink">
    <!-- Generator: Sketch 46.1 (44463) - http://www.bohemiancoding.com/sketch -->
    <title>mobile-app</title>
    <desc>Created with Sketch.</desc>
    <defs></defs>
    <g id="Page-1" stroke="none" stroke-width="1" fill="none" fill-rule="evenodd">
        <g id="home-copy-2" transform="translate(-361.000000, -514.000000)" fill-rule="nonzero" fill="#2B3B46">
            <g id="Pasaporte" transform="translate(256.000000, 450.000000)">
                <g id="Group">
                    <g id="mobile-app" transform="translate(105.000000, 64.000000)">
                        <path d="M103.058594,0 L15.6910156,0 C7.065625,0 0.0484375,7.0171875 0.0484375,15.6425781 L0.0484375,45.7558594 C0.0484375,47.3960937 1.37773438,48.725 3.01757813,48.725 C4.65742187,48.725 5.98671875,47.3960937 5.98671875,45.7558594 L5.98671875,36.1300781 L112.762891,36.1300781 L112.762891,162.578516 L5.98671875,162.578516 L5.98671875,65.3722656 C5.98671875,63.7320312 4.65742187,62.403125 3.01757812,62.403125 C1.37773438,62.403125 0.0484375,63.7320312 0.0484375,65.3722656 L0.0484375,184.357031 C0.0484375,192.982422 7.065625,199.999609 15.6910156,199.999609 L103.058984,199.999609 C111.684375,199.999609 118.701562,192.982422 118.701562,184.357031 L118.701562,15.6425781 C118.701562,7.0171875 111.683984,0 103.058594,0 Z M112.762891,184.357422 C112.762891,189.708203 108.409766,194.061719 103.058594,194.061719 L15.6910156,194.061719 C10.3402344,194.061719 5.98671875,189.708594 5.98671875,184.357422 L5.98671875,168.516797 L112.762891,168.516797 L112.762891,184.357422 Z M112.763281,30.1917969 L5.98671875,30.1917969 L5.98671875,15.6425781 C5.98671875,10.2917969 10.3398437,5.93828125 15.6910156,5.93828125 L103.058984,5.93828125 C108.409766,5.93828125 112.763281,10.2914062 112.763281,15.6425781 L112.763281,30.1917969 L112.763281,30.1917969 Z" id="Shape"></path>
                        <path d="M90.1109375,58.975 L31.0941406,58.975 C29.4542969,58.975 28.125,60.3039062 28.125,61.9441406 L28.125,122.534375 C28.125,124.174609 29.4542969,125.503516 31.0941406,125.503516 L90.1105469,125.503516 C91.7503906,125.503516 93.0796875,124.174609 93.0796875,122.534375 L93.0796875,61.9441406 C93.0800781,60.3039062 91.7507813,58.975 90.1109375,58.975 Z M87.1414063,119.565234 L34.0632813,119.565234 L34.0632813,64.9136719 L87.1414063,64.9136719 L87.1414063,119.565234 Z" id="Shape"></path>
                        <path d="M65.0433594,172.990625 L53.7058594,172.990625 C52.0660156,172.990625 50.7367188,174.319531 50.7367188,175.959766 L50.7367188,186.953516 C50.7367188,188.59375 52.0660156,189.922656 53.7058594,189.922656 L65.0433594,189.922656 C66.6832031,189.922656 68.0125,188.59375 68.0125,186.953516 L68.0125,175.959766 C68.0125,174.319531 66.6832031,172.990625 65.0433594,172.990625 Z M62.0742188,183.984375 L56.6753906,183.984375 L56.6753906,178.929297 L62.0742188,178.929297 L62.0742188,183.984375 Z" id="Shape"></path>
                        <path d="M75.0960937,14.7390625 L46.109375,14.7390625 C44.4695312,14.7390625 43.1402344,16.0679687 43.1402344,17.7082031 C43.1402344,19.3484375 44.4695312,20.6773437 46.109375,20.6773437 L75.0960937,20.6773437 C76.7359375,20.6773437 78.0652344,19.3484375 78.0652344,17.7082031 C78.0652344,16.0679687 76.7355469,14.7390625 75.0960937,14.7390625 Z" id="Shape"></path>
                        <path d="M74.5363281,106.226953 L64.8105469,74.5285156 C64.3574219,73.0164062 62.4921875,72.3109375 60.5777344,72.3109375 C58.7128906,72.3109375 56.8484375,73.0164063 56.3949219,74.5285156 L46.6683594,106.226953 C46.6179687,106.428516 46.5675781,106.630469 46.5675781,106.730469 C46.5675781,108.343359 48.9363281,109.451953 50.7,109.451953 C51.8085937,109.451953 52.6652344,109.099219 52.9171875,108.141797 L54.8320312,101.438672 L66.3726562,101.438672 L68.2875,108.141797 C68.5398437,109.099219 69.3964844,109.451953 70.5050781,109.451953 C72.26875,109.451953 74.6375,108.292578 74.6375,106.730469 C74.6371094,106.579297 74.5867188,106.428516 74.5363281,106.226953 Z M56.1929688,96.2992187 L60.5773438,80.828125 L64.9617188,96.2992187 L56.1929688,96.2992187 Z" id="Shape"></path>
                    </g>
                </g>
            </g>
        </g>
    </g>
</svg>