<?xml version="1.0" encoding="UTF-8"?>
<svg width="56px" height="56px" viewBox="0 0 56 56" version="1.1" xmlns="http://www.w3.org/2000/svg" xmlns:xlink="http://www.w3.org/1999/xlink">
    <!-- Generator: Sketch 46.1 (44463) - http://www.bohemiancoding.com/sketch -->
    <title>money (1)</title>
    <desc>Created with Sketch.</desc>
    <defs></defs>
    <g id="Page-1" stroke="none" stroke-width="1" fill="none" fill-rule="evenodd">
        <g id="home0" transform="translate(-1235.000000, -2245.000000)" fill-rule="nonzero" fill="#0865CA">
            <g id="section-steps" transform="translate(77.000000, 1976.000000)">
                <g id="Group-6" transform="translate(1080.000000, 269.000000)">
                    <g id="money-(1)" transform="translate(78.000000, 0.000000)">
                        <path d="M33.6,29.8932667 L31.7333333,29.8932667 C30.7038667,29.8932667 29.8666667,29.0560667 29.8666667,28.0266 C29.8666667,26.9971333 30.7038667,26.1599333 31.7333333,26.1599333 L33.6,26.1599333 C34.6294667,26.1599333 35.4666667,26.9971333 35.4666667,28.0266 L37.3333333,28.0266 C37.3333333,25.9676667 35.6589333,24.2932667 33.6,24.2932667 L33.6,23.3599333 L31.7333333,23.3599333 L31.7333333,24.2932667 C29.6744,24.2932667 28,25.9676667 28,28.0266 C28,30.0855333 29.6744,31.7599333 31.7333333,31.7599333 L33.6,31.7599333 C34.6294667,31.7599333 35.4666667,32.5971333 35.4666667,33.6266 C35.4666667,34.6560667 34.6294667,35.4932667 33.6,35.4932667 L31.7333333,35.4932667 C30.7038667,35.4932667 29.8666667,34.6560667 29.8666667,33.6266 L28,33.6266 C28,35.6855333 29.6744,37.3599333 31.7333333,37.3599333 L31.7333333,38.2932667 L33.6,38.2932667 L33.6,37.3599333 C35.6589333,37.3599333 37.3333333,35.6855333 37.3333333,33.6266 C37.3333333,31.5676667 35.6589333,29.8932667 33.6,29.8932667 Z" id="Shape"></path>
                        <rect id="Rectangle-path" x="40.1333333" y="48.5599333" width="1.86666667" height="1.86666667"></rect>
                        <rect id="Rectangle-path" x="43.8666667" y="48.5599333" width="1.86666667" height="1.86666667"></rect>
                        <rect id="Rectangle-path" x="47.6" y="48.5599333" width="1.86666667" height="1.86666667"></rect>
                        <rect id="Rectangle-path" x="51.3333333" y="48.5599333" width="1.86666667" height="1.86666667"></rect>
                        <rect id="Rectangle-path" x="51.3333333" y="44.8266" width="1.86666667" height="1.86666667"></rect>
                        <rect id="Rectangle-path" x="51.3333333" y="41.0932667" width="1.86666667" height="1.86666667"></rect>
                        <rect id="Rectangle-path" x="51.3333333" y="37.3599333" width="1.86666667" height="1.86666667"></rect>
                        <rect id="Rectangle-path" x="51.3333333" y="33.6266" width="1.86666667" height="1.86666667"></rect>
                        <rect id="Rectangle-path" x="51.3333333" y="29.8932667" width="1.86666667" height="1.86666667"></rect>
                        <rect id="Rectangle-path" x="51.3333333" y="26.1599333" width="1.86666667" height="1.86666667"></rect>
                        <rect id="Rectangle-path" x="51.3333333" y="22.4266" width="1.86666667" height="1.86666667"></rect>
                        <rect id="Rectangle-path" x="3.73333333" y="31.7599333" width="1.86666667" height="1.86666667"></rect>
                        <rect id="Rectangle-path" x="3.73333333" y="28.0266" width="1.86666667" height="1.86666667"></rect>
                        <rect id="Rectangle-path" x="3.73333333" y="24.2932667" width="1.86666667" height="1.86666667"></rect>
                        <rect id="Rectangle-path" x="3.73333333" y="20.5599333" width="1.86666667" height="1.86666667"></rect>
                        <rect id="Rectangle-path" x="3.73333333" y="16.8266" width="1.86666667" height="1.86666667"></rect>
                        <rect id="Rectangle-path" x="3.73333333" y="13.0932667" width="1.86666667" height="1.86666667"></rect>
                        <rect id="Rectangle-path" x="3.73333333" y="9.35993333" width="1.86666667" height="1.86666667"></rect>
                        <rect id="Rectangle-path" x="3.73333333" y="5.6266" width="1.86666667" height="1.86666667"></rect>
                        <rect id="Rectangle-path" x="7.46666667" y="5.6266" width="1.86666667" height="1.86666667"></rect>
                        <rect id="Rectangle-path" x="11.2" y="5.6266" width="1.86666667" height="1.86666667"></rect>
                        <rect id="Rectangle-path" x="14.9333333" y="5.6266" width="1.86666667" height="1.86666667"></rect>
                        <rect id="Rectangle-path" x="18.6666667" y="5.6266" width="1.86666667" height="1.86666667"></rect>
                        <rect id="Rectangle-path" x="4.66666667" y="46.6932667" width="1.86666667" height="1.86666667"></rect>
                        <path d="M55.0666667,5.6266 L48.5333333,5.6266 L44.8,5.6266 L42.9333333,5.6266 L42.9333333,4.69326667 C42.9333333,2.12006667 40.8398667,0.0266 38.2666667,0.0266 L26.1333333,0.0266 C25.6172,0.0266 25.2,0.4438 25.2,0.959933333 C25.2,1.96513333 25.4734667,2.92086667 25.9653333,3.75993333 L25.2,3.75993333 C23.6562667,3.75993333 22.4,5.0162 22.4,6.55993333 C22.4,7.27953333 22.6809333,7.93006667 23.128,8.4266 C22.68,8.92313333 22.4,9.57366667 22.4,10.2932667 C22.4,11.0128667 22.6809333,11.6634 23.128,12.1599333 C22.68,12.6564667 22.4,13.307 22.4,14.0266 C22.4,14.7462 22.6809333,15.3967333 23.128,15.8932667 C22.68,16.3898 22.4,17.0403333 22.4,17.7599333 C22.4,19.3036667 23.6562667,20.5599333 25.2,20.5599333 L26.8016,20.5599333 L17.0482667,31.1262 C16.8886667,31.2998 16.8,31.5256667 16.8,31.7599333 L16.8,35.4932667 L9.33333333,35.4932667 L0.933333333,35.4932667 C0.4172,35.4932667 0,35.9104667 0,36.4266 L0,51.3599333 C0,51.8760667 0.4172,52.2932667 0.933333333,52.2932667 L9.33333333,52.2932667 C9.84946667,52.2932667 10.2666667,51.8760667 10.2666667,51.3599333 L10.2666667,50.4266 L12.8464,50.4266 L22.8246667,55.4162 C23.2558667,55.6318 23.7234667,55.7400667 24.1892,55.7400667 C24.7202667,55.7400667 25.2504,55.601 25.7254667,55.3238 L46.0870667,43.4452667 C47.0204,42.9011333 47.6,41.8922 47.6,40.8114 C47.6,40.2206 47.4152,39.6606 47.1044,39.1752667 L48.2598667,38.0198 C48.4353333,37.8452667 48.5333333,37.6082 48.5333333,37.3599333 L48.5333333,31.7599333 C48.5333333,31.5256667 48.4446667,31.2998 48.2850667,31.1262 L38.5317333,20.5599333 L44.8,20.5599333 L48.5333333,20.5599333 L55.0666667,20.5599333 C55.5828,20.5599333 56,20.1427333 56,19.6266 L56,6.55993333 C56,6.0438 55.5828,5.6266 55.0666667,5.6266 Z M8.4,50.4266 L1.86666667,50.4266 L1.86666667,37.3599333 L8.4,37.3599333 L8.4,50.4266 Z M25.2,5.6266 L28.0252,5.6266 L30.8,5.6266 C30.912,5.6266 31.0165333,5.6546 31.1164,5.691 C31.1462667,5.7022 31.1752,5.7134 31.2032,5.7274 C31.2750667,5.76286667 31.3394667,5.8086 31.4001333,5.85993333 C31.4458667,5.90006667 31.4850667,5.94486667 31.5233333,5.99433333 C31.6474667,6.153 31.7333333,6.3434 31.7333333,6.55993333 C31.7333333,7.07513333 31.3152,7.49326667 30.8,7.49326667 L25.2,7.49326667 C24.6848,7.49326667 24.2666667,7.07513333 24.2666667,6.55993333 C24.2666667,6.04473333 24.6848,5.6266 25.2,5.6266 Z M25.2,9.35993333 L30.8,9.35993333 C31.3152,9.35993333 31.7333333,9.77806667 31.7333333,10.2932667 C31.7333333,10.8084667 31.3152,11.2266 30.8,11.2266 L25.2,11.2266 C24.6848,11.2266 24.2666667,10.8084667 24.2666667,10.2932667 C24.2666667,9.77806667 24.6848,9.35993333 25.2,9.35993333 Z M25.2,13.0932667 L30.8,13.0932667 C31.3152,13.0932667 31.7333333,13.5114 31.7333333,14.0266 C31.7333333,14.5418 31.3152,14.9599333 30.8,14.9599333 L25.2,14.9599333 C24.6848,14.9599333 24.2666667,14.5418 24.2666667,14.0266 C24.2666667,13.5114 24.6848,13.0932667 25.2,13.0932667 Z M25.2,18.6932667 C24.6848,18.6932667 24.2666667,18.2751333 24.2666667,17.7599333 C24.2666667,17.2447333 24.6848,16.8266 25.2,16.8266 L30.8,16.8266 C31.3152,16.8266 31.7333333,17.2447333 31.7333333,17.7599333 C31.7333333,18.2751333 31.3152,18.6932667 30.8,18.6932667 L25.2,18.6932667 Z M45.1462667,41.8324667 L24.7856,53.711 C24.4402667,53.9126 24.0193333,53.9266 23.66,53.7464667 L13.4848,48.6588667 C13.3550667,48.5935333 13.2113333,48.5599333 13.0666667,48.5599333 L10.2666667,48.5599333 L10.2666667,37.3599333 L19.2136,37.3599333 L26.5673333,44.7136667 C26.8846667,45.031 27.0666667,45.4706 27.0666667,45.9204667 C27.0666667,46.8612667 26.3013333,47.6266 25.3605333,47.6266 C24.9116,47.6266 24.4710667,47.4446 24.1537333,47.1272667 L19.3265333,42.3000667 L18.0068,43.6198 L22.834,48.447 C23.5088,49.1218 24.4057333,49.4932667 25.3605333,49.4932667 C27.3298667,49.4932667 28.9333333,47.8898 28.9333333,45.9204667 C28.9333333,44.9666 28.5618667,44.0687333 27.8870667,43.3939333 L27.1310667,42.6379333 L44.3454667,39.6438 C44.6917333,39.5831333 45.0426667,39.6783333 45.3105333,39.9042 C45.5793333,40.1300667 45.7333333,40.4604667 45.7333333,40.8104667 C45.7333333,41.2295333 45.5084,41.6215333 45.1462667,41.8324667 Z M46.6666667,32.1248667 L46.6666667,36.9735333 L45.654,37.9862 C45.1406667,37.7855333 44.5825333,37.709 44.0262667,37.8051333 L25.5173333,41.0242 L20.2598667,35.7667333 C20.0853333,35.5912667 19.8482667,35.4932667 19.6,35.4932667 L18.6666667,35.4932667 L18.6666667,32.1248667 L29.3421333,20.5599333 L30.8,20.5599333 C32.3437333,20.5599333 33.6,19.3036667 33.6,17.7599333 C33.6,17.0403333 33.3190667,16.3898 32.872,15.8932667 C33.32,15.3967333 33.6,14.7462 33.6,14.0266 C33.6,13.307 33.3190667,12.6564667 32.872,12.1599333 C33.32,11.6634 33.6,11.0128667 33.6,10.2932667 C33.6,9.57366667 33.3190667,8.92313333 32.872,8.4266 C32.9718667,8.31553333 33.0670667,8.20073333 33.1492,8.0738 C33.628,9.2526 34.4381333,10.2596667 35.4676,10.9792667 L35.4676,19.6266 C35.4676,19.8608667 35.5562667,20.0867333 35.7158667,20.2603333 L46.6666667,32.1248667 Z M43.8666667,18.6932667 L37.3333333,18.6932667 L37.3333333,11.8846 C37.9250667,12.0619333 38.5513333,12.1599333 39.2,12.1599333 L39.2,10.2932667 C36.6268,10.2932667 34.5333333,8.1998 34.5333333,5.6266 C34.5333333,5.11046667 34.1161333,4.69326667 33.6,4.69326667 L32.8776,4.69326667 C32.8710667,4.6858 32.8626667,4.68113333 32.8561333,4.67366667 C32.7422667,4.54953333 32.6172,4.43753333 32.4828,4.3358 C32.4650667,4.3218 32.4492,4.30593333 32.4305333,4.29286667 C32.2858667,4.18833333 32.1318667,4.09873333 31.9685333,4.02313333 C31.9573333,4.01753333 31.9470667,4.01006667 31.9358667,4.0054 C31.7706667,3.93166667 31.598,3.87473333 31.4178667,3.83366667 C31.4066667,3.83086667 31.3964,3.8262 31.3852,3.8234 C31.1948,3.78326667 31.0006667,3.75993333 30.8,3.75993333 L28.3537333,3.75993333 C27.7750667,3.2578 27.3728,2.611 27.1861333,1.89326667 L38.2666667,1.89326667 C39.8104,1.89326667 41.0666667,3.14953333 41.0666667,4.69326667 L41.0666667,6.55993333 C41.0666667,7.07606667 41.4838667,7.49326667 42,7.49326667 L43.8666667,7.49326667 L43.8666667,18.6932667 Z M47.6,18.6932667 L45.7333333,18.6932667 L45.7333333,7.49326667 L47.6,7.49326667 L47.6,18.6932667 Z M54.1333333,18.6932667 L49.4666667,18.6932667 L49.4666667,7.49326667 L54.1333333,7.49326667 L54.1333333,18.6932667 Z" id="Shape"></path>
                    </g>
                </g>
            </g>
        </g>
    </g>
</svg>