<?xml version="1.0" encoding="UTF-8"?>
<svg width="32px" height="32px" viewBox="0 0 32 32" version="1.1" xmlns="http://www.w3.org/2000/svg" xmlns:xlink="http://www.w3.org/1999/xlink">
    <!-- Generator: Sketch 46.1 (44463) - http://www.bohemiancoding.com/sketch -->
    <title>money</title>
    <desc>Created with Sketch.</desc>
    <defs></defs>
    <g id="Page-1" stroke="none" stroke-width="1" fill="none" fill-rule="evenodd">
        <g id="home0" transform="translate(-429.000000, -48.000000)" fill-rule="nonzero" fill="#FFFFFF">
            <g id="header" transform="translate(-363.000000, 0.000000)">
                <g id="menu" transform="translate(363.000000, 0.000000)">
                    <g id="Group-5" transform="translate(429.000000, 48.000000)">
                        <g id="money">
                            <path d="M30.3992,12.8 C29.5293333,12.8 28.8189333,13.4981333 28.7997333,14.3637333 L28.2925333,18.4192 L25.3784,21.3333333 L23.5378667,21.3333333 L24.9570667,19.6309333 C25.4024,19.0965333 25.5186667,18.3626667 25.26,17.7162667 C25.0232,17.1237333 24.5085333,16.6938667 23.8829333,16.5653333 C23.2584,16.4378667 22.6152,16.6298667 22.164,17.0810667 L16.6888,22.5562667 C16.5885333,22.656 16.5325333,22.792 16.5325333,22.9333333 L16.5325333,29.3333333 L16.5325333,31.4666667 C16.5325333,31.7610667 16.7714667,32 17.0658667,32 L25.5992,32 C25.8936,32 26.1325333,31.7610667 26.1325333,31.4666667 L26.1325333,29.3333333 C26.1325333,29.0389333 25.8936,28.8 25.5992,28.8 L25.0658667,28.8 L25.0658667,27.4208 L31.3096,21.1770667 C31.3986667,21.088 31.4536,20.9701333 31.4642667,20.8442667 L31.9992,14.4 C31.9992,13.5178667 31.2813333,12.8 30.3992,12.8 Z M25.0658667,30.9333333 L17.5992,30.9333333 L17.5992,29.8666667 L25.0658667,29.8666667 L25.0658667,30.9333333 Z M30.4173333,20.5610667 L24.1554667,26.8229333 C24.0552,26.9226667 23.9992,27.0586667 23.9992,27.2 L23.9992,28.8 L17.5992,28.8 L17.5992,23.1541333 L22.9186667,17.8346667 C23.1186667,17.6346667 23.3928,17.5525333 23.6690667,17.6096 C23.9458667,17.6661333 24.1650667,17.8496 24.2696,18.1114667 C24.3826667,18.3936 24.332,18.7141333 24.1373333,18.9472 L21.9896,21.5248 C21.8568,21.6837333 21.8285333,21.9050667 21.916,22.0922667 C22.004,22.28 22.1922667,22.4 22.3992,22.4 L25.5992,22.4 C25.7405333,22.4 25.8765333,22.344 25.9762667,22.2437333 L29.1762667,19.0437333 C29.26,18.96 29.3138667,18.8506667 29.3282667,18.7328 L29.8616,14.4661333 C29.8648,14.4442667 29.8658667,14.4224 29.8658667,14.4 C29.8658667,14.1061333 30.1053333,13.8666667 30.3992,13.8666667 C30.6930667,13.8666667 30.9325333,14.1061333 30.9341333,14.3557333 L30.4173333,20.5610667 Z" id="Shape"></path>
                            <path d="M15.3096,22.5562667 L9.83386667,17.0805333 C9.38266667,16.6288 8.74053333,16.4368 8.11493333,16.5648 C7.48986667,16.6933333 6.9752,17.1232 6.73786667,17.7162667 C6.47973333,18.3626667 6.59546667,19.096 7.04133333,19.6309333 L8.46053333,21.3333333 L6.62,21.3333333 L3.70586667,18.4192 L3.19866667,14.3637333 C3.17946667,13.4981333 2.46906667,12.8 1.5992,12.8 C0.717066667,12.8 -0.0008,13.5178667 0.0008,14.4442667 L0.534133333,20.8442667 C0.5448,20.9701333 0.5992,21.088 0.6888,21.1770667 L6.93253333,27.4208 L6.93253333,28.8 L6.3992,28.8 C6.1048,28.8 5.86586667,29.0389333 5.86586667,29.3333333 L5.86586667,31.4666667 C5.86586667,31.7610667 6.1048,32 6.3992,32 L14.9325333,32 C15.2269333,32 15.4658667,31.7610667 15.4658667,31.4666667 L15.4658667,29.3333333 L15.4658667,22.9333333 C15.4658667,22.792 15.4098667,22.656 15.3096,22.5562667 Z M14.3992,30.9333333 L6.93253333,30.9333333 L6.93253333,29.8666667 L14.3992,29.8666667 L14.3992,30.9333333 Z M14.3992,28.8 L7.9992,28.8 L7.9992,27.2 C7.9992,27.0586667 7.9432,26.9226667 7.84293333,26.8229333 L1.58106667,20.5610667 L1.06586667,14.4 C1.06586667,14.1061333 1.30533333,13.8666667 1.5992,13.8666667 C1.89306667,13.8666667 2.13253333,14.1061333 2.13253333,14.4 C2.13253333,14.4224 2.1336,14.4442667 2.1368,14.4661333 L2.67013333,18.7328 C2.68453333,18.8506667 2.7384,18.96 2.82213333,19.0437333 L6.02213333,22.2437333 C6.12186667,22.344 6.25786667,22.4 6.3992,22.4 L9.5992,22.4 C9.80613333,22.4 9.9944,22.28 10.0824,22.0928 C10.1704,21.9050667 10.1416,21.6837333 10.0088,21.5253333 L7.86106667,18.9477333 C7.6664,18.7141333 7.61573333,18.3941333 7.72826667,18.112 C7.83333333,17.8496 8.05253333,17.6666667 8.32933333,17.6096 C8.60506667,17.552 8.87973333,17.6346667 9.07973333,17.8346667 L14.3992,23.1541333 L14.3992,28.8 Z" id="Shape"></path>
                            <path d="M15.4994667,6.2128 C15.5757333,6.0112 15.7709333,5.86666667 15.9992,5.86666667 C16.2930667,5.86666667 16.5325333,6.10613333 16.5325333,6.4 L17.5992,6.4 C17.5992,5.7056 17.1517333,5.11893333 16.5325333,4.89813333 L16.5325333,3.73333333 L15.4658667,3.73333333 L15.4658667,4.89813333 C14.8466667,5.11893333 14.3992,5.7056 14.3992,6.4 C14.3992,6.54133333 14.4552,6.67733333 14.5554667,6.77706667 L16.4989333,8.72053333 C16.4226667,8.92213333 16.2274667,9.06666667 15.9992,9.06666667 C15.7053333,9.06666667 15.4658667,8.8272 15.4658667,8.53333333 L14.3992,8.53333333 C14.3992,9.22773333 14.8466667,9.8144 15.4658667,10.0352 L15.4658667,11.2 L16.5325333,11.2 L16.5325333,10.0352 C17.1517333,9.8144 17.5992,9.22773333 17.5992,8.53333333 C17.5992,8.392 17.5432,8.256 17.4429333,8.15626667 L15.4994667,6.2128 Z" id="Shape"></path>
                            <path d="M27.7325333,1.06666667 L25.1416,1.06666667 L6.8568,1.06666667 L4.26586667,1.06666667 C3.97146667,1.06666667 3.73253333,1.3056 3.73253333,1.6 L3.73253333,4.19093333 L3.73253333,10.7418667 L3.73253333,13.3333333 C3.73253333,13.6277333 3.97146667,13.8666667 4.26586667,13.8666667 L6.8568,13.8666667 L25.1410667,13.8666667 L27.7325333,13.8666667 C28.0269333,13.8666667 28.2658667,13.6277333 28.2658667,13.3333333 L28.2658667,10.7424 L28.2658667,4.19093333 L28.2658667,1.6 C28.2658667,1.3056 28.0269333,1.06666667 27.7325333,1.06666667 Z M4.7992,2.13333333 L6.3992,2.13333333 C6.3992,3.01546667 5.68133333,3.73333333 4.7992,3.73333333 L4.7992,2.13333333 Z M4.7992,12.8 L4.7992,11.2 C5.68133333,11.2 6.3992,11.9178667 6.3992,12.8 L4.7992,12.8 Z M27.1992,12.8 L25.5992,12.8 C25.5992,11.9178667 26.3170667,11.2 27.1992,11.2 L27.1992,12.8 Z M27.1992,10.1333333 C25.7288,10.1333333 24.5325333,11.3296 24.5325333,12.8 L7.46586667,12.8 C7.46586667,11.3296 6.2696,10.1333333 4.7992,10.1333333 L4.7992,4.8 C6.2696,4.8 7.46586667,3.60373333 7.46586667,2.13333333 L24.5325333,2.13333333 C24.5325333,3.60373333 25.7288,4.8 27.1992,4.8 L27.1992,10.1333333 Z M27.1992,3.73333333 C26.3170667,3.73333333 25.5992,3.01546667 25.5992,2.13333333 L27.1992,2.13333333 L27.1992,3.73333333 Z" id="Shape"></path>
                            <rect id="Rectangle-path" x="29.8658667" y="9.6" width="1.06666667" height="1.06666667"></rect>
                            <rect id="Rectangle-path" x="29.8658667" y="5.33333333" width="1.06666667" height="2.13333333"></rect>
                            <rect id="Rectangle-path" x="29.8658667" y="0" width="1.06666667" height="3.2"></rect>
                            <rect id="Rectangle-path" x="1.06586667" y="9.6" width="1.06666667" height="1.06666667"></rect>
                            <rect id="Rectangle-path" x="1.06586667" y="5.33333333" width="1.06666667" height="2.13333333"></rect>
                            <rect id="Rectangle-path" x="1.06586667" y="0" width="1.06666667" height="3.2"></rect>
                        </g>
                    </g>
                </g>
            </g>
        </g>
    </g>
</svg>