<?xml version="1.0" encoding="UTF-8"?>
<svg width="56px" height="53px" viewBox="0 0 56 53" version="1.1" xmlns="http://www.w3.org/2000/svg" xmlns:xlink="http://www.w3.org/1999/xlink">
    <!-- Generator: Sketch 46.1 (44463) - http://www.bohemiancoding.com/sketch -->
    <title>responsive</title>
    <desc>Created with Sketch.</desc>
    <defs></defs>
    <g id="Page-1" stroke="none" stroke-width="1" fill="none" fill-rule="evenodd">
        <g id="home0" transform="translate(-154.000000, -2247.000000)" fill-rule="nonzero" fill="#0865CA">
            <g id="section-steps" transform="translate(77.000000, 1976.000000)">
                <g id="Group-10" transform="translate(0.000000, 271.000000)">
                    <g id="responsive" transform="translate(77.000000, 0.000000)">
                        <path d="M53.2,25.2 L53.2,4.66666667 C53.2,2.09346667 51.1065333,0 48.5333333,0 L7.46666667,0 C4.89346667,0 2.8,2.09346667 2.8,4.66666667 L2.8,18.6666667 C1.25626667,18.6666667 0,19.9229333 0,21.4666667 L0,49.4666667 C0,51.0104 1.25626667,52.2666667 2.8,52.2666667 L23.3333333,52.2666667 C24.8770667,52.2666667 26.1333333,51.0104 26.1333333,49.4666667 L33.9556,49.4666667 C34.8357333,49.4666667 35.6468,49.0653333 36.1806667,48.3662667 C36.7145333,47.6672 36.8881333,46.7786667 36.6566667,45.9302667 L34.8217333,39.2 L40.1333333,39.2 L40.1333333,49.4666667 C40.1333333,51.0104 41.3896,52.2666667 42.9333333,52.2666667 L53.2,52.2666667 C54.7437333,52.2666667 56,51.0104 56,49.4666667 L56,28 C56,26.4562667 54.7437333,25.2 53.2,25.2 Z M24.2666667,49.4666667 C24.2666667,49.9809333 23.8476,50.4 23.3333333,50.4 L2.8,50.4 C2.28573333,50.4 1.86666667,49.9809333 1.86666667,49.4666667 L1.86666667,47.6 L24.2666667,47.6 L24.2666667,49.4666667 Z M24.2666667,45.7333333 L1.86666667,45.7333333 L1.86666667,25.2 L24.2666667,25.2 L24.2666667,45.7333333 Z M24.2666667,23.3333333 L1.86666667,23.3333333 L1.86666667,21.4666667 C1.86666667,20.9524 2.28573333,20.5333333 2.8,20.5333333 L23.3333333,20.5333333 C23.8476,20.5333333 24.2666667,20.9524 24.2666667,21.4666667 L24.2666667,23.3333333 Z M34.8562667,46.4212 C34.9337333,46.704 34.8758667,46.9998667 34.6976,47.2332 C34.5193333,47.4665333 34.2496,47.6 33.9556,47.6 L26.1333333,47.6 L26.1333333,45.7333333 L34.6686667,45.7333333 L34.8562667,46.4212 Z M26.1333333,43.8666667 L26.1333333,39.2 L32.8869333,39.2 L34.16,43.8666667 L26.1333333,43.8666667 Z M40.1333333,37.3333333 L26.1333333,37.3333333 L26.1333333,31.7333333 L40.1333333,31.7333333 L40.1333333,37.3333333 Z M40.1333333,28 L40.1333333,29.8666667 L26.1333333,29.8666667 L26.1333333,21.4666667 C26.1333333,19.9229333 24.8770667,18.6666667 23.3333333,18.6666667 L4.66666667,18.6666667 L4.66666667,4.66666667 C4.66666667,3.12293333 5.92293333,1.86666667 7.46666667,1.86666667 L48.5333333,1.86666667 C50.0770667,1.86666667 51.3333333,3.12293333 51.3333333,4.66666667 L51.3333333,25.2 L42.9333333,25.2 C41.3896,25.2 40.1333333,26.4562667 40.1333333,28 Z M54.1333333,49.4666667 C54.1333333,49.9809333 53.7142667,50.4 53.2,50.4 L42.9333333,50.4 C42.4190667,50.4 42,49.9809333 42,49.4666667 L42,47.6 L54.1333333,47.6 L54.1333333,49.4666667 Z M54.1333333,45.7333333 L42,45.7333333 L42,31.7333333 L54.1333333,31.7333333 L54.1333333,45.7333333 Z M54.1333333,29.8666667 L42,29.8666667 L42,28 C42,27.4857333 42.4190667,27.0666667 42.9333333,27.0666667 L53.2,27.0666667 C53.7142667,27.0666667 54.1333333,27.4857333 54.1333333,28 L54.1333333,29.8666667 Z" id="Shape"></path>
                        <rect id="Rectangle-path" transform="translate(7.466347, 37.332383) rotate(-45.000000) translate(-7.466347, -37.332383) " x="4.82643868" y="36.399059" width="5.27981603" height="1.86664877"></rect>
                        <rect id="Rectangle-path" transform="translate(14.932691, 36.399222) rotate(-45.000000) translate(-14.932691, -36.399222) " x="7.01302557" y="35.4658977" width="15.8393314" height="1.86664877"></rect>
                        <rect id="Rectangle-path" transform="translate(13.998978, 30.800494) rotate(-45.000000) translate(-13.998978, -30.800494) " x="10.0394076" y="29.8671693" width="7.91914072" height="1.86664877"></rect>
                        <rect id="Rectangle-path" transform="translate(47.130941, 36.867625) rotate(-45.000000) translate(-47.130941, -36.867625) " x="43.8316979" y="35.9343009" width="6.59848672" height="1.86664877"></rect>
                        <rect id="Rectangle-path" transform="translate(48.997249, 40.604933) rotate(-45.000000) translate(-48.997249, -40.604933) " x="45.6980053" y="39.6716082" width="6.59848672" height="1.86664877"></rect>
                        <rect id="Rectangle-path" transform="translate(27.998717, 14.000318) rotate(-45.000000) translate(-27.998717, -14.000318) " x="24.0391468" y="13.0669935" width="7.91914072" height="1.86664877"></rect>
                        <rect id="Rectangle-path" transform="translate(36.399245, 12.133646) rotate(-45.000000) translate(-36.399245, -12.133646) " x="32.4396751" y="11.2003218" width="7.91914072" height="1.86664877"></rect>
                        <rect id="Rectangle-path" transform="translate(29.865373, 18.667860) rotate(-45.000000) translate(-29.865373, -18.667860) " x="27.2254653" y="17.7345355" width="5.27981603" height="1.86664877"></rect>
                        <rect id="Rectangle-path" transform="translate(34.531366, 7.473998) rotate(-45.000000) translate(-34.531366, -7.473998) " x="31.8849251" y="6.54067357" width="5.29288257" height="1.86664877"></rect>
                        <rect id="Rectangle-path" x="6.53333333" y="3.73333333" width="1.86666667" height="1.86666667"></rect>
                        <rect id="Rectangle-path" x="10.2666667" y="3.73333333" width="1.86666667" height="1.86666667"></rect>
                        <rect id="Rectangle-path" x="14" y="3.73333333" width="1.86666667" height="1.86666667"></rect>
                    </g>
                </g>
            </g>
        </g>
    </g>
</svg>