<?xml version="1.0" encoding="UTF-8"?>
<svg width="26px" height="32px" viewBox="0 0 26 32" version="1.1" xmlns="http://www.w3.org/2000/svg" xmlns:xlink="http://www.w3.org/1999/xlink">
    <!-- Generator: Sketch 46.1 (44463) - http://www.bohemiancoding.com/sketch -->
    <title>files board icon</title>
    <desc>Created with Sketch.</desc>
    <defs></defs>
    <g id="Page-1" stroke="none" stroke-width="1" fill="none" fill-rule="evenodd">
        <g id="home0" transform="translate(-569.000000, -48.000000)" fill="#FFFFFF">
            <g id="header" transform="translate(-363.000000, 0.000000)">
                <g id="menu" transform="translate(363.000000, 0.000000)">
                    <g id="Group-4" transform="translate(569.000000, 48.000000)">
                        <g id="files-board-icon">
                            <path d="M2.04048583,1.38160428 C1.6657166,1.38160428 1.36032389,1.69177444 1.36032389,2.07240642 L1.36032389,29.704492 C1.36032389,30.085124 1.6657166,30.3952942 2.04048583,30.3952942 L23.805668,30.3952942 C24.1804372,30.3952942 24.48583,30.085124 24.48583,29.704492 L24.48583,9.2664199 L16.7224615,1.38160428 L2.04048583,1.38160428 Z M23.805668,31.7768984 L2.04048583,31.7768984 C0.915497976,31.7768984 0,30.8470788 0,29.704492 L0,2.07240642 C0,0.92981968 0.915497976,0 2.04048583,0 L17.0040486,0 C17.1842915,0 17.3577328,0.0725342247 17.4849231,0.202405027 L25.6468664,8.49203071 C25.7747368,8.62121071 25.8461538,8.79736525 25.8461538,8.98042782 L25.8461538,29.704492 C25.8461538,30.8470788 24.9306559,31.7768984 23.805668,31.7768984 L23.805668,31.7768984 Z" id="Fill-1"></path>
                            <path d="M25.1659919,9.67122996 L17.0040486,9.67122996 C16.6285992,9.67122996 16.3238866,9.3617506 16.3238866,8.98042782 L16.3238866,1.38160428 L17.6842105,1.38160428 L17.6842105,8.28962568 L25.1659919,8.28962568 L25.1659919,9.67122996 Z" id="Fill-3"></path>
                            <path d="M12.9230769,11.7436364 L4.7611336,11.7436364 C4.38568421,11.7436364 4.08097166,11.434157 4.08097166,11.0528342 C4.08097166,10.6715115 4.38568421,10.3620321 4.7611336,10.3620321 L12.9230769,10.3620321 C13.2985263,10.3620321 13.6032389,10.6715115 13.6032389,11.0528342 C13.6032389,11.434157 13.2985263,11.7436364 12.9230769,11.7436364" id="Fill-5"></path>
                            <path d="M21.0850202,15.8884492 L4.7611336,15.8884492 C4.38568421,15.8884492 4.08097166,15.5789699 4.08097166,15.1976471 C4.08097166,14.8163243 4.38568421,14.5068449 4.7611336,14.5068449 L21.0850202,14.5068449 C21.4604696,14.5068449 21.7651822,14.8163243 21.7651822,15.1976471 C21.7651822,15.5789699 21.4604696,15.8884492 21.0850202,15.8884492" id="Fill-7"></path>
                            <path d="M21.0850202,20.0332621 L4.7611336,20.0332621 C4.38568421,20.0332621 4.08097166,19.7237827 4.08097166,19.3424599 C4.08097166,18.9611371 4.38568421,18.6516578 4.7611336,18.6516578 L21.0850202,18.6516578 C21.4604696,18.6516578 21.7651822,18.9611371 21.7651822,19.3424599 C21.7651822,19.7237827 21.4604696,20.0332621 21.0850202,20.0332621" id="Fill-9"></path>
                            <path d="M21.0850202,24.1780749 L4.7611336,24.1780749 C4.38568421,24.1780749 4.08097166,23.8685955 4.08097166,23.4872728 C4.08097166,23.10595 4.38568421,22.7964706 4.7611336,22.7964706 L21.0850202,22.7964706 C21.4604696,22.7964706 21.7651822,23.10595 21.7651822,23.4872728 C21.7651822,23.8685955 21.4604696,24.1780749 21.0850202,24.1780749" id="Fill-11"></path>
                        </g>
                    </g>
                </g>
            </g>
        </g>
    </g>
</svg>