<?xml version="1.0" encoding="UTF-8"?>
<svg width="45px" height="56px" viewBox="0 0 45 56" version="1.1" xmlns="http://www.w3.org/2000/svg" xmlns:xlink="http://www.w3.org/1999/xlink">
    <!-- Generator: Sketch 46.1 (44463) - http://www.bohemiancoding.com/sketch -->
    <title>tax</title>
    <desc>Created with Sketch.</desc>
    <defs></defs>
    <g id="Page-1" stroke="none" stroke-width="1" fill="none" fill-rule="evenodd">
        <g id="home0" transform="translate(-700.000000, -2244.000000)" fill-rule="nonzero" fill="#0865CA">
            <g id="section-steps" transform="translate(77.000000, 1976.000000)">
                <g id="Group-8" transform="translate(540.000000, 268.000000)">
                    <g id="tax" transform="translate(83.000000, 0.000000)">
                        <path d="M43.8666667,0 L6.53333333,0 C6.0172,0 5.6,0.418133333 5.6,0.933333333 L5.6,5.6 L0.933333333,5.6 C0.4172,5.6 0,6.01813333 0,6.53333333 L0,55.0666667 C0,55.5818667 0.4172,56 0.933333333,56 L38.2666667,56 C38.7828,56 39.2,55.5818667 39.2,55.0666667 L39.2,50.4 L43.8666667,50.4 C44.3828,50.4 44.8,49.9818667 44.8,49.4666667 L44.8,0.933333333 C44.8,0.418133333 44.3828,0 43.8666667,0 Z M37.3333333,54.1333333 L1.86666667,54.1333333 L1.86666667,7.46666667 L29.8666667,7.46666667 L29.8666667,14 C29.8666667,14.5152 30.2838667,14.9333333 30.8,14.9333333 L37.3333333,14.9333333 L37.3333333,54.1333333 Z M31.7333333,13.0666667 L31.7333333,8.7864 L36.0136,13.0666667 L31.7333333,13.0666667 Z M42.9333333,48.5333333 L39.2,48.5333333 L39.2,14 C39.2,13.7414667 39.0954667,13.5081333 38.9256,13.3392 L31.4608,5.8744 C31.2918667,5.70453333 31.0585333,5.6 30.8,5.6 L7.46666667,5.6 L7.46666667,1.86666667 L42.9333333,1.86666667 L42.9333333,48.5333333 Z" id="Shape"></path>
                        <path d="M33.3256,21.7401333 C31.4178667,19.8324 28.3154667,19.8324 26.4068,21.7401333 L10.5401333,37.6068 C10.4206667,37.7262667 10.3357333,37.8765333 10.2946667,38.0398667 L8.49053333,45.2554667 L7.7392,46.0068 L9.05893333,47.3265333 L9.80933333,46.5761333 L17.0249333,44.772 C17.1892,44.7309333 17.3394667,44.646 17.4589333,44.5265333 L33.3256,28.6598667 C34.2496,27.7358667 34.7592,26.5066667 34.7592,25.2 C34.7592,23.8933333 34.2496,22.6641333 33.3256,21.7401333 Z M22.8666667,27.9197333 L24.3469333,29.4 L14,39.7469333 L12.5197333,38.2666667 L22.8666667,27.9197333 Z M10.6157333,44.45 L11.7058667,40.0922667 L14.9744,43.3608 L10.6157333,44.45 Z M16.8,42.5469333 L15.3197333,41.0666667 L25.6666667,30.7197333 L27.1469333,32.2 L16.8,42.5469333 Z M28.4666667,30.8802667 L24.1864,26.6 L25.2,25.5864 L29.4802667,29.8666667 L28.4666667,30.8802667 Z M32.0068,27.3401333 L30.8,28.5469333 L26.5197333,24.2666667 L27.7265333,23.0598667 C28.9062667,21.8801333 30.8270667,21.8801333 32.0068,23.0598667 C32.578,23.632 32.8934667,24.3917333 32.8934667,25.2 C32.8934667,26.0082667 32.578,26.768 32.0068,27.3401333 Z" id="Shape"></path>
                        <rect id="Rectangle-path" x="8.4" y="48.5333333" width="22.4" height="1.86666667"></rect>
                    </g>
                </g>
            </g>
        </g>
    </g>
</svg>