<?xml version="1.0" encoding="UTF-8"?>
<svg width="32px" height="32px" viewBox="0 0 32 32" version="1.1" xmlns="http://www.w3.org/2000/svg" xmlns:xlink="http://www.w3.org/1999/xlink">
    <!-- Generator: Sketch 46.1 (44463) - http://www.bohemiancoding.com/sketch -->
    <title>testimonials</title>
    <desc>Created with Sketch.</desc>
    <defs></defs>
    <g id="Page-1" stroke="none" stroke-width="1" fill="none" fill-rule="evenodd">
        <g id="home0" transform="translate(-757.000000, -48.000000)">
            <g id="header" transform="translate(-363.000000, 0.000000)">
                <g id="menu" transform="translate(363.000000, 0.000000)">
                    <g id="Group-3" transform="translate(757.000000, 48.000000)">
                        <g id="testimonials">
                            <rect id="Rectangle-4" x="0" y="0" width="32" height="32"></rect>
                            <g id="Shape" fill-rule="nonzero" fill="#FFFFFF">
                                <path d="M27.5,5.0408125 L10.5,5.0408125 C10.223875,5.0408125 10,4.8169375 10,4.5408125 C10,4.2646875 10.223875,4.0408125 10.5,4.0408125 L27.5,4.0408125 C27.776125,4.0408125 28,4.2646875 28,4.5408125 C28,4.8169375 27.776125,5.0408125 27.5,5.0408125 Z"></path>
                                <path d="M27.5,11.0408125 L26.5,11.0408125 C26.223875,11.0408125 26,10.8169375 26,10.5408125 C26,10.2646875 26.223875,10.0408125 26.5,10.0408125 L27.5,10.0408125 C27.776125,10.0408125 28,10.2646875 28,10.5408125 C28,10.8169375 27.776125,11.0408125 27.5,11.0408125 Z"></path>
                                <path d="M27.5,14.0409375 C27.368125,14.0409375 27.239375,13.9871875 27.14625,13.8940625 C27.053125,13.8009375 27,13.6721875 27,13.5409375 C27,13.4090625 27.053125,13.2803125 27.14625,13.1871875 C27.239375,13.0940625 27.36875,13.0409375 27.5,13.0409375 C27.63125,13.0409375 27.760625,13.0940625 27.85375,13.1871875 C27.946875,13.2803125 28,13.4090625 28,13.5409375 C28,13.6721875 27.946875,13.8009375 27.85375,13.8940625 C27.760625,13.9871875 27.631875,14.0409375 27.5,14.0409375 Z"></path>
                                <path d="M27.5,8.0408125 L18.5,8.0408125 C18.223875,8.0408125 18,7.8169375 18,7.5408125 C18,7.2646875 18.223875,7.0408125 18.5,7.0408125 L27.5,7.0408125 C27.776125,7.0408125 28,7.2646875 28,7.5408125 C28,7.8169375 27.776125,8.0408125 27.5,8.0408125 Z"></path>
                                <path d="M16.5,8.0408125 L10.5,8.0408125 C10.223875,8.0408125 10,7.8169375 10,7.5408125 C10,7.2646875 10.223875,7.0408125 10.5,7.0408125 L16.5,7.0408125 C16.776125,7.0408125 17,7.2646875 17,7.5408125 C17,7.8169375 16.776125,8.0408125 16.5,8.0408125 Z"></path>
                                <path d="M28.4989375,21.8341875 C28.23925,21.8341875 27.984625,21.7325625 27.792875,21.5408125 L27.1464375,20.894375 C26.951125,20.699125 26.951125,20.3825625 27.1464375,20.18725 C27.3416875,19.992 27.65825,19.992 27.8535,20.18725 L28.499625,20.833375 L28.5,17.495375 C28.5,17.2515625 28.675875,17.0433125 28.91625,17.0024375 C30.1041875,16.8005625 31,15.7423125 31,14.5408125 L31,3.5408125 C31,2.1623125 29.8785,1.0408125 28.5,1.0408125 L9.5,1.0408125 C8.1215,1.0408125 7,2.1623125 7,3.5408125 L7,8.5408125 C7,8.8169375 6.776125,9.0408125 6.5,9.0408125 C6.223875,9.0408125 6,8.8169375 6,8.5408125 L6,3.5408125 C6,1.6109375 7.570125,0.0408125 9.5,0.0408125 L28.5,0.0408125 C30.429875,0.0408125 32,1.6109375 32,3.5408125 L32,14.5408125 C32,16.1073125 30.9711875,17.4553125 29.5,17.8916875 L29.5,20.8336875 C29.5,21.239625 29.2576875,21.60225 28.8826875,21.7575625 C28.75825,21.809125 28.6279375,21.8341875 28.4989375,21.8341875 Z"></path>
                                <path d="M21.5,15.0408125 L4.5,15.0408125 C4.223875,15.0408125 4,14.8169375 4,14.5408125 C4,14.2646875 4.223875,14.0408125 4.5,14.0408125 L21.5,14.0408125 C21.776125,14.0408125 22,14.2646875 22,14.5408125 C22,14.8169375 21.776125,15.0408125 21.5,15.0408125 Z"></path>
                                <path d="M21.5,21.0408125 L15,21.0408125 C14.723875,21.0408125 14.5,20.8169375 14.5,20.5408125 C14.5,20.2646875 14.723875,20.0408125 15,20.0408125 L21.5,20.0408125 C21.776125,20.0408125 22,20.2646875 22,20.5408125 C22,20.8169375 21.776125,21.0408125 21.5,21.0408125 Z"></path>
                                <path d="M13,21.0408125 L4.5,21.0408125 C4.223875,21.0408125 4,20.8169375 4,20.5408125 C4,20.2646875 4.223875,20.0408125 4.5,20.0408125 L13,20.0408125 C13.276125,20.0408125 13.5,20.2646875 13.5,20.5408125 C13.5,20.8169375 13.276125,21.0408125 13,21.0408125 Z"></path>
                                <path d="M21.5,24.0408125 L4.5,24.0408125 C4.223875,24.0408125 4,23.8169375 4,23.5408125 C4,23.2646875 4.223875,23.0408125 4.5,23.0408125 L21.5,23.0408125 C21.776125,23.0408125 22,23.2646875 22,23.5408125 C22,23.8169375 21.776125,24.0408125 21.5,24.0408125 Z"></path>
                                <path d="M7.5,18.0408125 L4.5,18.0408125 C4.223875,18.0408125 4,17.8169375 4,17.5408125 C4,17.2646875 4.223875,17.0408125 4.5,17.0408125 L7.5,17.0408125 C7.776125,17.0408125 8,17.2646875 8,17.5408125 C8,17.8169375 7.776125,18.0408125 7.5,18.0408125 Z"></path>
                                <path d="M21.5,18.0408125 L9.5,18.0408125 C9.223875,18.0408125 9,17.8169375 9,17.5408125 C9,17.2646875 9.223875,17.0408125 9.5,17.0408125 L21.5,17.0408125 C21.776125,17.0408125 22,17.2646875 22,17.5408125 C22,17.8169375 21.776125,18.0408125 21.5,18.0408125 Z"></path>
                                <path d="M3.5010625,31.8341875 C3.3720625,31.8341875 3.2418125,31.809125 3.117375,31.7575625 C2.742375,31.60225 2.5000625,31.2395625 2.5000625,30.8336875 L2.5000625,27.8916875 C1.028875,27.4553125 6.25e-05,26.1073125 6.25e-05,24.5408125 L6.25e-05,13.5408125 C6.25e-05,11.6109375 1.5701875,10.0408125 3.5000625,10.0408125 L22.5000625,10.0408125 C24.4299375,10.0408125 26.0000625,11.6109375 26.0000625,13.5408125 L26.0000625,24.5408125 C26.0000625,26.4706875 24.4299375,28.0408125 22.5000625,28.0408125 L7.7070625,28.0408125 L4.2070625,31.5408125 C4.015375,31.7325625 3.7606875,31.8341875 3.5010625,31.8341875 Z M3.5,11.0408125 C2.1215,11.0408125 1,12.1623125 1,13.5408125 L1,24.5408125 C1,25.7423125 1.8958125,26.8005625 3.08375,27.0024375 C3.324125,27.0433125 3.5,27.2515625 3.5,27.495375 L3.5,30.83325 L7.1464375,27.18725 C7.2401875,27.0935 7.367375,27.0408125 7.5,27.0408125 L22.5,27.0408125 C23.8785,27.0408125 25,25.9193125 25,24.5408125 L25,13.5408125 C25,12.1623125 23.8785,11.0408125 22.5,11.0408125 L3.5,11.0408125 Z"></path>
                            </g>
                        </g>
                    </g>
                </g>
            </g>
        </g>
    </g>
</svg>