<?xml version="1.0" encoding="UTF-8"?>
<svg width="141px" height="200px" viewBox="0 0 141 200" version="1.1" xmlns="http://www.w3.org/2000/svg" xmlns:xlink="http://www.w3.org/1999/xlink">
    <!-- Generator: Sketch 46.1 (44463) - http://www.bohemiancoding.com/sketch -->
    <title>webcam</title>
    <desc>Created with Sketch.</desc>
    <defs></defs>
    <g id="Page-1" stroke="none" stroke-width="1" fill="none" fill-rule="evenodd">
        <g id="home-copy-2" transform="translate(-710.000000, -514.000000)" fill-rule="nonzero" fill="#2B3B46">
            <g id="Pasaporte" transform="translate(256.000000, 450.000000)">
                <g id="Group-Copy" transform="translate(360.000000, 0.000000)">
                    <g id="webcam" transform="translate(94.000000, 64.000000)">
                        <path d="M120.123587,179.740351 L119.102924,179.740351 L101.365302,132.40117 C125.05692,120.598441 140.046394,96.4233918 140.08499,69.9547758 C140.134893,31.3703704 108.897076,0.0502923977 70.3122807,-5.93592558e-15 C31.7278752,-0.0502923977 0.408187135,31.1879142 0.357504873,69.7723197 C0.322807018,96.3076023 15.3239766,120.57232 39.0768031,132.40117 L21.3391813,179.740351 L20.3185185,179.740351 C14.8089669,179.746199 10.3438596,184.211306 10.3380117,189.720858 L10.3380117,196.374659 C10.3376218,198.211696 11.8261209,199.700975 13.6631579,199.701365 C13.6635478,199.701365 13.6643275,199.701365 13.6647173,199.701365 L126.776998,199.701365 C128.614035,199.701754 130.103314,198.213255 130.103704,196.376218 C130.103704,196.375828 130.103704,196.375049 130.103704,196.374659 L130.103704,189.720858 C130.098246,184.211306 125.633138,179.746589 120.123587,179.740351 Z M80.1153996,7.59844055 C79.6736842,13.062768 74.88577,17.1345029 69.4214425,16.6927875 C64.5703704,16.3005848 60.7192982,12.4495127 60.3270955,7.59844055 C66.8736842,6.46042885 73.5680312,6.46042885 80.1153996,7.59844055 Z M7.01130604,69.9547758 C7.06237817,41.3968811 26.2389864,16.4132554 53.8132554,8.98128655 C55.0011696,18.0432749 63.3099415,24.4261209 72.3719298,23.2385965 C79.8050682,22.2643275 85.6545809,16.414425 86.6292398,8.98128655 C120.320468,18.060039 140.273294,52.7317739 131.194542,86.4230019 C122.116179,120.11423 87.4440546,140.067057 53.7528265,130.988694 C26.162963,123.554386 6.99727096,98.5282651 7.01130604,69.9547758 Z M83.5282651,138.511891 L83.5282651,149.79883 C83.5282651,157.148148 77.5703704,163.106043 70.2210526,163.106043 C62.8717349,163.106043 56.9138402,157.148148 56.9138402,149.79883 L56.9138402,138.511891 C65.6998051,140.253801 74.7423002,140.253801 83.5282651,138.511891 Z M45.1723197,135.096686 C46.8444444,135.74191 48.528655,136.358674 50.2596491,136.876413 L50.2596491,149.79922 C50.2596491,160.823392 59.1964912,169.760234 70.2206628,169.760234 C81.2448343,169.760234 90.1816764,160.823392 90.1816764,149.79922 L90.1816764,136.876413 C91.9126706,136.359064 93.5968811,135.7423 95.2690058,135.096686 L111.997661,179.740351 L28.4440546,179.740351 L45.1723197,135.096686 Z M123.450292,193.047563 L16.9918129,193.047563 L16.9918129,189.720858 C16.9937622,187.884211 18.4818713,186.395712 20.3185185,186.394152 L120.123587,186.394152 C121.960234,186.396101 123.448733,187.884211 123.450292,189.720858 L123.450292,193.047563 Z" id="Shape"></path>
                        <path d="M70.2210526,33.3594542 C50.0101365,33.3594542 33.625731,49.7438596 33.625731,69.9547758 C33.625731,90.165692 50.0101365,106.550097 70.2210526,106.550097 C90.4226121,106.527096 106.793372,90.1563353 106.816374,69.9547758 C106.816374,49.7438596 90.4319688,33.3594542 70.2210526,33.3594542 Z M70.2210526,99.8962963 C53.6923977,99.8775828 40.2982456,86.4834308 40.2795322,69.9547758 C40.2795322,53.4187135 53.6849903,40.0132554 70.2210526,40.0132554 C86.757115,40.0132554 100.162573,53.4187135 100.162573,69.9547758 C100.162573,86.4908382 86.757115,99.8962963 70.2210526,99.8962963 Z" id="Shape"></path>
                        <path d="M70.2210526,46.6670565 C57.3594542,46.6670565 46.9333333,57.0935673 46.9333333,69.9547758 C46.9333333,82.8159844 57.3598441,93.2424951 70.2210526,93.2424951 C83.0764133,93.2276803 93.4939571,82.8101365 93.5087719,69.9547758 C93.5087719,57.0931774 83.0826511,46.6670565 70.2210526,46.6670565 Z M70.2210526,86.5890838 C61.0385965,86.5781676 53.5976608,79.137232 53.5867446,69.9547758 C53.5867446,60.7680312 61.0339181,53.3204678 70.2210526,53.3204678 C79.4081871,53.3204678 86.8553606,60.7680312 86.8553606,69.9547758 C86.8553606,79.1415205 79.4077973,86.5890838 70.2210526,86.5890838 Z" id="Shape"></path>
                    </g>
                </g>
            </g>
        </g>
    </g>
</svg>