<?xml version="1.0" encoding="UTF-8"?>
<svg width="46px" height="56px" viewBox="0 0 46 56" version="1.1" xmlns="http://www.w3.org/2000/svg" xmlns:xlink="http://www.w3.org/1999/xlink">
    <!-- Generator: Sketch 48.2 (47327) - http://www.bohemiancoding.com/sketch -->
    <title>age_red</title>
    <desc>Created with Sketch.</desc>
    <defs></defs>
    <g id="Landing_Cards_2" stroke="none" stroke-width="1" fill="none" fill-rule="evenodd" transform="translate(-524.000000, -1137.000000)">
        <g id="perfilador" transform="translate(162.000000, 873.000000)" fill="#EB0029" fill-rule="nonzero">
            <g id="Group-5-Copy-2" transform="translate(362.000000, 264.000000)">
                <g id="age_red">
                    <path d="M29.0312969,16.0000312 L28.4913125,16.0000312 C29.4452812,14.9370156 30.0313125,13.538 30.0313125,12.0000781 C30.0313125,8.69104687 27.3403594,6.00009375 24.0313281,6.00009375 C20.7222969,6.00009375 18.0313437,8.69104687 18.0313437,12.0000781 C18.0313437,13.5381094 18.617375,14.937125 19.5713437,16.0000312 L19.03125,16.0000312 C16.2742344,16.0000312 14.0312812,18.2429844 14.0312812,21 L14.0312812,35 C14.0312812,35.5520156 14.4782969,36.0000156 15.0312969,36.0000156 L18.0313437,36.0000156 L18.0313437,54.9999844 C18.0313437,55.552 18.4783594,56 19.0313594,56 L24.0313281,56 L25.0313438,56 C27.7883594,56 30.0313125,53.7570469 30.0313125,51.0000312 L30.0313125,36.0000156 L33.03125,36.0000156 C33.58425,36.0000156 34.0312656,35.5520156 34.0312656,35 L34.0312656,21 C34.0312656,18.2429844 31.7882031,16.0000312 29.0312969,16.0000312 Z M24.0312187,8.00001562 C26.2372031,8.00001562 28.0311719,9.79398437 28.0311719,11.9999687 C28.0311719,14.2059531 26.2372031,15.9999219 24.0312187,15.9999219 C21.8252344,15.9999219 20.0312656,14.2059531 20.0312656,11.9999687 C20.0312656,9.79398437 21.8252344,8.00001562 24.0312187,8.00001562 Z M24.6442656,17.9999531 L24.0312188,19.838 L23.4181719,17.9999531 L24.6442656,17.9999531 Z M32.0312344,33.9999844 L30.0312031,33.9999844 L30.0312031,21 L28.0311719,21 L28.0311719,51.0000313 C28.0311719,52.654 26.6852031,54.0000781 25.031125,54.0000781 L25.031125,36.0000156 L23.0310938,36.0000156 L23.0310938,53.9999688 L20.0310469,53.9999688 L20.0310469,21 L18.0310156,21 L18.0310156,33.9999844 L16.0309844,33.9999844 L16.0309844,21 C16.0309844,19.3460312 17.3769531,17.9999531 19.0310313,17.9999531 L21.3110625,17.9999531 L23.0830469,23.3159063 C23.219,23.7248594 23.6000625,23.9999375 24.031,23.9999375 C24.4619375,23.9999375 24.843,23.7249688 24.9789531,23.3159063 L26.7509375,17.9999531 L29.0309688,17.9999531 C30.6849375,17.9999531 32.0310156,19.3459219 32.0310156,21 L32.0310156,33.9999844 L32.0312344,33.9999844 Z" id="Shape"></path>
                    <path d="M11.0312344,0 L1.03129688,0 C0.478296875,0 0.03128125,0.448 0.03128125,1.00001563 L0.03128125,54.9999844 C0.03128125,55.552 0.478296875,56 1.03129688,56 L11.0313437,56 C11.5843438,56 12.0313594,55.552 12.0313594,54.9999844 L12.0313594,1.00001563 C12.03125,0.448 11.5842344,0 11.0312344,0 Z M10.0312188,5.99998437 L8.0311875,5.99998437 L8.0311875,8.00001562 L10.0312188,8.00001562 L10.0312188,11.9999687 L6.03126563,11.9999687 L6.03126563,14 L10.0312188,14 L10.0312188,17.9999531 L8.0311875,17.9999531 L8.0311875,19.9999844 L10.0312188,19.9999844 L10.0312188,23.9999375 L6.03126563,23.9999375 L6.03126563,25.9999687 L10.0312188,25.9999687 L10.0312188,29.9999219 L8.0311875,29.9999219 L8.0311875,31.9999531 L10.0312188,31.9999531 L10.0312188,35.9999062 L6.03126563,35.9999062 L6.03126563,37.9999375 L10.0312188,37.9999375 L10.0312188,42 L8.0311875,42 L8.0311875,44.0000312 L10.0312188,44.0000312 L10.0312188,47.9999844 L6.03126563,47.9999844 L6.03126563,50.0000156 L10.0312188,50.0000156 L10.0312188,53.9999687 L2.03120313,53.9999687 L2.03120313,2.00003125 L10.0312188,2.00003125 L10.0312188,5.99998437 Z" id="Shape"></path>
                    <rect id="Rectangle-path" x="14.0312812" y="2.00003125" width="2.00003125" height="2.00003125"></rect>
                    <rect id="Rectangle-path" x="18.0312344" y="2.00003125" width="2.00003125" height="2.00003125"></rect>
                    <rect id="Rectangle-path" x="22.0312969" y="2.00003125" width="2.00003125" height="2.00003125"></rect>
                    <rect id="Rectangle-path" x="26.03125" y="2.00003125" width="2.00003125" height="2.00003125"></rect>
                    <rect id="Rectangle-path" x="30.0312031" y="2.00003125" width="2.00003125" height="2.00003125"></rect>
                    <rect id="Rectangle-path" x="34.0312656" y="2.00003125" width="2.00003125" height="2.00003125"></rect>
                    <rect id="Rectangle-path" x="31.0312187" y="53.9999687" width="2.00003125" height="2.00003125"></rect>
                    <rect id="Rectangle-path" x="35.0312812" y="53.9999687" width="2.00003125" height="2.00003125"></rect>
                    <rect id="Rectangle-path" x="39.0312344" y="53.9999687" width="2.00003125" height="2.00003125"></rect>
                    <rect id="Rectangle-path" x="43.0312969" y="53.9999687" width="2.00003125" height="2.00003125"></rect>
                </g>
            </g>
        </g>
    </g>
</svg>