<?xml version="1.0" encoding="UTF-8"?>
<svg width="57px" height="56px" viewBox="0 0 57 56" version="1.1" xmlns="http://www.w3.org/2000/svg" xmlns:xlink="http://www.w3.org/1999/xlink">
    <!-- Generator: Sketch 49 (51002) - http://www.bohemiancoding.com/sketch -->
    <title>airplane</title>
    <desc>Created with Sketch.</desc>
    <defs></defs>
    <g id="Page-1" stroke="none" stroke-width="1" fill="none" fill-rule="evenodd">
        <g id="Landing" transform="translate(-1000.000000, -1098.000000)" fill-rule="nonzero">
            <g id="perfilador" transform="translate(162.000000, 953.000000)">
                <g id="Group-3" transform="translate(838.000000, 145.000000)">
                    <g id="airplane">
                        <path d="M50.4009622,18.4009072 L34.8225704,18.4009072 C31.2862955,18.4009072 28.4079725,15.5225842 28.4079725,11.9863093 C28.4079725,8.45003436 31.2862955,5.57171134 34.8225704,5.57171134 C35.1735808,5.57171134 35.5226667,5.60019244 35.8673265,5.6569622 C37.1447423,2.32967698 40.3667629,0.0735120275 43.9863643,0.0735120275 C47.6454158,0.0735120275 50.9361375,2.41127148 52.1706392,5.8211134 C54.8923162,6.60010997 56.8157526,9.10991065 56.8157526,11.9865017 C56.8155601,15.5225842 53.9372371,18.4009072 50.4009622,18.4009072 Z" id="Shape" fill="#F9BA48"></path>
                        <path d="M55.5162062,30.014268 C52.3116976,28.4114364 48.723079,27.564701 45.1400412,27.564701 L33.5853746,27.564701 L23.1999725,20.2337045 L14.2826942,20.2337045 L21.6136907,27.564701 L14.0939107,27.564701 L5.84651546,20.2337045 L0.422405498,20.2337045 L4.05316838,28.4041237 L2.74919588,28.6213883 L2.74919588,31.7013883 L3.33479038,32.1201375 C7.55557388,35.1350928 12.5287973,36.7286873 17.7156289,36.7286873 L19.7810859,36.7286873 L13.0759038,43.433677 L14.0125086,44.0521787 C14.3048247,44.2455808 14.5805911,44.4682337 14.8317251,44.7137869 L15.0992165,44.97589 L20.4517388,44.97589 L32.1355326,36.7284948 L44.9098832,36.7284948 C48.0705155,36.7284948 51.1458969,36.0970997 54.0498144,34.8525911 L55.3913127,34.2779656 C56.2563299,33.9059794 56.8153677,33.0582818 56.8153677,32.1170584 C56.8155601,31.2210584 56.3179107,30.4155052 55.5162062,30.014268 Z M18.7068866,22.0665017 L22.6189966,22.0665017 L30.4081924,27.564701 L24.2052784,27.564701 L18.7068866,22.0665017 Z M3.24299656,22.0665017 L5.1500756,22.0665017 L11.3356701,27.564701 L10.0738419,27.564701 C9.41954639,27.564701 8.7606323,27.6197388 8.11557388,27.7269278 L5.92079725,28.0925636 L3.24299656,22.0665017 Z M54.6694708,32.5929622 L53.3279725,33.1675876 C50.6520962,34.3149141 47.8214983,34.89589 44.9100756,34.89589 L34.7319313,34.89589 L36.2677938,33.8118763 L35.2103368,32.3145017 L19.8701856,43.1432852 L15.9578832,43.1432852 L25.3901306,33.7110378 L24.094433,32.4153402 L21.6138832,34.89589 L17.7154364,34.89589 C12.9877663,34.89589 8.45176632,33.4654845 4.58180069,30.7574708 L4.58180069,30.1738007 L8.41693471,29.5341306 C8.96307904,29.4434914 9.52115464,29.3974983 10.0738419,29.3974983 L45.1400412,29.3974983 C48.4407698,29.3974983 51.7453471,30.1772646 54.6960275,31.652701 C54.8728797,31.7416082 54.9827629,31.9194227 54.9827629,32.1172509 C54.9827629,32.3243162 54.8590241,32.5113677 54.6694708,32.5929622 Z" id="Shape" fill="#EB0029"></path>
                        <path d="M16.4947904,55.9724811 L5.49819931,55.9724811 C2.4659244,55.9724811 0,53.5065567 0,50.4742818 C0,47.7820481 1.98213058,45.5020206 4.60123711,45.070378 C5.88962199,42.7703368 8.34457732,41.310488 10.9965911,41.310488 C14.4807148,41.310488 17.4644948,43.7746804 18.166323,47.1331409 C19.9075189,47.8122612 21.0767835,49.4836014 21.0767835,51.3906804 C21.0767835,53.9170309 19.0213333,55.9724811 16.4947904,55.9724811 Z" id="Shape" fill="#F9BA48"></path>
                        <rect id="Rectangle-path" fill="#EB0029" x="31.1569759" y="46.8086873" width="18.3275876" height="1.83279725"></rect>
                        <rect id="Rectangle-path" fill="#EB0029" x="27.4913814" y="46.8086873" width="1.83279725" height="1.83279725"></rect>
                        <rect id="Rectangle-path" fill="#EB0029" x="8.24739519" y="6.48791753" width="14.6619931" height="1.83279725"></rect>
                        <rect id="Rectangle-path" fill="#EB0029" x="4.58199313" y="6.48791753" width="1.83279725" height="1.83279725"></rect>
                        <rect id="Rectangle-path" fill="#EB0029" x="4.58199313" y="11.0699107" width="13.7457869" height="1.83279725"></rect>
                        <rect id="Rectangle-path" fill="#EB0029" x="0.916398625" y="11.0699107" width="1.83279725" height="1.83279725"></rect>
                    </g>
                </g>
            </g>
        </g>
    </g>
</svg>