<?xml version="1.0" encoding="UTF-8"?>
<svg width="97px" height="95px" viewBox="0 0 97 95" version="1.1" xmlns="http://www.w3.org/2000/svg" xmlns:xlink="http://www.w3.org/1999/xlink">
    <!-- Generator: Sketch 45 (43475) - http://www.bohemiancoding.com/sketch -->
    <title>happy</title>
    <desc>Created with Sketch.</desc>
    <defs></defs>
    <g id="dasboard" stroke="none" stroke-width="1" fill="none" fill-rule="evenodd">
        <g id="pre-autorización" transform="translate(-132.000000, -184.000000)" fill-rule="nonzero">
            <g id="happy" transform="translate(132.000000, 184.000000)">
                <path d="M15.3745437,60.5749405 C15.1229067,60.5749405 14.8718353,60.5698512 14.6203869,60.5591071 C10.9315972,60.4026587 5.56654762,59.0383532 0.955654762,53.4276984 C-0.517787698,51.6347619 -0.258799603,48.9866369 1.5341369,47.5131944 C3.32707341,46.0399405 5.97519841,46.2989286 7.44864087,48.0916766 C9.56823413,50.6708135 12.101002,52.0403968 14.9766369,52.1623512 C18.0562202,52.2927877 20.5435615,50.9684425 21.3874405,50.1028869 C23.0075298,48.4411409 25.6679067,48.4077778 27.3296528,50.0274901 C28.9913988,51.6475794 29.0251389,54.3079563 27.4050496,55.9697024 C24.6377976,58.8082044 19.9822321,60.5749405 15.3745437,60.5749405 Z" id="Shape" fill="#F3C74F"></path>
                <path d="M27.3296528,50.0274901 C25.6679067,48.4077778 23.0077183,48.4411409 21.3874405,50.1028869 C20.6285714,50.8813591 18.5389484,52.0272024 15.8864881,52.1559425 C16.5722222,55.0325198 17.6345635,57.7324802 19.013006,60.2117163 C22.3174603,59.5591567 25.3715972,58.0551786 27.4050496,55.9695139 C29.0253274,54.3077679 28.9913988,51.6475794 27.3296528,50.0274901 Z" id="Shape" fill="#000000" opacity="0.2"></path>
                <g id="Group" transform="translate(38.640873, 22.807540)" fill="#F3C74F">
                    <path d="M40.9887302,23.5686706 C39.7311111,23.5686706 38.5547321,23.3805556 37.5308433,22.9860417 C35.3652579,22.1517758 34.2861409,19.7198512 35.1204067,17.5542659 C35.9499603,15.4013095 38.3585119,14.3221925 40.5141071,15.1293155 C41.4281052,15.3530556 44.7154067,14.7576091 47.0811706,12.5616766 C49.1327183,10.6575298 49.8499306,8.22032738 49.2737103,5.11039683 C48.8509226,2.8285119 50.3579167,0.635972222 52.6398016,0.212996032 C54.921875,-0.210922619 57.1142262,1.29720238 57.5372024,3.57889881 C58.7011409,9.86039683 56.7647619,15.4606845 52.0846925,19.3481448 C48.8701488,22.0183234 44.5977877,23.5686706 40.9887302,23.5686706 Z M40.5510516,15.1432639 C40.5514286,15.1434524 40.5518056,15.1436409 40.552371,15.1438294 C40.5518056,15.1438294 40.5514286,15.1436409 40.5510516,15.1432639 Z" id="Shape"></path>
                    <path d="M5.35166667,72.1626786 C3.49671627,72.1626786 1.79953373,70.9254167 1.29588294,69.0484127 C-0.823521825,61.1494643 -0.187361111,47.2436508 2.55651786,41.4942659 C3.55609127,39.3999306 6.06435516,38.5125099 8.15869048,39.5118948 C10.2532143,40.5114683 11.1406349,43.0197321 10.1410615,45.1140675 C8.38337302,48.7968254 7.68915675,60.4462004 9.41272817,66.8707639 C10.0140179,69.112123 8.68439484,71.4168155 6.44303571,72.0181052 C6.07868056,72.1159325 5.71206349,72.1626786 5.35166667,72.1626786 Z" id="Shape"></path>
                </g>
                <path d="M46.7995635,62.3194345 C44.7050397,61.3200496 42.1969643,62.2076587 41.1973909,64.3018056 C39.8894444,67.0422917 39.0610218,71.6362202 38.7809226,76.5492659 C41.4194345,77.5588294 44.209494,78.2251488 47.0862599,78.5039286 C47.2200893,74.0489187 47.8521032,69.8698611 48.782123,67.9214187 C49.7813194,65.8270833 48.8938988,63.3188194 46.7995635,62.3194345 Z" id="Shape" fill="#000000" opacity="0.2"></path>
                <path d="M73.5793849,86.5606448 C72.7841369,86.5606448 71.9798413,86.3352083 71.2667758,85.8639782 C69.3305853,84.584494 68.7980952,81.9778373 70.0773909,80.0416468 C71.6884325,77.603125 72.2026389,75.4808929 71.6488492,73.5539385 C70.7433333,70.4027282 67.1212698,68.0228274 65.1240079,67.1135417 C63.0119544,66.1520437 62.0791071,63.6601786 63.0409821,61.548125 C64.0024802,59.4358829 66.4939683,58.5030357 68.6063988,59.4649107 C70.0930357,60.1417857 77.616131,63.8899504 79.7262996,71.2328472 C80.5897817,74.2375992 80.833125,79.0088988 77.0892956,84.6749702 C76.2808532,85.8977183 74.9433135,86.5606448 73.5793849,86.5606448 Z" id="Shape" fill="#F3C74F"></path>
                <path d="M68.6062103,59.4647222 C66.4935913,58.5026587 64.0021032,59.4356944 63.0407937,61.5479365 C62.0791071,63.6599901 63.0117659,66.1518552 65.1238194,67.1133532 C66.6264782,67.7973909 69.0480357,69.3138095 70.5414583,71.3646032 C72.7398413,69.5543254 74.6788591,67.4643254 76.3130853,65.1600099 C73.3354762,61.7671528 69.6061607,59.9199306 68.6062103,59.4647222 Z" id="Shape" fill="#000000" opacity="0.2"></path>
                <circle id="Oval" fill="#0081C6" cx="69.409375" cy="10.7704365" r="10.1736706"></circle>
                <circle id="Oval" fill="#F3C74F" cx="69.409375" cy="10.7704365" r="4.74943452"></circle>
                <circle id="Oval" fill="#0081C6" cx="21.1203472" cy="19.5023313" r="10.1736706"></circle>
                <circle id="Oval" fill="#F3C74F" cx="21.1203472" cy="19.5023313" r="4.74943452"></circle>
                <path d="M25.5789385,10.3591468 C21.6415278,15.4637004 18.7084028,22.041131 17.0029266,28.8038492 C18.8009524,29.6019246 20.8491071,29.888244 22.931002,29.5118254 C28.4594742,28.512252 32.1309226,23.2199603 31.1311607,17.6914881 C30.5319444,14.3776091 28.3893552,11.7323115 25.5789385,10.3591468 Z" id="Shape" fill="#000000" opacity="0.2"></path>
                <path d="M81.6805853,36.8990179 C78.5489782,19.5796131 59.5987401,-2.75990079 42.5850694,0.316289683 C25.5713988,3.39248016 15.6438988,30.9539782 18.7756944,48.2733829 C21.9074901,65.5927877 38.5277778,77.0866567 55.8984524,73.945625 C73.269127,70.8047817 84.8121925,54.2184226 81.6805853,36.8990179 Z" id="Shape" fill="#40BAB3"></path>
                <g id="Group" transform="translate(26.954365, 32.232143)" fill="#F0B0B7">
                    <path d="M25.0724603,2.70542659 C23.3709425,3.01304563 21.7421825,1.88322421 21.4345635,0.181517857 C21.7421825,1.88303571 20.6123611,3.51179563 18.9106548,3.81941468 C18.6143452,3.87294643 18.3204861,3.88199405 18.0351091,3.85315476 L18.1951389,4.73737103 C18.5879563,6.91030754 20.6681548,8.35340278 22.8410913,7.96058532 C25.0140278,7.56776786 26.457123,5.48756944 26.0643056,3.31463294 L25.9042758,2.43041667 C25.6471726,2.55746032 25.3685813,2.65189484 25.0724603,2.70542659 Z" id="Shape"></path>
                    <path d="M1.63573413,12.0244742 C0.900426587,12.0244742 0.247867063,11.4991468 0.11234127,10.7500794 C-0.0399603175,9.90770833 0.519484127,9.10133929 1.36185516,8.9490377 L6.61249008,7.99960317 C7.45542659,7.84749008 8.26123016,8.40674603 8.41353175,9.24911706 C8.56583333,10.0914881 8.00638889,10.8978571 7.16401786,11.0501587 L1.91338294,11.9995933 C1.82007937,12.016369 1.72734127,12.0244742 1.63573413,12.0244742 Z" id="Shape"></path>
                    <path d="M38.3294841,5.38955357 C37.5941766,5.38955357 36.9416171,4.86422619 36.8062798,4.11515873 C36.6539782,3.2727877 37.2134226,2.46641865 38.0557937,2.31411706 L43.3064286,1.36468254 C44.1493651,1.21275794 44.9551687,1.7718254 45.1074702,2.61419643 C45.2597718,3.45656746 44.7003274,4.26293651 43.8579563,4.4152381 L38.6073214,5.36467262 C38.5138294,5.38144841 38.4209028,5.38955357 38.3294841,5.38955357 Z" id="Shape"></path>
                </g>
                <path d="M20.3454563,53.9290873 C25.6897718,68.0113294 40.4984623,76.7304067 55.8986409,73.9458135 C71.2988194,71.1612202 82.1165675,57.8084425 82.1910218,42.7462302 L20.3454563,53.9290873 Z" id="Shape" fill="#FFFFFF"></path>
                <path d="M28.2283829,65.7262401 C35.3569643,72.4554067 45.4921825,75.8273413 55.8984524,73.9458135 C66.3047222,72.0642857 74.6174107,65.3564187 78.9382143,56.5572321 L28.2283829,65.7262401 Z" id="Shape" fill="#0081C6"></path>
                <path d="M58.6306448,70.0074603 C41.2597817,73.1484921 24.6393056,61.6544345 21.5076984,44.3350298 C19.6224008,33.9082143 22.4718353,19.7713095 28.7495635,9.4977381 C20.5961508,19.8163591 16.6351786,36.4360813 18.775506,48.2731944 C21.9071131,65.5925992 38.5275893,77.0864683 55.8984524,73.945625 C65.4489683,72.2186607 73.2368948,66.4266766 77.7936905,58.6837996 C73.1403869,64.421875 66.4809623,68.5879266 58.6306448,70.0074603 Z" id="Shape" fill="#000000" opacity="0.2"></path>
                <g id="Group" transform="translate(26.200397, 24.692460)" fill="#394049">
                    <path d="M22.8810516,17.1148909 C20.2502679,17.1148909 17.908254,15.2316667 17.4238294,12.5533829 L17.2641766,11.6689782 C17.111875,10.8266071 17.6715079,10.0202381 18.5136905,9.868125 C19.3571925,9.7160119 20.1624306,10.2754563 20.3145437,11.1176389 L20.4741964,12.0020437 C20.7145238,13.3303472 21.9902381,14.215506 23.3192956,13.9755556 C24.6475992,13.7354167 25.5331349,12.4591369 25.292996,11.1304563 L25.1329663,10.2462401 C24.9806647,9.40386905 25.5401091,8.5975 26.3824802,8.44519841 C27.2246627,8.2934623 28.0312202,8.85234127 28.1835218,9.6947123 L28.3435516,10.5791171 C28.8877282,13.5897123 26.8814187,16.4815575 23.8708234,17.0259226 C23.5385119,17.0856746 23.2073313,17.1148909 22.8810516,17.1148909 Z" id="Shape"></path>
                    <path d="M19.0976389,12.9607143 C18.1531052,12.9607143 17.2321329,12.6745833 16.4397123,12.1245635 C15.4124306,11.4120635 14.7240575,10.341994 14.5016369,9.11151786 C14.3493353,8.26914683 14.9087798,7.46277778 15.7511508,7.31047619 C16.5937103,7.1581746 17.4000794,7.71761905 17.5521925,8.55999008 C17.6272123,8.97561508 17.859623,9.33695437 18.2066369,9.57747024 C18.5536508,9.81798611 18.9736111,9.90921627 19.3890476,9.83419643 C19.8046726,9.7589881 20.1660119,9.52676587 20.4065278,9.17956349 C20.6472321,8.8325496 20.7384623,8.41277778 20.663254,7.99734127 C20.6464782,7.90441468 20.6381845,7.81205357 20.6381845,7.72063492 C20.6378075,6.9849504 21.1631349,6.3318254 21.9125794,6.1962996 C22.7549504,6.04399802 23.5613194,6.60325397 23.713621,7.445625 C23.86875,8.30345238 24.6928373,8.87571429 25.5506647,8.72001984 C26.4084921,8.56507937 26.98,7.74080357 26.8250595,6.8827877 C26.6727579,6.04041667 27.2322024,5.23423611 28.0745734,5.08193452 C28.9165675,4.93000992 29.7233135,5.48907738 29.8754266,6.33144841 C30.3345933,8.87119048 28.6419345,11.3110317 26.1021925,11.7701984 C24.9199702,11.9839484 23.7584821,11.7311806 22.8088591,11.1436508 C22.099752,12.0616071 21.0901885,12.6764683 19.9401984,12.884375 C19.6591567,12.9354563 19.3773611,12.9607143 19.0976389,12.9607143 Z" id="Shape"></path>
                    <path d="M1.60821429,12.254623 C0.872906746,12.254623 0.220347222,11.7292956 0.0848214286,10.9802282 C-0.0904761905,10.0111905 0.122142857,9.0321627 0.683472222,8.22296627 C1.24480159,7.41395833 2.0875496,6.87185516 3.0565873,6.69655754 C4.025625,6.52107143 5.00465278,6.73387897 5.81384921,7.29520833 C6.62304563,7.8565377 7.16496032,8.69928571 7.34025794,9.66832341 C7.49255952,10.5106944 6.93311508,11.3170635 6.09074405,11.4693651 C5.24969246,11.6214782 4.44219246,11.0622222 4.28970238,10.2198512 C4.25200397,10.011756 4.12156746,9.89394841 4.0469246,9.84230159 C3.97228175,9.79065476 3.81621032,9.70884921 3.60811508,9.7471131 C3.40001984,9.78481151 3.2822123,9.91524802 3.23056548,9.98989087 C3.17873016,10.0645337 3.09767857,10.2207937 3.13537698,10.4287004 C3.28767857,11.2710714 2.72823413,12.0774405 1.8858631,12.2297421 C1.79274802,12.2465179 1.69963294,12.254623 1.60821429,12.254623 Z" id="Shape"></path>
                    <path d="M38.3017758,5.61989087 C37.5664683,5.61989087 36.9139087,5.09456349 36.7783829,4.34549603 C36.6030853,3.37664683 36.8157044,2.39743056 37.3770337,1.58823413 C37.9383631,0.77922619 38.7811111,0.237123016 39.7501488,0.0618253968 C40.7191865,-0.113472222 41.6982143,0.0995238095 42.5074107,0.66047619 C43.3164187,1.22180556 43.8585218,2.06455357 44.0338194,3.03340278 C44.186121,3.87577381 43.6266766,4.68195437 42.7843056,4.83444444 C41.943254,4.98674603 41.1355655,4.42749008 40.9832639,3.58493056 C40.9455655,3.37683532 40.815129,3.25902778 40.7404861,3.20738095 C40.6658433,3.15573413 40.5097718,3.07411706 40.3016766,3.11219246 C40.0935813,3.14989087 39.9757738,3.28032738 39.924127,3.35497024 C39.8724802,3.4296131 39.7912401,3.58568452 39.8289385,3.79377976 C39.9812401,4.63615079 39.4217956,5.44233135 38.5794246,5.59482143 C38.4863095,5.61159722 38.3933829,5.61989087 38.3017758,5.61989087 Z" id="Shape"></path>
                </g>
            </g>
        </g>
    </g>
</svg>