<?xml version="1.0" encoding="UTF-8"?>
<svg width="50px" height="56px" viewBox="0 0 50 56" version="1.1" xmlns="http://www.w3.org/2000/svg" xmlns:xlink="http://www.w3.org/1999/xlink">
    <!-- Generator: Sketch 48.2 (47327) - http://www.bohemiancoding.com/sketch -->
    <title>backpack</title>
    <desc>Created with Sketch.</desc>
    <defs></defs>
    <g id="Landing" stroke="none" stroke-width="1" fill="none" fill-rule="evenodd" transform="translate(-1003.000000, -1018.000000)">
        <g id="perfilador" transform="translate(162.000000, 873.000000)" fill="#EB0029" fill-rule="nonzero">
            <g id="Group-3" transform="translate(841.000000, 145.000000)">
                <g id="backpack">
                    <path d="M46.6815168,0.951125 L37.8049208,0.951125 C37.4892353,0.384671875 36.8834221,0 36.1886509,0 L34.2808271,0 C33.5860559,0 32.980133,0.384671875 32.6645572,0.951125 L16.8190791,0.951125 C16.5035034,0.384671875 15.8975804,0 15.2028092,0 L13.2949855,0 C12.6002143,0 11.9942913,0.384671875 11.6787156,0.951125 L2.80211953,0.951125 C1.25703788,0.951125 0,2.2045625 0,3.74521875 L0,11.3545469 C0,12.8952031 1.25703788,14.1486406 2.80211953,14.1486406 L5.91389158,14.1486406 C5.79147847,14.4623281 5.72347119,14.8029219 5.72347119,15.1592656 L5.72347119,16.1698906 L4.70994326,16.1698906 C3.16486161,16.1698906 1.90782373,17.4233281 1.90782373,18.9639844 L1.90782373,24.6709531 C1.90782373,26.2116094 3.16486161,27.4650469 4.70994326,27.4650469 L5.72347119,27.4650469 L5.72347119,29.4862969 L3.75597655,29.4862969 C2.2108949,29.4862969 0.95385702,30.7397344 0.95385702,32.2803906 L0.95385702,49.4014062 C0.95385702,50.9420625 2.2108949,52.1955 3.75597655,52.1955 L6.34782194,52.1955 C7.40489647,54.44075 9.69334161,56 12.3411285,56 L37.1425079,56 C39.7902947,56 42.0787399,54.44075 43.1357047,52.1952813 L45.7275501,52.1952813 C47.2726318,52.1952813 48.5296697,50.9418438 48.5296697,49.4011875 L48.5296697,32.2802813 C48.5296697,30.739625 47.2726318,29.4861875 45.7275501,29.4861875 L43.7601652,29.4861875 L43.7601652,27.4649375 L44.7736931,27.4649375 C46.3187748,27.4649375 47.5758126,26.2115 47.5758126,24.6708438 L47.5758126,18.963875 C47.5758126,17.4232188 46.3187748,16.1697813 44.7736931,16.1697813 L43.7601652,16.1697813 L43.7601652,15.1591563 C43.7601652,14.8028125 43.6921579,14.4622188 43.5697448,14.1485313 L46.6815168,14.1485313 C48.2265985,14.1485313 49.4836364,12.8950938 49.4836364,11.3544375 L49.4836364,3.74521875 C49.4836364,2.2045625 48.2265985,0.951125 46.6815168,0.951125 Z M3.69641533,18.963875 C3.69641533,18.4066094 4.15107694,17.95325 4.70994326,17.95325 L5.72347119,17.95325 L5.72347119,19.9745 L3.69641533,19.9745 L3.69641533,18.963875 Z M4.70994326,25.6815781 C4.15107694,25.6815781 3.69641533,25.2282187 3.69641533,24.6709531 L3.69641533,21.7579688 L5.72347119,21.7579688 L5.72347119,25.6815781 L4.70994326,25.6815781 Z M2.74244862,32.2802812 C2.74244862,31.7230156 3.19711023,31.2696562 3.75597655,31.2696562 L5.7233615,31.2696562 L5.7233615,37.0955156 L2.74244862,37.0955156 L2.74244862,32.2802812 Z M3.75597655,50.4119219 C3.19711023,50.4119219 2.74244862,49.9585625 2.74244862,49.4012969 L2.74244862,38.8789844 L5.7233615,38.8789844 L5.7233615,49.4012969 C5.7233615,49.7449531 5.74990627,50.082375 5.80102143,50.4119219 L3.75597655,50.4119219 Z M43.7601652,17.95325 L44.7736931,17.95325 C45.3325594,17.95325 45.787221,18.4066094 45.787221,18.963875 L45.787221,19.9745 L43.7601652,19.9745 L43.7601652,17.95325 Z M43.7601652,21.7579688 L45.787221,21.7579688 L45.787221,24.6709531 C45.787221,25.2282187 45.3325594,25.6815781 44.7736931,25.6815781 L43.7601652,25.6815781 L43.7601652,21.7579688 Z M43.7601652,31.2696562 L45.7275501,31.2696562 C46.2864164,31.2696562 46.7410781,31.7230156 46.7410781,32.2802812 L46.7410781,37.0955156 L43.7601652,37.0955156 L43.7601652,31.2696562 Z M43.7601652,49.4012969 L43.7601652,38.8789844 L46.7410781,38.8789844 L46.7410781,49.4012969 C46.7410781,49.9585625 46.2864164,50.4119219 45.7275501,50.4119219 L43.6825052,50.4119219 C43.7336204,50.0822656 43.7601652,49.7448438 43.7601652,49.4012969 Z M34.2211562,1.84285937 C34.2211562,1.81004687 34.2478107,1.78335937 34.2808271,1.78335937 L36.1886509,1.78335937 C36.2215576,1.78335937 36.2483218,1.81004687 36.2483218,1.84285937 L36.2483218,16.1697813 L34.2212659,16.1697813 L34.2212659,1.84285937 L34.2211562,1.84285937 Z M33.2672992,18.01275 C33.2672992,17.9799375 33.2940634,17.95325 33.3269701,17.95325 L34.340498,17.95325 L34.340498,18.963875 C34.340498,19.4563906 34.7408635,19.8556094 35.2347938,19.8556094 C35.7287242,19.8556094 36.1290896,19.4563906 36.1290896,18.963875 L36.1290896,17.95325 L37.1426176,17.95325 C37.1755243,17.95325 37.2022885,17.9798281 37.2022885,18.01275 L37.2022885,21.8174687 C37.2022885,21.8502812 37.175634,21.8769687 37.1426176,21.8769687 L33.3269701,21.8769687 C33.2940634,21.8769687 33.2672992,21.8503906 33.2672992,21.8174687 L33.2672992,18.01275 Z M17.050962,6.5393125 L25.6953461,6.5393125 C26.1892765,6.5393125 26.5896419,6.14009375 26.5896419,5.64757813 C26.5896419,5.1550625 26.1892765,4.75584375 25.6953461,4.75584375 L17.050962,4.75584375 L17.050962,2.73459375 L32.4325646,2.73459375 L32.4325646,4.75584375 L29.5108839,4.75584375 C29.0169536,4.75584375 28.6165881,5.1550625 28.6165881,5.64757813 C28.6165881,6.14009375 29.0169536,6.5393125 29.5108839,6.5393125 L32.4325646,6.5393125 L32.4325646,12.3651719 L31.1983421,12.3651719 L30.6949785,9.85534375 C30.4339183,8.55389063 29.2783429,7.60932813 27.9472648,7.60932813 L21.5362619,7.60932813 C20.2051838,7.60932813 19.0497181,8.554 18.7886579,9.85534375 L18.2851846,12.3651719 L17.050962,12.3651719 L17.050962,6.5393125 Z M29.3743209,12.3651719 L20.1092058,12.3651719 L20.5423683,10.2052344 C20.6368107,9.73448438 21.0547264,9.39279688 21.5360425,9.39279688 L27.9470454,9.39279688 C28.4284712,9.39279688 28.8464966,9.73448438 28.9407196,10.2052344 L29.3743209,12.3651719 Z M13.2354243,1.84285937 C13.2354243,1.81004687 13.2621884,1.78335937 13.2950952,1.78335937 L15.2029189,1.78335937 C15.2353869,1.78335937 15.2614929,1.80928125 15.2622608,1.8414375 C15.2622608,1.841875 15.2621511,1.84242187 15.2621511,1.84285937 C15.2621511,1.84526562 15.2624801,1.84745312 15.2624801,1.84975 L15.2624801,16.1697813 L13.2354243,16.1697813 L13.2354243,1.84285937 Z M12.2814576,18.01275 C12.2814576,17.9799375 12.3082217,17.95325 12.3411285,17.95325 L13.3546564,17.95325 L13.3546564,18.963875 C13.3546564,19.4563906 13.7550219,19.8556094 14.2489522,19.8556094 C14.7428825,19.8556094 15.143248,19.4563906 15.143248,18.963875 L15.143248,17.95325 L16.1567759,17.95325 C16.1896827,17.95325 16.2164468,17.9798281 16.2164468,18.01275 L16.2164468,21.8174687 C16.2164468,21.8502812 16.1897924,21.8769687 16.1567759,21.8769687 L12.3411285,21.8769687 C12.3082217,21.8769687 12.2814576,21.8503906 12.2814576,21.8174687 L12.2814576,18.01275 Z M1.7885916,3.74521875 C1.7885916,3.18795313 2.24325321,2.73459375 2.80211953,2.73459375 L11.4468327,2.73459375 L11.4468327,4.75584375 L1.7885916,4.75584375 L1.7885916,3.74521875 Z M2.80211953,12.3651719 C2.24325321,12.3651719 1.7885916,11.9118125 1.7885916,11.3545469 L1.7885916,6.5393125 L11.4468327,6.5393125 L11.4468327,12.3651719 L2.80211953,12.3651719 Z M41.9716833,49.4012969 C41.9716833,52.0564844 39.8054319,54.2165313 37.1426176,54.2165313 L12.3411285,54.2165313 C9.6783142,54.2165313 7.51206279,52.056375 7.51206279,49.4012969 L7.51206279,15.1592656 C7.51206279,14.602 7.96672439,14.1486406 8.52559071,14.1486406 L11.4469424,14.1486406 L11.4469424,16.4011094 C10.8787525,16.7157813 10.4930854,17.3199688 10.4930854,18.01275 L10.4930854,21.8174688 C10.4930854,22.8336719 11.3221161,23.6603281 12.3412382,23.6603281 L16.1568856,23.6603281 C17.1760077,23.6603281 18.0050384,22.8336719 18.0050384,21.8174688 L18.0050384,18.01275 C18.0050384,17.3199688 17.6192616,16.7157813 17.0511814,16.4011094 L17.0511814,14.1486406 L32.432784,14.1486406 L32.432784,16.4011094 C31.8645941,16.7157813 31.478927,17.3199688 31.478927,18.01275 L31.478927,21.8174688 C31.478927,22.8336719 32.3079577,23.6603281 33.3270798,23.6603281 L37.1427273,23.6603281 C38.1618493,23.6603281 38.9908801,22.8336719 38.9908801,21.8174688 L38.9908801,18.01275 C38.9908801,17.3199688 38.6051033,16.7157813 38.0370231,16.4011094 L38.0370231,14.1486406 L40.9583747,14.1486406 C41.517241,14.1486406 41.9719026,14.602 41.9719026,15.1592656 L41.9719026,49.4012969 L41.9716833,49.4012969 Z M47.6950448,4.75584375 L44.7736931,4.75584375 C44.2797628,4.75584375 43.8793973,5.1550625 43.8793973,5.64757813 C43.8793973,6.14009375 44.2797628,6.5393125 44.7736931,6.5393125 L47.6950448,6.5393125 L47.6950448,11.3546563 C47.6950448,11.9119219 47.2403832,12.3652813 46.6815168,12.3652813 L38.0368037,12.3652813 L38.0368037,6.5393125 L40.9581553,6.5393125 C41.4520857,6.5393125 41.8524511,6.14009375 41.8524511,5.64757813 C41.8524511,5.1550625 41.4520857,4.75584375 40.9581553,4.75584375 L38.0368037,4.75584375 L38.0368037,2.73459375 L46.6815168,2.73459375 C47.2403832,2.73459375 47.6950448,3.18795313 47.6950448,3.74521875 L47.6950448,4.75584375 Z" id="Shape"></path>
                    <path d="M37.1164874,29.5272727 L12.3671489,29.5272727 C10.8253093,29.5272727 9.57090909,30.7861232 9.57090909,32.3334328 L9.57090909,49.5283854 C9.57090909,51.075695 10.8253093,52.3345455 12.3671489,52.3345455 L13.3187855,52.3345455 C13.8116794,52.3345455 14.2112048,51.9336027 14.2112048,51.4389601 C14.2112048,50.9443176 13.8116794,50.5433748 13.3187855,50.5433748 L12.3671489,50.5433748 C11.8094553,50.5433748 11.3557477,50.0880576 11.3557477,49.5283854 L11.3557477,38.4017291 C11.9271237,38.7557671 12.5996399,38.9606324 13.3190045,38.9606324 L21.9455784,38.9606324 L21.9455784,41.8861964 C21.9455784,42.906788 22.7728695,43.7370142 23.7898532,43.7370142 L25.6936737,43.7370142 C26.7106574,43.7370142 27.5379485,42.906788 27.5379485,41.8861964 L27.5379485,38.9606324 L29.5013148,38.9606324 C29.9942087,38.9606324 30.3937341,38.5596896 30.3937341,38.065047 C30.3937341,37.5704045 29.9942087,37.1694617 29.5013148,37.1694617 L27.5379485,37.1694617 L27.5379485,37.1097048 C27.5379485,36.0891132 26.7106574,35.258887 25.6936737,35.258887 L23.7898532,35.258887 C22.7728695,35.258887 21.9455784,36.0891132 21.9455784,37.1097048 L21.9455784,37.1694617 L13.3190045,37.1694617 C12.2364549,37.1694617 11.3557477,36.28563 11.3557477,35.1992399 L11.3557477,32.3334328 C11.3557477,31.7737606 11.8094553,31.3184434 12.3671489,31.3184434 L37.1164874,31.3184434 C37.6741811,31.3184434 38.1278887,31.7737606 38.1278887,32.3334328 L38.1278887,35.1992399 C38.1278887,36.28563 37.2471815,37.1694617 36.1646319,37.1694617 L33.3086275,37.1694617 C32.8157336,37.1694617 32.4162082,37.5704045 32.4162082,38.065047 C32.4162082,38.5596896 32.8157336,38.9606324 33.3086275,38.9606324 L36.1646319,38.9606324 C36.8839965,38.9606324 37.5565127,38.7557671 38.1278887,38.4017291 L38.1278887,49.5283854 C38.1278887,50.0880576 37.6741811,50.5433748 37.1164874,50.5433748 L17.1266455,50.5433748 C16.6337516,50.5433748 16.2342262,50.9443176 16.2342262,51.4389601 C16.2342262,51.9336027 16.6337516,52.3345455 17.1266455,52.3345455 L37.1164874,52.3345455 C38.658327,52.3345455 39.9127273,51.075695 39.9127273,49.5283854 L39.9127273,32.3334328 C39.9127273,30.7861232 38.658327,29.5272727 37.1164874,29.5272727 Z M23.7304169,37.1098146 C23.7304169,37.0768604 23.7571249,37.0500577 23.7899626,37.0500577 L25.6937832,37.0500577 C25.7266209,37.0500577 25.7533289,37.0767506 25.7533289,37.1098146 L25.7533289,38.0638387 C25.7533289,38.0641683 25.7533289,38.0646076 25.7533289,38.065047 C25.7533289,38.0654864 25.7533289,38.065816 25.7533289,38.0662554 L25.7533289,41.8861964 C25.7533289,41.9191506 25.7267303,41.9459534 25.6937832,41.9459534 L23.7899626,41.9459534 C23.7571249,41.9459534 23.7304169,41.9191506 23.7304169,41.8861964 L23.7304169,37.1098146 Z" id="Shape"></path>
                    <path d="M25.698585,18.1236364 L23.7850514,18.1236364 C22.2353455,18.1236364 20.9745455,19.3568855 20.9745455,20.8727273 C20.9745455,22.3885691 22.2353455,23.6218182 23.7850514,23.6218182 L25.698585,23.6218182 C27.2482909,23.6218182 28.5090909,22.3885691 28.5090909,20.8727273 C28.5090909,19.3568855 27.2482909,18.1236364 25.698585,18.1236364 Z M25.698585,21.8670747 L23.7850514,21.8670747 C23.2245124,21.8670747 22.7684901,21.4210173 22.7684901,20.8727273 C22.7684901,20.3244372 23.2245124,19.8783798 23.7850514,19.8783798 L25.698585,19.8783798 C26.2591239,19.8783798 26.7151463,20.3244372 26.7151463,20.8727273 C26.7151463,21.4210173 26.2591239,21.8670747 25.698585,21.8670747 Z" id="Shape"></path>
                </g>
            </g>
        </g>
    </g>
</svg>