<?xml version="1.0" encoding="UTF-8"?>
<svg width="188px" height="20px" viewBox="0 0 188 20" version="1.1" xmlns="http://www.w3.org/2000/svg" xmlns:xlink="http://www.w3.org/1999/xlink">
    <!-- Generator: Sketch 48.2 (47327) - http://www.bohemiancoding.com/sketch -->
    <title>Banorte_logo</title>
    <desc>Created with Sketch.</desc>
    <defs></defs>
    <g id="Alert_Service-wrong" stroke="none" stroke-width="1" fill="none" fill-rule="evenodd" transform="translate(-136.000000, -635.000000)">
        <g id="foter" transform="translate(0.000000, 603.000000)" fill="#FFFFFF">
            <g id="Banorte_logo" transform="translate(136.000000, 32.000000)">
                <g id="Group" transform="translate(33.548387, 1.935484)">
                    <path d="M3.8343718,10.7258065 L15.3374872,10.7258065 C15.3374872,10.7258065 16.1937061,10.7258065 16.1937061,11.5913978 C16.1937061,12.4569892 16.1937061,13.4354839 16.1937061,13.4354839 C16.1937061,13.4354839 16.1564792,14.2634409 15.3374872,14.2634409 C14.5557221,14.2634409 3.8343718,14.2634409 3.8343718,14.2634409 L3.8343718,10.7258065 Z M3.8343718,7.11290323 C3.8343718,7.11290323 14.5557221,7.11290323 15.3374872,7.11290323 C16.1192523,7.11290323 16.1937061,6.28494624 16.1937061,6.28494624 C16.1937061,6.28494624 16.1937061,5.30645161 16.1937061,4.44086022 C16.1937061,3.57526882 15.3374872,3.57526882 15.3374872,3.57526882 L3.8343718,3.57526882 L3.8343718,7.11290323 Z M20.2142125,12.4946237 C20.2142125,15.4301075 17.8316902,17.8387097 14.9279912,17.8387097 L0.297815285,17.8387097 L0.297815285,17.8010753 L0.297815285,0.0376344086 L14.183453,0.0376344086 L14.9279912,0.0376344086 C17.8316902,0.0376344086 20.2142125,2.44623656 20.2142125,5.38172043 C20.2142125,5.38172043 20.3258932,7.18817204 18.9112706,8.99462366 C18.9112706,8.95698925 20.2142125,10.311828 20.2142125,12.4946237 Z" id="Shape"></path>
                    <g transform="translate(20.102532, 0.000000)" id="Shape">
                        <path d="M9.19504693,0.0376344086 L13.8856377,0.0376344086 L22.8200962,17.8387097 L18.7251361,17.8387097 L16.0820254,12.5698925 L7.03588611,12.5698925 L4.39277546,17.8387097 L0.260588374,17.8387097 L9.19504693,0.0376344086 Z M14.2579068,8.95698925 L11.5403423,3.57526882 L8.82277782,8.95698925 L14.2579068,8.95698925 Z"></path>
                        <g transform="translate(24.569761, 0.000000)">
                            <path d="M30.8611089,17.8387097 C25.9843836,17.8387097 22.0383311,13.8494624 22.0383311,8.91935484 C22.0383311,3.98924731 25.9843836,0 30.8611089,0 L36.4823724,0 C41.3590977,0 45.3051502,3.98924731 45.3051502,8.91935484 C45.3051502,13.8494624 41.3590977,17.8387097 36.4823724,17.8387097 L30.8611089,17.8387097 Z M36.2962379,13.8870968 C39.0138024,13.8870968 41.1729632,11.6666667 41.1729632,8.95698925 C41.1729632,6.20967742 38.9765754,4.02688172 36.2962379,4.02688172 L31.0472435,4.02688172 C28.329679,4.02688172 26.1705182,6.24731183 26.1705182,8.95698925 C26.1705182,11.7043011 28.3669059,13.8870968 31.0472435,13.8870968 L36.2962379,13.8870968 Z"></path>
                            <path d="M63.322975,6.32258065 C63.322975,6.77419355 62.9507059,7.18817204 62.4667561,7.18817204 L50.9264138,7.18817204 L50.9264138,3.61290323 L62.4667561,3.61290323 C62.913479,3.61290323 63.322975,3.98924731 63.322975,4.47849462 L63.322975,6.32258065 Z M50.9636407,17.8387097 L50.9636407,10.7634409 L58.1484344,10.7634409 L62.7273444,17.8387097 L67.2690275,17.8387097 L62.6528906,10.7258065 C67.3807083,10.0107527 67.3807083,5.41935484 67.3807083,5.41935484 C67.3807083,2.48387097 64.998186,0.0752688172 62.0944869,0.0752688172 L61.9455793,0.0752688172 L47.4270842,0.0752688172 L47.4270842,17.8387097 L50.9636407,17.8387097 Z"></path>
                            <polygon points="0.0744538213 17.8387097 3.61101033 17.8387097 3.61101033 6.28494624 16.9754713 17.8387097 20.5120278 17.8387097 20.5120278 0.0376344086 16.9754713 0.0376344086 16.9754713 11.5913978 3.61101033 0.0376344086 0.0744538213 0.0376344086"></polygon>
                            <polygon points="69.6143229 3.68817204 76.5013014 3.68817204 76.5013014 17.8387097 80.6334884 17.8387097 80.6334884 3.68817204 87.4460131 3.68817204 87.4460131 0.0752688172 69.6143229 0.0752688172"></polygon>
                            <polygon points="89.7913085 0.0376344086 107.585772 0.0376344086 107.585772 3.61290323 93.327865 3.61290323 93.327865 7.15053763 104.868207 7.15053763 104.868207 10.7258065 93.327865 10.7258065 93.327865 14.2634409 107.585772 14.2634409 107.585772 17.8387097 89.7913085 17.8387097"></polygon>
                        </g>
                    </g>
                </g>
                <g id="Group">
                    <path d="M13.3944812,9.7037037 L16.11815,2.25925926 L16.11815,9.7037037 C16.5285659,9.7037037 16.9389817,9.74074074 17.3493976,9.74074074 C24.8488146,9.74074074 30.9304314,7.74074074 30.9304314,5.07407407 C30.9304314,2.37037037 24.8488146,0.222222222 17.3493976,0.222222222 C9.84998057,0.185185185 3.73105325,2.37037037 3.73105325,5.03703704 C3.73105325,7.25925926 7.83521182,9.11111111 13.3944812,9.7037037 Z" id="Shape"></path>
                    <path d="M13.170618,10.2592593 C5.96968519,10.3703704 0.186552662,12.5185185 0.186552662,15.1111111 C0.186552662,17.2962963 4.17877963,19.1481481 9.70073844,19.7407407 L13.170618,10.2592593 Z" id="Shape"></path>
                    <path d="M16.1554606,10.2592593 L16.1554606,19.7777778 C22.5355616,19.3703704 27.3859308,17.5555556 27.3859308,15.1481481 C27.3859308,12.7407407 22.5355616,10.6666667 16.1554606,10.2592593 Z" id="Shape"></path>
                </g>
            </g>
        </g>
    </g>
</svg>