<?xml version="1.0" encoding="UTF-8"?>
<svg width="31px" height="20px" viewBox="0 0 31 20" version="1.1" xmlns="http://www.w3.org/2000/svg" xmlns:xlink="http://www.w3.org/1999/xlink">
    <!-- Generator: Sketch 48.2 (47327) - http://www.bohemiancoding.com/sketch -->
    <title>banorte-imagotipo</title>
    <desc>Created with Sketch.</desc>
    <defs></defs>
    <g id="Landing_chat" stroke="none" stroke-width="1" fill="none" fill-rule="evenodd" transform="translate(-771.000000, -1080.000000)">
        <g id="chat_open" transform="translate(759.000000, 1008.000000)" fill="#EB0029">
            <g id="banorte-imagotipo" transform="translate(12.000000, 72.000000)">
                <path d="M13.3944812,9.7037037 L16.11815,2.25925926 L16.11815,9.7037037 C16.5285659,9.7037037 16.9389817,9.74074074 17.3493976,9.74074074 C24.8488146,9.74074074 30.9304314,7.74074074 30.9304314,5.07407407 C30.9304314,2.37037037 24.8488146,0.222222222 17.3493976,0.222222222 C9.84998057,0.185185185 3.73105325,2.37037037 3.73105325,5.03703704 C3.73105325,7.25925926 7.83521182,9.11111111 13.3944812,9.7037037 Z" id="Shape"></path>
                <path d="M13.170618,10.2592593 C5.96968519,10.3703704 0.186552662,12.5185185 0.186552662,15.1111111 C0.186552662,17.2962963 4.17877963,19.1481481 9.70073844,19.7407407 L13.170618,10.2592593 Z" id="Shape"></path>
                <path d="M16.1554606,10.2592593 L16.1554606,19.7777778 C22.5355616,19.3703704 27.3859308,17.5555556 27.3859308,15.1481481 C27.3859308,12.7407407 22.5355616,10.6666667 16.1554606,10.2592593 Z" id="Shape"></path>
            </g>
        </g>
    </g>
</svg>