<?xml version="1.0" encoding="UTF-8"?>
<svg width="40px" height="40px" viewBox="0 0 40 40" version="1.1" xmlns="http://www.w3.org/2000/svg" xmlns:xlink="http://www.w3.org/1999/xlink">
    <!-- Generator: Sketch 46.1 (44463) - http://www.bohemiancoding.com/sketch -->
    <title>building</title>
    <desc>Created with Sketch.</desc>
    <defs></defs>
    <g id="Page-1" stroke="none" stroke-width="1" fill="none" fill-rule="evenodd">
        <g id="envío-de-contratos" transform="translate(-782.000000, -1333.000000)" fill-rule="nonzero" fill="#2B3B46">
            <g id="Nómina-Copy" transform="translate(762.000000, 1313.000000)">
                <g id="Group">
                    <g id="building" transform="translate(20.000000, 20.000000)">
                        <path d="M8.66666667,16 L3.33333333,16 C2.96466667,16 2.66666667,16.2986667 2.66666667,16.6666667 L2.66666667,19.3333333 C2.66666667,19.7013333 2.96466667,20 3.33333333,20 L8.66666667,20 C9.03533333,20 9.33333333,19.7013333 9.33333333,19.3333333 L9.33333333,16.6666667 C9.33333333,16.2986667 9.03533333,16 8.66666667,16 Z M5.33333333,18.6666667 L4,18.6666667 L4,17.3333333 L5.33333333,17.3333333 L5.33333333,18.6666667 Z M8,18.6666667 L6.66666667,18.6666667 L6.66666667,17.3333333 L8,17.3333333 L8,18.6666667 Z" id="Shape"></path>
                        <path d="M8.66666667,21.3333333 L3.33333333,21.3333333 C2.96466667,21.3333333 2.66666667,21.632 2.66666667,22 L2.66666667,24.6666667 C2.66666667,25.0346667 2.96466667,25.3333333 3.33333333,25.3333333 L8.66666667,25.3333333 C9.03533333,25.3333333 9.33333333,25.0346667 9.33333333,24.6666667 L9.33333333,22 C9.33333333,21.632 9.03533333,21.3333333 8.66666667,21.3333333 Z M5.33333333,24 L4,24 L4,22.6666667 L5.33333333,22.6666667 L5.33333333,24 Z M8,24 L6.66666667,24 L6.66666667,22.6666667 L8,22.6666667 L8,24 Z" id="Shape"></path>
                        <path d="M8.66666667,26.6666667 L3.33333333,26.6666667 C2.96466667,26.6666667 2.66666667,26.9653333 2.66666667,27.3333333 L2.66666667,30 C2.66666667,30.368 2.96466667,30.6666667 3.33333333,30.6666667 L8.66666667,30.6666667 C9.03533333,30.6666667 9.33333333,30.368 9.33333333,30 L9.33333333,27.3333333 C9.33333333,26.9653333 9.03533333,26.6666667 8.66666667,26.6666667 Z M5.33333333,29.3333333 L4,29.3333333 L4,28 L5.33333333,28 L5.33333333,29.3333333 Z M8,29.3333333 L6.66666667,29.3333333 L6.66666667,28 L8,28 L8,29.3333333 Z" id="Shape"></path>
                        <path d="M32.6666667,16 L27.3333333,16 C26.9646667,16 26.6666667,16.2986667 26.6666667,16.6666667 L26.6666667,19.3333333 C26.6666667,19.7013333 26.9646667,20 27.3333333,20 L32.6666667,20 C33.0353333,20 33.3333333,19.7013333 33.3333333,19.3333333 L33.3333333,16.6666667 C33.3333333,16.2986667 33.0353333,16 32.6666667,16 Z M29.3333333,18.6666667 L28,18.6666667 L28,17.3333333 L29.3333333,17.3333333 L29.3333333,18.6666667 Z M32,18.6666667 L30.6666667,18.6666667 L30.6666667,17.3333333 L32,17.3333333 L32,18.6666667 Z" id="Shape"></path>
                        <path d="M32.6666667,10.6666667 L27.3333333,10.6666667 C26.9646667,10.6666667 26.6666667,10.9653333 26.6666667,11.3333333 L26.6666667,14 C26.6666667,14.368 26.9646667,14.6666667 27.3333333,14.6666667 L32.6666667,14.6666667 C33.0353333,14.6666667 33.3333333,14.368 33.3333333,14 L33.3333333,11.3333333 C33.3333333,10.9653333 33.0353333,10.6666667 32.6666667,10.6666667 Z M29.3333333,13.3333333 L28,13.3333333 L28,12 L29.3333333,12 L29.3333333,13.3333333 Z M32,13.3333333 L30.6666667,13.3333333 L30.6666667,12 L32,12 L32,13.3333333 Z" id="Shape"></path>
                        <path d="M16.6666667,18.6666667 L14,18.6666667 C13.6313333,18.6666667 13.3333333,18.9653333 13.3333333,19.3333333 L13.3333333,22 C13.3333333,22.368 13.6313333,22.6666667 14,22.6666667 L16.6666667,22.6666667 C17.0353333,22.6666667 17.3333333,22.368 17.3333333,22 L17.3333333,19.3333333 C17.3333333,18.9653333 17.0353333,18.6666667 16.6666667,18.6666667 Z M16,21.3333333 L14.6666667,21.3333333 L14.6666667,20 L16,20 L16,21.3333333 Z" id="Shape"></path>
                        <path d="M22,18.6666667 L19.3333333,18.6666667 C18.9646667,18.6666667 18.6666667,18.9653333 18.6666667,19.3333333 L18.6666667,22 C18.6666667,22.368 18.9646667,22.6666667 19.3333333,22.6666667 L22,22.6666667 C22.3686667,22.6666667 22.6666667,22.368 22.6666667,22 L22.6666667,19.3333333 C22.6666667,18.9653333 22.3686667,18.6666667 22,18.6666667 Z M21.3333333,21.3333333 L20,21.3333333 L20,20 L21.3333333,20 L21.3333333,21.3333333 Z" id="Shape"></path>
                        <path d="M16.6666667,13.3333333 L14,13.3333333 C13.6313333,13.3333333 13.3333333,13.632 13.3333333,14 L13.3333333,16.6666667 C13.3333333,17.0346667 13.6313333,17.3333333 14,17.3333333 L16.6666667,17.3333333 C17.0353333,17.3333333 17.3333333,17.0346667 17.3333333,16.6666667 L17.3333333,14 C17.3333333,13.632 17.0353333,13.3333333 16.6666667,13.3333333 Z M16,16 L14.6666667,16 L14.6666667,14.6666667 L16,14.6666667 L16,16 Z" id="Shape"></path>
                        <path d="M22,13.3333333 L19.3333333,13.3333333 C18.9646667,13.3333333 18.6666667,13.632 18.6666667,14 L18.6666667,16.6666667 C18.6666667,17.0346667 18.9646667,17.3333333 19.3333333,17.3333333 L22,17.3333333 C22.3686667,17.3333333 22.6666667,17.0346667 22.6666667,16.6666667 L22.6666667,14 C22.6666667,13.632 22.3686667,13.3333333 22,13.3333333 Z M21.3333333,16 L20,16 L20,14.6666667 L21.3333333,14.6666667 L21.3333333,16 Z" id="Shape"></path>
                        <path d="M16.6666667,8 L14,8 C13.6313333,8 13.3333333,8.29866667 13.3333333,8.66666667 L13.3333333,11.3333333 C13.3333333,11.7013333 13.6313333,12 14,12 L16.6666667,12 C17.0353333,12 17.3333333,11.7013333 17.3333333,11.3333333 L17.3333333,8.66666667 C17.3333333,8.29866667 17.0353333,8 16.6666667,8 Z M16,10.6666667 L14.6666667,10.6666667 L14.6666667,9.33333333 L16,9.33333333 L16,10.6666667 Z" id="Shape"></path>
                        <path d="M22,8 L19.3333333,8 C18.9646667,8 18.6666667,8.29866667 18.6666667,8.66666667 L18.6666667,11.3333333 C18.6666667,11.7013333 18.9646667,12 19.3333333,12 L22,12 C22.3686667,12 22.6666667,11.7013333 22.6666667,11.3333333 L22.6666667,8.66666667 C22.6666667,8.29866667 22.3686667,8 22,8 Z M21.3333333,10.6666667 L20,10.6666667 L20,9.33333333 L21.3333333,9.33333333 L21.3333333,10.6666667 Z" id="Shape"></path>
                        <path d="M16.6666667,26.6666667 L14,26.6666667 C13.6313333,26.6666667 13.3333333,26.9653333 13.3333333,27.3333333 L13.3333333,30 C13.3333333,30.368 13.6313333,30.6666667 14,30.6666667 L16.6666667,30.6666667 C17.0353333,30.6666667 17.3333333,30.368 17.3333333,30 L17.3333333,27.3333333 C17.3333333,26.9653333 17.0353333,26.6666667 16.6666667,26.6666667 Z M16,29.3333333 L14.6666667,29.3333333 L14.6666667,28 L16,28 L16,29.3333333 Z" id="Shape"></path>
                        <rect id="Rectangle-path" x="2.66666667" y="32" width="1.33333333" height="1.33333333"></rect>
                        <rect id="Rectangle-path" x="5.33333333" y="32" width="1.33333333" height="1.33333333"></rect>
                        <rect id="Rectangle-path" x="8" y="32" width="1.33333333" height="1.33333333"></rect>
                        <path d="M39.3333333,24 L36,24 L36,8.66666667 C36,8.29866667 35.702,8 35.3333333,8 L30.6666667,8 L30.6666667,6.94266667 L31.3673333,6.242 C31.9506667,6.67533333 32.638,6.90466667 33.3333333,6.90466667 C34.18,6.90466667 35.0266667,6.58266667 35.672,5.938 L35.8053333,5.804 C36.0653333,5.54333333 36.0653333,5.122 35.8046667,4.862 L34.276,3.33333333 L35.8046667,1.80466667 L34.862,0.862 L33.3333333,2.39066667 L31.138,0.195333333 C31.0133333,0.07 30.844,0 30.6666667,0 C30.3993333,0 30.2386667,0.146 30.1313333,0.244 C29.4726667,0.848 29.0993333,1.67666667 29.0806667,2.576 C29.0613333,3.47666667 29.4153333,4.35866667 30.0526667,4.99533333 L30.3906667,5.33333333 L29.5286667,6.19533333 C29.4033333,6.32 29.3333333,6.49 29.3333333,6.66666667 L29.3333333,8 L25.3333333,8 L25.3333333,6 C25.3333333,5.632 25.0353333,5.33333333 24.6666667,5.33333333 L22.3333333,5.33333333 L18.5333333,0.266666667 C18.282,-0.0693333333 17.718,-0.0693333333 17.4666667,0.266666667 L13.6666667,5.33333333 L11.3333333,5.33333333 C10.9646667,5.33333333 10.6666667,5.632 10.6666667,6 L10.6666667,13.3333333 L6.66666667,13.3333333 L6.66666667,8 L5.33333333,8 L5.33333333,13.3333333 L0.666666667,13.3333333 C0.298,13.3333333 0,13.632 0,14 L0,39.3333333 C0,39.7013333 0.298,40 0.666666667,40 L11.3333333,40 L16,40 L21.3333333,40 L22,40 L26,40 L36.6666667,40 C38.5046667,40 40,38.5046667 40,36.6666667 L40,24.6666667 C40,24.2986667 39.702,24 39.3333333,24 Z M10.6666667,38.6666667 L1.33333333,38.6666667 L1.33333333,14.6666667 L10.6666667,14.6666667 L10.6666667,38.6666667 Z M30.6966667,1.63933333 L34.3493333,5.292 C33.592,5.74733333 32.5913333,5.648 31.9386667,4.996 L30.996,4.05266667 C30.6093333,3.66533333 30.402,3.15133333 30.414,2.60466667 C30.4213333,2.25866667 30.516,1.93066667 30.6966667,1.63933333 Z M18,1.778 L20.6666667,5.33333333 L15.3333333,5.33333333 L18,1.778 Z M15.3333333,33.3333333 L15.3333333,38.6666667 L12,38.6666667 L12,14 L12,6.66666667 L24,6.66666667 L24,8.66666667 L24,20.6666667 L25.3333333,20.6666667 L25.3333333,9.33333333 L34.6666667,9.33333333 L34.6666667,24 L33.3333333,24 L33.3333333,23.3333333 C33.3333333,22.2306667 32.436,21.3333333 31.3333333,21.3333333 L27.3333333,21.3333333 C26.2306667,21.3333333 25.3333333,22.2306667 25.3333333,23.3333333 L25.3333333,24 L19.3333333,24 C18.9646667,24 18.6666667,24.2986667 18.6666667,24.6666667 L18.6666667,32 L13.3333333,32 L13.3333333,33.3333333 L15.3333333,33.3333333 Z M32,23.3333333 L32,24 L26.6666667,24 L26.6666667,23.3333333 C26.6666667,22.966 26.9653333,22.6666667 27.3333333,22.6666667 L31.3333333,22.6666667 C31.7013333,22.6666667 32,22.966 32,23.3333333 Z M16.6666667,38.6666667 L16.6666667,33.3333333 L18.6666667,33.3333333 L18.6666667,36.6666667 C18.6666667,37.42 18.9273333,38.108 19.3506667,38.6666667 L16.6666667,38.6666667 Z M38.6666667,36.6666667 C38.6666667,37.7693333 37.7693333,38.6666667 36.6666667,38.6666667 L26,38.6666667 L22,38.6666667 C20.8973333,38.6666667 20,37.7693333 20,36.6666667 L20,29.9826667 C20.5586667,30.406 21.2466667,30.6666667 22,30.6666667 L22.6666667,30.6666667 L22.6666667,32.6666667 C22.6666667,33.0346667 22.9646667,33.3333333 23.3333333,33.3333333 L26,33.3333333 C26.3686667,33.3333333 26.6666667,33.0346667 26.6666667,32.6666667 L26.6666667,30.6666667 L27.3333333,30.6666667 L31.3333333,30.6666667 L32,30.6666667 L32,32.6666667 C32,33.0346667 32.298,33.3333333 32.6666667,33.3333333 L35.3333333,33.3333333 C35.702,33.3333333 36,33.0346667 36,32.6666667 L36,30.6666667 L36.6666667,30.6666667 C37.42,30.6666667 38.108,30.406 38.6666667,29.9826667 L38.6666667,36.6666667 Z M24,32 L24,30.6666667 L25.3333333,30.6666667 L25.3333333,32 L24,32 Z M28,29.3333333 L28,28 L30.6666667,28 L30.6666667,29.3333333 L28,29.3333333 Z M33.3333333,32 L33.3333333,30.6666667 L34.6666667,30.6666667 L34.6666667,32 L33.3333333,32 Z M38.6666667,27.3333333 C38.6666667,28.436 37.7693333,29.3333333 36.6666667,29.3333333 L35.3333333,29.3333333 L32.6666667,29.3333333 L32,29.3333333 L32,27.3333333 C32,26.9653333 31.702,26.6666667 31.3333333,26.6666667 L27.3333333,26.6666667 C26.9646667,26.6666667 26.6666667,26.9653333 26.6666667,27.3333333 L26.6666667,29.3333333 L26,29.3333333 L23.3333333,29.3333333 L22,29.3333333 C20.8973333,29.3333333 20,28.436 20,27.3333333 L20,25.3333333 L38.6666667,25.3333333 L38.6666667,27.3333333 Z" id="Shape"></path>
                        <rect id="Rectangle-path" x="36" y="36" width="1.33333333" height="1.33333333"></rect>
                        <rect id="Rectangle-path" x="33.3333333" y="36" width="1.33333333" height="1.33333333"></rect>
                        <rect id="Rectangle-path" x="30.6666667" y="36" width="1.33333333" height="1.33333333"></rect>
                    </g>
                </g>
            </g>
        </g>
    </g>
</svg>