<?xml version="1.0" encoding="UTF-8"?>
<svg width="16px" height="16px" viewBox="0 0 16 16" version="1.1" xmlns="http://www.w3.org/2000/svg" xmlns:xlink="http://www.w3.org/1999/xlink">
    <!-- Generator: Sketch 48.2 (47327) - http://www.bohemiancoding.com/sketch -->
    <title>cancel-music</title>
    <desc>Created with Sketch.</desc>
    <defs></defs>
    <g id="Status_loggin" stroke="none" stroke-width="1" fill="none" fill-rule="evenodd" transform="translate(-975.000000, -91.000000)">
        <g id="status_loggin" transform="translate(614.000000, 67.000000)" fill="#EB0029">
            <g id="Group-16" transform="translate(361.000000, 24.000000)">
                <g id="cancel-music">
                    <path d="M9.90076995,7.99932394 L15.6048826,2.29521127 C16.1299531,1.77014085 16.1299531,0.918835681 15.6048826,0.393840376 C15.0798122,-0.131230047 14.2285822,-0.131230047 13.7035117,0.393840376 L7.99932394,6.09802817 L2.29513615,0.393765258 C1.77006573,-0.131305164 0.918835681,-0.131305164 0.393765258,0.393765258 C-0.131230047,0.918835681 -0.131230047,1.77014085 0.393765258,2.29513615 L6.09795305,7.99924883 L0.393765258,13.7034366 C-0.131230047,14.228507 -0.131230047,15.0798122 0.393765258,15.6048075 C0.918835681,16.1298779 1.77006573,16.1298779 2.29513615,15.6048075 L7.99932394,9.90061972 L13.7035117,15.6048075 C14.228507,16.1298779 15.0798122,16.1298779 15.6048826,15.6048075 C16.1299531,15.0797371 16.1299531,14.228507 15.6048826,13.7034366 L9.90076995,7.99932394 Z" id="Shape"></path>
                </g>
            </g>
        </g>
    </g>
</svg>