<?xml version="1.0" encoding="UTF-8"?>
<svg width="49px" height="40px" viewBox="0 0 49 40" version="1.1" xmlns="http://www.w3.org/2000/svg" xmlns:xlink="http://www.w3.org/1999/xlink">
    <!-- Generator: Sketch 48.2 (47327) - http://www.bohemiancoding.com/sketch -->
    <title>cart</title>
    <desc>Created with Sketch.</desc>
    <defs></defs>
    <g id="Process_4_succesfull_sucursal" stroke="none" stroke-width="1" fill="none" fill-rule="evenodd" transform="translate(-266.000000, -1299.000000)">
        <g id="Group-7" transform="translate(216.000000, 1269.000000)" fill-rule="nonzero">
            <g id="Group-2">
                <g id="cart" transform="translate(50.000000, 30.000000)">
                    <g id="Group" transform="translate(13.061224, 30.204082)">
                        <circle id="Oval" fill="#FFFFFF" cx="4.89795918" cy="4.89795918" r="4.08163265"></circle>
                        <path d="M4.89795918,9.79591837 C2.19673469,9.79591837 0,7.59918367 0,4.89795918 C0,2.19673469 2.19673469,0 4.89795918,0 C7.59918367,0 9.79591837,2.19673469 9.79591837,4.89795918 C9.79591837,7.59918367 7.59918367,9.79591837 4.89795918,9.79591837 Z M4.89795918,1.63265306 C3.09714286,1.63265306 1.63265306,3.09714286 1.63265306,4.89795918 C1.63265306,6.69877551 3.09714286,8.16326531 4.89795918,8.16326531 C6.69877551,8.16326531 8.16326531,6.69877551 8.16326531,4.89795918 C8.16326531,3.09714286 6.69877551,1.63265306 4.89795918,1.63265306 Z" id="Shape" fill="#EB0029"></path>
                    </g>
                    <g id="Group" transform="translate(31.836735, 30.204082)">
                        <circle id="Oval" fill="#FFFFFF" cx="4.89795918" cy="4.89795918" r="4.08163265"></circle>
                        <path d="M4.89795918,9.79591837 C2.19673469,9.79591837 0,7.59918367 0,4.89795918 C0,2.19673469 2.19673469,0 4.89795918,0 C7.59918367,0 9.79591837,2.19673469 9.79591837,4.89795918 C9.79591837,7.59918367 7.59918367,9.79591837 4.89795918,9.79591837 Z M4.89795918,1.63265306 C3.09714286,1.63265306 1.63265306,3.09714286 1.63265306,4.89795918 C1.63265306,6.69877551 3.09714286,8.16326531 4.89795918,8.16326531 C6.69877551,8.16326531 8.16326531,6.69877551 8.16326531,4.89795918 C8.16326531,3.09714286 6.69877551,1.63265306 4.89795918,1.63265306 Z" id="Shape" fill="#EB0029"></path>
                    </g>
                    <path d="M44.8979592,35.1020408 L40.7338776,35.1020408 C40.282449,35.1020408 39.917551,34.7371429 39.917551,34.2857143 C39.917551,33.8342857 40.282449,33.4693878 40.7338776,33.4693878 L44.8979592,33.4693878 C45.3493878,33.4693878 45.7142857,33.8342857 45.7142857,34.2857143 C45.7142857,34.7371429 45.3493878,35.1020408 44.8979592,35.1020408 Z" id="Shape" fill="#EB0029"></path>
                    <path d="M32.7355102,35.1020408 L21.9583673,35.1020408 C21.5069388,35.1020408 21.1420408,34.7371429 21.1420408,34.2857143 C21.1420408,33.8342857 21.5069388,33.4693878 21.9583673,33.4693878 L32.7346939,33.4693878 C33.1861224,33.4693878 33.5510204,33.8342857 33.5510204,34.2857143 C33.5510204,34.7371429 33.1861224,35.1020408 32.7355102,35.1020408 Z" id="Shape" fill="#EB0029"></path>
                    <g id="Group" transform="translate(6.530612, 5.714286)">
                        <path d="M5.71428571,22.0408163 L1.49632653,0.816326531 L40.8163265,0.816326531 L40.8163265,18.7853061 C40.8163265,20.5836735 39.3591837,22.0408163 37.5608163,22.0408163 L5.71428571,22.0408163" id="Shape" fill="#FFA400"></path>
                        <path d="M37.5616327,22.8571429 L5.04408163,22.8571429 L0.50122449,0 L41.6326531,0 L41.6326531,18.7861224 C41.6326531,21.0310204 39.8065306,22.8571429 37.5616327,22.8571429 Z M6.3844898,21.2244898 L37.5608163,21.2244898 C38.9061224,21.2244898 40,20.1306122 40,18.7861224 L40,1.63265306 L2.49142857,1.63265306 L6.3844898,21.2244898 Z" id="Shape" fill="#EB0029"></path>
                    </g>
                    <path d="M8.02612245,7.34693878 C7.63428571,7.34693878 7.28816327,7.06367347 7.22204082,6.6644898 L6.65469388,3.26530612 L4.89795918,3.26530612 C4.44653061,3.26530612 4.08163265,2.90040816 4.08163265,2.44897959 C4.08163265,1.99755102 4.44653061,1.63265306 4.89795918,1.63265306 L8.03918367,1.63265306 L8.83265306,6.39673469 C8.90693878,6.84163265 8.60653061,7.26204082 8.16163265,7.3355102 C8.11510204,7.34367347 8.07102041,7.34693878 8.02612245,7.34693878 Z" id="Shape" fill="#EB0029"></path>
                    <circle id="Oval" fill="#FFA400" cx="2.44897959" cy="2.44897959" r="2.44897959"></circle>
                    <path d="M13.96,35.1020408 L11.4285714,35.1020408 C10.2808163,35.1020408 9.17714286,34.6097959 8.40244898,33.7534694 C7.62938776,32.8987755 7.2522449,31.7510204 7.36734694,30.6040816 C7.5755102,28.5485714 9.42693878,26.9387755 11.5820408,26.9387755 C12.0334694,26.9387755 12.3983673,27.3036735 12.3983673,27.755102 C12.3983673,28.2065306 12.0334694,28.5714286 11.5820408,28.5714286 C10.2538776,28.5714286 9.11591837,29.5363265 8.99183673,30.7673469 C8.92081633,31.4653061 9.14204082,32.1371429 9.61306122,32.6579592 C10.08,33.1738776 10.7412245,33.4693878 11.4285714,33.4693878 L13.96,33.4693878 C14.4114286,33.4693878 14.7763265,33.8342857 14.7763265,34.2857143 C14.7763265,34.7371429 14.4106122,35.1020408 13.96,35.1020408 Z" id="Shape" fill="#EB0029"></path>
                </g>
            </g>
        </g>
    </g>
</svg>