<?xml version="1.0" encoding="UTF-8"?>
<svg width="56px" height="56px" viewBox="0 0 56 56" version="1.1" xmlns="http://www.w3.org/2000/svg" xmlns:xlink="http://www.w3.org/1999/xlink">
    <!-- Generator: Sketch 48.2 (47327) - http://www.bohemiancoding.com/sketch -->
    <title>cash</title>
    <desc>Created with Sketch.</desc>
    <defs></defs>
    <g id="Landing_Perfilador" stroke="none" stroke-width="1" fill="none" fill-rule="evenodd" transform="translate(-281.000000, -1039.000000)">
        <g id="perfilador" transform="translate(162.000000, 953.000000)" fill-rule="nonzero">
            <g id="Group-3-Copy" transform="translate(108.000000, 86.000000)">
                <g id="cash" transform="translate(11.000000, 0.000000)">
                    <path d="M42.976186,30.3447442 L41.7025116,29.0710698 C42.3447442,28.4288372 42.3447442,27.384 41.7025116,26.7417674 C41.080186,26.1194419 39.9957209,26.1194419 39.3732093,26.7417674 L38.0995349,25.468093 L39.000186,24.5674419 C39.6424186,23.9252093 39.6424186,22.8803721 39.000186,22.2381395 C38.3778605,21.615814 37.2933953,21.615814 36.6708837,22.2381395 L35.7702326,23.1387907 L34.4965581,21.8651163 L36.2980465,20.0636279 C36.9402791,19.4213953 36.9402791,18.3765581 36.2980465,17.7343256 C35.655814,17.092093 34.6109767,17.092093 33.9687442,17.7343256 L32.1672558,19.535814 L30.8935814,18.2621395 L31.7942326,17.3614884 C32.1058605,17.0498605 32.276093,16.6364651 32.276093,16.1968372 C32.276093,15.7572093 32.1058605,15.343814 31.7942326,15.032186 C31.152,14.3899535 30.1071628,14.3899535 29.4649302,15.032186 L28.5642791,15.9328372 L27.2906047,14.6591628 L28.1912558,13.7585116 C29.5350698,12.4146977 31.723907,12.4146977 33.0677209,13.7585116 C33.5964651,14.2872558 33.916093,14.9456744 34.0295814,15.632 C35.2310698,15.2293953 36.6145116,15.504186 37.5711628,16.4606512 C38.5276279,17.4171163 38.8033488,18.799814 38.399814,20.0022326 C39.0861395,20.1157209 39.7445581,20.4355349 40.2733023,20.964093 C41.2297674,21.9205581 41.5054884,23.3032558 41.1019535,24.5056744 C41.7882791,24.6191628 42.4466977,24.9389767 42.9754419,25.4675349 C44.3209302,26.812093 44.3209302,29.0009302 42.976186,30.3447442 Z" id="Shape" fill="#EB0029"></path>
                    <path d="M29.0928372,40.7802791 L26.5133023,43.3590698 L20.2306977,46.052093 L11.1129302,54.2574884 L12.3181395,55.595907 L15.3804651,52.839814 C15.7462326,53.0243721 16.1099535,53.2145116 16.4785116,53.3793488 L17.2152558,51.7363721 C17.0837209,51.6768372 16.9531163,51.6048372 16.8215814,51.5426977 L21.2133953,47.5895814 L27.5408372,44.8785116 L30.3653953,42.0530233 L29.0928372,40.7802791 Z" id="Shape" fill="#EB0029"></path>
                    <path d="M23.1949767,9.51962791 L9.5412093,23.1733953 L12.680186,26.3123721 L15.7659535,23.3283721 L15.7767442,23.3175814 C16.5172093,22.5771163 17.7222326,22.5771163 18.4626977,23.3175814 C19.1004651,23.9553488 19.2003721,24.9631628 18.7004651,25.7134884 L16.0524651,29.6837209 L32.6623256,46.2935814 L46.316093,32.639814 L23.1949767,9.51962791 Z M31.2057674,31.184186 C29.3962791,32.9936744 26.4617674,32.9936744 24.6513488,31.184186 C22.8418605,29.3746977 22.8418605,26.440186 24.6513488,24.6297674 C26.4608372,22.8202791 29.3953488,22.8202791 31.2057674,24.6297674 C33.0152558,26.4392558 33.0152558,29.3737674 31.2057674,31.184186 Z" id="Shape" fill="#F9BA48"></path>
                    <path d="M27.9291163,33.4422326 C26.4502326,33.4422326 25.0595349,32.8658605 24.0146977,31.820093 C22.9689302,30.7752558 22.3925581,29.3845581 22.3925581,27.9066047 C22.3925581,26.4267907 22.9689302,25.0370233 24.0146977,23.992186 C25.0595349,22.9464186 26.4493023,22.3700465 27.9291163,22.3700465 C29.408,22.3700465 30.7979535,22.9464186 31.8426047,23.992186 C32.8883721,25.0370233 33.4647442,26.4267907 33.4647442,27.9066047 C33.4647442,29.3854884 32.8883721,30.7752558 31.8426047,31.820093 C30.7977674,32.8666047 29.408,33.4422326 27.9291163,33.4422326 Z M27.9291163,24.1722791 C26.932093,24.1722791 25.9944186,24.5613023 25.288186,25.2666047 C24.5819535,25.971907 24.1938605,26.9093953 24.1938605,27.9075349 C24.1938605,28.9036279 24.5828837,29.8413023 25.288186,30.5475349 C25.9934884,31.2528372 26.9311628,31.6418605 27.9291163,31.6418605 C28.9252093,31.6418605 29.8628837,31.2528372 30.5691163,30.5475349 C31.2753488,29.8422326 31.6634419,28.9045581 31.6634419,27.9075349 C31.6634419,26.9105116 31.2744186,25.9728372 30.5691163,25.2666047 C29.863814,24.5603721 28.9252093,24.1722791 27.9291163,24.1722791 Z" id="Shape" fill="#EB0029"></path>
                    <path d="M14.5689302,31.9101395 L16.0677209,32.9090233 L20.1992558,26.712186 C21.1737674,25.2494884 20.9793488,23.2859535 19.7363721,22.0429767 C18.2933953,20.6 15.9453023,20.6 14.5023256,22.0429767 L9.08372093,27.4615814 L7.28223256,36.4686512 L4.43776744,39.3147907 C4.36111628,39.1572093 4.2747907,39.004093 4.20186047,38.8455814 L2.56613953,39.6003721 C2.73097674,39.956093 2.91646512,40.3047442 3.09748837,40.6550698 L0.270139535,43.4824186 L1.54381395,44.756093 L8.94213953,37.3577674 L10.7436279,28.3506977 L15.7767442,23.3173953 C16.5172093,22.5769302 17.7222326,22.5769302 18.4626977,23.3173953 C19.1004651,23.9551628 19.2003721,24.9629767 18.7004651,25.7133023 L14.5689302,31.9101395 Z" id="Shape" fill="#EB0029"></path>
                    <path d="M3.68576744,18.1627907 L2.01488372,17.4907907 C1.54474419,18.6608372 1.15013953,19.8740465 0.843906977,21.0945116 L2.59032558,21.5322791 C2.87776744,20.3901395 3.24613953,19.256186 3.68576744,18.1627907 Z" id="Shape" fill="#EB0029"></path>
                    <path d="M7.19032558,12.0225116 L5.76186047,10.9246512 C4.9944186,11.9226047 4.28911628,12.9845581 3.66493023,14.079814 L5.22846512,14.9715349 C5.8132093,13.9492093 6.47330233,12.9557209 7.19032558,12.0225116 Z" id="Shape" fill="#EB0029"></path>
                    <path d="M0.362046512,32.3722791 C0.561116279,33.6143256 0.848372093,34.8563721 1.21674419,36.0625116 L2.93897674,35.5365581 C2.59497674,34.4089302 2.32651163,33.2487442 2.14009302,32.087814 L0.362046512,32.3722791 Z" id="Shape" fill="#EB0029"></path>
                    <path d="M1.80762791,27.9066047 C1.80762791,26.9419535 1.8615814,25.9700465 1.96613953,25.0171163 L0.175627907,24.819907 C0.0630697674,25.8377674 0.0063255814,26.8753488 0.0063255814,27.9101395 C0.00725581395,28.1425116 0.00986046512,28.3722791 0.015255814,28.6018605 L1.81674419,28.5594419 C1.81134884,28.3415814 1.80855814,28.1226047 1.80762791,27.9066047 Z" id="Shape" fill="#EB0029"></path>
                    <path d="M51.1546047,12.4063256 C50.4546977,11.3596279 49.6764651,10.351814 48.8442791,9.40967442 L47.4950698,10.6022326 C48.2751628,11.484093 49.0027907,12.427907 49.6576744,13.4070698 L51.1546047,12.4063256 Z" id="Shape" fill="#EB0029"></path>
                    <path d="M12.2091163,7.04260465 L11.1237209,5.60502326 C10.1203721,6.36260465 9.15739535,7.19739535 8.26306977,8.08372093 L9.53134884,9.3627907 C10.3689302,8.53227907 11.2695814,7.75237209 12.2091163,7.04260465 Z" id="Shape" fill="#EB0029"></path>
                    <path d="M54.0225116,26.7103256 L55.8221395,26.6275349 C55.7653953,25.3674419 55.6212093,24.1010233 55.396093,22.8671628 L53.6243721,23.1886512 C53.8351628,24.3451163 53.9683721,25.5287442 54.0225116,26.7103256 Z" id="Shape" fill="#EB0029"></path>
                    <path d="M54.4628837,19.1957209 C54.0701395,17.9996279 53.591814,16.8187907 53.0407442,15.6865116 L51.4204651,16.4746047 C51.9365581,17.5346977 52.384186,18.6381395 52.7516279,19.7568372 L54.4628837,19.1957209 Z" id="Shape" fill="#EB0029"></path>
                    <path d="M18.3707907,3.59013953 L17.7114419,1.91386047 C16.5413953,2.37413953 15.3912558,2.92 14.2922791,3.536 L15.1741395,5.1067907 C16.2,4.53060465 17.2764651,4.01990698 18.3707907,3.59013953 Z" id="Shape" fill="#EB0029"></path>
                    <path d="M28.7756279,1.79962791 C29.9555349,1.83739535 31.1408372,1.95627907 32.300093,2.15181395 L32.5990698,0.374697674 C31.3607442,0.166697674 30.0933953,0.039627907 28.8333023,0 L28.7756279,1.79962791 Z" id="Shape" fill="#EB0029"></path>
                    <path d="M41.1568372,50.435907 L42.072,51.987907 C43.1546047,51.3501395 44.2057674,50.6314419 45.1957209,49.8513488 L44.0807442,48.4372093 C43.1536744,49.1657674 42.1709767,49.8386977 41.1568372,50.435907 Z" id="Shape" fill="#EB0029"></path>
                    <path d="M42.1395349,5.98697674 C43.1276279,6.62827907 44.0805581,7.34437209 44.9732093,8.1144186 L46.1505116,6.74902326 C45.1947907,5.92669767 44.1771163,5.16111628 43.1214884,4.47572093 L42.1395349,5.98697674 Z" id="Shape" fill="#EB0029"></path>
                    <path d="M35.7443721,2.97506977 C36.8693953,3.32725581 37.9789767,3.76055814 39.0453953,4.26213953 L39.8128372,2.63274419 C38.6734884,2.09506977 37.4853953,1.63293023 36.2829767,1.25655814 L35.7443721,2.97506977 Z" id="Shape" fill="#EB0029"></path>
                    <path d="M50.8933953,40.3614884 L52.4768372,41.2215814 C53.0785116,40.1146047 53.6098605,38.9553488 54.0548837,37.7782326 L52.3696744,37.1413953 C51.9534884,38.2429767 51.4573023,39.3265116 50.8933953,40.3614884 Z" id="Shape" fill="#EB0029"></path>
                    <path d="M53.392,33.7493953 L55.1475349,34.1501395 C55.4284651,32.9242791 55.6267907,31.6660465 55.7384186,30.4104186 L53.944186,30.2500465 C53.8405581,31.4254884 53.6541395,32.6027907 53.392,33.7493953 Z" id="Shape" fill="#EB0029"></path>
                    <path d="M46.707907,46.0610233 L48.0031628,47.3138605 C48.8777674,46.4104186 49.6991628,45.4377674 50.4459535,44.419907 L48.9949767,43.3534884 C48.2939535,44.3056744 47.5255814,45.216186 46.707907,46.0610233 Z" id="Shape" fill="#EB0029"></path>
                    <path d="M34.6392558,53.1568372 L35.1021395,54.8987907 C36.3190698,54.5763721 37.524093,54.1665116 38.6859535,53.680186 L37.9914419,52.0174884 C36.9054884,52.4714419 35.7778605,52.8550698 34.6392558,53.1568372 Z" id="Shape" fill="#EB0029"></path>
                    <path d="M20.1298605,54.724093 C21.3413953,55.0744186 22.5860465,55.3447442 23.8299535,55.5293023 L24.092093,53.7467907 C22.9283721,53.5756279 21.7637209,53.3216744 20.6306977,52.9929302 L20.1298605,54.724093 Z" id="Shape" fill="#EB0029"></path>
                    <path d="M21.3205581,0.771906977 L21.7447442,2.52204651 C22.8868837,2.2455814 24.0604651,2.04372093 25.235907,1.92316279 L25.0513488,0.130790698 C23.7947907,0.26027907 22.540093,0.476465116 21.3205581,0.771906977 Z" id="Shape" fill="#EB0029"></path>
                    <path d="M27.928186,54.0269767 L27.6219535,54.0251163 L27.6057674,55.8266047 L27.928186,55.8284651 C29.0837209,55.8284651 30.2465116,55.7573953 31.384186,55.6167442 L31.1626047,53.8297674 C30.0987907,53.9603721 29.0107907,54.0269767 27.928186,54.0269767 Z" id="Shape" fill="#EB0029"></path>
                </g>
            </g>
        </g>
    </g>
</svg>