<?xml version="1.0" encoding="UTF-8"?>
<svg width="48px" height="56px" viewBox="0 0 48 56" version="1.1" xmlns="http://www.w3.org/2000/svg" xmlns:xlink="http://www.w3.org/1999/xlink">
    <!-- Generator: Sketch 48.2 (47327) - http://www.bohemiancoding.com/sketch -->
    <title>credit-card</title>
    <desc>Created with Sketch.</desc>
    <defs></defs>
    <g id="Landing_Perfilador" stroke="none" stroke-width="1" fill="none" fill-rule="evenodd" transform="translate(-178.000000, -1039.000000)">
        <g id="perfilador" transform="translate(162.000000, 953.000000)" fill-rule="nonzero">
            <g id="Group-4" transform="translate(1.000000, 86.000000)">
                <g id="credit-card">
                    <g transform="translate(15.000000, 0.000000)">
                        <path d="M11.0176719,39.55 L11.0176719,2.5375 C11.0176719,1.575 11.8051719,0.7875 12.7676719,0.7875 L39.5426719,0.7875 C40.5051719,0.7875 41.2926719,1.575 41.2926719,2.5375 L41.2926719,39.55 C41.2926719,40.5125 40.5051719,41.3 39.5426719,41.3 L12.7676719,41.3 C11.8051719,41.3 11.0176719,40.5125 11.0176719,39.55 Z" id="Shape" fill="#FFFFFF"></path>
                        <rect id="Rectangle-path" fill="#F15F50" x="15.4801719" y="1.6625" width="6.3875" height="38.7625"></rect>
                        <path d="M27.6426719,11.2875 L27.6426719,7.4375 C27.6426719,5.6875 29.0426719,4.2875 30.7926719,4.2875 L34.6426719,4.2875 C36.3926719,4.2875 37.7926719,5.6875 37.7926719,7.4375 L37.7926719,11.2875 C37.7926719,13.0375 36.3926719,14.4375 34.6426719,14.4375 L30.7926719,14.4375 C29.0426719,14.4375 27.6426719,13.0375 27.6426719,11.2875 Z" id="Shape" fill="#FFBF5D"></path>
                        <g id="Group" transform="translate(14.875000, 16.515625)" fill="#FFFFFF">
                            <path d="M28.4301719,16.821875 L25.5426719,17.084375 C23.9676719,17.259375 22.8301719,18.571875 23.0051719,20.146875 C23.1801719,21.721875 24.4926719,22.859375 26.0676719,22.684375 L28.9551719,22.421875 C30.5301719,22.246875 31.6676719,20.934375 31.4926719,19.359375 C31.3176719,17.784375 30.0051719,16.646875 28.4301719,16.821875 Z" id="Shape"></path>
                            <path d="M28.4301719,16.821875 C30.0051719,16.646875 31.1426719,15.334375 30.9676719,13.759375 C30.7926719,12.184375 29.4801719,11.046875 27.9051719,11.221875 L23.6176719,11.659375 C22.0426719,11.834375 20.9051719,13.146875 21.0801719,14.721875 C21.2551719,16.296875 22.5676719,17.434375 24.1426719,17.259375 L28.4301719,16.821875 Z" id="Shape"></path>
                            <path d="M27.9051719,11.221875 C29.4801719,11.046875 30.6176719,9.734375 30.4426719,8.159375 C30.2676719,6.584375 28.9551719,5.446875 27.3801719,5.621875 L23.7926719,5.971875 L21.3426719,6.234375 C19.7676719,6.409375 18.6301719,7.721875 18.8051719,9.296875 C18.9801719,10.871875 20.2926719,12.009375 21.8676719,11.834375 L27.9051719,11.221875 Z" id="Shape"></path>
                            <path d="M29.9176719,2.646875 C29.7426719,1.071875 28.4301719,-0.065625 26.8551719,0.109375 L22.5676719,0.546875 C20.9926719,0.721875 19.8551719,2.034375 20.0301719,3.609375 C20.2051719,5.184375 21.5176719,6.321875 23.0926719,6.146875 L23.7926719,6.059375 L27.3801719,5.709375 C28.9551719,5.534375 30.0926719,4.134375 29.9176719,2.646875 Z" id="Shape"></path>
                            <path d="M0.692671875,33.446875 L10.7551719,33.446875 L10.7551719,30.821875 C10.7551719,30.821875 14.4301719,30.209375 16.4426719,24.696875 L0.080171875,24.696875 C1.39267188,29.509375 0.692671875,33.446875 0.692671875,33.446875 Z" id="Shape"></path>
                        </g>
                        <rect id="Rectangle-path" fill="#FF671B" x="0.867671875" y="49.9625" width="26.95" height="5.25"></rect>
                        <path d="M18.9801719,21.875 L8.74267187,22.925 C7.25517187,23.1 5.85517187,23.975 5.06767187,25.2875 L3.66767187,27.7375 C2.79267187,29.6625 2.44267187,31.7625 2.53017187,33.8625 L3.49267187,50.05 L15.4801719,50.05 C15.4801719,50.05 17.0551719,40.6875 10.6676719,33.6875 L11.5426719,29.05 L14.6926719,28.2625 C15.7426719,28 16.6176719,27.475 17.3176719,26.6 C18.2801719,25.55 19.2426719,23.8875 18.9801719,21.875 Z" id="Shape" fill="#FFA400"></path>
                        <g id="Group">
                            <path d="M45.4926719,33.1625 C46.3676719,32.2875 46.7176719,31.2375 46.6301719,30.275 C46.5426719,29.1375 45.9301719,28.175 45.0551719,27.65 C45.9301719,26.8625 46.2801719,25.8125 46.1926719,24.7625 C46.1051719,23.625 45.4926719,22.6625 44.5301719,22.1375 C45.4051719,21.2625 45.7551719,20.3 45.6676719,19.25 C45.4926719,17.4125 43.9176719,16.0125 42.1676719,16.0125 L42.1676719,2.3625 C42.1676719,1.05 41.1176719,0 39.8051719,0 L12.5926719,0 C11.2801719,0 10.2301719,1.05 10.2301719,2.3625 L10.2301719,21.9625 L8.74267187,22.1375 C6.99267187,22.3125 5.33017187,23.3625 4.45517187,24.9375 C3.40517187,26.6875 1.56767187,29.3125 1.83017187,33.95 L2.70517187,49.2625 L0.080171875,49.2625 L0.080171875,56 L28.6051719,56 L28.6051719,49.175 L26.5051719,49.175 L26.5051719,47.95 C27.7301719,47.5125 30.2676719,46.1125 31.9301719,42 L39.7176719,42 C40.9426719,42 41.9926719,41.0375 42.0801719,39.8125 L43.9176719,39.6375 C45.9301719,39.4625 47.3301719,37.7125 47.1551719,35.7 C47.0676719,34.65 46.3676719,33.6875 45.4926719,33.1625 Z M43.0426719,28.525 C44.0926719,28.525 44.9676719,29.3125 45.0551719,30.3625 C45.1426719,31.5 44.3551719,32.4625 43.2176719,32.55 L40.3301719,32.8125 L38.9301719,32.9 C37.7926719,32.9875 36.8301719,32.2 36.7426719,31.0625 C36.6551719,29.925 37.4426719,28.9625 38.5801719,28.875 L42.8676719,28.4375 C42.8676719,28.525 42.9551719,28.525 43.0426719,28.525 Z M42.6926719,26.95 L38.4051719,27.3875 L36.6551719,27.5625 C35.5176719,27.65 34.5551719,26.8625 34.4676719,25.725 C34.3801719,24.5875 35.1676719,23.625 36.3051719,23.5375 C36.4801719,23.5375 42.4301719,22.925 42.6051719,22.925 C43.6551719,22.925 44.5301719,23.7125 44.6176719,24.7625 C44.6176719,25.9 43.8301719,26.8625 42.6926719,26.95 Z M44.0051719,19.25 C44.0926719,20.3875 43.3051719,21.35 42.1676719,21.4375 C42.1676719,21.4375 37.9676719,21.7875 37.8801719,21.875 C36.7426719,21.9625 35.7801719,21.175 35.6926719,20.0375 C35.6051719,18.9 36.3926719,17.9375 37.5301719,17.85 L41.8176719,17.4125 C41.9051719,17.4125 41.9051719,17.4125 41.9926719,17.4125 C43.0426719,17.4125 43.9176719,18.2 44.0051719,19.25 Z M3.40517188,33.775 C3.14267188,29.8375 4.63017188,27.65 5.76767188,25.725 C6.38017188,24.5875 7.51767188,23.8875 8.83017188,23.7125 L18.2801719,22.75 C18.1926719,24.15 17.4926719,25.2875 16.8801719,25.9875 C15.8301719,27.3 14.8676719,27.3 11.0176719,28.2625 L9.96767188,33.775 C13.9926719,38.2375 15.3926719,43.8375 14.9551719,49.175 L4.36767188,49.175 L3.40517188,33.775 Z M27.0301719,50.75 L27.0301719,54.3375 L1.65517187,54.3375 L1.65517187,50.75 C10.6676719,50.75 18.1926719,50.75 27.0301719,50.75 Z M24.8426719,46.725 L24.8426719,49.2625 L16.4426719,49.2625 C16.5301719,47.95 16.6176719,45.2375 15.9176719,42.0875 L30.0926719,42.0875 C29.0426719,44.45 27.4676719,46.2875 24.8426719,46.725 Z M39.7176719,40.5125 L15.5676719,40.5125 C14.8676719,38.15 13.6426719,35.7 11.6301719,33.425 L12.3301719,29.6625 C14.9551719,29.05 16.6176719,28.875 18.1051719,27.125 C19.0676719,25.9875 20.1176719,24.15 19.8551719,21.875 L19.7676719,21.0875 L11.8926719,21.875 L11.8926719,2.3625 C11.8926719,1.925 12.2426719,1.575 12.6801719,1.575 L39.7176719,1.575 C40.1551719,1.575 40.5051719,1.925 40.5051719,2.3625 L40.5051719,15.925 L37.4426719,16.1875 C35.4301719,16.3625 34.0301719,18.1125 34.2051719,20.125 C34.2926719,20.9125 34.6426719,21.7 35.1676719,22.225 C34.6426719,22.4875 34.1176719,22.75 33.7676719,23.275 C33.1551719,23.975 32.8926719,24.9375 32.9801719,25.9 C33.1551719,27.475 34.2926719,28.7875 35.7801719,29.05 C35.3426719,29.75 35.1676719,30.45 35.2551719,31.2375 C35.4301719,32.725 36.4801719,33.95 37.7926719,34.3 C37.3551719,35 37.0926719,35.7875 37.1801719,36.6625 C37.3551719,38.4125 38.7551719,39.8125 40.5051719,39.9 C40.3301719,40.25 39.9801719,40.5125 39.7176719,40.5125 Z M43.7426719,38.15 L40.8551719,38.4125 C39.7176719,38.5 38.7551719,37.7125 38.6676719,36.575 C38.5801719,35.4375 39.3676719,34.475 40.5051719,34.3875 L43.3926719,34.125 C44.5301719,34.0375 45.4926719,34.825 45.5801719,35.9625 C45.6676719,37.0125 44.8801719,37.975 43.7426719,38.15 Z" id="Shape" fill="#D4451D"></path>
                            <rect id="Rectangle-path" fill="#193651" x="28.0801719" y="24.4125" width="1.75" height="1.575"></rect>
                            <rect id="Rectangle-path" fill="#193651" x="28.0801719" y="29.925" width="1.75" height="1.575"></rect>
                            <rect id="Rectangle-path" fill="#193651" x="28.0801719" y="35.4375" width="1.75" height="1.575"></rect>
                            <path d="M34.2926719,14.4375 L35.2551719,14.4375 C35.2551719,14.4375 35.2551719,14.4375 35.3426719,14.4375 L35.3426719,10.7625 L31.1426719,10.7625 L31.1426719,7.9625 L37.7926719,7.9625 L37.7926719,6.9125 L35.3426719,6.9125 L35.3426719,4.2875 C35.3426719,4.2875 35.3426719,4.2875 35.2551719,4.2875 L34.2926719,4.2875 L34.2926719,6.9125 L31.1426719,6.9125 L31.1426719,4.2875 L30.0926719,4.2875 L30.0926719,6.9125 L27.6426719,6.9125 L27.6426719,7.9625 L30.0926719,7.9625 L30.0926719,10.7625 L27.6426719,10.7625 L27.6426719,11.8125 L30.0926719,11.8125 L30.0926719,14.4375 L31.1426719,14.4375 L31.1426719,11.8125 L34.2926719,11.8125 L34.2926719,14.4375 Z" id="Shape" fill="#193651"></path>
                        </g>
                    </g>
                </g>
            </g>
        </g>
    </g>
</svg>