<?xml version="1.0" encoding="UTF-8"?>
<svg width="61px" height="56px" viewBox="0 0 61 56" version="1.1" xmlns="http://www.w3.org/2000/svg" xmlns:xlink="http://www.w3.org/1999/xlink">
    <!-- Generator: Sketch 49 (51002) - http://www.bohemiancoding.com/sketch -->
    <title>credit-card</title>
    <desc>Created with Sketch.</desc>
    <defs></defs>
    <g id="Page-1" stroke="none" stroke-width="1" fill="none" fill-rule="evenodd">
        <g id="Landing" transform="translate(-930.000000, -1527.000000)" fill="#FFFFFF" fill-rule="nonzero">
            <g id="process" transform="translate(0.000000, 1280.000000)">
                <g id="Group-13" transform="translate(856.000000, 216.000000)">
                    <g id="Group-14" transform="translate(22.000000, 31.000000)">
                        <g id="credit-card" transform="translate(52.000000, 0.000000)">
                            <path d="M52.9575408,0.12345587 L28.3780915,0.12345587 L28.3780915,0.179318255 C25.4173851,0.179318255 22.9594401,2.5814008 22.9594401,5.59796958 L22.9594401,19.9546025 C22.9594401,22.9153089 25.3615227,25.3732538 28.3780915,25.3732538 L52.9575408,25.3732538 C55.9182471,25.3732538 58.3761921,22.9711712 58.3761921,19.9546025 L58.3761921,5.54210719 C58.3761921,2.5814008 55.9741095,0.12345587 52.9575408,0.12345587 Z M56.5327334,19.9546025 C56.5327334,21.9097859 54.9127242,23.5297951 52.9575408,23.5297951 L28.3780915,23.5297951 C26.422908,23.5297951 24.8028988,21.9097859 24.8028988,19.9546025 L24.8028988,11.7428319 L56.5327334,11.7428319 L56.5327334,19.9546025 Z M24.8028988,9.95523559 L24.8028988,7.49729066 L56.5327334,7.49729066 L56.5327334,9.95523559 L24.8028988,9.95523559 Z M56.5327334,5.65383196 L24.8028988,5.65383196 L24.8028988,5.54210719 C24.8028988,3.58692373 26.422908,1.96691457 28.3780915,1.96691457 L52.9575408,1.96691457 C54.9127242,1.96691457 56.5327334,3.58692373 56.5327334,5.54210719 L56.5327334,5.65383196 Z" id="Shape"></path>
                            <path d="M33.4615685,14.4242264 L27.3167061,14.4242264 C26.8139447,14.4242264 26.422908,14.8152631 26.422908,15.3180245 C26.422908,15.820786 26.8139447,16.2118227 27.3167061,16.2118227 L33.5174309,16.2118227 C34.0201923,16.2118227 34.411229,15.820786 34.411229,15.3180245 C34.411229,14.8152631 33.9643299,14.4242264 33.4615685,14.4242264 Z" id="Shape"></path>
                            <path d="M39.7740179,14.4242264 L36.3105501,14.4242264 C35.8077886,14.4242264 35.4167519,14.8152631 35.4167519,15.3180245 C35.4167519,15.820786 35.8077886,16.2118227 36.3105501,16.2118227 L39.7740179,16.2118227 C40.2767794,16.2118227 40.6678161,15.820786 40.6678161,15.3180245 C40.6678161,14.8152631 40.2767794,14.4242264 39.7740179,14.4242264 Z" id="Shape"></path>
                            <path d="M50.667183,14.368364 C48.9354491,14.368364 47.483027,15.820786 47.483027,17.5525199 C47.483027,19.2842538 48.9354491,20.7366758 50.667183,20.7366758 C52.3989169,20.7366758 53.8513389,19.2842538 53.8513389,17.5525199 C53.8513389,15.7649236 52.4547793,14.368364 50.667183,14.368364 Z M50.667183,18.8932172 C49.940972,18.8932172 49.3264857,18.2787309 49.3264857,17.5525199 C49.3264857,16.8263089 49.940972,16.2118227 50.667183,16.2118227 C51.4492564,16.2118227 52.0078802,16.8263089 52.0078802,17.5525199 C52.0637426,18.2787309 51.4492564,18.8932172 50.667183,18.8932172 Z" id="Shape"></path>
                            <path d="M60.5548251,32.1326023 C59.8286141,30.9036299 58.0968802,30.4567308 55.9182471,30.9036299 C51.6168435,31.797428 45.4719812,32.9146757 40.6119537,32.9146757 C34.8581281,32.9146757 31.8415593,31.797428 29.1601648,30.7919051 C28.0429172,30.345006 26.9256695,29.9539693 25.8084218,29.7305198 C22.8477154,29.1160336 19.4401099,29.0043088 18.155275,29.0043088 C17.8759631,29.0043088 17.6525136,29.0043088 17.6525136,29.0043088 L0.893798156,29.0043088 C0.391036693,29.0043088 0,29.3953455 0,29.8981069 L0,55.0361801 C0,55.3713544 0.167587154,55.6506663 0.446899078,55.8182535 C0.614486232,55.8741159 0.726211002,55.9299782 0.893798156,55.9299782 C1.06138531,55.9299782 1.22897246,55.8741159 1.34069723,55.8182535 C1.50828439,55.7623911 15.6414677,47.7182077 23.2946144,47.7182077 C24.8028988,47.7182077 26.3670456,47.7740701 28.0429172,47.8857948 C29.8863758,47.9975196 31.7856969,48.053382 33.7408804,48.053382 C38.7126326,48.053382 45.2485317,47.5506205 51.4492564,43.4726664 C55.0803114,41.0705839 57.929293,38.4450518 59.8844765,35.6519326 C61.0575865,33.976061 60.8899994,32.802951 60.5548251,32.1326023 Z M8.60280725,50.1202902 C5.69796325,51.4051251 3.18415593,52.6899599 1.73173393,53.5278957 L1.73173393,30.7919051 L8.60280725,30.7919051 L8.60280725,50.1202902 Z M58.3203297,34.5905473 C56.5327334,37.160217 53.8513389,39.6740243 50.3878711,41.9085197 C44.578183,45.7071618 38.3774583,46.2099233 33.685018,46.2099233 C31.7856969,46.2099233 29.8863758,46.0981985 28.0987795,46.0423361 C26.422908,45.9864738 24.8028988,45.874749 23.2387521,45.874749 C19.6076971,45.874749 14.7476696,47.4947581 10.446266,49.3382168 L10.446266,30.7919051 L17.708376,30.7919051 C17.708376,30.7919051 17.8759631,30.7919051 18.155275,30.7919051 C19.3842475,30.7919051 22.6242658,30.8477675 25.4173851,31.4622537 C26.422908,31.6857033 27.4284309,32.0208776 28.5456786,32.4677766 C31.2270731,33.4732996 34.5788162,34.702272 40.6678161,34.702272 C41.1705776,34.702272 41.7292014,34.702272 42.2319629,34.6464097 C42.8464491,35.0933087 43.9636968,36.154694 44.131284,37.0484922 C44.1871463,37.3836665 44.0754216,37.6629784 43.7961097,37.9981527 C42.7905867,39.1154004 39.1595317,39.1154004 35.9195134,39.1154004 C33.8526052,39.1154004 31.6739722,39.1154004 29.8305135,39.33885 C24.6353117,40.065061 22.5125411,41.6292077 22.4566787,41.6850701 C22.065642,41.9643821 21.9539172,42.5230059 22.2890915,42.969905 C22.4566787,43.1933545 22.7359906,43.3609417 23.0153025,43.3609417 C23.1828897,43.3609417 23.4063392,43.3050793 23.5739264,43.1933545 C23.5739264,43.1933545 25.4732475,41.8526573 30.1098254,41.1823087 C31.8415593,40.9588591 33.9084676,40.9588591 35.9753758,40.9588591 C40.1091923,40.9588591 43.6843849,40.9588591 45.1926693,39.2271252 C45.8071555,38.5567766 46.030605,37.7188408 45.9188803,36.880905 C45.8071555,35.9871069 45.304394,35.2050335 44.7457702,34.5346849 C48.8237243,34.1436482 53.1251279,33.3615748 56.3651462,32.6912262 C57.5941187,32.4119143 58.7113664,32.5795014 58.9348159,32.9705381 C58.9906783,33.1939876 58.9348159,33.7526115 58.3203297,34.5905473 Z" id="Shape"></path>
                            <path d="M4.97175224,42.4112811 C4.46899078,42.4112811 4.07795409,42.8023178 4.07795409,43.3050793 L4.07795409,46.2657857 C4.07795409,46.7685471 4.46899078,47.1595838 4.97175224,47.1595838 C5.47451371,47.1595838 5.8655504,46.7685471 5.8655504,46.2657857 L5.8655504,43.3050793 C5.92141278,42.8581802 5.47451371,42.4112811 4.97175224,42.4112811 Z" id="Shape"></path>
                        </g>
                    </g>
                </g>
            </g>
        </g>
    </g>
</svg>