<?xml version="1.0" encoding="UTF-8"?>
<svg width="36px" height="30px" viewBox="0 0 36 30" version="1.1" xmlns="http://www.w3.org/2000/svg" xmlns:xlink="http://www.w3.org/1999/xlink">
    <!-- Generator: Sketch 48.2 (47327) - http://www.bohemiancoding.com/sketch -->
    <title>danger</title>
    <desc>Created with Sketch.</desc>
    <defs></defs>
    <g id="Alert_Service-wrong" stroke="none" stroke-width="1" fill="none" fill-rule="evenodd" transform="translate(-582.000000, -304.000000)">
        <g id="danger" transform="translate(582.000000, 304.000000)" fill-rule="nonzero">
            <path d="M34.9193119,26.701789 L19.4631193,1.06899083 C19.0725,0.421169725 18.3711468,0.0250458716 17.6146101,0.0250458716 C16.8581422,0.0250458716 16.1567202,0.421100917 15.7661009,1.06899083 L0.310045872,26.701789 C-0.0919266055,27.3684633 -0.103830275,28.2 0.279013761,28.8778211 C0.661857798,29.555711 1.38,29.9748853 2.15848624,29.9748853 L33.0708028,29.9748853 C33.849289,29.9748853 34.5674312,29.5556422 34.9502752,28.8778211 C35.3331881,28.1999312 35.3212844,27.3684633 34.9193119,26.701789 Z" id="Shape" fill="#FF9900"></path>
            <path d="M17.6146101,0.0251146789 C16.8581422,0.0251146789 16.1567202,0.421169725 15.7661009,1.06905963 L0.310045872,26.701789 C-0.0919266055,27.3684633 -0.103830275,28.2 0.279013761,28.8778211 C0.661857798,29.555711 1.38,29.9748853 2.15848624,29.9748853 L17.6146101,29.9748853 L17.6146101,0.0251146789 Z" id="Shape" fill="#FFDC35"></path>
            <path d="M30.6416972,27.1645183 L4.61752294,27.1645183 C4.37043578,27.1645183 4.14199541,27.0331651 4.01766055,26.819656 C3.89332569,26.606078 3.89194954,26.3425459 4.01387615,26.1277294 L17.0112385,3.23587156 C17.1345413,3.0187844 17.3648394,2.88454128 17.6144725,2.88447248 C17.6145413,2.88447248 17.6146789,2.88447248 17.6147477,2.88447248 C17.8642431,2.88447248 18.0946101,3.01837156 18.2179817,3.2353211 L31.2448624,26.1271101 C31.367133,26.3419954 31.3658945,26.6056651 31.2416284,26.8193807 C31.1173624,27.0330963 30.8888532,27.1645183 30.6416972,27.1645183 Z M5.80981651,25.7763303 L29.4480963,25.7763303 L17.6155734,4.98323394 L5.80981651,25.7763303 Z" id="Shape" fill="#F20013"></path>
            <path d="M17.6375229,25.7763303 L5.80981651,25.7763303 L17.6155046,4.98330275 L17.6148165,2.88461009 L17.6144725,2.88461009 C17.3648394,2.8846789 17.1344725,3.01885321 17.0112385,3.23600917 L4.01394495,26.1276606 C3.89194954,26.3425459 3.8933945,26.606078 4.01772936,26.8195872 C4.14206422,27.0331651 4.37050459,27.1644495 4.61759174,27.1644495 L17.6375917,27.1644495 L17.6375917,25.7762615 L17.6375229,25.7762615 L17.6375229,25.7763303 Z" id="Shape" fill="#FF4B00"></path>
            <path d="M19.2222936,23.3176376 C19.2222936,24.1669954 18.4972706,24.9127294 17.6479817,24.9127294 C16.7365596,24.9127294 16.0528899,24.1669954 16.0528899,23.3176376 C16.0528899,22.4476376 16.7364908,21.7225459 17.6479817,21.7225459 C18.4972018,21.7225459 19.2222936,22.4475688 19.2222936,23.3176376 Z M18.8287156,19.3817202 C18.8287156,20.0238991 18.1244037,20.2931422 17.6272018,20.2931422 C16.9643119,20.2931422 16.4050459,20.0238303 16.4050459,19.3817202 C16.4050459,16.9166284 16.1150917,13.374289 16.1150917,10.9091972 C16.1150917,10.1013303 16.7779817,9.64555046 17.6272706,9.64555046 C18.4351376,9.64555046 19.1188073,10.1012615 19.1188073,10.9091972 C19.1186697,13.374289 18.8287156,16.9166284 18.8287156,19.3817202 Z" id="Shape" fill="#533F29"></path>
        </g>
    </g>
</svg>