<?xml version="1.0" encoding="UTF-8"?>
<svg width="57px" height="56px" viewBox="0 0 57 56" version="1.1" xmlns="http://www.w3.org/2000/svg" xmlns:xlink="http://www.w3.org/1999/xlink">
    <!-- Generator: Sketch 49 (51002) - http://www.bohemiancoding.com/sketch -->
    <title>degree</title>
    <desc>Created with Sketch.</desc>
    <defs></defs>
    <g id="Page-1" stroke="none" stroke-width="1" fill="none" fill-rule="evenodd">
        <g id="Landing" transform="translate(-682.000000, -1098.000000)" fill-rule="nonzero">
            <g id="perfilador" transform="translate(162.000000, 953.000000)">
                <g id="Group-5" transform="translate(519.200000, 145.000000)">
                    <g id="degree" transform="translate(1.000000, 0.000000)">
                        <polygon id="Shape" fill="#FFA400" points="27.9818592 0.85228169 0.885070423 13.0021408 27.9818592 25.152 55.0787606 13.0021408"></polygon>
                        <path d="M27.9818592,26.0261408 C27.8944225,26.0261408 27.719662,26.0261408 27.6322254,25.9387042 L0.53543662,13.7888451 C0.273239437,13.6139718 0.0109295775,13.3517746 0.0109295775,13.0021408 C0.0109295775,12.652507 0.185802817,12.3028732 0.53543662,12.2154366 L27.6322254,0.0655774648 C27.8944225,-0.0218591549 28.1567324,-0.0218591549 28.331493,0.0655774648 L55.4283944,12.2154366 C55.7780282,12.3903099 55.9529014,12.652507 55.9529014,13.0021408 C55.9529014,13.3517746 55.7781408,13.7014085 55.4283944,13.7888451 L28.331493,25.9387042 C28.244169,26.0261408 28.1567324,26.0261408 27.9818592,26.0261408 Z M3.07030986,13.0021408 L27.9819718,24.1905352 L52.9810704,13.0021408 L27.9818592,1.81374648 L3.07030986,13.0021408 Z" id="Shape" fill="#EB0029"></path>
                        <path d="M44.0652394,13.8762817 C34.0131831,9.24360563 21.9506479,9.24360563 11.8985915,13.8762817 L11.8985915,26.0261408 C21.9506479,30.6588169 34.0131831,30.6588169 44.0652394,26.0261408 L44.0652394,13.8762817 Z" id="Shape" fill="#FFFFFF"></path>
                        <path d="M27.9818592,30.3966197 C22.3002817,30.3966197 16.6187042,29.1728451 11.5489577,26.9002817 C11.1993239,26.7254085 11.0244507,26.4632113 11.0244507,26.1135775 L11.0244507,13.9637183 C11.0244507,13.6140845 11.1993239,13.3518873 11.5489577,13.1770141 C16.6187042,10.904338 22.3002817,9.68067606 27.9818592,9.68067606 C33.6634366,9.68067606 39.3450141,10.9044507 44.4147606,13.1770141 C44.7643944,13.3518873 44.9392676,13.6140845 44.9392676,13.9637183 L44.9392676,26.1135775 C44.9392676,26.4632113 44.7643944,26.7254085 44.4147606,26.9002817 C39.4325634,29.1728451 33.7508732,30.3966197 27.9818592,30.3966197 Z M12.8600563,25.5016338 C17.4927324,27.5994366 22.7373521,28.648338 27.9818592,28.648338 C33.2263662,28.648338 38.4709859,27.5994366 43.1910986,25.5016338 L43.1910986,14.4881127 C38.5584225,12.3903099 33.3138028,11.3414085 27.9818592,11.3414085 C22.7373521,11.3414085 17.4927324,12.3903099 12.7726197,14.4881127 L12.7726197,25.5016338 L12.8600563,25.5016338 Z" id="Shape" fill="#EB0029"></path>
                        <path d="M27.9818592,26.0261408 C23.6113803,26.0261408 19.328338,25.2394366 15.3949296,23.7534648 L15.3949296,16.2362817 C19.4157746,14.7503099 23.6988169,13.9636056 27.9818592,13.9636056 C32.352338,13.9636056 36.6353803,14.7503099 40.5687887,16.2362817 L40.5687887,23.7534648 C36.6353803,25.2394366 32.352338,26.0261408 27.9818592,26.0261408 Z" id="Shape" fill="#FFA400"></path>
                        <path d="M5.43030986,24.6276056 C4.90580282,24.6276056 4.55616901,24.2779718 4.55616901,23.7534648 L4.55616901,15.012507 C4.55616901,14.488 4.90580282,14.1383662 5.43030986,14.1383662 C5.9548169,14.1383662 6.3044507,14.488 6.3044507,15.012507 L6.3044507,23.7534648 C6.3044507,24.2779718 5.9548169,24.6276056 5.43030986,24.6276056 Z" id="Shape" fill="#EB0029"></path>
                        <ellipse id="Oval" fill="#FFFFFF" cx="5.43030986" cy="25.8512676" rx="2.27267606" ry="2.09780282"></ellipse>
                        <path d="M5.43030986,28.8232113 C3.68214085,28.8232113 2.28360563,27.5121127 2.28360563,25.8512676 C2.28360563,24.1904225 3.68214085,22.8793239 5.43030986,22.8793239 C7.17847887,22.8793239 8.57701408,24.1904225 8.57701408,25.8512676 C8.6644507,27.5121127 7.17847887,28.8232113 5.43030986,28.8232113 Z M5.43030986,24.6276056 C4.64360563,24.6276056 4.03177465,25.1521127 4.03177465,25.8513803 C4.03177465,26.5506479 4.64360563,27.0751549 5.43030986,27.0751549 C6.21701408,27.0751549 6.82884507,26.5506479 6.82884507,25.8513803 C6.91628169,25.2394366 6.21701408,24.6276056 5.43030986,24.6276056 Z" id="Shape" fill="#EB0029"></path>
                        <rect id="Rectangle-path" fill="#EB0029" x="21.9506479" y="19.1207887" width="1.74816901" height="1.74816901"></rect>
                        <g id="Group" transform="translate(27.042254, 19.042254)" fill="#EB0029">
                            <rect id="Rectangle-path" x="0.0655774648" y="0.0785352113" width="1.74816901" height="1.74816901"></rect>
                            <rect id="Rectangle-path" x="5.31008451" y="0.0785352113" width="1.74816901" height="1.74816901"></rect>
                        </g>
                        <path d="M49.6593803,46.4798873 L6.12957746,46.4798873 L6.12957746,35.7285634 L49.6593803,35.7285634 C52.6313239,35.7285634 54.9913239,38.0885634 54.9913239,41.060507 C55.0787606,44.0324507 52.6313239,46.4798873 49.6593803,46.4798873 Z" id="Shape" fill="#FFFFFF"></path>
                        <path d="M49.6593803,34.8544225 L6.12957746,34.8544225 C5.86738028,34.8544225 5.69250704,34.9418592 5.51774648,35.1166197 C5.34298592,35.2913803 5.2555493,35.4662535 5.2555493,35.7284507 L5.2555493,46.392338 C5.2555493,46.9168451 5.6051831,47.2664789 6.12969014,47.2664789 L49.659493,47.2664789 C53.068507,47.2664789 55.8655775,44.4694085 55.8655775,41.0603944 C55.9529014,37.6516056 53.155831,34.8544225 49.6593803,34.8544225 Z M49.6593803,45.6058592 L7.00371831,45.6058592 L7.00371831,36.6027042 L49.659493,36.6027042 C52.1069296,36.6027042 54.1174085,38.6130704 54.1174085,41.0606197 C54.2047324,43.5953803 52.1942535,45.6058592 49.6593803,45.6058592 Z" id="Shape" fill="#EB0029"></path>
                        <path d="M9.62591549,42.9835493 L9.62591549,39.312338 L49.6593803,39.312338 C50.7082817,39.312338 51.4949859,40.0990423 51.4949859,41.1479437 C51.4949859,42.1968451 50.7082817,42.9835493 49.6593803,42.9835493 L9.62591549,42.9835493 Z" id="Shape" fill="#FFA400"></path>
                        <g id="Group" transform="translate(17.577465, 40.112676)" fill="#EB0029">
                            <rect id="Rectangle-path" x="0.00270422535" y="0.0738028169" width="1.74816901" height="1.74816901"></rect>
                            <rect id="Rectangle-path" x="23.0787606" y="0.0738028169" width="1.74816901" height="1.74816901"></rect>
                        </g>
                        <polygon id="Shape" fill="#FFFFFF" points="26.0589296 43.2457465 26.3211268 55.0459718 29.992338 52.7734085 33.7508732 55.0459718 33.8383099 43.2457465"></polygon>
                        <path d="M25.8840563,55.8326761 C25.6218592,55.6579155 25.4469859,55.3956056 25.4469859,55.0459718 L25.2721127,43.2457465 C25.2721127,42.9835493 25.3595493,42.8086761 25.5343099,42.6339155 C25.7090704,42.4591549 25.8839437,42.3717183 26.1461408,42.3717183 L33.9255211,42.3717183 C34.1877183,42.3717183 34.3625915,42.4591549 34.5373521,42.6339155 C34.7121127,42.8086761 34.7995493,42.9835493 34.7995493,43.2457465 L34.6246761,55.0459718 C34.6246761,55.3956056 34.4498028,55.6578028 34.1876056,55.8326761 C33.9254085,56.0075493 33.5757746,56.0075493 33.3134648,55.8326761 L29.9044507,53.8223099 L26.6703099,55.8326761 C26.496,55.9201127 26.1463662,55.9201127 25.8840563,55.8326761 Z M29.992338,51.8992676 C30.1672113,51.8992676 30.3419718,51.8992676 30.4294085,51.9867042 L32.9642817,53.4726761 L32.9642817,44.0324507 L27.0203944,44.0324507 L27.107831,53.4726761 L29.467831,51.9867042 C29.6427042,51.8992676 29.8174648,51.8992676 29.992338,51.8992676 Z" id="Shape" fill="#EB0029"></path>
                        <circle id="Oval" fill="#FFA400" cx="29.992338" cy="40.8857465" r="7.34242254"></circle>
                        <path d="M29.992338,49.1021972 C25.4470986,49.1021972 21.7758873,45.4309859 21.7758873,40.8857465 C21.7758873,36.340507 25.4470986,32.6692958 29.992338,32.6692958 C34.5375775,32.6692958 38.2087887,36.340507 38.2087887,40.8857465 C38.2087887,45.4309859 34.5375775,49.1021972 29.992338,49.1021972 Z M29.992338,34.3300282 C26.4085634,34.3300282 23.5240563,37.2145352 23.5240563,40.7983099 C23.5240563,44.3820845 26.4085634,47.2665915 29.992338,47.2665915 C33.5761127,47.2665915 36.4606197,44.3820845 36.4606197,40.7983099 C36.4606197,37.2145352 33.5761127,34.3300282 29.992338,34.3300282 Z" id="Shape" fill="#EB0029"></path>
                        <g id="Group" transform="translate(0.788732, 35.718310)" fill="#FFFFFF">
                            <circle id="Oval" cx="29.2036056" cy="5.16743662" r="3.84597183"></circle>
                            <circle id="Oval" cx="5.34084507" cy="5.34219718" r="5.33194366"></circle>
                        </g>
                        <path d="M6.12957746,47.2665915 C2.72056338,47.2665915 0.0109295775,44.4695211 0.0109295775,41.060507 C0.0109295775,37.651493 2.808,34.8544225 6.21701408,34.8544225 C9.62602817,34.8544225 12.4230986,37.651493 12.4230986,41.060507 C12.335662,44.4695211 9.62591549,47.2665915 6.12957746,47.2665915 Z M6.12957746,36.6027042 C3.68214085,36.6027042 1.75909859,38.6130704 1.75909859,41.0606197 C1.75909859,43.5080563 3.76946479,45.5185352 6.21701408,45.5185352 C8.66456338,45.5185352 10.6749296,43.508169 10.6749296,41.0606197 C10.587493,38.6130704 8.6644507,36.6027042 6.12957746,36.6027042 Z" id="Shape" fill="#EB0029"></path>
                    </g>
                </g>
            </g>
        </g>
    </g>
</svg>