<?xml version="1.0" encoding="UTF-8"?>
<svg width="57px" height="56px" viewBox="0 0 57 56" version="1.1" xmlns="http://www.w3.org/2000/svg" xmlns:xlink="http://www.w3.org/1999/xlink">
    <!-- Generator: Sketch 49 (51002) - http://www.bohemiancoding.com/sketch -->
    <title>diamond</title>
    <desc>Created with Sketch.</desc>
    <defs></defs>
    <g id="Page-1" stroke="none" stroke-width="1" fill="none" fill-rule="evenodd">
        <g id="Landing" transform="translate(-511.000000, -1098.000000)" fill-rule="nonzero">
            <g id="perfilador" transform="translate(162.000000, 953.000000)">
                <g id="Group-8" transform="translate(297.800000, 145.000000)">
                    <g id="diamond" transform="translate(52.000000, 0.000000)">
                        <polygon id="Shape" fill="#F9BA48" points="55.850411 26.9254521 27.9965479 55.7079178 0.142493151 26.9254521 11.2841918 12.9985205 44.7089041 12.9985205"></polygon>
                        <path d="M55.850411,25.9970411 L38.8289041,25.9970411 L45.5287671,13.4357808 L43.8890411,12.5620274 L37.1920548,25.1186849 L28.7690411,12.4841644 L27.9965479,12.9985205 L27.2240548,12.4832055 L18.8010411,25.117726 L12.1040548,12.5610685 L10.4643288,13.4348219 L17.1641918,25.9970411 L0.142493151,25.9970411 L0.142493151,27.8540548 L18.0358356,27.8540548 L27.1124384,55.9930959 L27.9963562,55.7081096 L28.880274,55.9930959 L37.9568767,27.8540548 L55.8502192,27.8540548 L55.8502192,25.9970411 L55.850411,25.9970411 Z M35.5467671,25.9970411 L20.446137,25.9970411 L27.9963562,14.6725753 L35.5467671,25.9970411 Z M27.9965479,52.6829589 L19.987589,27.853863 L36.0064658,27.853863 L27.9965479,52.6829589 Z" id="Shape" fill="#EB0029"></path>
                        <polygon id="Shape" fill="#EB0029" points="27.0679452 7.42767123 28.9249589 7.42767123 28.9249589 4.64224658 31.7103836 4.64224658 31.7103836 2.78542466 28.9249589 2.78542466 28.9249589 0 27.0679452 0 27.0679452 2.78542466 24.2827123 2.78542466 24.2827123 4.64224658 27.0679452 4.64224658"></polygon>
                        <polygon id="Shape" fill="#EB0029" points="45.6373151 10.2130959 47.4943288 10.2130959 47.4943288 7.42767123 50.2797534 7.42767123 50.2797534 5.57084932 47.4943288 5.57084932 47.4943288 2.78542466 45.6373151 2.78542466 45.6373151 5.57084932 42.8518904 5.57084932 42.8518904 7.42767123 45.6373151 7.42767123"></polygon>
                        <polygon id="Shape" fill="#EB0029" points="8.49876712 10.2130959 10.355589 10.2130959 10.355589 7.42767123 13.1410137 7.42767123 13.1410137 5.57084932 10.355589 5.57084932 10.355589 2.78542466 8.49876712 2.78542466 8.49876712 5.57084932 5.71334247 5.57084932 5.71334247 7.42767123 8.49876712 7.42767123"></polygon>
                    </g>
                </g>
            </g>
        </g>
    </g>
</svg>