<?xml version="1.0" encoding="UTF-8"?>
<svg width="15px" height="20px" viewBox="0 0 15 20" version="1.1" xmlns="http://www.w3.org/2000/svg" xmlns:xlink="http://www.w3.org/1999/xlink">
    <!-- Generator: Sketch 48.2 (47327) - http://www.bohemiancoding.com/sketch -->
    <title>doc</title>
    <desc>Created with Sketch.</desc>
    <defs></defs>
    <g id="Process_4_succesfull_sucursal" stroke="none" stroke-width="1" fill="none" fill-rule="evenodd" transform="translate(-223.000000, -955.000000)">
        <g id="doc" transform="translate(223.000000, 955.000000)" fill-rule="nonzero">
            <polygon id="Shape" fill="#EBEBEB" points="14.0827344 4.23421875 14.0827344 19.5765625 0.448515625 19.5765625 0.448515625 0.4234375 10.2719531 0.4234375"></polygon>
            <polygon id="Shape" fill="#A8A8A8" points="14.0827344 4.23421875 14.0827344 5.92792969 8.57824219 5.92792969 8.57824219 0.4234375 10.2719531 0.4234375"></polygon>
            <polygon id="Shape" fill="#EBEBEB" points="14.0827344 4.23421875 10.2719531 4.23421875 10.2719531 0.4234375"></polygon>
            <rect id="Rectangle-path" fill="#2969B0" x="2.35390625" y="7.62796875" width="4.12117187" height="2.00871094"></rect>
            <g id="Group" transform="translate(6.445312, 7.617188)" fill="#FFAC3D">
                <rect id="Rectangle-path" x="0.029765625" y="0.01078125" width="2.85089844" height="2.00871094"></rect>
                <rect id="Rectangle-path" x="2.88113281" y="0.01078125" width="2.85089844" height="2.00871094"></rect>
            </g>
            <g id="Group" transform="translate(6.445312, 9.609375)" fill="#A8A8A8">
                <rect id="Rectangle-path" x="0.029765625" y="0.02734375" width="2.85089844" height="2.00871094"></rect>
                <rect id="Rectangle-path" x="2.88113281" y="0.02734375" width="2.85089844" height="2.00871094"></rect>
                <rect id="Rectangle-path" x="0.029765625" y="2.03605469" width="2.85089844" height="2.00871094"></rect>
                <rect id="Rectangle-path" x="2.88113281" y="2.03605469" width="2.85089844" height="2.00871094"></rect>
                <rect id="Rectangle-path" x="0.029765625" y="4.04433594" width="2.85089844" height="2.00871094"></rect>
                <rect id="Rectangle-path" x="2.88113281" y="4.04433594" width="2.85089844" height="2.00871094"></rect>
                <rect id="Rectangle-path" x="0.029765625" y="6.05308594" width="2.85089844" height="2.00871094"></rect>
                <rect id="Rectangle-path" x="2.88113281" y="6.05308594" width="2.85089844" height="2.00871094"></rect>
            </g>
            <g id="Group" fill="#231F20">
                <path d="M14.3821484,3.93484375 L10.5713281,0.124023438 C10.4919141,0.044609375 10.3842188,0 10.2719531,0 L0.448515625,0 C0.2146875,0 0.025078125,0.189570313 0.025078125,0.4234375 L0.025078125,19.5765625 C0.025078125,19.8104297 0.2146875,20 0.448515625,20 L14.0827734,20 C14.3166016,20 14.5062109,19.8104297 14.5062109,19.5765625 L14.5062109,4.23421875 C14.5061719,4.12195313 14.4615234,4.01421875 14.3821484,3.93484375 Z M10.6953516,1.44570313 L13.0605859,3.81089844 L13.0604688,3.81082031 L10.6953516,3.81082031 L10.6953516,1.44570313 Z M9.84851563,0.846835938 L9.84851563,4.23421875 C9.84851563,4.46808594 10.038125,4.65765625 10.2719531,4.65765625 L13.6593359,4.65765625 L13.6593359,5.50449219 L9.00167969,5.50449219 L9.00167969,0.846835938 L9.84851563,0.846835938 Z M0.871914062,19.1531641 L0.871914062,0.846835937 L8.15480469,0.846835937 L8.15480469,5.92792969 C8.15480469,6.16179687 8.34441406,6.35136719 8.57824219,6.35136719 L13.6593359,6.35136719 L13.6593359,19.1531641 L0.871914062,19.1531641 Z" id="Shape"></path>
                <path d="M12.1773438,7.20457031 L2.35390625,7.20457031 C2.12007813,7.20457031 1.93046875,7.39414063 1.93046875,7.62800781 L1.93046875,17.6712109 C1.93046875,17.9050781 2.12007813,18.0946484 2.35390625,18.0946484 L12.1773438,18.0946484 C12.4111719,18.0946484 12.6007812,17.9050781 12.6007812,17.6712109 L12.6007812,7.62796875 C12.6007812,7.39414062 12.4111719,7.20457031 12.1773438,7.20457031 Z M11.7539062,11.2218359 L9.74972656,11.2218359 L9.74972656,10.0600391 L11.7539062,10.0600391 L11.7539062,11.2218359 Z M11.7539062,13.2304688 L9.74972656,13.2304688 L9.74972656,12.0686719 L11.7539062,12.0686719 L11.7539062,13.2304688 Z M2.77734375,12.0686719 L6.05179687,12.0686719 L6.05179687,13.2304688 L2.77734375,13.2304688 L2.77734375,12.0686719 Z M6.89863281,12.0686719 L8.90285156,12.0686719 L8.90285156,13.2304688 L6.89863281,13.2304688 L6.89863281,12.0686719 Z M8.90289062,11.2218359 L6.89867187,11.2218359 L6.89867187,10.0600391 L8.90289062,10.0600391 L8.90289062,11.2218359 Z M6.05179687,11.2218359 L2.77734375,11.2218359 L2.77734375,10.0600391 L6.05179687,10.0600391 L6.05179687,11.2218359 Z M2.77734375,14.0773047 L6.05179687,14.0773047 L6.05179687,15.2391016 L2.77734375,15.2391016 L2.77734375,14.0773047 Z M6.89863281,14.0773047 L8.90285156,14.0773047 L8.90285156,15.2391016 L6.89863281,15.2391016 L6.89863281,14.0773047 Z M9.74972656,14.0773047 L11.7539062,14.0773047 L11.7539062,15.2391016 L9.74972656,15.2391016 L9.74972656,14.0773047 Z M11.7539062,9.21320312 L9.74972656,9.21320312 L9.74972656,8.05140625 L11.7539062,8.05140625 L11.7539062,9.21320312 Z M8.90289062,9.21320312 L6.89867187,9.21320312 L6.89867187,8.05140625 L8.90289062,8.05140625 L8.90289062,9.21320312 Z M2.77734375,8.05140625 L6.05179687,8.05140625 L6.05179687,9.21320312 L2.77734375,9.21320312 L2.77734375,8.05140625 Z M2.77734375,16.0859375 L6.05179687,16.0859375 L6.05179687,17.2477344 L2.77734375,17.2477344 L2.77734375,16.0859375 Z M6.89863281,16.0859375 L8.90285156,16.0859375 L8.90285156,17.2477344 L6.89863281,17.2477344 L6.89863281,16.0859375 Z M11.7539062,17.2477344 L9.74972656,17.2477344 L9.74972656,16.0859375 L11.7539062,16.0859375 L11.7539062,17.2477344 Z" id="Shape"></path>
                <path d="M2.565625,4.17707031 L4.72507812,4.17707031 C4.95890625,4.17707031 5.14851562,3.9875 5.14851562,3.75363281 C5.14851562,3.51976563 4.95890625,3.33019531 4.72507812,3.33019531 L2.565625,3.33019531 C2.33179688,3.33019531 2.1421875,3.51976562 2.1421875,3.75363281 C2.1421875,3.9875 2.33175781,4.17707031 2.565625,4.17707031 Z" id="Shape"></path>
                <path d="M6.27058594,4.17707031 L6.35527344,4.17707031 C6.58910156,4.17707031 6.77871094,3.9875 6.77871094,3.75363281 C6.77871094,3.51976563 6.58910156,3.33019531 6.35527344,3.33019531 L6.27058594,3.33019531 C6.03675781,3.33019531 5.84714844,3.51976562 5.84714844,3.75363281 C5.84714844,3.9875 6.03671875,4.17707031 6.27058594,4.17707031 Z" id="Shape"></path>
            </g>
        </g>
    </g>
</svg>