<?xml version="1.0" encoding="UTF-8"?>
<svg width="26px" height="26px" viewBox="0 0 26 26" version="1.1" xmlns="http://www.w3.org/2000/svg" xmlns:xlink="http://www.w3.org/1999/xlink">
    <!-- Generator: Sketch 48.2 (47327) - http://www.bohemiancoding.com/sketch -->
    <title>expand-button</title>
    <desc>Created with Sketch.</desc>
    <defs></defs>
    <g id="Landing_chat" stroke="none" stroke-width="1" fill="none" fill-rule="evenodd" transform="translate(-1088.000000, -1016.000000)">
        <g id="chat_open" transform="translate(759.000000, 1008.000000)" fill="#FFFFFF" fill-rule="nonzero">
            <g id="chat">
                <g id="Group-2">
                    <g id="expand-button" transform="translate(329.000000, 8.000000)">
                        <path d="M12.670726,12.3157895 L1.01368632,12.3157895 C0.453934565,12.3157895 0,12.7697207 0,13.3294683 L0,24.986422 C0,25.5461697 0.453934565,26 1.01368632,26 L12.6708268,26 C13.2304777,26 13.6842105,25.5461697 13.6842105,24.986422 L13.6842105,13.3294683 C13.6842105,12.7697207 13.2304777,12.3157895 12.670726,12.3157895 Z M11.6569388,23.9726423 L2.02737264,23.9726423 L2.02737264,14.3429454 L11.6569388,14.3429454 L11.6569388,23.9726423 Z" id="Shape"></path>
                        <path d="M24.9871439,0 L1.0126546,0 C0.453472553,0 0,0.453375296 0,1.01256167 L0,10.4158414 C0,10.9751286 0.453472553,11.4286047 1.0126546,11.4286047 C1.57193741,11.4286047 2.02530919,10.9751286 2.02530919,10.4158414 L2.02530919,2.02522412 L23.97459,2.02522412 L23.97459,23.9746751 L15.6191063,23.9746751 C15.0598235,23.9746751 14.6063509,24.4281512 14.6063509,24.9874383 C14.6063509,25.5466247 15.0598235,26 15.6191063,26 L24.9872446,26 C25.5465274,26 26,25.5466247 26,24.9874383 L26,1.01256167 C25.9998992,0.453375296 25.5464267,0 24.9871439,0 Z" id="Shape"></path>
                        <path d="M15.3444411,10.6556623 C15.5392782,10.8501 15.7940042,10.9473684 16.0489286,10.9473684 C16.3037537,10.9473684 16.5587772,10.8501 16.7533169,10.6556623 L19.9019446,7.50688193 L19.9019446,8.93973217 C19.9019446,9.48992841 20.3480373,9.93591556 20.8984399,9.93591556 C21.4486441,9.93591556 21.8947368,9.48992841 21.8947368,8.93973217 L21.8947368,5.31908591 C21.8947368,5.28289531 21.8879944,5.2483903 21.8841274,5.21319123 C21.916749,4.92237746 21.825825,4.62035948 21.6028282,4.39726675 C21.3900442,4.18428756 21.1047788,4.09197675 20.8263551,4.11240213 C20.8032522,4.11071654 20.7806452,4.10526316 20.7573441,4.10526316 L17.1369428,4.10526316 C16.5865403,4.10526316 16.1403483,4.55144862 16.1403483,5.10174401 C16.1403483,5.65194026 16.5865403,6.09812572 17.1369428,6.09812572 L18.4932671,6.09812572 L15.3444411,9.24660861 C14.9553617,9.63568233 14.9553617,10.2665886 15.3444411,10.6556623 Z" id="Shape"></path>
                    </g>
                </g>
            </g>
        </g>
    </g>
</svg>