<?xml version="1.0" encoding="UTF-8"?>
<svg width="40px" height="16px" viewBox="0 0 40 16" version="1.1" xmlns="http://www.w3.org/2000/svg" xmlns:xlink="http://www.w3.org/1999/xlink">
    <!-- Generator: Sketch 48.2 (47327) - http://www.bohemiancoding.com/sketch -->
    <title>eyeglasses</title>
    <desc>Created with Sketch.</desc>
    <defs></defs>
    <g id="Card_description" stroke="none" stroke-width="1" fill="none" fill-rule="evenodd" transform="translate(-549.000000, -999.000000)">
        <g id="Group-21" transform="translate(546.000000, 984.000000)" fill="#D80027" fill-rule="nonzero">
            <g id="eyeglasses" transform="translate(3.000000, 15.000000)">
                <path d="M39.3333333,6.66666667 L37.88,6.66666667 C37.246,2.88933333 33.98,0 30.048,0 C26.1666667,0 22.9173333,2.746 22.1646667,6.386 C21.5173333,5.84333333 20.7786667,5.55533333 20,5.55533333 C19.222,5.55533333 18.484,5.84333333 17.8366667,6.38533333 C17.0926667,2.74533333 13.8833333,0 10.048,0 C5.83733333,0 2.37666667,3.234 2.034,7.33333333 L0.666666667,7.33333333 C0.298,7.33333333 0,7.632 0,8 C0,8.368 0.298,8.66666667 0.666666667,8.66666667 L2.034,8.66666667 C2.37666667,12.766 5.83733333,16 10.048,16 C14.3593333,16 17.872,12.5286667 17.9886667,8.21933333 C18.5573333,7.36266667 19.2653333,6.88866667 20,6.88866667 C20.7346667,6.88866667 21.4426667,7.36333333 22.0113333,8.21933333 C22.13,12.5286667 25.6853333,16 30.048,16 C34.4326667,16 38,12.4113333 38,8 L39.3333333,8 C39.702,8 40,7.70133333 40,7.33333333 C40,6.96533333 39.702,6.66666667 39.3333333,6.66666667 Z M10.048,14.6666667 C6.346,14.6666667 3.33333333,11.676 3.33333333,8 C3.33333333,4.324 6.346,1.33333333 10.048,1.33333333 C13.76,1.33333333 16.6666667,4.262 16.6666667,8 C16.6666667,11.738 13.76,14.6666667 10.048,14.6666667 Z M30.048,14.6666667 C26.346,14.6666667 23.3333333,11.676 23.3333333,8 C23.3333333,4.324 26.346,1.33333333 30.048,1.33333333 C33.76,1.33333333 36.6666667,4.262 36.6666667,8 C36.6666667,11.738 33.76,14.6666667 30.048,14.6666667 Z" id="Shape"></path>
            </g>
        </g>
    </g>
</svg>