<?xml version="1.0" encoding="UTF-8"?>
<svg width="14px" height="28px" viewBox="0 0 14 28" version="1.1" xmlns="http://www.w3.org/2000/svg" xmlns:xlink="http://www.w3.org/1999/xlink">
    <!-- Generator: Sketch 48.2 (47327) - http://www.bohemiancoding.com/sketch -->
    <title>facebook-letter-logo</title>
    <desc>Created with Sketch.</desc>
    <defs></defs>
    <g id="Landing_chat" stroke="none" stroke-width="1" fill="none" fill-rule="evenodd" transform="translate(-1049.000000, -3292.000000)">
        <g id="foter" transform="translate(0.000000, 3183.000000)" fill="#FFFFFF" fill-rule="nonzero">
            <g id="facebook-letter-logo" transform="translate(1049.000000, 109.000000)">
                <path d="M2.86373086,5.41160093 C2.86373086,6.1157587 2.86373086,9.25870998 2.86373086,9.25870998 L0.0452157773,9.25870998 L0.0452157773,13.9629698 L2.86373086,13.9629698 L2.86373086,27.9423759 L8.65355916,27.9423759 L8.65355916,13.9633596 L12.5388028,13.9633596 C12.5388028,13.9633596 12.9026729,11.707703 13.0790534,9.24136427 C12.5733643,9.24136427 8.67545244,9.24136427 8.67545244,9.24136427 C8.67545244,9.24136427 8.67545244,6.50457541 8.67545244,6.02487239 C8.67545244,5.54412993 9.30671926,4.89746636 9.93064501,4.89746636 C10.5534014,4.89746636 11.8677773,4.89746636 13.0851601,4.89746636 C13.0851601,4.25697448 13.0851601,2.04393503 13.0851601,6.49651972e-05 C11.4599907,6.49651972e-05 9.61108121,6.49651972e-05 8.79609281,6.49651972e-05 C2.72061253,-0.000259860789 2.86373086,4.70867749 2.86373086,5.41160093 Z" id="Facebook"></path>
            </g>
        </g>
    </g>
</svg>