<?xml version="1.0" encoding="UTF-8"?>
<svg width="57px" height="56px" viewBox="0 0 57 56" version="1.1" xmlns="http://www.w3.org/2000/svg" xmlns:xlink="http://www.w3.org/1999/xlink">
    <!-- Generator: Sketch 48.2 (47327) - http://www.bohemiancoding.com/sketch -->
    <title>favorites-button</title>
    <desc>Created with Sketch.</desc>
    <defs></defs>
    <g id="Landing" stroke="none" stroke-width="1" fill="none" fill-rule="evenodd" transform="translate(-510.000000, -1018.000000)">
        <g id="perfilador" transform="translate(162.000000, 873.000000)" fill="#EB0029" fill-rule="nonzero">
            <g id="Group-8" transform="translate(297.800000, 145.000000)">
                <g id="favorites-button" transform="translate(50.000000, 0.000000)">
                    <path d="M38.8954847,33.3127864 C38.7755119,32.9374915 38.9082034,32.5285966 39.2259797,32.2956746 L46.3298169,27.083878 C47.4608271,26.2541288 47.9116746,24.8560271 47.4781017,23.5220881 C47.0447186,22.1879593 45.858278,21.3217627 44.4556203,21.3153085 L35.6450169,21.2744949 C35.2509288,21.2725966 34.9031593,21.020122 34.7797695,20.6459661 L32.0183051,12.2789966 C31.5786576,10.9469559 30.3884203,10.0864542 28.9857627,10.0862644 C27.5831051,10.0862644 26.392678,10.9469559 25.9530305,12.2788068 L24.7083119,16.0486508 C24.511078,16.6458576 24.8353085,17.2901424 25.4327051,17.4871864 C26.0301017,17.6848 26.6740068,17.3601898 26.8714305,16.7627932 L28.1161492,12.9929492 C28.3086373,12.4096 28.8302915,12.3642305 28.9857627,12.3642305 C29.1410441,12.3642305 29.6626983,12.4096 29.8551864,12.9929492 L32.6166508,21.3601085 C33.0475661,22.6651932 34.2602034,23.5461966 35.6343864,23.5526508 L44.4449898,23.5934644 C45.0592814,23.5963119 45.2637288,24.0784814 45.3115661,24.2261695 C45.3595932,24.3738576 45.4776678,24.8839322 44.9824,25.2472678 L37.8783729,30.4590644 C36.7703322,31.2721085 36.3071458,32.6977356 36.725722,34.0068068 L39.4104949,42.4014915 C39.5976678,42.986739 39.2022508,43.3301424 39.0765831,43.421261 C38.9509153,43.5125695 38.5023458,43.7826983 38.003661,43.4237288 L30.8514169,38.2766644 C29.7355932,37.4738712 28.2363119,37.4738712 27.1204881,38.2766644 L19.9669153,43.424678 C19.4682305,43.7834576 19.0194712,43.5135186 18.8939932,43.4224 C18.7683254,43.3310915 18.3729085,42.987878 18.5598915,42.4028203 L21.2439051,34.0068068 C21.6624814,32.6979254 21.1991051,31.2722983 20.0912542,30.4592542 L12.9876068,25.2474576 C12.492339,24.884122 12.6104136,24.3738576 12.6584407,24.2263593 C12.7064678,24.0786712 12.9109153,23.5965017 13.5250169,23.5936542 L22.3361898,23.5528407 C22.9650983,23.5498034 23.4727051,23.0376407 23.4698576,22.4085424 C23.4668203,21.7813424 22.9575051,21.2748746 22.3308746,21.2748746 C22.3291661,21.2748746 22.3272678,21.2748746 22.3255593,21.2748746 L13.5143864,21.3156881 C12.1117288,21.3221424 10.9252881,22.188339 10.4919051,23.5224678 C10.058522,24.8565966 10.5091797,26.2546983 11.64,27.0844475 L18.7436475,32.2962441 C19.0612339,32.5293559 19.1941153,32.938061 19.0741424,33.3133559 L16.3903186,41.7093695 C15.9632,43.0453966 16.4205017,44.4414102 17.5553085,45.2656542 C18.1248,45.6792949 18.7781966,45.8862102 19.4319729,45.8862102 C20.0810034,45.8862102 20.7304136,45.6821424 21.2978169,45.2740068 L28.4512,40.1259932 C28.7710644,39.8957288 29.2010305,39.8957288 29.5208949,40.1259932 L36.673139,45.2730576 C37.8117424,46.0923661 39.2806508,46.0893288 40.4156475,45.2647051 C41.5506441,44.4402712 42.0077559,43.0442576 41.5804475,41.7080407 L38.8954847,33.3127864 Z" id="Shape"></path>
                    <path d="M28.9850034,0 C13.554061,0 1,12.554061 1,27.9850034 C1,43.4159458 13.554061,55.9700068 28.9850034,55.9700068 C29.6139119,55.9700068 30.1239864,55.4599322 30.1239864,54.8310237 C30.1239864,54.2021153 29.6139119,53.6920407 28.9850034,53.6920407 C14.8101695,53.6922305 3.2779661,42.1600271 3.2779661,27.9850034 C3.2779661,13.8099797 14.8101695,2.2779661 28.9850034,2.2779661 C43.1598373,2.2779661 54.6920407,13.8101695 54.6920407,27.9850034 C54.6920407,36.8083254 50.2462102,44.9144678 42.7991593,49.6689627 C42.2689627,50.0074305 42.1134915,50.7117017 42.4519593,51.2418983 C42.7904271,51.7720949 43.4945085,51.9275661 44.0248949,51.5890983 C52.1306576,46.413939 56.9700068,37.5900475 56.9700068,27.9851932 C56.9701966,12.554061 44.4161356,0 28.9850034,0 Z" id="Shape"></path>
                </g>
            </g>
        </g>
    </g>
</svg>