<?xml version="1.0" encoding="UTF-8"?>
<svg width="40px" height="40px" viewBox="0 0 40 40" version="1.1" xmlns="http://www.w3.org/2000/svg" xmlns:xlink="http://www.w3.org/1999/xlink">
    <!-- Generator: Sketch 48.2 (47327) - http://www.bohemiancoding.com/sketch -->
    <title>gasoline-pump</title>
    <desc>Created with Sketch.</desc>
    <defs></defs>
    <g id="Process_4_succesfull_sucursal" stroke="none" stroke-width="1" fill="none" fill-rule="evenodd" transform="translate(-483.000000, -1299.000000)">
        <g id="Group-6" transform="translate(424.000000, 1269.000000)" fill-rule="nonzero">
            <g id="Group-4">
                <g id="gasoline-pump" transform="translate(59.000000, 30.000000)">
                    <g id="Group" transform="translate(18.245614, 22.456140)" fill="#EB0029">
                        <path d="M7.7037037,0.417699805 L7.53738791,6.4060039 C7.53738791,7.07134503 8.03641326,7.57037037 8.70175439,7.57037037 C9.36709552,7.57037037 9.86612086,7.07134503 9.86612086,6.4060039 L9.94931774,0.500896686 L7.7037037,0.417699805 Z" id="Shape"></path>
                        <path d="M6.70565302,8.73481481 L3.54518519,3.91087719 L4.37692008,0.168187135 L0.218401559,0.00187134503 C-0.114307992,1.2494347 0.135204678,2.66331384 0.88374269,3.7445614 L4.87594542,9.89918129 C6.04031189,11.64577 8.03641326,12.5606238 10.1157115,12.2279922 L14.27423,11.5626511 L14.3574269,9.31703704 L9.78300195,10.065575 C8.5354386,10.2318908 7.37099415,9.7328655 6.70565302,8.73481481 Z" id="Shape"></path>
                        <rect id="Rectangle-path" transform="translate(17.954512, 13.803158) rotate(78.082127) translate(-17.954512, -13.803158) " x="14.8774598" y="10.6429516" width="6.15410535" height="6.32041356"></rect>
                    </g>
                    <path d="M18.4639376,3.66136452 C18.1312281,3.32865497 17.7153996,3.0791423 17.2163743,2.99602339 L5.57247563,0.00187134503 L4.32491228,5.07532164 L15.3034698,7.90315789 L19.6283821,12.1448733 L23.3710721,8.48538012 L18.4639376,3.66136452 Z" id="Shape" fill="#E8EAE9"></path>
                    <path d="M29.9415205,25.7848733 L31.854425,34.8505263 C31.9376218,35.2663548 32.3534503,35.5158674 32.7692788,35.4327485 L39.0070955,34.1851852 C39.422924,34.1019883 39.6724366,33.6861598 39.5893177,33.2703314 L38.1754386,26.6997271 C39.2566862,26.2007018 39.8388304,24.9531384 39.2566862,23.7887719 L34.6822612,14.3904094 C33.5178947,12.0615984 30.6900585,11.0635478 28.3612476,12.2279922 L23.2046784,7.15454191 C22.8719688,6.82183236 22.2898246,6.82183236 21.957115,7.15454191 L18.1312281,10.9804288 L17.9649123,12.4775049 C17.4658869,16.4697076 17.6322027,20.5451072 18.4639376,24.5373099 L29.9415205,25.7848733 Z" id="Shape" fill="#EB0029"></path>
                    <path d="M9.14877193,21.7926706 C9.14877193,24.3709942 7.06947368,26.4502144 4.57434698,26.4502144 C2.07922027,26.4502144 0,24.3709162 0,21.7926706 C0,19.214425 4.57442495,12.6438986 4.57442495,12.6438986 C4.57442495,12.6438986 9.14877193,19.214347 9.14877193,21.7926706 Z" id="Shape" fill="#FFD15C"></path>
                    <path d="M4.57442495,25.0363353 C2.82783626,25.0363353 1.41395712,23.6224561 1.41395712,21.7926706 C1.41395712,21.459961 1.66346979,21.2104483 1.99617934,21.2104483 C2.32888889,21.2104483 2.57840156,21.459961 2.57840156,21.7926706 C2.57840156,22.957037 3.49325536,23.8719688 4.57450292,23.8719688 C4.90721248,23.8719688 5.15672515,24.1214815 5.15672515,24.454191 C5.1565692,24.7868226 4.90705653,25.0363353 4.57442495,25.0363353 Z" id="Shape" fill="#FFFFFF"></path>
                    <path d="M7.568577,36.8465497 C7.568577,38.5931384 6.23781676,39.9238986 4.57442495,39.9238986 C2.91103314,39.9238986 1.5802729,38.5100195 1.5802729,36.8465497 C1.5802729,35.099961 4.57442495,30.8582456 4.57442495,30.8582456 C4.57442495,30.8582456 7.568577,35.099961 7.568577,36.8465497 Z" id="Shape" fill="#FFD15C"></path>
                    <path d="M4.57442495,38.925848 C3.40998051,38.925848 2.49512671,38.0109942 2.49512671,36.7634308 C2.49512671,36.5139181 2.6614425,36.3476023 2.91095517,36.3476023 C3.16046784,36.3476023 3.32678363,36.5139181 3.32678363,36.7634308 C3.32678363,37.5119688 3.90900585,38.094191 4.65754386,38.094191 C4.82385965,38.094191 5.07337232,38.2605068 5.07337232,38.5100195 C4.90705653,38.7595322 4.74074074,38.925848 4.57442495,38.925848 Z" id="Shape" fill="#FFFFFF"></path>
                </g>
            </g>
        </g>
    </g>
</svg>