<?xml version="1.0" encoding="UTF-8"?>
<svg width="182px" height="35px" viewBox="0 0 182 35" version="1.1" xmlns="http://www.w3.org/2000/svg" xmlns:xlink="http://www.w3.org/1999/xlink">
    <!-- Generator: Sketch 49 (51002) - http://www.bohemiancoding.com/sketch -->
    <title>Group 16</title>
    <desc>Created with Sketch.</desc>
    <defs></defs>
    <g id="Page-1" stroke="none" stroke-width="1" fill="none" fill-rule="evenodd">
        <g id="Landing" transform="translate(-94.000000, -2877.000000)" fill="#FFFFFF" fill-rule="nonzero">
            <g id="foter" transform="translate(0.000000, 2809.000000)">
                <g id="Group-17" transform="translate(94.000000, 65.000000)">
                    <g id="Group-16" transform="translate(0.000000, 3.000000)">
                        <g id="twitter-logo" transform="translate(50.000000, 3.000000)">
                            <path d="M37.1145503,12.9078221 C39.4653993,12.7138725 41.0600101,11.6451544 41.6736812,10.195057 C40.8256745,10.7159866 38.1932919,11.2839195 36.7394966,10.7430403 C36.6682617,10.4014631 36.5886577,10.0770134 36.5105134,9.78409396 C35.4027718,5.71650336 31.61,2.43950336 27.6359295,2.83538255 C27.9574597,2.70556376 28.2835638,2.58469799 28.6086946,2.47619128 C29.0461275,2.31951342 31.6126275,1.90193289 31.2084765,0.99602349 C30.8678725,0.199204698 27.7321745,1.59821141 27.1417617,1.78106711 C27.9211611,1.48795302 29.210104,0.983761745 29.3481946,0.0881677852 C28.1541342,0.251949664 26.9819698,0.81647651 26.076255,1.63733221 C26.4032349,1.28534228 26.6512919,0.856375839 26.7039396,0.394711409 C23.5191946,2.42928523 21.6588154,6.53113087 20.1532483,10.5100671 C18.9710604,9.36437248 17.9232651,8.46216107 16.9832953,7.96118121 C14.3463389,6.5470906 11.1934161,5.07169128 6.24405034,3.23437584 C6.09214094,4.87190268 7.0539094,7.04923826 9.82525839,8.49719463 C9.22482215,8.41681208 8.12681208,8.59616443 7.24863758,8.80646309 C7.60627181,10.6824128 8.77425168,12.2279765 11.9362248,12.9753591 C10.4911879,13.0707282 9.74438926,13.399557 9.0675604,14.1083054 C9.7257047,15.4130134 11.3317013,16.9485537 14.2207047,16.633349 C11.0087114,18.0177584 12.9110336,20.5815336 15.5246342,20.1991812 C11.0660302,24.8044396 4.03654698,24.4659765 0,20.6141342 C10.5391644,34.9751678 33.4488725,29.1072416 36.8629899,15.2748255 C39.4209262,15.2966242 40.9246443,14.3887685 41.8570235,13.3878792 C40.3832785,13.6379799 38.2472047,13.3795101 37.1145503,12.9078221 Z" id="Twitter__x28_alt_x29_"></path>
                        </g>
                        <g id="youtube-logo">
                            <path d="M22.7338667,23.4069333 L20.9777778,23.4069333 L20.9859556,22.3868444 C20.9859556,21.9335111 21.3582222,21.5626667 21.8129778,21.5626667 L21.9249778,21.5626667 C22.3808,21.5626667 22.7541333,21.9335111 22.7541333,22.3868444 L22.7338667,23.4069333 Z M16.1468444,21.2209778 C15.7013333,21.2209778 15.3368889,21.5203556 15.3368889,21.8869333 L15.3368889,26.848 C15.3368889,27.2138667 15.7013333,27.5125333 16.1468444,27.5125333 C16.5941333,27.5125333 16.9589333,27.2138667 16.9589333,26.848 L16.9589333,21.8869333 C16.9589333,21.52 16.5941333,21.2209778 16.1468444,21.2209778 Z M26.8444444,18.4458667 L26.8444444,27.8837333 C26.8444444,30.1475556 24.8814222,32 22.4817778,32 L4.5408,32 C2.14044444,32 0.177777778,30.1475556 0.177777778,27.8837333 L0.177777778,18.4458667 C0.177777778,16.1820444 2.14044444,14.3292444 4.5408,14.3292444 L22.4817778,14.3292444 C24.8814222,14.3292444 26.8444444,16.1820444 26.8444444,18.4458667 Z M5.7376,28.9084444 L5.73617778,18.9667556 L7.96017778,18.9674667 L7.96017778,17.4944 L2.03164444,17.4855111 L2.03164444,18.9336889 L3.88231111,18.9390222 L3.88231111,28.9084444 L5.7376,28.9084444 Z M12.4042667,20.4476444 L10.5500444,20.4476444 L10.5500444,25.7564444 C10.5500444,26.5244444 10.5966222,26.9084444 10.5472,27.0439111 C10.3964444,27.4556444 9.71875556,27.8929778 9.45457778,27.0883556 C9.40977778,26.9475556 9.44924444,26.5226667 9.44853333,25.7930667 L9.44106667,20.4476444 L7.59715556,20.4476444 L7.60284444,25.7091556 C7.60426667,26.5155556 7.58471111,27.1168 7.60924444,27.3905778 C7.6544,27.8730667 7.6384,28.4355556 8.08604444,28.7569778 C8.92017778,29.3578667 10.5191111,28.6673778 10.9191111,27.8083556 L10.9155556,28.9045333 L12.4046222,28.9063111 L12.4042667,20.4476444 Z M18.336,26.5269333 L18.3320889,22.1084444 C18.3306667,20.4245333 17.0709333,19.4161778 15.3610667,20.7786667 L15.3685333,17.4936889 L13.5164444,17.4965333 L13.5075556,28.8352 L15.0307556,28.8131556 L15.1694222,28.1070222 C17.1153778,29.8922667 18.3388444,28.6688 18.336,26.5269333 Z M24.1390222,25.9413333 L22.7488,25.9488 C22.7480889,26.0039111 22.7459556,26.0675556 22.7452444,26.1368889 L22.7452444,26.9127111 C22.7452444,27.328 22.4021333,27.6661333 21.9854222,27.6661333 L21.7130667,27.6661333 C21.2956444,27.6661333 20.9525333,27.328 20.9525333,26.9127111 L20.9525333,26.8266667 L20.9525333,25.9733333 L20.9525333,24.8721778 L24.1361778,24.8721778 L24.1361778,23.6739556 C24.1361778,22.7982222 24.1137778,21.9228444 24.0412444,21.4222222 C23.8133333,19.8385778 21.5904,19.5872 20.4675556,20.3978667 C20.1152,20.6510222 19.8460444,20.9898667 19.6896,21.4449778 C19.5317333,21.9004444 19.4531556,22.5226667 19.4531556,23.3130667 L19.4531556,25.9477333 C19.4538667,30.3274667 24.7736889,29.7084444 24.1390222,25.9413333 Z M17.0072889,11.6380444 C17.1029333,11.8705778 17.2515556,12.0590222 17.4531556,12.2012444 C17.6522667,12.3413333 17.9068444,12.4117333 18.2119111,12.4117333 C18.4792889,12.4117333 18.7160889,12.3395556 18.9223111,12.1905778 C19.1278222,12.0423111 19.3009778,11.8208 19.4424889,11.5253333 L19.4072889,12.2528 L21.4741333,12.2528 L21.4741333,3.46311111 L19.8471111,3.46311111 L19.8471111,10.304 C19.8471111,10.6744889 19.5420444,10.9777778 19.1690667,10.9777778 C18.7982222,10.9777778 18.4920889,10.6744889 18.4920889,10.304 L18.4920889,3.46311111 L16.7939556,3.46311111 L16.7939556,9.39164444 C16.7939556,10.1468444 16.8078222,10.6503111 16.8302222,10.9056 C16.8533333,11.1591111 16.9116444,11.4023111 17.0072889,11.6380444 Z M10.7438222,6.67377778 C10.7438222,5.83004444 10.8142222,5.1712 10.9539556,4.69617778 C11.0947556,4.22293333 11.3475556,3.84248889 11.7137778,3.55555556 C12.0789333,3.2672 12.5464889,3.12284444 13.1150222,3.12284444 C13.5932444,3.12284444 14.0028444,3.21671111 14.3448889,3.40053333 C14.6887111,3.58542222 14.9539556,3.82542222 15.1377778,4.1216 C15.3251556,4.41884444 15.4524444,4.72426667 15.5203556,5.0368 C15.5896889,5.3536 15.6238222,5.83146667 15.6238222,6.47608889 L15.6238222,8.69902222 C15.6238222,9.51431111 15.5911111,10.1141333 15.5274667,10.4949333 C15.4645333,10.8768 15.3294222,11.2309333 15.12,11.5630222 C14.9137778,11.8915556 14.6474667,12.1372444 14.3246222,12.2940444 C13.9982222,12.4522667 13.6248889,12.5297778 13.2032,12.5297778 C12.7320889,12.5297778 12.3352889,12.4647111 12.0081778,12.3288889 C11.68,12.1937778 11.4264889,11.9900444 11.2458667,11.7194667 C11.0634667,11.4485333 10.9351111,11.1185778 10.8576,10.7338667 C10.7797333,10.3495111 10.7427556,9.77137778 10.7427556,9.00088889 L10.7438222,6.67377778 Z M12.3626667,10.1653333 C12.3626667,10.6631111 12.7331556,11.0695111 13.1843556,11.0695111 C13.6359111,11.0695111 14.0049778,10.6631111 14.0049778,10.1653333 L14.0049778,5.48622222 C14.0049778,4.98915556 13.6359111,4.58275556 13.1843556,4.58275556 C12.7331556,4.58275556 12.3626667,4.98915556 12.3626667,5.48622222 L12.3626667,10.1653333 Z M6.64248889,12.528 L8.59235556,12.528 L8.59448889,5.78666667 L10.8984889,0.0117333333 L8.76586667,0.0117333333 L7.54097778,4.30115556 L6.29866667,0 L4.18808889,0 L6.63928889,5.78986667 L6.64248889,12.528 Z" id="YouTube"></path>
                        </g>
                        <g id="facebook-letter-logo" transform="translate(168.000000, 4.000000)">
                            <path d="M2.86373086,5.41160093 C2.86373086,6.1157587 2.86373086,9.25870998 2.86373086,9.25870998 L0.0452157773,9.25870998 L0.0452157773,13.9629698 L2.86373086,13.9629698 L2.86373086,27.9423759 L8.65355916,27.9423759 L8.65355916,13.9633596 L12.5388028,13.9633596 C12.5388028,13.9633596 12.9026729,11.707703 13.0790534,9.24136427 C12.5733643,9.24136427 8.67545244,9.24136427 8.67545244,9.24136427 C8.67545244,9.24136427 8.67545244,6.50457541 8.67545244,6.02487239 C8.67545244,5.54412993 9.30671926,4.89746636 9.93064501,4.89746636 C10.5534014,4.89746636 11.8677773,4.89746636 13.0851601,4.89746636 C13.0851601,4.25697448 13.0851601,2.04393503 13.0851601,6.49651972e-05 C11.4599907,6.49651972e-05 9.61108121,6.49651972e-05 8.79609281,6.49651972e-05 C2.72061253,-0.000259860789 2.86373086,4.70867749 2.86373086,5.41160093 Z" id="Facebook"></path>
                        </g>
                        <g id="instagram-logo" transform="translate(114.000000, 3.000000)">
                            <path d="M23.0411294,0 L8.78192941,0 C3.93957647,0 0,3.93976471 0,8.78211765 L0,23.0413176 C0,27.8838588 3.93957647,31.8234353 8.78192941,31.8234353 L23.0411294,31.8234353 C27.8838588,31.8234353 31.8234353,27.8836706 31.8234353,23.0413176 L31.8234353,8.78211765 C31.8236235,3.93976471 27.8838588,0 23.0411294,0 Z M29.0000941,23.0413176 C29.0000941,26.3269647 26.3269647,28.9999059 23.0413176,28.9999059 L8.78192941,28.9999059 C5.49647059,29.0000941 2.82352941,26.3269647 2.82352941,23.0413176 L2.82352941,8.78211765 C2.82352941,5.49665882 5.49647059,2.82352941 8.78192941,2.82352941 L23.0411294,2.82352941 C26.3267765,2.82352941 28.9999059,5.49665882 28.9999059,8.78211765 L28.9999059,23.0413176 L29.0000941,23.0413176 Z" id="Shape"></path>
                            <path d="M15.9117176,7.712 C11.3901176,7.712 7.71162353,11.3904941 7.71162353,15.9120941 C7.71162353,20.4335059 11.3901176,24.1118118 15.9117176,24.1118118 C20.4333176,24.1118118 24.1118118,20.4335059 24.1118118,15.9120941 C24.1118118,11.3904941 20.4333176,7.712 15.9117176,7.712 Z M15.9117176,21.2880941 C12.9472,21.2880941 10.5351529,18.8764235 10.5351529,15.9119059 C10.5351529,12.9472 12.9470118,10.5353412 15.9117176,10.5353412 C18.8764235,10.5353412 21.2882824,12.9472 21.2882824,15.9119059 C21.2882824,18.8764235 18.8762353,21.2880941 15.9117176,21.2880941 Z" id="Shape"></path>
                            <path d="M24.4557176,5.31783529 C23.9117176,5.31783529 23.3773176,5.53807059 22.9931294,5.92395294 C22.6070588,6.30795294 22.3851294,6.84254118 22.3851294,7.38842353 C22.3851294,7.93261176 22.6072471,8.46701176 22.9931294,8.85289412 C23.3771294,9.23689412 23.9117176,9.45901176 24.4557176,9.45901176 C25.0016,9.45901176 25.5343059,9.23689412 25.9201882,8.85289412 C26.3060706,8.46701176 26.5263059,7.93242353 26.5263059,7.38842353 C26.5263059,6.84254118 26.3060706,6.30795294 25.9201882,5.92395294 C25.5361882,5.53807059 25.0016,5.31783529 24.4557176,5.31783529 Z" id="Shape"></path>
                        </g>
                    </g>
                </g>
            </g>
        </g>
    </g>
</svg>