<?xml version="1.0" encoding="UTF-8"?>
<svg width="43px" height="56px" viewBox="0 0 43 56" version="1.1" xmlns="http://www.w3.org/2000/svg" xmlns:xlink="http://www.w3.org/1999/xlink">
    <!-- Generator: Sketch 49 (51002) - http://www.bohemiancoding.com/sketch -->
    <title>guitar</title>
    <desc>Created with Sketch.</desc>
    <defs></defs>
    <g id="Page-1" stroke="none" stroke-width="1" fill="none" fill-rule="evenodd">
        <g id="Landing" transform="translate(-851.000000, -1097.000000)" fill-rule="nonzero">
            <g id="perfilador" transform="translate(162.000000, 953.000000)">
                <g id="Group-7" transform="translate(641.600000, 144.000000)">
                    <g id="guitar" transform="translate(48.000000, 0.000000)">
                        <path d="M26.1935484,56 L17.1612903,56 C11.6832258,56 7.22580645,51.5425806 7.22580645,46.0645161 L7.22580645,44.9445161 C7.22580645,41.9304516 8.4,39.0970323 10.5307097,36.9663226 C10.8621935,36.6348387 11.1394839,36.2274839 11.3544516,35.7541935 L11.4845161,35.4344516 C11.6507097,34.980129 11.7419355,34.5005161 11.7419355,34.0416774 C11.7419355,33.2224516 11.5016774,32.4294194 11.0473548,31.7474839 C10.3202581,30.6563871 9.93548387,29.3864516 9.93548387,28.075871 C9.93548387,26.6388387 10.3338065,25.3210323 11.0889032,24.1892903 C11.7175484,23.2454194 12.6578065,22.5273548 13.7353548,22.1687742 L17.9732903,20.756129 L25.2903226,20.7741935 L25.8394839,21.7388387 L27.9692903,25.2903226 C28.3034839,25.8476129 28.9149677,26.1935484 29.5652903,26.1935484 C30.0629677,26.1935484 30.5290323,25.9993548 30.8812903,25.648 L31.3166452,25.2126452 C31.8414194,24.687871 32.5676129,24.3870968 33.3100645,24.3870968 C34.8645161,24.3870968 36.1290323,25.6516129 36.1290323,27.2060645 C36.1290323,27.9485161 35.8282581,28.6747097 35.3034839,29.1994839 L33.6343226,30.8686452 C32.9126452,31.5903226 32.516129,32.5486452 32.516129,33.5692903 C32.516129,34.4327742 32.8132903,35.2809032 33.3534194,35.9565161 C35.1427097,38.1929032 36.1290323,41.0037419 36.1290323,43.8687742 L36.1290323,46.0645161 C36.1290323,51.5425806 31.6716129,56 26.1935484,56 Z" id="Shape" fill="#FFA64D"></path>
                        <g id="Group" fill="#EB0029">
                            <path d="M27.3704516,8.97445161 L28,7.39922581 L28,7.22580645 L29.8064516,7.22580645 L29.8064516,5.41935484 L28,5.41935484 L28,3.61290323 L29.8064516,3.61290323 L29.8064516,1.80645161 L28,1.80645161 L28,0 L15.3548387,0 L15.3548387,1.80645161 L13.5483871,1.80645161 L13.5483871,3.61290323 L15.3548387,3.61290323 L15.3548387,5.41935484 L13.5483871,5.41935484 L13.5483871,7.22580645 L15.3548387,7.22580645 L15.3548387,7.39922581 L17.1612903,11.9153548 L17.1612903,33.4193548 C15.6673548,33.4193548 14.4516129,34.6350968 14.4516129,36.1290323 C14.4516129,37.6229677 15.6673548,38.8387097 17.1612903,38.8387097 L17.1612903,42.4516129 C15.6673548,42.4516129 14.4516129,43.6673548 14.4516129,45.1612903 C14.4516129,46.6552258 15.6673548,47.8709677 17.1612903,47.8709677 L26.1935484,47.8709677 C27.6874839,47.8709677 28.9032258,46.6552258 28.9032258,45.1612903 C28.9032258,43.6673548 27.6874839,42.4516129 26.1935484,42.4516129 L26.1935484,38.8387097 C27.6874839,38.8387097 28.9032258,37.6229677 28.9032258,36.1290323 C28.9032258,34.6350968 27.6874839,33.4193548 26.1935484,33.4193548 L26.1935484,11.9153548 L26.6966452,10.6580645 C34.4101935,12.88 39.7419355,19.8980645 39.7419355,28 C39.7419355,32.3490323 38.2145806,36.4469677 35.4227097,39.7112258 C35.6584516,40.3886452 35.8354839,41.0850323 35.9538065,41.7931613 C39.555871,38.0709677 41.5483871,33.2007742 41.5483871,28 C41.5483871,19.1492903 35.7623226,11.4736774 27.3704516,8.97445161 Z M17.1612903,1.80645161 L18.9677419,1.80645161 L18.9677419,3.61290323 L20.7741935,3.61290323 L20.7741935,1.80645161 L22.5806452,1.80645161 L22.5806452,3.61290323 L24.3870968,3.61290323 L24.3870968,1.80645161 L26.1935484,1.80645161 L26.1935484,7.0523871 L24.6788387,10.8387097 L24.3870968,10.8387097 L24.3870968,5.41935484 L22.5806452,5.41935484 L22.5806452,10.8387097 L20.7741935,10.8387097 L20.7741935,5.41935484 L18.9677419,5.41935484 L18.9677419,10.8387097 L18.676,10.8387097 L17.1612903,7.0523871 L17.1612903,1.80645161 Z M22.5806452,42.4516129 L22.5806452,38.8387097 L24.3870968,38.8387097 L24.3870968,42.4516129 L22.5806452,42.4516129 Z M22.5806452,37.0322581 L22.5806452,35.2258065 L24.3870968,35.2258065 L24.3870968,37.0322581 L22.5806452,37.0322581 Z M20.7741935,37.0322581 L18.9677419,37.0322581 L18.9677419,35.2258065 L20.7741935,35.2258065 L20.7741935,37.0322581 Z M22.5806452,33.4193548 L22.5806452,12.6451613 L24.3870968,12.6451613 L24.3870968,33.4193548 L22.5806452,33.4193548 Z M18.9677419,12.6451613 L20.7741935,12.6451613 L20.7741935,33.4193548 L18.9677419,33.4193548 L18.9677419,12.6451613 Z M16.2580645,36.1290323 C16.2580645,35.6304516 16.6636129,35.2258065 17.1612903,35.2258065 L17.1612903,37.0322581 C16.6636129,37.0322581 16.2580645,36.6276129 16.2580645,36.1290323 Z M18.9677419,38.8387097 L20.7741935,38.8387097 L20.7741935,42.4516129 L18.9677419,42.4516129 L18.9677419,38.8387097 Z M27.0967742,45.1612903 C27.0967742,45.659871 26.6912258,46.0645161 26.1935484,46.0645161 L17.1612903,46.0645161 C16.6636129,46.0645161 16.2580645,45.659871 16.2580645,45.1612903 C16.2580645,44.6627097 16.6636129,44.2580645 17.1612903,44.2580645 L26.1935484,44.2580645 C26.6912258,44.2580645 27.0967742,44.6627097 27.0967742,45.1612903 Z M27.0967742,36.1290323 C27.0967742,36.6276129 26.6912258,37.0322581 26.1935484,37.0322581 L26.1935484,35.2258065 C26.6912258,35.2258065 27.0967742,35.6304516 27.0967742,36.1290323 Z" id="Shape"></path>
                            <path d="M3.61290323,22.5806452 L5.41935484,22.5806452 L5.41935484,13.5483871 L3.61290323,13.5483871 L3.61290323,8.12903226 L1.80645161,8.12903226 L1.80645161,13.5483871 L0,13.5483871 L0,22.5806452 L1.80645161,22.5806452 L1.80645161,28 C1.80645161,33.3073548 3.87303226,38.276 7.61690323,42.0270968 C7.79122581,41.3713548 8.02516129,40.7363871 8.31509677,40.1258065 C5.28658065,36.7956129 3.61290323,32.5378065 3.61290323,28 L3.61290323,22.5806452 Z M1.80645161,15.3548387 L3.61290323,15.3548387 L3.61290323,20.7741935 L1.80645161,20.7741935 L1.80645161,15.3548387 Z" id="Shape"></path>
                        </g>
                    </g>
                </g>
            </g>
        </g>
    </g>
</svg>