<?xml version="1.0" encoding="utf-8"?>
<!-- Generator: Adobe Illustrator 17.0.0, SVG Export Plug-In . SVG Version: 6.00 Build 0)  -->
<!DOCTYPE svg PUBLIC "-//W3C//DTD SVG 1.1//EN" "http://www.w3.org/Graphics/SVG/1.1/DTD/svg11.dtd">
<svg version="1.1" id="Capa_1" xmlns="http://www.w3.org/2000/svg" xmlns:xlink="http://www.w3.org/1999/xlink" x="0px" y="0px"
	 width="15px" height="15px" viewBox="0 0 15 15" enable-background="new 0 0 15 15" xml:space="preserve">
<title>hand-with-smartphone-and-wireless-internet</title>
<desc>Created with Sketch.</desc>
<g id="Alert_Service-wrong" transform="translate(-945.000000, -34.000000)">
	<g id="header">
		<g id="top">
			<g id="menu">
				<g transform="translate(443.000000, 34.000000)">
					<g id="celular" transform="translate(502.000000, 0.000000)">
						<g id="hand-with-smartphone-and-wireless-internet">
							<path id="Shape" fill="#EB0029" d="M9.126,4.923L9.002,5.047C8.725,5.323,8.725,5.772,9.003,6.049l0.054,0.054
								C9.334,6.38,9.781,6.38,10.058,6.103l0.936-0.935l0.123-0.124c0.277-0.277,0.277-0.726,0-1.002l-0.055-0.055
								c-0.275-0.277-0.724-0.277-1.002,0L9.126,4.923z M11.186,5.362l-0.936,0.936c-0.275,0.276-0.275,0.725,0,1.001l0.054,0.055
								c0.277,0.276,0.725,0.276,1.002,0l0.124-0.125l0.811-0.809l0.123-0.124c0.278-0.277,0.277-0.724,0.001-1.002L12.31,5.239
								c-0.276-0.276-0.724-0.278-1.002-0.001L11.186,5.362z M14.275,9.909l-4.179,4.18c-0.349,0.349-0.919,0.349-1.267,0.001
								l-0.719-0.72l-0.761,0.76c0,0-1.133,1.126-2.669,0.807c-0.012-0.003-0.024-0.004-0.036-0.007
								c-0.067-0.014-0.135-0.034-0.203-0.054c-0.055-0.017-0.113-0.036-0.17-0.057c-0.055-0.021-0.111-0.039-0.168-0.065
								c-0.113-0.049-0.227-0.105-0.342-0.172c-0.034-0.02-0.069-0.045-0.104-0.067c-0.097-0.059-0.194-0.127-0.292-0.202
								c-0.038-0.029-0.076-0.058-0.115-0.089c-0.13-0.105-0.261-0.218-0.393-0.351c-1.48-1.48-1.415-2.798-1.138-3.464
								c0.001-0.002,0.227-0.833,0.5-1.823C2.296,8.306,2.378,8.013,2.458,7.72L0.719,5.98c-0.349-0.348-0.349-0.918,0-1.267
								l4.179-4.179c0.349-0.349,0.919-0.349,1.267,0L8.59,2.958l0.22-0.221c0.277-0.277,0.725-0.276,1.002,0l0.054,0.055
								c0.277,0.276,0.277,0.724,0,1.001L9.743,3.918l-0.809,0.81L8.809,4.852c-0.275,0.276-0.722,0.277-1.001,0L7.754,4.798
								c-0.276-0.277-0.276-0.726,0-1.002l0.123-0.124V3.671L8.15,3.398L6.097,1.345L1.531,5.91l1.121,1.12
								c0.191-0.683,0.362-1.278,0.452-1.562C3.387,4.569,4.104,4.602,4.445,5.15c0.265,0.422,0.059,1.382-0.078,2.469
								C4.34,7.834,4.268,8.186,4.184,8.561l4.548,4.548l4.564-4.565l-0.339-0.339l-0.398,0.398c-0.276,0.277-0.724,0.276-1.001,0
								l-0.055-0.055c-0.276-0.276-0.276-0.723,0-1.001l0.124-0.124l0.811-0.81l0.123-0.124c0.277-0.276,0.724-0.277,1.002-0.001
								l0.054,0.054c0.278,0.277,0.277,0.725,0,1.002l-0.123,0.123l0.001,0.001l-0.097,0.096l0.878,0.878
								C14.623,8.991,14.623,9.56,14.275,9.909z M2.597,3.902C2.638,3.944,2.708,3.943,2.75,3.902l1.338-1.338
								c0.042-0.042,0.042-0.111,0-0.153C4.045,2.369,3.976,2.369,3.935,2.411L2.597,3.748C2.555,3.791,2.555,3.859,2.597,3.902z
								 M11.868,11.049c-0.175-0.175-0.459-0.175-0.634,0c-0.175,0.175-0.174,0.459,0,0.634c0.176,0.175,0.459,0.175,0.634,0.001
								C12.042,11.508,12.042,11.225,11.868,11.049z"/>
						</g>
					</g>
				</g>
			</g>
		</g>
	</g>
</g>
</svg>
