<?xml version="1.0" encoding="UTF-8"?>
<svg width="15px" height="15px" viewBox="0 0 15 15" version="1.1" xmlns="http://www.w3.org/2000/svg" xmlns:xlink="http://www.w3.org/1999/xlink">
    <!-- Generator: Sketch 48.2 (47327) - http://www.bohemiancoding.com/sketch -->
    <title>hand-with-smartphone-and-wireless-internet</title>
    <desc>Created with Sketch.</desc>
    <defs></defs>
    <g id="Alert_Service-wrong" stroke="none" stroke-width="1" fill="none" fill-rule="evenodd" transform="translate(-945.000000, -34.000000)">
        <g id="header" fill="#FFFFFF" fill-rule="nonzero">
            <g id="top">
                <g id="menu">
                    <g transform="translate(443.000000, 34.000000)">
                        <g id="celular" transform="translate(502.000000, 0.000000)">
                            <g id="hand-with-smartphone-and-wireless-internet">
                                <path d="M9.12568966,4.92258621 L9.00155172,5.04672414 C8.72482759,5.32344828 8.72482759,5.77189655 9.00258621,6.04862069 L9.05689655,6.10293103 C9.33362069,6.38017241 9.78051724,6.38017241 10.0582759,6.10344828 L10.9944828,5.16827586 L11.117069,5.04465517 C11.3937931,4.76793103 11.3937931,4.31896552 11.117069,4.04224138 L11.0617241,3.98741379 C10.7865517,3.71068966 10.3381034,3.71068966 10.0598276,3.98741379 L9.12568966,4.92258621 Z M11.1863793,5.36172414 L10.2506897,6.29741379 C9.97551724,6.57310345 9.97551724,7.02206897 10.2506897,7.2987931 L10.3044828,7.35362069 C10.5812069,7.62982759 11.0291379,7.62982759 11.3063793,7.35362069 L11.4305172,7.22896552 L12.2410345,6.41948276 L12.3636207,6.29534483 C12.6413793,6.01862069 12.6403448,5.5712069 12.3646552,5.29293103 L12.3103448,5.23862069 C12.0341379,4.96241379 11.5867241,4.96086207 11.3084483,5.23810345 L11.1863793,5.36172414 Z M14.2748276,9.90931034 L10.0955172,14.0891379 C9.74689655,14.4377586 9.17637931,14.4377586 8.8287931,14.0896552 L8.10931034,13.3696552 L7.34793103,14.13 C7.34793103,14.13 6.21465517,15.2555172 4.67896552,14.9374138 C4.66706897,14.9348276 4.65465517,14.9332759 4.64327586,14.9306897 C4.57655172,14.9162069 4.50827586,14.8965517 4.44051724,14.8763793 C4.38517241,14.8598276 4.32724138,14.8401724 4.27086207,14.8194828 C4.21551724,14.7987931 4.15965517,14.7801724 4.10327586,14.7548276 C3.99,14.7056897 3.87672414,14.6498276 3.76137931,14.5825862 C3.72775862,14.5624138 3.69206897,14.5375862 3.65741379,14.5158621 C3.56068966,14.4563793 3.46344828,14.3886207 3.36568966,14.3141379 C3.32793103,14.2851724 3.28965517,14.2562069 3.25034483,14.2246552 C3.12,14.1196552 2.98913793,14.0063793 2.85724138,13.8739655 C1.37741379,12.3941379 1.44206897,11.0756897 1.7187931,10.41 C1.71982759,10.407931 1.94534483,9.57724138 2.21896552,8.58724138 C2.29603448,8.30586207 2.37827586,8.01310345 2.45844828,7.71982759 L0.718965517,5.97982759 C0.370344828,5.63172414 0.370344828,5.06172414 0.718965517,4.71258621 L4.89827586,0.533793103 C5.24689655,0.185172414 5.81741379,0.185172414 6.165,0.533793103 L8.58982759,2.95758621 L8.81017241,2.73672414 C9.08689655,2.46 9.53534483,2.46103448 9.81258621,2.73672414 L9.86689655,2.79206897 C10.1436207,3.06827586 10.1436207,3.5162069 9.86689655,3.79344828 L9.74327586,3.91810345 L8.9337931,4.72810345 L8.80862069,4.85224138 C8.53344828,5.12793103 8.08655172,5.12948276 7.80775862,4.85224138 L7.75396552,4.79844828 C7.47775862,4.5212069 7.47775862,4.07275862 7.75396552,3.79603448 L7.87706897,3.67189655 L7.87706897,3.67137931 L8.15017241,3.39827586 L6.09672414,1.34534483 L1.53051724,5.91 L2.65189655,7.03034483 C2.84275862,6.34758621 3.01344828,5.75224138 3.10344828,5.4687931 C3.38741379,4.56931034 4.10431034,4.60241379 4.44517241,5.14965517 C4.71051724,5.5712069 4.50465517,6.53172414 4.36706897,7.61896552 C4.33965517,7.83362069 4.26775862,8.18637931 4.18396552,8.56086207 L8.73206897,13.1084483 L13.2956897,8.5437931 L12.9568966,8.205 L12.5586207,8.60327586 C12.2824138,8.88 11.8344828,8.87896552 11.5572414,8.60327586 L11.5018966,8.54793103 C11.2256897,8.27224138 11.2256897,7.82482759 11.5018966,7.54655172 L11.6260345,7.42241379 L12.4365517,6.61241379 L12.5591379,6.48827586 C12.8358621,6.21206897 13.2832759,6.21155172 13.5615517,6.48775862 L13.6153448,6.54206897 C13.8931034,6.8187931 13.892069,7.26672414 13.6153448,7.54448276 L13.4927586,7.66758621 L13.4937931,7.66862069 L13.3965517,7.76482759 L14.2743103,8.64258621 C14.622931,8.99068966 14.622931,9.56017241 14.2748276,9.90931034 Z M2.59706897,3.90206897 C2.63844828,3.94448276 2.70827586,3.94344828 2.74965517,3.90155172 L4.08724138,2.56396552 C4.12965517,2.52206897 4.12965517,2.45327586 4.08724138,2.41137931 C4.04482759,2.36896552 3.97603448,2.36896552 3.93465517,2.41086207 L2.59706897,3.74844828 C2.55465517,3.79086207 2.55465517,3.85913793 2.59706897,3.90206897 Z M11.8681034,11.0493103 C11.6932759,10.8739655 11.4093103,10.8739655 11.2344828,11.0493103 C11.0596552,11.2246552 11.0606897,11.5081034 11.2344828,11.682931 C11.4103448,11.8582759 11.6932759,11.8582759 11.8681034,11.6834483 C12.0424138,11.5081034 12.0424138,11.2251724 11.8681034,11.0493103 Z" id="Shape"></path>
                            </g>
                        </g>
                    </g>
                </g>
            </g>
        </g>
    </g>
</svg>