<?xml version="1.0" encoding="UTF-8"?>
<svg width="38px" height="56px" viewBox="0 0 38 56" version="1.1" xmlns="http://www.w3.org/2000/svg" xmlns:xlink="http://www.w3.org/1999/xlink">
    <!-- Generator: Sketch 48.2 (47327) - http://www.bohemiancoding.com/sketch -->
    <title>height</title>
    <desc>Created with Sketch.</desc>
    <defs></defs>
    <g id="Landing_Perfilador" stroke="none" stroke-width="1" fill="none" fill-rule="evenodd" transform="translate(-397.000000, -1039.000000)">
        <g id="perfilador" transform="translate(162.000000, 953.000000)" fill-rule="nonzero">
            <g id="Group-5-Copy-2" transform="translate(235.000000, 86.000000)">
                <g id="height">
                    <path d="M27.1835115,3.1136285 C25.2859237,3.1136285 23.7475623,4.65198982 23.7475623,6.54957761 C23.7475623,8.44716539 25.2859237,9.98552672 27.1835115,9.98552672 C29.0810992,9.98552672 30.6194606,8.44716539 30.6194606,6.54957761 C30.6287226,4.65184733 29.0903613,3.1136285 27.1835115,3.1136285 Z" id="Shape" fill="#FFA400"></path>
                    <path d="M27.1835115,0.00926208651 C23.5725802,0.00926208651 20.6431959,2.9477659 20.6431959,6.54957761 C20.6431959,10.1605089 23.5816997,13.0991552 27.1927735,13.0991552 C30.8038473,13.0991552 33.7423511,10.1606514 33.7423511,6.54957761 C33.7422087,2.9477659 30.7944427,0.00926208651 27.1835115,0.00926208651 Z M27.1835115,9.99464631 C25.2859237,9.99464631 23.7475623,8.45628499 23.7475623,6.5586972 C23.7475623,4.66110941 25.2859237,3.12274809 27.1835115,3.12274809 C29.0810992,3.12274809 30.6194606,4.66110941 30.6194606,6.5586972 C30.6287226,8.45628499 29.0903613,9.99464631 27.1835115,9.99464631 Z" id="Shape" fill="#EB0029"></path>
                    <path d="M34.7370992,19.8604784 C34.7370992,18.6906056 33.7882341,17.7417405 32.6183613,17.7417405 L31.8353588,17.7417405 L28.6112977,25.5717659 C28.0585649,26.8889771 26.2622901,26.8061883 25.737201,25.5717659 L22.5131399,17.7326209 L21.7393995,17.7326209 C20.5695267,17.7326209 19.6206616,18.681486 19.6206616,19.8420967 L19.6206616,36.8192163 L34.7278372,36.8192163 L34.7278372,19.8604784 L34.7370992,19.8604784 Z" id="Shape" fill="#FFA400"></path>
                    <path d="M22.0526005,52.8383511 L25.6267684,52.8383511 L25.6267684,45.6163461 C25.6267684,44.7596743 26.3175776,44.0596031 27.1835115,44.0596031 C28.0401832,44.0596031 28.7402545,44.7504122 28.7402545,45.6163461 L28.7402545,52.8383511 L32.3144224,52.8383511 L32.3144224,39.9419644 L22.0433384,39.9419644 L22.0433384,52.8383511 L22.0526005,52.8383511 Z" id="Shape" fill="#FFA400"></path>
                    <g id="Group">
                        <path d="M32.6276234,14.6282545 L30.8128244,14.6282545 C30.1864224,14.6282545 29.6153079,15.0151247 29.3850382,15.5862392 L27.2018931,20.8921323 L25.009486,15.5862392 C24.7699542,15.0058626 24.2081018,14.6282545 23.5816997,14.6282545 L21.7577812,14.6282545 C18.8745649,14.6282545 16.5346768,16.9772621 16.5346768,19.8513588 L16.5346768,38.3853639 C16.5346768,39.2420356 17.225486,39.9421069 18.0914198,39.9421069 L18.9573537,39.9421069 L18.9573537,54.386117 C18.9573537,55.2427888 19.6481628,55.9428601 20.5140967,55.9428601 L33.8895471,55.9428601 C34.7462188,55.9428601 35.4462901,55.2520509 35.4462901,54.386117 L35.4462901,39.9419644 L36.3029618,39.9419644 C37.1596336,39.9419644 37.8597048,39.2511552 37.8597048,38.3852214 L37.8597048,19.8604784 C37.8598473,16.9771196 35.5108397,14.6282545 32.6276234,14.6282545 Z M32.3328041,52.8383511 L28.7586361,52.8383511 L28.7586361,45.6163461 C28.7586361,44.7596743 28.067827,44.0596031 27.2018931,44.0596031 C26.3452214,44.0596031 25.6451501,44.7504122 25.6451501,45.6163461 L25.6451501,52.8383511 L22.0709822,52.8383511 L22.0709822,39.9419644 L32.3420662,39.9419644 L32.3420662,52.8383511 L32.3328041,52.8383511 Z M19.6299237,36.837598 L19.6299237,19.8604784 C19.6299237,18.6906056 20.5787888,17.7417405 21.7486616,17.7417405 L22.5316641,17.7417405 L25.7557252,25.5808855 C26.2808142,26.8153079 28.0770891,26.8980967 28.6298219,25.5808855 L31.853883,17.7508601 L32.6368855,17.7508601 C33.8067583,17.7508601 34.7556234,18.6997252 34.7556234,19.869598 L34.7556234,36.8467176 L19.6299237,36.8467176 L19.6299237,36.837598 Z" id="Shape" fill="#EB0029"></path>
                        <path d="M9.96671756,3.1136285 C10.8233893,3.1136285 11.5234606,2.42281934 11.5234606,1.5568855 C11.5234606,0.690951654 10.8142697,0 9.96671756,0 L1.68541476,0 C0.828743003,0 0.128671756,0.69080916 0.128671756,1.556743 L0.128671756,54.3858321 C0.128671756,55.2425038 0.819480916,55.9425751 1.68541476,55.9425751 L9.96671756,55.9425751 C10.8233893,55.9425751 11.5234606,55.2517659 11.5234606,54.3858321 C11.5234606,53.5291603 10.8326514,52.8290891 9.96671756,52.8290891 L3.25141985,52.8290891 L3.25141985,48.4720611 L9.96671756,48.4720611 C10.8233893,48.4720611 11.5234606,47.7812519 11.5234606,46.9153181 C11.5234606,46.0493842 10.8326514,45.3585751 9.96671756,45.3585751 L3.25141985,45.3585751 L3.25141985,40.7895165 L6.45709924,40.7895165 C7.31377099,40.7895165 8.01384224,40.0985649 8.01384224,39.2327735 C8.01384224,38.3669822 7.32303308,37.6760305 6.45709924,37.6760305 L3.25141985,37.6760305 L3.25141985,33.3463613 L9.96671756,33.3463613 C10.8233893,33.3463613 11.5234606,32.6555522 11.5234606,31.7896183 C11.5234606,30.9329466 10.8326514,30.2328753 9.96671756,30.2328753 L3.25141985,30.2328753 L3.25141985,25.6638168 L6.45709924,25.6638168 C7.31377099,25.6638168 8.01384224,24.9730076 8.01384224,24.1070738 C8.01384224,23.250402 7.32303308,22.5503308 6.45709924,22.5503308 L3.25141985,22.5503308 L3.25141985,18.2300662 L9.96671756,18.2300662 C10.8233893,18.2300662 11.5234606,17.539257 11.5234606,16.6733232 C11.5234606,15.8166514 10.8326514,15.1165802 9.96671756,15.1165802 L3.25141985,15.1165802 L3.25141985,10.5382595 L6.45709924,10.5382595 C7.31377099,10.5382595 8.01384224,9.84745038 8.01384224,8.98151654 C8.01384224,8.1155827 7.32303308,7.42477354 6.45709924,7.42477354 L3.25141985,7.42477354 L3.25141985,3.04907888 L9.96671756,3.04907888 L9.96671756,3.1136285 Z" id="Shape" fill="#FFA400"></path>
                    </g>
                </g>
            </g>
        </g>
    </g>
</svg>