<?xml version="1.0" encoding="UTF-8"?>
<svg width="15px" height="20px" viewBox="0 0 15 20" version="1.1" xmlns="http://www.w3.org/2000/svg" xmlns:xlink="http://www.w3.org/1999/xlink">
    <!-- Generator: Sketch 48.2 (47327) - http://www.bohemiancoding.com/sketch -->
    <title>home</title>
    <desc>Created with Sketch.</desc>
    <defs></defs>
    <g id="Process_4_succesfull_sucursal" stroke="none" stroke-width="1" fill="none" fill-rule="evenodd" transform="translate(-223.000000, -999.000000)">
        <g id="home" transform="translate(223.000000, 999.000000)">
            <g id="doc-(1)" fill-rule="nonzero">
                <polygon id="Shape" fill="#EBEBEB" points="14.0827734 4.23421875 14.0827734 19.5765234 0.448554688 19.5765234 0.448554688 0.4234375 10.2719531 0.4234375"></polygon>
                <polygon id="Shape" fill="#A8A8A8" points="14.0827734 4.23421875 10.2719531 4.23421875 10.2719531 0.4234375"></polygon>
                <g id="Group" fill="#231F20">
                    <path d="M14.3821875,3.93484375 L10.5713672,0.124023438 C10.4919531,0.044609375 10.3842578,0 10.2719141,0 L0.448515625,0 C0.2146875,0 0.025078125,0.189609375 0.025078125,0.4234375 L0.025078125,19.5765625 C0.025078125,19.8103906 0.2146875,20 0.448515625,20 L14.0827344,20 C14.3165625,20 14.5061719,19.8103906 14.5061719,19.5765625 L14.5061719,4.23421875 C14.5061719,4.12195313 14.4615625,4.01425781 14.3821875,3.93484375 Z M13.0605078,3.81082031 L10.6953516,3.81082031 L10.6953516,1.44570313 L13.0605078,3.81082031 Z M0.871953125,19.1531641 L0.871953125,0.846835937 L9.84851563,0.846835937 L9.84851563,4.23421875 C9.84851563,4.46804687 10.038125,4.65765625 10.2719531,4.65765625 L13.6593359,4.65765625 L13.6593359,19.1531641 L0.871953125,19.1531641 Z" id="Shape"></path>
                    <path d="M3.06550781,6.3009375 C3.29933594,6.3009375 3.48894531,6.11132812 3.48894531,5.8775 L3.48894531,3.91679687 C3.48894531,3.68296875 3.29933594,3.49335937 3.06550781,3.49335937 C2.83167969,3.49335937 2.64207031,3.68296875 2.64207031,3.91679687 L2.64207031,5.8775 C2.64210938,6.11136719 2.83171875,6.3009375 3.06550781,6.3009375 Z" id="Shape"></path>
                    <path d="M3.06550781,2.94296875 C3.29933594,2.94296875 3.48894531,2.75335938 3.48894531,2.51953125 L3.48894531,2.43484375 C3.48894531,2.20101562 3.29933594,2.01140625 3.06550781,2.01140625 C2.83167969,2.01140625 2.64207031,2.20101562 2.64207031,2.43484375 L2.64207031,2.51953125 C2.64210938,2.75335938 2.83171875,2.94296875 3.06550781,2.94296875 Z" id="Shape"></path>
                </g>
            </g>
            <g transform="translate(3.085938, 7.187500)" id="Shape">
                <polygon fill="#B7B7B7" fill-rule="nonzero" points="4.16015625 0 0.7421875 3.17315918 0.7421875 3.86300223 0.7421875 8.3203125 7.578125 8.3203125 7.578125 3.86300223 7.578125 3.17315918"></polygon>
                <path d="M5.1953125,8.28125 L3.125,8.28125 L3.125,5.76334635 C3.125,5.19074544 3.58845424,4.7265625 4.16015625,4.7265625 C4.73185826,4.7265625 5.1953125,5.19074544 5.1953125,5.76334635 L5.1953125,8.28125 Z" fill="#556080" fill-rule="nonzero"></path>
                <polyline stroke="#DD352E" stroke-width="2" stroke-linecap="round" points="0 3.8671875 4.16015625 0 8.3203125 3.8671875"></polyline>
            </g>
        </g>
    </g>
</svg>