<?xml version="1.0" encoding="UTF-8"?>
<svg width="40px" height="40px" viewBox="0 0 40 40" version="1.1" xmlns="http://www.w3.org/2000/svg" xmlns:xlink="http://www.w3.org/1999/xlink">
    <!-- Generator: Sketch 46.1 (44463) - http://www.bohemiancoding.com/sketch -->
    <title>house</title>
    <desc>Created with Sketch.</desc>
    <defs></defs>
    <g id="Page-1" stroke="none" stroke-width="1" fill="none" fill-rule="evenodd">
        <g id="envío-de-contratos" transform="translate(-602.000000, -1333.000000)" fill-rule="nonzero" fill="#2B3B46">
            <g id="Nómina" transform="translate(582.000000, 1313.000000)">
                <g id="Group">
                    <g id="house" transform="translate(20.000000, 20.000000)">
                        <path d="M9.33333333,24.1213333 L18.6666667,24.1213333 L18.6666667,17.4546667 L9.33333333,17.4546667 L9.33333333,24.1213333 Z M10.6666667,22.788 L10.6666667,20.788 L17.3333333,20.788 L17.3333333,22.788 L10.6666667,22.788 Z M17.3333333,18.788 L17.3333333,19.4546667 L10.6666667,19.4546667 L10.6666667,18.788 L17.3333333,18.788 Z" id="Shape"></path>
                        <path d="M9.33333333,26.788 L9.33333333,34.788 L18.6666667,34.788 L18.6666667,26.788 L9.33333333,26.788 Z M13.3333333,28.1213333 L13.3333333,30.1213333 L10.6666667,30.1213333 L10.6666667,28.1213333 L13.3333333,28.1213333 Z M10.6666667,31.4546667 L13.3333333,31.4546667 L13.3333333,33.4546667 L10.6666667,33.4546667 L10.6666667,31.4546667 Z M14.6666667,33.4546667 L14.6666667,31.4546667 L17.3333333,31.4546667 L17.3333333,33.4546667 L14.6666667,33.4546667 Z M17.3333333,30.1213333 L14.6666667,30.1213333 L14.6666667,28.1213333 L17.3333333,28.1213333 L17.3333333,30.1213333 Z" id="Shape"></path>
                        <path d="M21.3333333,24.1213333 L30.6666667,24.1213333 L30.6666667,17.4546667 L21.3333333,17.4546667 L21.3333333,24.1213333 Z M22.6666667,22.788 L22.6666667,22.1213333 L29.3333333,22.1213333 L29.3333333,22.788 L22.6666667,22.788 Z M29.3333333,18.788 L29.3333333,20.788 L22.6666667,20.788 L22.6666667,18.788 L29.3333333,18.788 Z" id="Shape"></path>
                        <path d="M39.3333333,32.1213333 C38.9646667,32.1213333 38.6666667,32.42 38.6666667,32.788 L38.6666667,33.4546667 L38,33.4546667 L38,32.788 C38,32.42 37.702,32.1213333 37.3333333,32.1213333 C36.9646667,32.1213333 36.6666667,32.42 36.6666667,32.788 L36.6666667,33.4546667 L36,33.4546667 L36,19.9853333 C36.3473333,20.1413333 36.7153333,20.2273333 37.084,20.2273333 C37.7993333,20.2273333 38.51,19.9366667 39.0353333,19.3713333 C39.542,18.826 39.7986667,18.088 39.74,17.346 C39.6806667,16.6046667 39.3106667,15.916 38.7253333,15.4573333 L21.8146667,2.23 L20,0.545333333 L18.2286667,2.19333333 L1.27533333,15.4573333 C0.689333333,15.916 0.319333333,16.6046667 0.260666667,17.346 C0.202,18.088 0.458666667,18.826 0.965333333,19.3713333 C1.76133333,20.2286667 2.97933333,20.4446667 4.00066667,19.986 L4.00066667,33.4553333 L3.33333333,33.4553333 L3.33333333,32.7886667 C3.33333333,32.4206667 3.03533333,32.122 2.66666667,32.122 C2.298,32.122 2,32.4206667 2,32.7886667 L2,33.4553333 L1.33333333,33.4553333 L1.33333333,32.7886667 C1.33333333,32.4206667 1.03533333,32.122 0.666666667,32.122 C0.298,32.122 0,32.4206667 0,32.7886667 L0,38.7886667 C0,39.1566667 0.298,39.4553333 0.666666667,39.4553333 C1.03533333,39.4553333 1.33333333,39.1566667 1.33333333,38.7886667 L1.33333333,38.122 L2,38.122 L2,38.7886667 C2,39.1566667 2.298,39.4553333 2.66666667,39.4553333 C3.03533333,39.4553333 3.33333333,39.1566667 3.33333333,38.7886667 L3.33333333,38.122 L4,38.122 L4,39.4553333 L21.3333333,39.4553333 L30.6666667,39.4553333 L36,39.4553333 L36,38.122 L36.6666667,38.122 L36.6666667,38.7886667 C36.6666667,39.1566667 36.9646667,39.4553333 37.3333333,39.4553333 C37.702,39.4553333 38,39.1566667 38,38.7886667 L38,38.122 L38.6666667,38.122 L38.6666667,38.7886667 C38.6666667,39.1566667 38.9646667,39.4553333 39.3333333,39.4553333 C39.702,39.4553333 40,39.1566667 40,38.7886667 L40,32.7886667 C40,32.42 39.702,32.1213333 39.3333333,32.1213333 Z M1.94133333,18.4633333 C1.68466667,18.1866667 1.56,17.8273333 1.59,17.4513333 C1.62,17.0753333 1.79933333,16.74 2.09733333,16.5073333 L19.0933333,3.20733333 L20.0006667,2.364 L20.95,3.24333333 L37.9033333,16.5073333 C38.2006667,16.74 38.3806667,17.0753333 38.4106667,17.4513333 C38.4406667,17.8273333 38.3153333,18.1873333 38.0593333,18.4633333 C37.5873333,18.9713333 36.8186667,19.0353333 36.2686667,18.612 L36,18.4053333 L36,18.4053333 L20,6.072 L4.26,18.2053333 L4.25933333,18.206 L3.732,18.612 C3.18133333,19.0353333 2.41333333,18.9713333 1.94133333,18.4633333 Z M1.33333333,36.788 L1.33333333,34.788 L2,34.788 L2,36.788 L1.33333333,36.788 Z M3.33333333,36.788 L3.33333333,34.788 L4,34.788 L4,36.788 L3.33333333,36.788 Z M22.6666667,38.1213333 L22.6666667,28.1213333 L29.3333333,28.1213333 L29.3333333,38.1213333 L22.6666667,38.1213333 Z M34.6666667,38.1213333 L30.6666667,38.1213333 L30.6666667,26.788 L21.3333333,26.788 L21.3333333,38.1213333 L5.33333333,38.1213333 L5.33333333,19.0606667 L20,7.75466667 L34.6666667,19.0606667 L34.6666667,38.1213333 Z M36,36.788 L36,34.788 L36.6666667,34.788 L36.6666667,36.788 L36,36.788 Z M38,36.788 L38,34.788 L38.6666667,34.788 L38.6666667,36.788 L38,36.788 Z" id="Shape"></path>
                    </g>
                </g>
            </g>
        </g>
    </g>
</svg>