<?xml version="1.0" encoding="UTF-8"?>
<svg width="28px" height="20px" viewBox="0 0 28 20" version="1.1" xmlns="http://www.w3.org/2000/svg" xmlns:xlink="http://www.w3.org/1999/xlink">
    <!-- Generator: Sketch 48.2 (47327) - http://www.bohemiancoding.com/sketch -->
    <title>id-card</title>
    <desc>Created with Sketch.</desc>
    <defs></defs>
    <g id="Process_4_succesfull_sucursal" stroke="none" stroke-width="1" fill="none" fill-rule="evenodd" transform="translate(-216.000000, -911.000000)">
        <g id="id-card" transform="translate(216.000000, 911.000000)" fill-rule="nonzero">
            <path d="M26.0871429,20 L1.53190476,20 C0.685714286,20 0,19.3142857 0,18.4680952 L0,1.53190476 C0,0.685714286 0.685714286,0 1.53190476,0 L26.0871429,0 C26.9333333,0 27.6190476,0.685714286 27.6190476,1.53190476 L27.6190476,18.4680952 C27.6190476,19.3142857 26.9333333,20 26.0871429,20 Z" id="Shape" fill="#E7ECED"></path>
            <rect id="Rectangle-path" fill="#424A60" x="15.7142857" y="8.0952381" width="9.52380952" height="9.52380952"></rect>
            <path d="M22.757619,16.2342857 L21.5619048,15.6233333 C21.48,15.5819048 21.4285714,15.497619 21.4285714,15.4061905 L21.4285714,15.04 C22.042381,14.7757143 22.3952381,14.2619048 22.5666667,13.6195238 C22.8252381,13.5395238 23.0157143,13.3 23.0157143,13.0157143 L23.0157143,12.6980952 C23.0157143,12.4547619 22.8757143,12.2452381 22.6738095,12.1385714 C22.5338095,10.9447619 21.7447619,10.4619048 20.4761905,10.4619048 C20.4161905,10.4619048 20.3571429,10.4642857 20.2995238,10.4690476 C19.8685714,10.5033333 19.432381,10.422381 19.0738095,10.1804762 C18.9247619,10.08 18.7990476,9.97333333 18.7109524,9.86142857 C18.6709524,9.81047619 18.59,9.84285714 18.597619,9.90761905 C18.6104762,10.0185714 18.6290476,10.1480952 18.6571429,10.29 C18.7619048,10.8171429 18.6995238,10.74 18.4957143,11.237619 C18.3828571,11.512381 18.3104762,11.817619 18.2766667,12.1409524 C18.0757143,12.2480952 17.9366667,12.4571429 17.9366667,12.6995238 L17.9366667,13.0171429 C17.9366667,13.3014286 18.1271429,13.5404762 18.3857143,13.6209524 C18.5571429,14.2633333 18.91,14.7771429 19.5238095,15.0414286 L19.5238095,15.4047619 C19.5238095,15.497619 19.4709524,15.5828571 19.387619,15.6238095 L18.1619048,16.227619 C17.8271429,16.41 17.6190476,16.7609524 17.6190476,17.1419048 L17.6190476,17.4328571 C17.6190476,17.4328571 17.6190476,17.5180952 17.6190476,17.5628571 C17.6190476,17.5828571 17.6242857,17.6019048 17.632381,17.6204762 L23.3204762,17.6204762 C23.3280952,17.6004762 23.3333333,17.5809524 23.3333333,17.5614286 C23.3333333,17.5166667 23.3333333,17.4314286 23.3333333,17.4314286 L23.3333333,17.1661905 C23.3333333,16.7714286 23.1104762,16.4109524 22.757619,16.2342857 Z" id="Shape" fill="#FFFFFF"></path>
            <rect id="Rectangle-path" fill="#38454F" x="0" y="2.38095238" width="27.6190476" height="3.80952381"></rect>
            <g id="Group" transform="translate(1.904762, 8.571429)" fill="#AFB6BB">
                <path d="M4.76190476,0 L0.476190476,0 C0.212857143,0 0,0.212857143 0,0.476190476 C0,0.73952381 0.212857143,0.952380952 0.476190476,0.952380952 L4.76190476,0.952380952 C5.0252381,0.952380952 5.23809524,0.73952381 5.23809524,0.476190476 C5.23809524,0.212857143 5.0252381,0 4.76190476,0 Z" id="Shape"></path>
                <path d="M11.4285714,0.476190476 C11.4285714,0.212857143 11.2157143,0 10.952381,0 L6.66666667,0 C6.40333333,0 6.19047619,0.212857143 6.19047619,0.476190476 C6.19047619,0.73952381 6.40333333,0.952380952 6.66666667,0.952380952 L10.952381,0.952380952 C11.2157143,0.952380952 11.4285714,0.73952381 11.4285714,0.476190476 Z" id="Shape"></path>
                <path d="M0.952380952,2.38095238 L0.476190476,2.38095238 C0.212857143,2.38095238 0,2.59380952 0,2.85714286 C0,3.12047619 0.212857143,3.33333333 0.476190476,3.33333333 L0.952380952,3.33333333 C1.21571429,3.33333333 1.42857143,3.12047619 1.42857143,2.85714286 C1.42857143,2.59380952 1.21571429,2.38095238 0.952380952,2.38095238 Z" id="Shape"></path>
                <path d="M3.80952381,2.38095238 L2.85714286,2.38095238 C2.59380952,2.38095238 2.38095238,2.59380952 2.38095238,2.85714286 C2.38095238,3.12047619 2.59380952,3.33333333 2.85714286,3.33333333 L3.80952381,3.33333333 C4.07285714,3.33333333 4.28571429,3.12047619 4.28571429,2.85714286 C4.28571429,2.59380952 4.07285714,2.38095238 3.80952381,2.38095238 Z" id="Shape"></path>
                <path d="M6.19047619,2.38095238 L5.71428571,2.38095238 C5.45095238,2.38095238 5.23809524,2.59380952 5.23809524,2.85714286 C5.23809524,3.12047619 5.45095238,3.33333333 5.71428571,3.33333333 L6.19047619,3.33333333 C6.45380952,3.33333333 6.66666667,3.12047619 6.66666667,2.85714286 C6.66666667,2.59380952 6.45380952,2.38095238 6.19047619,2.38095238 Z" id="Shape"></path>
                <path d="M9.04761905,2.38095238 L8.0952381,2.38095238 C7.83190476,2.38095238 7.61904762,2.59380952 7.61904762,2.85714286 C7.61904762,3.12047619 7.83190476,3.33333333 8.0952381,3.33333333 L9.04761905,3.33333333 C9.31095238,3.33333333 9.52380952,3.12047619 9.52380952,2.85714286 C9.52380952,2.59380952 9.31095238,2.38095238 9.04761905,2.38095238 Z" id="Shape"></path>
                <path d="M10.6142857,2.51904762 C10.5280952,2.60904762 10.4761905,2.72809524 10.4761905,2.85714286 C10.4761905,2.98571429 10.5280952,3.1047619 10.6142857,3.1952381 C10.7042857,3.28095238 10.8285714,3.33333333 10.952381,3.33333333 C11.0761905,3.33333333 11.2,3.28095238 11.2904762,3.1952381 C11.3761905,3.1047619 11.4285714,2.98095238 11.4285714,2.85714286 C11.4285714,2.73333333 11.3761905,2.60904762 11.2904762,2.51904762 C11.1142857,2.34285714 10.7904762,2.34285714 10.6142857,2.51904762 Z" id="Shape"></path>
            </g>
            <g id="Group" transform="translate(1.904762, 13.333333)" fill="#7383BF">
                <path d="M3.16714286,0.19047619 C2.12380952,0.733333333 1.77285714,1.77142857 1.6452381,2.84857143 C1.44809524,2.68380952 1.25142857,2.51857143 1.05428571,2.35333333 C0.587142857,1.96190476 -0.0904761905,2.63190476 0.380952381,3.02666667 C0.826190476,3.39952381 1.27190476,3.77285714 1.71714286,4.14619048 C2.03190476,4.41047619 2.5152381,4.24666667 2.53,3.80952381 C2.5647619,2.77761905 2.61428571,1.55095238 3.64809524,1.01285714 C4.19285714,0.72952381 3.71142857,-0.0923809524 3.16714286,0.19047619 Z" id="Shape"></path>
                <path d="M10.387619,2.14904762 C10.1861905,1.87333333 9.97857143,1.64285714 9.61047619,1.6152381 C8.91666667,1.56285714 7.72571429,2.55571429 7.23333333,1.67809524 C7.10857143,1.4552381 6.8,1.37333333 6.58190476,1.50714286 C5.90761905,1.92095238 5.02619048,2.51619048 4.31714286,1.7452381 C3.90047619,1.29238095 3.22857143,1.96761905 3.64380952,2.41857143 C4.5347619,3.38666667 5.68380952,3.09 6.6947619,2.54190476 C6.90809524,2.77095238 7.16333333,2.92761905 7.50285714,3.05 C7.93571429,3.20619048 9.44904762,2.46904762 9.56619048,2.62952381 C9.92333333,3.12047619 10.7504762,2.64619048 10.387619,2.14904762 Z" id="Shape"></path>
            </g>
        </g>
    </g>
</svg>