<?xml version="1.0" encoding="UTF-8"?>
<svg width="48px" height="40px" viewBox="0 0 48 40" version="1.1" xmlns="http://www.w3.org/2000/svg" xmlns:xlink="http://www.w3.org/1999/xlink">
    <!-- Generator: Sketch 48.2 (47327) - http://www.bohemiancoding.com/sketch -->
    <title>imac</title>
    <desc>Created with Sketch.</desc>
    <defs></defs>
    <g id="Process_2" stroke="none" stroke-width="1" fill="none" fill-rule="evenodd" transform="translate(-360.000000, -507.000000)">
        <g id="form" transform="translate(184.000000, 212.000000)" fill="#EB0029" fill-rule="nonzero">
            <g id="id_capture" transform="translate(32.000000, 276.000000)">
                <g id="Camera_buton-Copy" transform="translate(126.000000, 0.000000)">
                    <g id="imac" transform="translate(18.000000, 19.000000)">
                        <path d="M43.6448399,0.120854093 L3.52669039,0.120854093 C1.58177936,0.120854093 0,1.70348754 0,3.64854093 L0,26.0294662 L0,27.8592171 L0,30.1572954 C0,32.1032028 1.58177936,33.6839858 3.52669039,33.6839858 L19.3829181,33.6839858 C19.3655516,34.8650534 19.2392883,36.4651957 18.7379359,37.5904626 L16.0099644,37.5904626 C15.3622776,37.5904626 14.8380071,38.1155872 14.8380071,38.7624199 C14.8380071,39.4111032 15.3622776,39.9343772 16.0099644,39.9343772 L31.1627046,39.9343772 C31.8103915,39.9343772 32.3346619,39.4111032 32.3346619,38.7624199 C32.3346619,38.1155872 31.8103915,37.5904626 31.1627046,37.5904626 L28.4337367,37.5904626 C27.9333808,36.4660498 27.8052669,34.8650534 27.7887544,33.6839858 L43.6458363,33.6839858 C45.5907473,33.6839858 47.1725267,32.1022064 47.1725267,30.1572954 L47.1725267,27.8590747 L47.1725267,26.0293238 L47.1725267,3.64854093 C47.1715302,1.70348754 45.5897509,0.120854093 43.6448399,0.120854093 Z M45.3419217,30.1572954 C45.3419217,31.0932384 44.5807829,31.8543772 43.6448399,31.8543772 L3.52669039,31.8543772 C2.59074733,31.8543772 1.82960854,31.0932384 1.82960854,30.1572954 L1.82960854,27.8590747 L45.3427758,27.8590747 L45.3427758,30.157153 L45.3419217,30.157153 L45.3419217,30.1572954 Z M1.82975089,26.0303203 L1.82975089,3.64854093 C1.82975089,2.71259786 2.59088968,1.95060498 3.52683274,1.95060498 L43.6449822,1.95060498 C44.5809253,1.95060498 45.3420641,2.71274021 45.3420641,3.64854093 L45.3420641,26.0294662 L1.82975089,26.0294662 L1.82975089,26.0303203 Z" id="Shape"></path>
                    </g>
                </g>
            </g>
        </g>
    </g>
</svg>