<?xml version="1.0" encoding="UTF-8"?>
<svg width="33px" height="32px" viewBox="0 0 33 32" version="1.1" xmlns="http://www.w3.org/2000/svg" xmlns:xlink="http://www.w3.org/1999/xlink">
    <!-- Generator: Sketch 48.2 (47327) - http://www.bohemiancoding.com/sketch -->
    <title>instagram-logo</title>
    <desc>Created with Sketch.</desc>
    <defs></defs>
    <g id="Landing_chat" stroke="none" stroke-width="1" fill="none" fill-rule="evenodd" transform="translate(-994.000000, -3291.000000)">
        <g id="foter" transform="translate(0.000000, 3183.000000)" fill="#FFFFFF" fill-rule="nonzero">
            <g id="instagram-logo" transform="translate(993.674074, 108.000000)">
                <path d="M24.0411294,0 L9.78192941,0 C4.93957647,0 1,3.93976471 1,8.78211765 L1,23.0413176 C1,27.8838588 4.93957647,31.8234353 9.78192941,31.8234353 L24.0411294,31.8234353 C28.8838588,31.8234353 32.8234353,27.8836706 32.8234353,23.0413176 L32.8234353,8.78211765 C32.8236235,3.93976471 28.8838588,0 24.0411294,0 Z M30.0000941,23.0413176 C30.0000941,26.3269647 27.3269647,28.9999059 24.0413176,28.9999059 L9.78192941,28.9999059 C6.49647059,29.0000941 3.82352941,26.3269647 3.82352941,23.0413176 L3.82352941,8.78211765 C3.82352941,5.49665882 6.49647059,2.82352941 9.78192941,2.82352941 L24.0411294,2.82352941 C27.3267765,2.82352941 29.9999059,5.49665882 29.9999059,8.78211765 L29.9999059,23.0413176 L30.0000941,23.0413176 Z" id="Shape"></path>
                <path d="M16.9117176,7.712 C12.3901176,7.712 8.71162353,11.3904941 8.71162353,15.9120941 C8.71162353,20.4335059 12.3901176,24.1118118 16.9117176,24.1118118 C21.4333176,24.1118118 25.1118118,20.4335059 25.1118118,15.9120941 C25.1118118,11.3904941 21.4333176,7.712 16.9117176,7.712 Z M16.9117176,21.2880941 C13.9472,21.2880941 11.5351529,18.8764235 11.5351529,15.9119059 C11.5351529,12.9472 13.9470118,10.5353412 16.9117176,10.5353412 C19.8764235,10.5353412 22.2882824,12.9472 22.2882824,15.9119059 C22.2882824,18.8764235 19.8762353,21.2880941 16.9117176,21.2880941 Z" id="Shape"></path>
                <path d="M25.4557176,5.31783529 C24.9117176,5.31783529 24.3773176,5.53807059 23.9931294,5.92395294 C23.6070588,6.30795294 23.3851294,6.84254118 23.3851294,7.38842353 C23.3851294,7.93261176 23.6072471,8.46701176 23.9931294,8.85289412 C24.3771294,9.23689412 24.9117176,9.45901176 25.4557176,9.45901176 C26.0016,9.45901176 26.5343059,9.23689412 26.9201882,8.85289412 C27.3060706,8.46701176 27.5263059,7.93242353 27.5263059,7.38842353 C27.5263059,6.84254118 27.3060706,6.30795294 26.9201882,5.92395294 C26.5361882,5.53807059 26.0016,5.31783529 25.4557176,5.31783529 Z" id="Shape"></path>
            </g>
        </g>
    </g>
</svg>