<?xml version="1.0" encoding="UTF-8"?>
<svg width="24px" height="24px" viewBox="0 0 24 24" version="1.1" xmlns="http://www.w3.org/2000/svg" xmlns:xlink="http://www.w3.org/1999/xlink">
    <!-- Generator: Sketch 48.2 (47327) - http://www.bohemiancoding.com/sketch -->
    <title>list</title>
    <desc>Created with Sketch.</desc>
    <defs></defs>
    <g id="Process_2_succesfull_buro" stroke="none" stroke-width="1" fill="none" fill-rule="evenodd" transform="translate(-364.000000, -878.000000)">
        <g id="Group-3" transform="translate(184.000000, 319.000000)" fill="#D80027" fill-rule="nonzero">
            <g id="Group-2" transform="translate(111.000000, 559.000000)">
                <g id="list" transform="translate(69.000000, 0.000000)">
                    <path d="M9.3716,6.8 L18.8,6.8 C19.0208,6.8 19.2,6.6212 19.2,6.4 C19.2,6.1788 19.0208,6 18.8,6 L9.3716,6 C9.1508,6 8.9716,6.1788 8.9716,6.4 C8.9716,6.6212 9.1508,6.8 9.3716,6.8 Z" id="Shape"></path>
                    <path d="M9.3716,12.8 L18.8,12.8 C19.0208,12.8 19.2,12.6212 19.2,12.4 C19.2,12.1788 19.0208,12 18.8,12 L9.3716,12 C9.1508,12 8.9716,12.1788 8.9716,12.4 C8.9716,12.6212 9.1508,12.8 9.3716,12.8 Z" id="Shape"></path>
                    <path d="M9.3716,18.8 L18.8,18.8 C19.0208,18.8 19.2,18.6212 19.2,18.4 C19.2,18.1788 19.0208,18 18.8,18 L9.3716,18 C9.1508,18 8.9716,18.1788 8.9716,18.4 C8.9716,18.6212 9.1508,18.8 9.3716,18.8 Z" id="Shape"></path>
                    <path d="M23.6,0 L0.4,0 C0.1792,0 0,0.1788 0,0.4 L0,23.6 C0,23.8212 0.1792,24 0.4,24 L23.6,24 C23.8208,24 24,23.8212 24,23.6 L24,0.4 C24,0.1788 23.8208,0 23.6,0 Z M23.2,23.2 L0.8,23.2 L0.8,0.8 L23.2,0.8 L23.2,23.2 Z" id="Shape"></path>
                    <polygon id="Shape" points="5.0004 7.3896 5.9716 6.8788 6.9428 7.3896 6.7576 6.308 7.5432 5.5416 6.4572 5.384 5.9716 4.4 5.486 5.384 4.4 5.5416 5.186 6.308"></polygon>
                    <polygon id="Shape" points="5.0004 13.4228 5.9716 12.912 6.9428 13.4228 6.7576 12.3412 7.5432 11.5752 6.4572 11.4172 5.9716 10.4332 5.486 11.4172 4.4 11.5752 5.186 12.3412"></polygon>
                    <polygon id="Shape" points="5.0004 19.6 5.9716 19.0892 6.9428 19.6 6.7576 18.5184 7.5432 17.7524 6.4572 17.5944 5.9716 16.6104 5.486 17.5944 4.4 17.7524 5.186 18.5184"></polygon>
                </g>
            </g>
        </g>
    </g>
</svg>