<?xml version="1.0" encoding="UTF-8"?>
<svg width="207px" height="27px" viewBox="0 0 207 27" version="1.1" xmlns="http://www.w3.org/2000/svg" xmlns:xlink="http://www.w3.org/1999/xlink">
    <!-- Generator: Sketch 48.2 (47327) - http://www.bohemiancoding.com/sketch -->
    <title>logo_banorte_bco</title>
    <desc>Created with Sketch.</desc>
    <defs>
        <polygon id="path-1" points="0 0.101657987 17.1551816 0.101657987 17.1551816 13.5107586 0 13.5107586"></polygon>
        <polygon id="path-3" points="0.20079453 0.210215974 14.6617793 0.210215974 14.6617793 13.5886214 0.20079453 13.5886214"></polygon>
        <polygon id="path-5" points="0 25.2969853 206.841466 25.2969853 206.841466 -4.52954048e-05 0 -4.52954048e-05"></polygon>
    </defs>
    <g id="Alert_Service-wrong" stroke="none" stroke-width="1" fill="none" fill-rule="evenodd" transform="translate(-136.000000, -26.000000)">
        <g id="header">
            <g id="top">
                <g id="logo_banorte_bco">
                    <g transform="translate(136.000000, 26.787234)">
                        <path d="M38.6518372,3.68641182 C37.9207694,3.08443589 37.0805396,2.64054092 36.1913908,2.26866565 C33.8786074,1.30568534 31.4276731,0.767122976 28.915137,0.456849453 C27.4018175,0.271591247 25.8744565,0.155635011 24.3498131,0.0645912473 C22.2308941,-0.0540827133 20.1119751,-0.00199299781 18.0003033,0.16107046 C16.3116906,0.291521225 14.632137,0.50350372 12.9765899,0.830536543 C11.0773536,1.21011204 9.21752429,1.70020832 7.48361619,2.51914923 C6.60488534,2.93496105 5.78503851,3.42505733 5.13369059,4.10765908 C4.12179125,5.16530678 4.09869059,6.41228928 5.12644333,7.45816018 C5.52957243,7.86491291 6.00290941,8.22908796 6.49798818,8.53483195 C7.79524858,9.34471379 9.25964902,9.8334512 10.758021,10.2420158 C12.3170888,10.6709632 13.9146578,10.9604009 15.5276271,11.1732893 C16.1450035,11.2530092 16.7660035,11.3114403 17.4037628,11.3807422 C18.4274389,8.19511641 19.4443208,5.03032648 20.4621085,1.86644245 C20.6686556,5.09962845 20.8326249,8.317414 21.0015768,11.5560354 C21.2235243,11.5669063 21.4173886,11.5881952 21.610347,11.5827597 C22.8618591,11.5533177 24.1129182,11.5342937 25.3594477,11.4758626 C27.2795199,11.3902543 29.1850976,11.1524534 31.0666687,10.7950726 C32.9242333,10.4390508 34.7423908,9.96888446 36.4545571,9.20928053 C37.4673624,8.75451466 38.4276249,8.22908796 39.1523514,7.42056499 C39.7946403,6.70670941 40.0677716,5.91585164 39.7035965,5.01537899 C39.4911611,4.48768753 39.1061501,4.05738118 38.6518372,3.68641182 Z" id="Fill-1" fill="#FFFFFF"></path>
                        <g id="Group-5" transform="translate(0.000000, 11.708364)">
                            <mask id="mask-2" fill="white">
                                <use xlink:href="#path-1"></use>
                            </mask>
                            <g id="Clip-4"></g>
                            <path d="M16.7303107,0.102865864 C14.5171772,0.155408534 12.321256,0.349272867 10.1493414,0.747872429 C8.0503523,1.13741291 6.00843545,1.678693 4.09108096,2.56602998 C2.87308753,3.13176958 1.74160832,3.80576521 0.890054705,4.79728162 C0.11640919,5.70092495 -0.225118162,6.70195339 0.157175055,7.83162079 C0.475148796,8.77240635 1.16273304,9.47720284 1.9862035,10.0841613 C3.37677243,11.1033079 4.98068271,11.7564676 6.6575186,12.2800825 C8.39278556,12.8213626 10.1815011,13.1692313 11.9942232,13.4174501 C12.2786783,13.4541394 12.5608687,13.4826755 12.8448709,13.5107586 C14.2839059,9.03149606 15.7143348,4.57624004 17.1551816,0.102865864 C16.9921182,0.102865864 16.8616674,0.10014814 16.7303107,0.102865864" id="Fill-3" fill="#FFFFFF" mask="url(#mask-2)"></path>
                        </g>
                        <g id="Group-8" transform="translate(20.835886, 11.708364)">
                            <mask id="mask-4" fill="white">
                                <use xlink:href="#path-3"></use>
                            </mask>
                            <g id="Clip-7"></g>
                            <path d="M11.9123744,3.27399716 C10.3406239,2.32324661 8.59946849,1.72036477 6.79625842,1.24929256 C5.06959759,0.800415098 3.30624748,0.512789278 1.52070263,0.32164267 C1.08949037,0.274082495 0.658731072,0.247358206 0.20079453,0.210215974 C0.432254048,4.68540197 0.658731072,9.12616346 0.887019912,13.5841372 C1.02381204,13.5841372 1.1316151,13.5972729 1.2380593,13.5787018 C2.33330219,13.4319446 3.43262166,13.3055705 4.51789956,13.1198593 C6.49142035,12.7765201 8.40877484,12.2574348 10.2233088,11.46703 C11.532346,10.8935902 12.7503394,10.2073648 13.6952015,9.17644136 C14.8429871,7.92674114 14.9775144,6.47366455 14.0507705,5.1474151 C13.5099433,4.36516346 12.7503394,3.77904092 11.9123744,3.27399716" id="Fill-6" fill="#FFFFFF" mask="url(#mask-4)"></path>
                        </g>
                        <path d="M62.7856365,11.4985103 C62.7856365,11.7503527 62.7856365,12.5149392 61.1912383,12.5149392 L52.5565753,12.5149392 L52.5565753,8.90761313 L61.1912383,8.90761313 C62.7856365,8.90761313 62.7856365,9.67219956 62.7856365,9.92358906 L62.7856365,11.4985103 Z M52.5565753,15.5950267 L61.1912383,15.5950267 C61.9485775,15.5950267 62.2964462,15.7041886 62.4495446,15.7929676 C62.7371705,15.9732433 62.8821158,16.3455716 62.8821158,16.9004403 L62.8821158,18.1537641 C62.8821158,18.7086328 62.7371705,19.0805081 62.4536212,19.2576131 C62.2257853,19.3903287 61.8004615,19.4582718 61.1912383,19.4582718 L52.5565753,19.4582718 L52.5565753,15.5950267 Z M64.5471748,14.07446 C65.9776037,13.6690661 66.7018772,12.7296394 66.7018772,11.2738451 L66.7018772,9.24868753 C66.7018772,6.99977068 65.3887635,5.85968534 62.7987722,5.85968534 L48.4147635,5.85968534 L48.4147635,22.7956372 L61.7705665,22.7956372 C65.1278619,22.7956372 66.8309691,21.6451339 66.8309691,19.3753812 L66.8309691,17.2532915 C66.8309691,15.5855147 66.063212,14.5197138 64.5471748,14.07446 Z" id="Fill-9" fill="#FFFFFF"></path>
                        <path d="M83.7281481,15.8263503 L77.0443582,15.8263503 L80.4455902,9.61544442 L83.7281481,15.8263503 Z M82.5423144,5.85954945 L78.6111263,5.85954945 L69.0266186,22.7959543 L73.2866514,22.7959543 L75.2157827,19.1632628 L85.5218462,19.1632628 L87.514844,22.7959543 L92.2577258,22.7959543 L82.5921394,5.94696958 L82.5423144,5.85954945 Z" id="Fill-11" fill="#FFFFFF"></path>
                        <path d="M110.919976,14.7461455 C110.919976,15.076349 110.96346,15.8767188 111.047256,17.1250602 C110.639145,16.702454 110.110094,16.2159814 109.469164,15.6742484 L97.7992562,5.90040591 L97.7507902,5.85964004 L94.8777026,5.85964004 L94.8777026,22.7955919 L98.6974641,22.7955919 L98.6974641,13.6527144 C98.6974641,13.0792746 98.6598689,12.3640602 98.5846786,11.5202068 C98.9062759,11.8585635 99.2573153,12.1865022 99.6337201,12.4994934 L111.817731,22.755279 L111.866197,22.7955919 L114.739738,22.7955919 L114.739738,5.85964004 L110.919976,5.85964004 L110.919976,14.7461455 Z" id="Fill-13" fill="#FFFFFF"></path>
                        <mask id="mask-6" fill="white">
                            <use xlink:href="#path-5"></use>
                        </mask>
                        <g id="Clip-16"></g>
                        <path d="M123.799589,19.3297687 L136.183352,19.3297687 L136.183352,9.16593282 L123.799589,9.16593282 L123.799589,19.3297687 Z M136.100009,5.85936827 L123.882932,5.85936827 C122.236897,5.85936827 121.135766,6.13838796 120.518389,6.70956302 C119.896937,7.28526761 119.594816,8.3469919 119.594816,9.95543173 L119.594816,18.7006155 C119.594816,20.3095083 119.896937,21.3716856 120.518389,21.9460313 C121.135313,22.5176593 122.235991,22.7957731 123.882932,22.7957731 L136.100009,22.7957731 C137.74695,22.7957731 138.847628,22.5176593 139.464098,21.9460313 C140.086004,21.3716856 140.388125,20.3095083 140.388125,18.7006155 L140.388125,9.95543173 C140.388125,8.3469919 140.086004,7.28526761 139.464551,6.70956302 C138.847175,6.13838796 137.746497,5.85936827 136.100009,5.85936827 Z" id="Fill-15" fill="#FFFFFF" mask="url(#mask-6)"></path>
                        <path d="M149.502466,9.03647856 L158.00849,9.03647856 C158.715551,9.03647856 159.036243,9.13114595 159.173488,9.20588337 C159.443902,9.36804092 159.574805,9.69009125 159.574805,10.1896996 L159.574805,12.1971919 C159.574805,12.6977061 159.443902,13.0188505 159.179829,13.1778374 C159.036243,13.2561985 158.716457,13.34996 158.00849,13.34996 L149.502466,13.34996 L149.502466,9.03647856 Z M159.748287,16.5269796 C162.341902,16.5269796 163.654562,15.3868943 163.654562,13.1384304 L163.654562,9.248914 C163.654562,6.9995442 162.341902,5.85945886 159.748287,5.85945886 L145.360654,5.85945886 L145.360654,22.7958637 L149.502466,22.7958637 L149.502466,16.5269796 L152.924987,16.5269796 L159.56484,22.7487565 L159.614665,22.7958637 L165.703726,22.7958637 L158.044726,16.5269796 L159.748287,16.5269796 Z" id="Fill-17" fill="#FFFFFF" mask="url(#mask-6)"></path>
                        <polygon id="Fill-18" fill="#FFFFFF" mask="url(#mask-6)" points="166.854954 9.16561575 174.474547 9.16561575 174.474547 22.795909 178.679773 22.795909 178.679773 9.16561575 186.331526 9.16561575 186.331526 5.85950416 166.854954 5.85950416"></polygon>
                        <polygon id="Fill-19" fill="#FFFFFF" mask="url(#mask-6)" points="193.864559 19.3296781 193.864559 15.5629123 201.731012 15.5629123 201.731012 12.3858926 193.864559 12.3858926 193.864559 9.03629737 206.681347 9.03629737 206.681347 5.85973063 189.659787 5.85973063 189.659787 22.7956825 206.84124 22.7956825 206.84124 19.3296781"></polygon>
                    </g>
                </g>
            </g>
        </g>
    </g>
</svg>