<?xml version="1.0" encoding="UTF-8"?>
<svg width="30px" height="41px" viewBox="0 0 30 41" version="1.1" xmlns="http://www.w3.org/2000/svg" xmlns:xlink="http://www.w3.org/1999/xlink">
    <!-- Generator: Sketch 48.2 (47327) - http://www.bohemiancoding.com/sketch -->
    <title>man</title>
    <desc>Created with Sketch.</desc>
    <defs></defs>
    <g id="Process_4_succesfull_vistit" stroke="none" stroke-width="1" fill="none" fill-rule="evenodd" transform="translate(-904.000000, -20.000000)">
        <g id="header" fill-rule="nonzero">
            <g id="top">
                <g id="Group-6" transform="translate(904.000000, 20.000000)">
                    <g id="man">
                        <path d="M22.5320858,4.90923977 L22.3358285,4.81450292 C21.5245224,2.39079922 19.2550487,0.756023392 16.6994152,0.754619883 L5.4197271,0.754619883 L6.77302144,4.81450292 C5.19984405,5.60077973 4.39867446,7.38643275 4.85808967,9.08413255 L6.09637427,12.934269 L7.44966862,12.934269 L7.44966862,9.55103314 C7.44966862,9.55103314 11.5095517,9.55103314 13.5394932,8.87438596 L19.6293177,6.84444444 L22.3359064,11.5809747 L22.3359064,12.934269 L23.6892008,12.934269 L24.4876413,8.93528265 C24.8151267,7.30588694 24.0152827,5.65894737 22.5320858,4.90923977 Z" id="Shape" fill="#A15D30"></path>
                        <path d="M6.77302144,4.81450292 C5.20319688,5.60280702 4.40748538,7.38978558 4.87165692,9.08413255 L6.09637427,12.934269 L7.44966862,12.934269 L7.44966862,9.55103314 C7.44966862,9.55103314 9.03976608,9.55103314 10.7246004,9.38861598 C8.99376218,8.27688109 7.62159844,6.68810916 6.77302144,4.81450292 Z" id="Shape" fill="#8F4F24"></path>
                        <path d="M25.5769981,28.7068226 L20.874308,28.0775049 L20.5495517,28.828616 C19.2063938,31.9526706 15.5850292,33.3966472 12.4609747,32.0534893 C11.0129435,31.4309552 9.85925926,30.2766472 9.23610136,28.828616 L8.91134503,28.0775049 L4.20865497,28.7068226 C2.19290448,28.9747368 0.686081871,30.6927875 0.683352827,32.7260819 L0.683352827,40 L29.1024561,40 L29.1024561,32.7260819 C29.0996491,30.6927875 27.5927485,28.9747368 25.5769981,28.7068226 Z" id="Shape" fill="#EB0029"></path>
                        <path d="M14.8927875,32.5568811 C17.354386,32.5582066 19.579883,31.091306 20.5495517,28.828538 L20.874308,28.0774269 L20.1299805,27.9759064 C19.4520078,27.8872515 18.9465107,27.3067446 18.9525926,26.6226121 L18.9525926,23.7603899 L10.8329045,23.7603899 L10.8329045,26.6631579 C10.8389864,27.3472125 10.3335673,27.9277973 9.65551657,28.0164522 L8.91118908,28.1179727 L9.23594542,28.8690838 C10.2178558,31.1163353 12.4406238,32.5650682 14.8927875,32.5568811 Z" id="Shape" fill="#FEDAC6"></path>
                        <path d="M19.0338402,27.082885 C18.9797271,26.940117 18.9519688,26.788538 18.9526706,26.6363353 L18.9526706,23.7606238 L10.8329045,23.7606238 L10.8329045,26.6633918 C10.8336062,26.8156725 10.805848,26.9671735 10.7517349,27.1099415 C13.3595322,28.4205848 16.4348538,28.4104483 19.0338402,27.082885 Z" id="Shape" fill="#F5C4B0"></path>
                        <path d="M3.38986355,28.9097856 C1.7720078,29.4815595 0.688031189,31.0094347 0.683274854,32.7260819 L0.683274854,40 L3.38986355,40 L3.38986355,28.9097856 Z" id="Shape" fill="#B10523"></path>
                        <path d="M22.3359064,12.2575439 L21.6592593,12.2575439 L21.6592593,16.3174269 L22.3359064,16.3174269 C23.457076,16.3174269 24.365848,15.408655 24.365848,14.2874854 C24.365848,13.1663158 23.457076,12.2575439 22.3359064,12.2575439 Z" id="Shape" fill="#FEDAC6"></path>
                        <path d="M5.4197271,14.2874854 C5.4197271,15.408655 6.32849903,16.3174269 7.44966862,16.3174269 L8.12631579,16.3174269 L8.12631579,12.2575439 L7.44966862,12.2575439 C6.32849903,12.2575439 5.4197271,13.1663158 5.4197271,14.2874854 Z" id="Shape" fill="#F5C4B0"></path>
                        <path d="M22.3359064,18.8819493 C22.3447173,19.8766472 21.9887719,20.8394542 21.3345029,21.588538 L18.411384,24.8973099 C17.8984795,25.4812476 17.1589084,25.8168421 16.3814425,25.8175439 L13.4177778,25.8175439 C12.6403119,25.8168421 11.9007407,25.4812476 11.3878363,24.8973099 L8.46471735,21.5546979 C7.81037037,20.805614 7.45450292,19.842807 7.46331384,18.8481092 L7.46331384,9.55103314 C7.46331384,9.55103314 11.5231969,9.55103314 13.5531384,8.87438596 L19.642963,6.84444444 L22.3495517,11.5809747 L22.3359064,18.8819493 Z" id="Shape" fill="#FEDAC6"></path>
                        <path d="M10.1562573,9.43594542 C8.7014425,9.55095517 7.44966862,9.55095517 7.44966862,9.55095517 L7.44966862,18.8818713 C7.4408577,19.8765692 7.79680312,20.8393762 8.45107212,21.58846 L10.1561793,23.4966082 L10.1561793,9.43594542 L10.1562573,9.43594542 Z" id="Shape" fill="#F5C4B0"></path>
                        <g id="Group" transform="translate(7.407407, 11.539961)" fill="#EBEBEB">
                            <path d="M0.0422612086,0.0409356725 L6.13208577,0.0409356725 L6.13208577,2.07087719 C6.13208577,3.19204678 5.22331384,4.10081871 4.10214425,4.10081871 L2.07220273,4.10081871 C0.951033138,4.10081871 0.0422612086,3.19204678 0.0422612086,2.07087719 L0.0422612086,0.0409356725 Z" id="Shape"></path>
                            <path d="M8.83867446,0.0409356725 L14.928499,0.0409356725 L14.928499,2.07087719 C14.928499,3.19204678 14.0197271,4.10081871 12.8985575,4.10081871 L10.868616,4.10081871 C9.74744639,4.10081871 8.83867446,3.19204678 8.83867446,2.07087719 L8.83867446,0.0409356725 Z" id="Shape"></path>
                        </g>
                        <path d="M1.35992203,40 L0.00662595515,40 L0.00662768031,32.7531384 C0.00460038986,30.3666277 1.78955166,28.3434698 4.15851852,28.0491228 L9.56491228,27.3190643 C9.90596491,27.2750877 10.1589864,26.9840936 10.1563353,26.6424172 L10.1563353,24.437193 L11.5097055,24.437193 L11.5096296,26.6362573 C11.5184405,27.6552827 10.7592203,28.5281871 9.74292398,28.660117 L4.33247563,29.3908772 C2.63274854,29.6026511 1.35797271,31.0466277 1.35929825,32.7524366 L1.35929825,40 L1.35992203,40 Z" id="Shape" fill="#000000"></path>
                        <path d="M29.7789474,40 L28.425653,40 L28.425653,32.7531384 C28.4269786,31.0473294 27.1522027,29.6026511 25.459883,29.3915789 L20.0392982,28.660117 C19.0263548,28.5281871 18.2671345,27.6552827 18.2759454,26.6301754 L18.2758695,24.437193 L19.6292398,24.437193 L19.6292398,26.6362573 C19.6258869,26.9840156 19.8789084,27.274308 20.2179337,27.3189864 L25.6337622,28.0497466 C27.9959454,28.3440936 29.7808967,30.3665497 29.7788694,32.7537622 L29.7789474,40 Z" id="Shape" fill="#000000"></path>
                        <path d="M22.3359064,16.9940741 L21.6592593,16.9940741 L21.6592593,15.6407797 L22.3359064,15.6407797 C23.0822612,15.6407797 23.6892008,15.0338402 23.6892008,14.2874854 C23.6892008,13.5411306 23.0822612,12.934191 22.3359064,12.934191 L21.6592593,12.934191 L21.6592593,11.5808967 L22.3359064,11.5808967 C23.828616,11.5808967 25.0424951,12.7947758 25.0424951,14.2874854 C25.0424951,15.7801949 23.828538,16.9940741 22.3359064,16.9940741 Z" id="Shape" fill="#000000"></path>
                        <path d="M8.12631579,16.9940741 L7.44966862,16.9940741 C5.95695906,16.9940741 4.74307992,15.7801949 4.74307992,14.2874854 C4.74307992,12.7947758 5.95695906,11.5808967 7.44966862,11.5808967 L8.12631579,11.5808967 L8.12631579,12.934191 L7.44966862,12.934191 C6.70331384,12.934191 6.09637427,13.5411306 6.09637427,14.2874854 C6.09637427,15.0338402 6.70331384,15.6407797 7.44966862,15.6407797 L8.12631579,15.6407797 L8.12631579,16.9940741 Z" id="Shape" fill="#000000"></path>
                        <path d="M14.8961404,33.2335283 C14.8934113,33.2335283 14.8907602,33.2335283 14.8887329,33.2335283 C12.1537622,33.2335283 9.69146199,31.6095906 8.61419103,29.0952047 L8.1811306,28.0877193 L9.42479532,27.5538402 L9.85785575,28.5620273 C10.7219493,30.5777778 12.6963743,31.8803119 14.8893567,31.8803119 C14.891384,31.8803119 14.8934113,31.8803119 14.8954386,31.8803119 C17.0884211,31.8803119 19.0635478,30.5777778 19.9283431,28.5620273 L20.3614035,27.5538402 L21.6050682,28.0877193 L21.1720078,29.0959064 C20.094191,31.6095906 17.6304873,33.2335283 14.8961404,33.2335283 Z" id="Shape" fill="#000000"></path>
                        <path d="M15.5694347,17.6707212 L12.862846,17.6707212 C12.654425,17.6707212 12.4575439,17.5746589 12.3289669,17.4102144 C12.2010916,17.24577 12.1557115,17.0312671 12.2064717,16.8296296 L13.5597661,11.4435088 L14.8718129,11.7730214 L13.7302924,16.3173489 L15.5694347,16.3173489 L15.5694347,17.6707212 Z" id="Shape" fill="#000000"></path>
                        <path d="M14.0551267,20.3773099 L12.862846,20.3773099 L12.862846,19.0240156 L14.0537232,19.0240156 C14.9387914,19.0219883 15.8279142,18.8122417 16.6223002,18.4177778 L17.2238596,19.6303314 C16.2440546,20.1161014 15.148538,20.3745809 14.0551267,20.3773099 Z" id="Shape" fill="#000000"></path>
                        <path d="M16.382768,26.494191 L13.4176998,26.494191 C12.4446784,26.4928655 11.5203899,26.0732943 10.8796101,25.3438596 L7.95586745,22.0005458 C7.19196881,21.1249903 6.777154,20.0037427 6.78729045,18.8426511 L6.78729045,9.55103314 C6.78729045,9.17754386 7.09044834,8.87438596 7.46393762,8.87438596 C7.50315789,8.87438596 11.4385185,8.8662768 13.339883,8.2322807 L19.4297076,6.20233918 C19.7362183,6.10152047 20.0711891,6.22869396 20.231501,6.5088499 L22.9380897,11.2453801 C22.9969591,11.3475244 23.0274464,11.4639376 23.0274464,11.5823782 L23.0125536,18.8792982 C23.0226901,20.0390643 22.6072515,21.1589084 21.8432749,22.0331384 L18.9181287,25.3453411 C18.2787524,26.0732943 17.3537622,26.4927875 16.382768,26.494191 Z M8.13988304,10.2174659 L8.13988304,18.8480312 C8.13247563,19.6836647 8.42877193,20.4848343 8.97419103,21.1100195 L11.8966082,24.451306 C12.2802339,24.8884211 12.8350877,25.140117 13.4184016,25.1408187 L16.3814425,25.1408187 C16.9626511,25.140117 17.5182066,24.8884211 17.9032359,24.4499805 L20.8269786,21.1398051 C21.3702924,20.517271 21.6666667,19.7161793 21.6585575,18.8872515 C21.6585575,18.8845224 21.6585575,18.8824951 21.6585575,18.8798441 L21.6721248,11.7595322 L19.3295906,7.6611306 L13.7668616,9.51578947 C12.1497076,10.0551267 9.40927875,10.185653 8.13988304,10.2174659 Z" id="Shape" fill="#000000"></path>
                        <path d="M5.45153996,13.1405848 L4.22003899,9.29044834 C3.71594542,7.45738791 4.44265107,5.54518519 5.95766082,4.50994152 L4.77692008,0.969044834 C4.70791423,0.762651072 4.74307992,0.535984405 4.87033138,0.359376218 C4.99820663,0.182066277 5.2025731,0.0778947368 5.41980507,0.0778947368 L16.7061988,0.0778947368 C19.4615205,0.0806237817 21.9089279,1.78035088 22.8832749,4.33536062 C24.6019493,5.21902534 25.5377778,7.1582846 25.151423,9.06916179 L24.3529825,13.0667446 L23.0261209,12.8014815 L23.8245614,8.80249513 C24.0938791,7.47017544 23.4334503,6.11961014 22.2175439,5.51532164 L22.0247173,5.41520468 C21.8690838,5.33403509 21.7506433,5.19594542 21.6952047,5.0288499 C20.9766082,2.8791423 18.9716959,1.4331384 16.705653,1.43111111 L6.3582846,1.43111111 L7.41520468,4.60070175 C7.52210526,4.92077973 7.37660819,5.26994152 7.0748538,5.42011696 C5.79329435,6.0588694 5.13832359,7.52382066 5.51789474,8.90487329 L6.74128655,12.7279532 L5.45153996,13.1405848 Z" id="Shape" fill="#000000"></path>
                        <path d="M11.5095517,16.3174269 L9.47961014,16.3174269 C7.98690058,16.3174269 6.77302144,15.1035478 6.77302144,13.6108382 L6.77302144,11.5808967 C6.77302144,11.2074074 7.07617934,10.9042495 7.44966862,10.9042495 L13.5394932,10.9042495 C13.9129825,10.9042495 14.2161404,11.2074074 14.2161404,11.5808967 L14.2161404,13.6108382 C14.2161404,15.1035478 13.0022612,16.3174269 11.5095517,16.3174269 Z M8.12631579,12.2575439 L8.12631579,13.6108382 C8.12631579,14.357193 8.73325536,14.9641326 9.47961014,14.9641326 L11.5095517,14.9641326 C12.2559064,14.9641326 12.862846,14.357193 12.862846,13.6108382 L12.862846,12.2575439 L8.12631579,12.2575439 Z" id="Shape" fill="#000000"></path>
                        <path d="M20.3059649,16.3174269 L18.2760234,16.3174269 C16.7833138,16.3174269 15.5694347,15.1035478 15.5694347,13.6108382 L15.5694347,11.5808967 C15.5694347,11.2074074 15.8725926,10.9042495 16.2460819,10.9042495 L22.3359064,10.9042495 C22.7100975,10.9042495 23.0125536,11.2074074 23.0125536,11.5808967 L23.0125536,13.6108382 C23.0125536,15.1035478 21.7985965,16.3174269 20.3059649,16.3174269 Z M16.922729,12.2575439 L16.922729,13.6108382 C16.922729,14.357193 17.5296686,14.9641326 18.2760234,14.9641326 L20.3059649,14.9641326 C21.0523197,14.9641326 21.6592593,14.357193 21.6592593,13.6108382 L21.6592593,12.2575439 L16.922729,12.2575439 Z" id="Shape" fill="#000000"></path>
                        <rect id="Rectangle-path" fill="#000000" x="13.5394932" y="10.9042495" width="2.70658869" height="1.35329435"></rect>
                    </g>
                </g>
            </g>
        </g>
    </g>
</svg>