<?xml version="1.0" encoding="UTF-8"?>
<svg width="40px" height="56px" viewBox="0 0 40 56" version="1.1" xmlns="http://www.w3.org/2000/svg" xmlns:xlink="http://www.w3.org/1999/xlink">
    <!-- Generator: Sketch 48.2 (47327) - http://www.bohemiancoding.com/sketch -->
    <title>metal-shirt</title>
    <desc>Created with Sketch.</desc>
    <defs></defs>
    <g id="Landing" stroke="none" stroke-width="1" fill="none" fill-rule="evenodd" transform="translate(-852.000000, -1017.000000)">
        <g id="perfilador" transform="translate(162.000000, 873.000000)" fill="#EB0029" fill-rule="nonzero">
            <g id="Group-7" transform="translate(641.600000, 144.000000)">
                <g id="metal-shirt" transform="translate(48.000000, 0.000000)">
                    <path d="M30.3391127,27.8547055 C29.9742982,28.0662836 29.8499782,28.5335273 30.0615564,28.8984436 C31.0581527,30.6170327 31.58496,32.5820218 31.58496,34.5810182 C31.58496,38.9766109 29.0258618,42.9619782 25.1153309,44.8259636 L25.1153309,42.8038545 C25.1978036,42.6837091 25.2672436,42.5530764 25.3202909,42.4130764 L26.5985164,39.4995491 L28.6041309,34.7878109 C28.6103418,34.7733527 28.6159418,34.7588945 28.6212364,34.7441309 C28.9349382,33.8599418 28.6083055,32.8801455 27.8268509,32.3613818 L26.6595055,31.58624 L26.6595055,25.2290182 C26.8523491,25.3615855 27.0426473,25.4980218 27.2266327,25.6419927 C27.3662255,25.7512436 27.5320873,25.8042909 27.6967273,25.8042909 C27.9235782,25.8042909 28.1479855,25.7037964 28.2985745,25.5112582 C28.5585164,25.1791273 28.5000727,24.6991564 28.16784,24.4393164 C27.6905164,24.0657455 27.18448,23.7252655 26.6595055,23.4224582 L26.6595055,20.8795491 C26.6595055,19.6045818 25.6221818,18.5671564 24.3471127,18.5671564 C23.0720436,18.5671564 22.0348218,19.60448 22.0348218,20.8795491 L22.0348218,21.8341964 C21.4419345,21.75152 20.8414109,21.7090618 20.2400727,21.7090618 C19.0360727,21.7090618 17.8485673,21.8745164 16.7028073,22.2013527 C16.3616145,21.8963055 15.9129018,21.7090618 15.4203055,21.7090618 C14.3636364,21.7090618 13.50368,22.5634182 13.4926836,23.61744 C9.70362182,25.9543709 7.36781091,30.1142545 7.36781091,34.5812218 C7.36781091,39.6204073 10.2739055,44.14816 14.8141818,46.2570182 L14.8141818,46.5515782 C14.8141818,46.9484655 15.1182109,47.2791709 15.5137745,47.3125673 L24.2876509,48.0509527 C24.3090327,48.0527855 24.3304145,48.0536 24.3516945,48.0536 C24.5424,48.0536 24.7270982,47.9822255 24.8685236,47.8521018 C25.0258327,47.7074182 25.1153309,47.5035782 25.1153309,47.2899636 L25.1153309,46.4970036 C29.9208436,44.5293673 33.1122327,39.8105018 33.1122327,34.5812218 C33.1122327,32.3135273 32.5142545,30.0836073 31.3828509,28.1324655 C31.1712727,27.7676509 30.7041309,27.6432291 30.3391127,27.8547055 Z M22.0348218,29.4556945 L22.0348218,29.6657455 L22.0348218,31.2337455 C21.4290036,31.2506473 20.8785745,31.4915491 20.4634618,31.8770327 C20.4586764,31.8719418 20.4554182,31.8652218 20.4554182,31.8576873 L20.4554182,29.6657455 L20.4554182,29.4556945 L20.4554182,27.9985745 L20.4554182,27.3658764 L20.4554182,26.6046836 L22.0348218,26.6046836 L22.0348218,29.4556945 Z M18.9282473,27.9985745 L18.9282473,29.4556945 L18.9282473,29.6657455 L18.9282473,31.8575855 C18.9282473,31.8733673 18.9154182,31.8861964 18.8996364,31.8861964 L17.3776582,31.8861964 C17.3618764,31.8861964 17.3490473,31.8733673 17.3490473,31.8575855 L17.3490473,28.3231709 L17.3490473,27.9985745 L17.3490473,27.3813527 L18.9283491,27.3813527 L18.9283491,27.9985745 L18.9282473,27.9985745 Z M25.1322327,23.8741236 C25.1322327,23.8769745 25.1322327,23.8798255 25.1322327,23.8826764 L25.1322327,31.2320145 L23.5620945,31.2320145 L23.5620945,29.6657455 L23.5620945,29.4556945 L23.5620945,26.5893091 L23.5620945,22.7534109 C23.5620945,22.7506618 23.5620945,22.7479127 23.5620945,22.7451636 L23.5620945,20.8794473 C23.5620945,20.4465164 23.9142836,20.0943273 24.3471127,20.0943273 C24.7800436,20.0943273 25.1322327,20.4465164 25.1322327,20.8794473 L25.1322327,23.8741236 Z M15.8216727,23.6373964 L15.8216727,27.3658764 L15.8216727,27.9985745 L15.8216727,28.3231709 L15.8216727,31.8575855 C15.8216727,32.7155055 16.5196364,33.4134691 17.3775564,33.4134691 L18.8995345,33.4134691 C19.1891055,33.4134691 19.4594327,33.3325236 19.6917818,33.1942545 C19.7045091,33.2017891 19.7167273,33.2101382 19.72976,33.2173673 C19.7050182,33.3557382 19.6913745,33.4979782 19.6913745,33.6433745 C19.6913745,34.8498182 20.5821818,35.8521164 21.7404655,36.0273455 C20.9071855,36.5536436 20.3515636,37.4811055 20.3515636,38.5373673 L20.3515636,40.5730182 C20.3515636,40.9948509 20.6933673,41.3366545 21.1152,41.3366545 C21.5370327,41.3366545 21.8788364,40.9948509 21.8788364,40.5730182 L21.8788364,38.5373673 C21.8788364,37.7425745 22.5254836,37.0960291 23.3202764,37.0960291 C23.7421091,37.0960291 24.0839127,36.7542255 24.0839127,36.3323927 L24.0839127,36.0545309 L25.2279418,36.0545309 C25.6497745,36.0545309 25.9915782,35.7127273 25.9915782,35.2908945 C25.9915782,34.8690618 25.6497745,34.5272582 25.2279418,34.5272582 L22.1026327,34.5272582 C21.6151273,34.5272582 21.2185455,34.1306764 21.2185455,33.6432727 C21.2185455,33.1557673 21.6151273,32.7591855 22.1026327,32.7591855 L25.6653527,32.7591855 L26.9819636,33.6334982 C27.1734836,33.7606691 27.2564655,33.9979055 27.1877382,34.2157964 L25.1965818,38.8934255 L23.9127564,41.81968 C23.9059345,41.83536 23.89952,41.8513455 23.8937164,41.8674327 C23.8765091,41.9150836 23.8487127,41.9568291 23.8137891,41.9908364 C23.8125673,41.9920582 23.8113455,41.9931782 23.8101236,41.9945018 C23.7503564,42.0510109 23.6701236,42.0846109 23.5845964,42.0846109 C23.1627636,42.0846109 22.82096,42.4264145 22.82096,42.8482473 C22.82096,43.27008 23.1627636,43.6118836 23.5845964,43.6118836 C23.5857164,43.6118836 23.5869382,43.6117818 23.5880582,43.6117818 L23.5880582,45.8349818 C23.5700364,45.9280436 23.5694255,46.0251782 23.5880582,46.1219055 L23.5880582,46.4590255 L16.3414545,45.8491345 L16.3414545,45.7601455 C16.3414545,45.7578036 16.3414545,45.75536 16.3414545,45.7530182 L16.3414545,43.58928 C16.4345164,43.6039418 16.5293091,43.6119855 16.6254255,43.6119855 L21.1153018,43.6119855 C21.5371345,43.6119855 21.8789382,43.2701818 21.8789382,42.8483491 C21.8789382,42.4265164 21.5371345,42.0847127 21.1153018,42.0847127 L16.6254255,42.0847127 C16.4807418,42.0847127 16.3512291,41.9877818 16.3102982,41.8491055 C16.3098909,41.84768 16.3093818,41.8464582 16.3089745,41.8450327 C16.3071418,41.8388218 16.3050036,41.8327127 16.3029673,41.8265018 C16.3010327,41.8205964 16.2993018,41.8145891 16.2972655,41.8086836 L15.22064,38.7834618 C15.0868509,38.3222255 15.0189382,37.8449018 15.0189382,37.3644218 L15.0189382,23.6373964 C15.0189382,23.4161455 15.1990545,23.2361309 15.4203055,23.2361309 C15.6415564,23.2361309 15.8216727,23.4161455 15.8216727,23.6373964 Z M22.0348218,23.3773527 L22.0348218,25.0775127 L20.4399418,25.0775127 C19.8691491,25.0775127 19.3711564,25.3954909 19.1139636,25.8637527 C19.0580655,25.85744 19.0013527,25.8541818 18.9437236,25.8541818 L17.3489455,25.8541818 L17.3489455,23.6374982 C17.3489455,23.6283345 17.3477236,23.6194764 17.3476218,23.6103127 C18.2872,23.3632 19.2569164,23.2361309 20.2401745,23.2361309 C20.8424291,23.2361309 21.4437673,23.2835782 22.0348218,23.3773527 Z M8.89518545,34.5810182 C8.89518545,30.97024 10.6279273,27.5877382 13.4917673,25.4625891 L13.4917673,37.3645236 C13.4917673,37.9980364 13.5825891,38.6271709 13.7614836,39.23472 C13.7654545,39.2482618 13.7698327,39.2616 13.7745164,39.2749382 L14.8142836,42.1965091 L14.8142836,44.5466764 C11.18416,42.5736436 8.89518545,38.7790836 8.89518545,34.5810182 Z M38.8883782,15.3444073 L38.8748364,15.3402327 C37.7696,15.0004655 37.0286691,13.9953164 37.0313164,12.8390691 L37.0585018,0.765367273 C37.0590109,0.562545455 36.9786764,0.367970909 36.83552,0.224407273 C36.6920582,0.0807418182 36.4975855,0 36.2947636,0 L29.5668218,0 C29.1449891,0 28.8031855,0.341803636 28.8031855,0.763636364 L28.8031855,1.24177455 C27.4694691,4.57000727 24.0472582,6.79758545 20.2400727,6.79758545 C16.4328873,6.79758545 13.0106764,4.57000727 11.6768582,1.24177455 L11.6768582,0.763636364 C11.6768582,0.341803636 11.3350545,0 10.9132218,0 L4.18538182,0 C3.76354909,0 3.42174545,0.341803636 3.42174545,0.763636364 L3.42174545,12.8532218 C3.42174545,14.0021382 2.68478545,15.0037236 1.58789818,15.3456291 C1.2688,15.4451055 1.05141818,15.74048 1.05141818,16.0746473 L1.05141818,55.2293382 C1.05141818,55.6511709 1.39322182,55.9929745 1.81505455,55.9929745 L38.6648873,55.9929745 C39.08672,55.9929745 39.4285236,55.6511709 39.4285236,55.2293382 L39.4285236,16.0746473 C39.4286255,15.7389527 39.2094109,15.44256 38.8883782,15.3444073 Z M20.2400727,8.32496 C23.6418182,8.32496 26.7841309,6.78272 28.7677527,4.29845818 C28.3825745,8.66615273 24.7062255,12.1034327 20.2400727,12.1034327 C15.77392,12.1034327 12.0975709,8.66615273 11.7122909,4.29845818 C13.6959127,6.78272 16.8383273,8.32496 20.2400727,8.32496 Z M37.9014545,54.4657018 L2.57879273,54.4657018 L2.57879273,16.5954473 C4.01687273,15.9202909 4.94901818,14.4798691 4.94901818,12.8532218 L4.94901818,1.52727273 L10.1495855,1.52727273 L10.1495855,3.54032 C10.1495855,9.10417455 14.6761164,13.6307055 20.2400727,13.6307055 C25.8039273,13.6307055 30.3304582,9.10417455 30.3304582,3.54032 L30.3304582,1.52727273 L35.5294982,1.52727273 L35.5040436,12.8356073 C35.5003782,14.4783418 36.4436218,15.9287418 37.9014545,16.5998255 L37.9014545,54.4657018 Z" id="Shape"></path>
                </g>
            </g>
        </g>
    </g>
</svg>