<?xml version="1.0" encoding="UTF-8"?>
<svg width="61px" height="56px" viewBox="0 0 61 56" version="1.1" xmlns="http://www.w3.org/2000/svg" xmlns:xlink="http://www.w3.org/1999/xlink">
    <!-- Generator: Sketch 48.2 (47327) - http://www.bohemiancoding.com/sketch -->
    <title>mortarboard</title>
    <desc>Created with Sketch.</desc>
    <defs></defs>
    <g id="Landing" stroke="none" stroke-width="1" fill="none" fill-rule="evenodd" transform="translate(-680.000000, -1018.000000)">
        <g id="perfilador" transform="translate(162.000000, 873.000000)" fill="#EB0029" fill-rule="nonzero">
            <g id="Group-5" transform="translate(517.200000, 145.000000)">
                <g id="mortarboard" transform="translate(-0.000000, 0.000000)">
                    <path d="M43.2302092,50.0236987 C42.6943431,49.887682 42.1515649,50.2155983 42.0185941,50.7505272 L41.0189121,54.7493724 C40.8839498,55.2861757 41.2108117,55.8280167 41.7466778,55.9620418 C41.8276318,55.9830126 41.9096402,55.9920335 41.9896569,55.9920335 C42.4375397,55.9920335 42.8444184,55.6890711 42.95841,55.2352134 L43.9580921,51.2363682 C44.092,50.7005021 43.7660753,50.1577238 43.2302092,50.0236987 Z" id="Shape"></path>
                    <path d="M30.9916318,29.999364 C31.1215565,29.999364 31.2515983,29.97441 31.3735565,29.9234477 L42.3705272,25.3726862 C42.8803849,25.1616904 43.1223096,24.5768536 42.911431,24.0669958 C42.7004351,23.5560837 42.1136067,23.3161506 41.6048033,23.5251548 L30.9916318,27.9178745 L2.99948117,16.3351297 L2.99948117,16.0032301 C2.99948117,15.451431 2.55159833,15.0035481 1.99979916,15.0035481 C1.448,15.0035481 1,15.451431 1,16.0032301 L1,17.0029121 C1,17.4077992 1.24391632,17.7727364 1.61787448,17.9266778 L30.6098243,29.9233305 C30.7316653,29.9742929 30.8617071,29.999364 30.9916318,29.999364 Z" id="Shape"></path>
                    <path d="M42.8843682,40.2415063 C42.6404519,39.7466444 42.0426109,39.5426778 41.5457573,39.7876485 C39.6472636,40.72641 36.4761172,41.8180586 31.991431,41.9670795 L31.991431,32.9985272 C31.991431,32.446728 31.5435481,31.9988452 30.991749,31.9988452 C30.4399498,31.9988452 29.9920669,32.446728 29.9920669,32.9985272 L29.9920669,41.9580586 C17.5785774,41.5621925 13.5727029,34.0422594 12.9967699,32.7905774 L12.9967699,26.0005188 C12.9967699,25.4487197 12.548887,25.0008368 11.9970879,25.0008368 C11.4452887,25.0008368 10.9974059,25.4487197 10.9974059,26.0005188 L10.9974059,32.9985272 C10.9974059,33.125523 11.0214226,33.2514644 11.0684017,33.3703766 C11.2423766,33.8032636 15.497205,43.9953808 30.9918661,43.9953808 C36.4073473,43.9953808 40.2023431,42.6817238 42.431682,41.58 C42.9272469,41.3351464 43.1302762,40.7363682 42.8843682,40.2415063 Z" id="Shape"></path>
                    <path d="M45.9874477,50.9935063 C45.4345941,50.9935063 44.9877657,51.4413891 44.9877657,51.9931883 L44.9877657,54.9923515 C44.9877657,55.5441506 45.4345941,55.9920335 45.9874477,55.9920335 C46.5403013,55.9920335 46.9871297,55.5441506 46.9871297,54.9923515 L46.9871297,51.9931883 C46.9871297,51.4413891 46.5403013,50.9935063 45.9874477,50.9935063 Z" id="Shape"></path>
                    <path d="M59.9835816,15.0035481 C59.430728,15.0035481 58.9838996,15.451431 58.9838996,16.0032301 L58.9838996,16.3331381 L46.9872469,21.2707448 L46.9872469,19.4642176 L60.3655063,13.9277155 C60.7393473,13.7737741 60.9833808,13.4088368 60.9833808,13.0039498 C60.9833808,12.5990628 60.7394644,12.2351799 60.3665607,12.0801841 L31.3735565,0.0836485356 C31.1285858,-0.0173389121 30.8546778,-0.0173389121 30.6098243,0.0836485356 L1.61787448,12.0803013 C1.24391632,12.2352971 1,12.5991799 1,13.0040669 C1,13.408954 1.24391632,13.7738912 1.61787448,13.9278326 L30.6098243,25.9244854 C30.7317824,25.9754477 30.8617071,26.0005188 30.991749,26.0005188 C31.1217908,26.0005188 31.2517155,25.9755649 31.3736736,25.9244854 L41.8568033,21.5867113 C42.3677155,21.3767699 42.6096402,20.7919331 42.3986444,20.2810209 C42.1876485,19.7711632 41.6028117,19.5301757 41.092954,19.7401172 L30.9916318,23.9190293 L4.61399163,13.0040669 L30.9916318,2.0891046 L57.369272,13.0040669 L45.8914979,17.7537573 L34.8975732,13.648887 C34.9555649,13.4409372 34.9905941,13.2270126 34.9905941,13.0040669 C34.9905941,11.3225439 33.2340921,10.0049038 30.991749,10.0049038 C28.7494059,10.0049038 26.9929038,11.3225439 26.9929038,13.0040669 C26.9929038,14.68559 28.7494059,16.0032301 30.991749,16.0032301 C31.9924854,16.0032301 32.885205,15.7302594 33.5789958,15.2904603 L44.9877657,19.5503264 L44.9877657,22.7534561 L44.9877657,22.7545105 L44.9877657,44.1795481 C43.827113,44.5943933 42.9882845,45.6930711 42.9882845,46.9947782 C42.9882845,48.6483013 44.3339247,49.9939414 45.9874477,49.9939414 C47.6409707,49.9939414 48.9866109,48.6483013 48.9866109,46.9947782 C48.9866109,45.6931883 48.1478996,44.5945105 46.9871297,44.1795481 L46.9871297,38.5051548 C49.8573054,36.338728 50.8860418,33.4535565 50.9310293,33.3256234 C50.9669958,33.2206527 50.9859749,33.1097071 50.9859749,32.9987615 L50.9859749,26.0007531 C50.9859749,25.448954 50.5391464,25.0010711 49.9862929,25.0010711 C49.4334393,25.0010711 48.9866109,25.448954 48.9866109,26.0007531 L48.9866109,32.8138912 C48.8136904,33.2377573 48.2128033,34.5443849 46.9871297,35.8340251 L46.9871297,23.4331883 L60.3644519,17.9277322 C60.7393473,17.7737908 60.9832636,17.4079163 60.9832636,17.0030293 L60.9832636,16.0033473 C60.9832636,15.451431 60.5364351,15.0035481 59.9835816,15.0035481 Z M30.9916318,14.003749 C29.7709958,14.003749 28.9921506,13.4118828 28.9921506,13.0040669 C28.9921506,12.5961339 29.7708787,12.0043849 30.9916318,12.0043849 C32.2123849,12.0043849 32.991113,12.596251 32.991113,13.0040669 C32.991113,13.412 32.2122678,14.003749 30.9916318,14.003749 Z M45.9874477,47.9943431 C45.4356485,47.9943431 44.9877657,47.545523 44.9877657,46.9946611 C44.9877657,46.4437992 45.4356485,45.9949791 45.9874477,45.9949791 C46.5392469,45.9949791 46.9871297,46.4437992 46.9871297,46.9946611 C46.9871297,47.5454059 46.5392469,47.9943431 45.9874477,47.9943431 Z" id="Shape"></path>
                    <path d="M49.9563013,50.7505272 C49.8223933,50.2157155 49.2784435,49.8887364 48.7446862,50.0236987 C48.2088201,50.1576067 47.8828954,50.7005021 48.0169205,51.2363682 L49.0166025,55.2352134 C49.1305941,55.6890711 49.5374728,55.9920335 49.9853556,55.9920335 C50.0653724,55.9920335 50.1472636,55.9830126 50.2283347,55.9620418 C50.7642008,55.8281339 51.0901255,55.2861757 50.9561004,54.7493724 L49.9563013,50.7505272 Z" id="Shape"></path>
                </g>
            </g>
        </g>
    </g>
</svg>