<?xml version="1.0" encoding="UTF-8"?>
<svg width="26px" height="26px" viewBox="0 0 26 26" version="1.1" xmlns="http://www.w3.org/2000/svg" xmlns:xlink="http://www.w3.org/1999/xlink">
    <!-- Generator: Sketch 48.2 (47327) - http://www.bohemiancoding.com/sketch -->
    <title>move</title>
    <desc>Created with Sketch.</desc>
    <defs></defs>
    <g id="Landing_chat" stroke="none" stroke-width="1" fill="none" fill-rule="evenodd" transform="translate(-773.000000, -1016.000000)">
        <g id="chat_open" transform="translate(759.000000, 1008.000000)" fill="#FFFFFF" fill-rule="nonzero">
            <g id="chat">
                <g id="Group-2">
                    <g id="move" transform="translate(14.000000, 8.000000)">
                        <path d="M25.55,12.8812 C25.5092,12.7828 25.4508,12.6944 25.376,12.6204 L22.6412,9.8852 C22.328,9.572 21.8208,9.572 21.5076,9.8852 C21.1952,10.1976 21.1952,10.7052 21.5076,11.018 L22.8756,12.386 L13.6116,12.3856 L13.6124,3.1236 L15.0396,4.5516 C15.1968,4.7084 15.4012,4.7868 15.6068,4.7868 C15.8116,4.7868 16.0168,4.7084 16.1732,4.5516 C16.4864,4.2392 16.4864,3.7312 16.1732,3.418 L13.378,0.622 C13.3036,0.5476 13.2156,0.4892 13.1172,0.4484 C12.9212,0.3672 12.7008,0.3672 12.5048,0.4484 C12.4072,0.4888 12.3196,0.5468 12.2464,0.62 C12.2464,0.62 12.2456,0.6208 12.2448,0.6212 L9.5072,3.3572 C9.1948,3.6704 9.1948,4.1776 9.5072,4.4908 C9.6644,4.6472 9.8688,4.7256 10.0744,4.7256 C10.2792,4.7256 10.4844,4.6472 10.6408,4.4908 L12.0096,3.1228 L12.0088,12.3856 L2.7488,12.3852 L4.1156,11.018 C4.428,10.7052 4.428,10.1976 4.1156,9.8852 C3.8024,9.572 3.2952,9.572 2.982,9.8852 L0.2468,12.6212 C0.0896,12.7776 0.0116,12.9824 0.0116,13.1876 C0.0116,13.3928 0.0896,13.5976 0.2468,13.7544 L3.042,16.55 C3.1988,16.7072 3.4036,16.7852 3.6088,16.7852 C3.814,16.7852 4.0188,16.7072 4.1756,16.55 C4.4884,16.2368 4.4884,15.7296 4.1756,15.4168 L2.7472,13.9884 L12.0084,13.9888 L12.008,23.25 L10.6408,21.8832 C10.3276,21.5712 9.8204,21.5704 9.5072,21.8836 C9.1948,22.1968 9.1948,22.7044 9.5072,23.0172 L12.2448,25.7528 C12.4012,25.9096 12.6064,25.9876 12.8112,25.9876 C13.0164,25.9876 13.2212,25.9096 13.3776,25.7528 L16.1736,22.9564 C16.4868,22.6432 16.4868,22.1352 16.1736,21.8228 C15.8604,21.5096 15.3532,21.5096 15.04,21.8228 L13.6112,23.2524 L13.612,13.9888 L22.876,13.9892 L21.448,15.4168 C21.1356,15.7296 21.1356,16.2368 21.448,16.55 C21.6052,16.7072 21.8096,16.7852 22.0152,16.7852 C22.22,16.7852 22.4252,16.7072 22.5816,16.55 L25.3772,13.7544 C25.3788,13.7524 25.3796,13.7496 25.382,13.7476 C25.4528,13.6748 25.5104,13.5892 25.5504,13.4944 C25.5912,13.396 25.612,13.292 25.612,13.1872 C25.6116,13.0836 25.5908,12.9792 25.55,12.8812 Z" id="Shape"></path>
                    </g>
                </g>
            </g>
        </g>
    </g>
</svg>