<?xml version="1.0" encoding="UTF-8"?>
<svg width="42px" height="56px" viewBox="0 0 42 56" version="1.1" xmlns="http://www.w3.org/2000/svg" xmlns:xlink="http://www.w3.org/1999/xlink">
    <!-- Generator: Sketch 49 (51002) - http://www.bohemiancoding.com/sketch -->
    <title>one-finger-tap-gesture-of-outlined-hand-symbol</title>
    <desc>Created with Sketch.</desc>
    <defs></defs>
    <g id="Page-1" stroke="none" stroke-width="1" fill="none" fill-rule="evenodd">
        <g id="Landing" transform="translate(-219.000000, -1527.000000)" fill="#FFFFFF" fill-rule="nonzero">
            <g id="process" transform="translate(0.000000, 1280.000000)">
                <g id="Group-10" transform="translate(136.000000, 216.000000)">
                    <g id="Group" transform="translate(52.000000, 31.000000)">
                        <g id="one-finger-tap-gesture-of-outlined-hand-symbol" transform="translate(31.000000, 0.000000)">
                            <path d="M9.27975717,21.6728499 L9.27975717,19.5055649 C7.11247218,17.6994941 5.66761551,14.9904351 5.66761551,11.9200675 C5.66761551,6.50185497 10.1827454,1.98663069 15.6010523,1.98663069 C21.0192648,1.98663069 25.534489,6.50176054 25.534489,11.9200675 C25.534489,14.2679123 24.6315008,16.6158516 23.1865497,18.2413626 C23.9089781,18.2413626 24.450941,18.4220169 25.1731804,18.6025767 C26.6181315,16.615946 27.3405599,14.2680067 27.3405599,11.7395076 C27.3405599,5.23755818 22.1029073,0 15.6010523,0 C9.0991973,0 3.86154469,5.23755818 3.86154469,11.7394132 C3.86154469,15.8934233 6.02882968,19.5055649 9.27975717,21.6728499 Z" id="Shape"></path>
                            <path d="M23.7284182,11.7394132 C23.7284182,7.22428331 20.1162766,3.61214165 15.6010523,3.61214165 C11.085828,3.61214165 7.47378078,7.22428331 7.47378078,11.7394132 C7.47378078,13.7261383 8.19620911,15.5322091 9.2798516,16.7964115 L9.2798516,11.7394132 C9.2798516,8.3079258 12.1695649,5.41811804 15.6011467,5.41811804 C19.0327285,5.41811804 21.9224418,8.30783137 21.9224418,11.7394132 L21.9224418,16.7964115 C23.0058954,15.5322091 23.7284182,13.7261383 23.7284182,11.7394132 Z" id="Shape"></path>
                            <path d="M37.2739022,25.2849916 C36.1902597,25.2849916 35.2872715,25.6462057 34.5647487,26.1879798 C34.5647487,23.6594806 32.578118,21.6728499 30.0496189,21.6728499 C28.9659764,21.6728499 27.8822395,22.0340641 26.9791568,22.7564924 C26.2569174,20.9504216 24.6314064,19.8667791 22.8253356,19.8667791 C21.7416931,19.8667791 20.8386105,20.2279933 20.1161821,20.7697673 L20.1161821,11.7394132 C20.1161821,9.210914 18.129457,7.22428331 15.6010523,7.22428331 C13.0726476,7.22428331 11.0859224,9.21100843 11.0859224,11.7394132 L11.0859224,27.8134907 C7.47378078,24.5625632 3.50042496,22.0340641 0.971925801,24.5625632 C-2.64021585,28.1747049 4.94528162,35.2183339 10.7247083,45.874199 C14.8787184,53.2790422 20.658145,55.9881956 26.4375717,55.9881956 C34.9260573,55.9881956 41.7891265,49.1251265 41.7891265,40.6366408 L41.7891265,29.8002159 C41.7891265,27.2716223 39.8024013,25.2849916 37.2739022,25.2849916 Z M39.9830556,33.7735717 L39.9830556,40.6366408 C39.9830556,47.6803642 33.8424148,54.1822192 26.4374772,54.1822192 C19.5744081,54.1822192 15.6010523,50.3895177 12.3501248,45.1518651 C5.30640135,33.2317976 0.249403035,27.8135852 2.23612816,25.82686 C4.22285329,23.8402293 9.0991973,28.1747049 12.8918988,32.1481551 L12.8918988,11.7394132 C12.8918988,10.2945565 14.1561956,9.0302597 15.6010523,9.0302597 C17.0459089,9.0302597 18.3102057,10.2945565 18.3102057,11.7394132 L18.3102057,30.7031096 L20.1162766,30.7031096 L20.1162766,24.3818145 C20.1162766,22.9369578 21.3804789,21.672661 22.82543,21.672661 C24.2701922,21.672661 25.5345835,22.9369578 25.5345835,24.3818145 L25.5345835,28.8971332 L27.3406543,28.8971332 L27.3406543,26.1879798 C27.3406543,24.7431231 28.6048567,23.4788263 30.0498078,23.4788263 C31.49457,23.4788263 32.7589612,24.7431231 32.7589612,26.1879798 L32.7589612,30.7031096 L34.565032,30.7031096 L34.565032,29.8001214 C34.565032,28.3552648 35.8292344,27.090968 37.2741855,27.090968 C38.7189477,27.090968 39.983339,28.3552648 39.983339,29.8001214 L39.983339,33.7735717 L39.9830556,33.7735717 Z" id="Shape"></path>
                        </g>
                    </g>
                </g>
            </g>
        </g>
    </g>
</svg>