<?xml version="1.0" encoding="UTF-8"?>
<svg width="35px" height="56px" viewBox="0 0 35 56" version="1.1" xmlns="http://www.w3.org/2000/svg" xmlns:xlink="http://www.w3.org/1999/xlink">
    <!-- Generator: Sketch 49 (51002) - http://www.bohemiancoding.com/sketch -->
    <title>online-shop</title>
    <desc>Created with Sketch.</desc>
    <defs></defs>
    <g id="Page-1" stroke="none" stroke-width="1" fill="none" fill-rule="evenodd">
        <g id="Landing" transform="translate(-703.000000, -1527.000000)" fill="#FFFFFF" fill-rule="nonzero">
            <g id="process" transform="translate(0.000000, 1280.000000)">
                <g id="Group-12" transform="translate(616.000000, 216.000000)">
                    <g id="Group-9" transform="translate(22.000000, 31.000000)">
                        <g id="online-shop" transform="translate(65.000000, 0.000000)">
                            <path d="M33.8895156,9.058875 C34.3296406,9.058875 34.6865312,8.70209375 34.6865312,8.26185938 L34.6865312,3.89823438 C34.6865313,1.74879688 32.9377344,0 30.7881875,0 L3.99284375,0 C1.84329688,0 0.094609375,1.74879688 0.094609375,3.89823438 L0.094609375,52.1016563 C0.094609375,54.2512031 1.84340625,55.9998906 3.99284375,55.9998906 L30.7882969,55.9998906 C32.9378437,55.9998906 34.6865313,54.2510938 34.6865313,52.1016563 L34.6865313,14.0265781 C34.6865313,13.5864531 34.32975,13.2295625 33.8895156,13.2295625 C33.4492812,13.2295625 33.0925,13.5863438 33.0925,14.0265781 L33.0925,52.1016563 C33.0925,53.3722656 32.0587969,54.4059688 30.7881875,54.4059688 L3.99284375,54.4059688 C2.72223437,54.4059688 1.68853125,53.3722656 1.68853125,52.1016563 L1.68853125,3.89823438 C1.68853125,2.627625 2.72223438,1.59392188 3.99284375,1.59392188 L30.7882969,1.59392188 C32.0589062,1.59392188 33.0926094,2.627625 33.0926094,3.89823438 L33.0926094,8.26185938 C33.0926094,8.70198438 33.4493906,9.058875 33.8895156,9.058875 Z" id="Shape"></path>
                            <path d="M30.3933437,5.55854687 L4.49039062,5.55854687 C3.72279687,5.55854687 3.09826562,6.18307812 3.09826562,6.95067187 L3.09826562,47.063625 C3.09826562,47.8312187 3.72279687,48.45575 4.49039062,48.45575 L30.3933437,48.45575 C31.1609375,48.45575 31.7854687,47.8313281 31.7854687,47.063625 L31.7854687,6.95067187 C31.7854687,6.18307812 31.1609375,5.55854687 30.3933437,5.55854687 Z M30.1915469,46.8618281 L4.6921875,46.8618281 L4.6921875,7.15257812 L30.1915469,7.15257812 L30.1915469,46.8618281 Z" id="Shape"></path>
                            <path d="M27.852125,35.6529687 L15.2750938,35.6529687 C14.8349688,35.6530781 14.4781875,36.0098594 14.4781875,36.4499844 C14.4781875,36.8901094 14.8349688,37.247 15.2752031,37.247 L27.852125,37.247 C28.29225,37.247 28.6491406,36.8902187 28.6491406,36.4499844 C28.6491406,36.00975 28.2923594,35.6529687 27.852125,35.6529687 Z" id="Shape"></path>
                            <path d="M9.69642187,35.6529687 L6.92901562,35.6529687 C6.48889062,35.6529687 6.132,36.00975 6.132,36.4499844 C6.132,36.8902187 6.48889062,37.247 6.92901562,37.247 L9.69642187,37.247 C10.1365469,37.247 10.4934375,36.8902187 10.4934375,36.4499844 C10.4934375,36.00975 10.1366562,35.6529687 9.69642187,35.6529687 Z" id="Shape"></path>
                            <path d="M27.8520156,39.7419531 L6.92901562,39.7419531 C6.48889062,39.7419531 6.132,40.0987344 6.132,40.5389687 C6.132,40.9790937 6.48878125,41.3359844 6.92901562,41.3359844 L27.8520156,41.3359844 C28.2921406,41.3359844 28.6490312,40.9792031 28.6490312,40.5389687 C28.6490313,40.0987344 28.2921406,39.7419531 27.8520156,39.7419531 Z" id="Shape"></path>
                            <path d="M14.2744219,22.4948281 L13.2581094,18.5099688 C13.1492812,18.0835156 12.7152812,17.8261563 12.2889375,17.9346563 C11.8624844,18.0434844 11.6049063,18.477375 11.713625,18.9038281 L12.7299375,22.8886875 C12.8218125,23.2491875 13.146,23.4889375 13.5015781,23.4889375 C13.5667656,23.4889375 13.6330469,23.4808438 13.6991094,23.464 C14.1255625,23.3551719 14.3831406,22.9212813 14.2744219,22.4948281 Z" id="Shape"></path>
                            <path d="M17.4690469,17.9098281 C17.0289219,17.9098281 16.6720312,18.2666094 16.6720312,18.7068438 L16.6720312,22.6917031 C16.6721406,23.1318281 17.0289219,23.4887188 17.4690469,23.4887188 C17.9091719,23.4887188 18.2659531,23.1319375 18.2659531,22.6917031 L18.2659531,18.7068438 C18.2659531,18.2667187 17.9091719,17.9098281 17.4690469,17.9098281 Z" id="Shape"></path>
                            <path d="M22.649375,17.9346562 C22.2230312,17.826375 21.7890313,18.0835156 21.6802031,18.5099687 L20.6638906,22.4948281 C20.5550625,22.9212812 20.8125312,23.3551719 21.2390938,23.464 C21.3051563,23.4808437 21.3714375,23.4889375 21.436625,23.4889375 C21.7922031,23.4889375 22.1163906,23.2490781 22.208375,22.8886875 L23.2246875,18.9038281 C23.3334062,18.477375 23.0758281,18.043375 22.649375,17.9346562 Z" id="Shape"></path>
                            <path d="M17.3905156,49.1565156 C16.0338281,49.1565156 14.9300156,50.2602187 14.9300156,51.6169062 C14.9300156,52.9735937 16.0338281,54.0774062 17.3905156,54.0774062 C18.7472031,54.0774062 19.8510156,52.9735937 19.8510156,51.6169062 C19.8510156,50.2602187 18.7472031,49.1565156 17.3905156,49.1565156 Z M17.3905156,52.4834844 C16.9126563,52.4834844 16.5239375,52.0947656 16.5239375,51.6169062 C16.5239375,51.1391562 16.9126563,50.7504375 17.3905156,50.7504375 C17.868375,50.7504375 18.2570937,51.1390469 18.2570937,51.6169062 C18.2570938,52.0947656 17.868375,52.4834844 17.3905156,52.4834844 Z" id="Shape"></path>
                            <path d="M21.1804687,2.76915625 L13.6004531,2.76915625 C13.1603281,2.76915625 12.8034375,3.1259375 12.8034375,3.56617188 C12.8034375,4.00640625 13.1602187,4.3631875 13.6004531,4.3631875 L21.1804687,4.3631875 C21.6205937,4.3631875 21.9774844,4.00640625 21.9774844,3.56617188 C21.9774844,3.1259375 21.6207031,2.76915625 21.1804687,2.76915625 Z" id="Shape"></path>
                        </g>
                    </g>
                </g>
            </g>
        </g>
    </g>
</svg>