<?xml version="1.0" encoding="UTF-8"?>
<svg width="192px" height="265px" viewBox="0 0 192 265" version="1.1" xmlns="http://www.w3.org/2000/svg" xmlns:xlink="http://www.w3.org/1999/xlink">
    <!-- Generator: Sketch 46.2 (44496) - http://www.bohemiancoding.com/sketch -->
    <title>oval-level_2</title>
    <desc>Created with Sketch.</desc>
    <defs>
        <rect id="path-1" x="0" y="0" width="192" height="266"></rect>
    </defs>
    <g id="Page-1" stroke="none" stroke-width="1" fill="none" fill-rule="evenodd">
        <g id="envío-de-contratos" transform="translate(-1248.000000, -571.000000)">
            <g id="background" transform="translate(-48.000000, 130.000000)">
                <g id="oval-level_2" transform="translate(1296.000000, 440.000000)">
                    <mask id="mask-2" fill="white">
                        <use xlink:href="#path-1"></use>
                    </mask>
                    <g id="Mask"></g>
                    <g mask="url(#mask-2)" id="g-link">
                        <g transform="translate(-1.000000, 1.000000)">
                            <g opacity="0.2">
                                <path d="M197.629041,-3.59972779e-14 C171.319504,-3.59972779e-14 133.734451,10.0454595 104.691456,31.8447901 C52.7557467,70.796572 0,133.666115 0,133.666115 C0,133.666115 54.6691676,195.168928 108.108279,234.257383 C136.126227,254.758321 172.344551,264.667108 197.629041,264.667108 C271.159071,264.667108 330.885137,205.419397 330.885137,132.299386 C330.885137,59.1793739 271.159071,-1.13686838e-13 197.629041,-1.13686838e-13" id="g" fill="#061439" fill-rule="nonzero"></path>
                            </g>
                            <g>
                                <path d="M197.629041,-3.59972779e-14 C171.319504,-3.59972779e-14 133.734451,10.0454595 104.691456,31.8447901 C52.7557467,70.796572 0,133.666115 0,133.666115 C0,133.666115 54.6691676,195.168928 108.108279,234.257383 C136.126227,254.758321 172.344551,264.667108 197.629041,264.667108 C271.159071,264.667108 330.885137,205.419397 330.885137,132.299386 C330.885137,59.1793739 271.159071,-1.13686838e-13 197.629041,-1.13686838e-13" id="g" fill="#153587" fill-rule="nonzero"></path>
                            </g>
                        </g>
                    </g>
                </g>
            </g>
        </g>
    </g>
</svg>