<?xml version="1.0" encoding="UTF-8"?>
<svg width="62px" height="56px" viewBox="0 0 62 56" version="1.1" xmlns="http://www.w3.org/2000/svg" xmlns:xlink="http://www.w3.org/1999/xlink">
    <!-- Generator: Sketch 48.2 (47327) - http://www.bohemiancoding.com/sketch -->
    <title>package</title>
    <desc>Created with Sketch.</desc>
    <defs></defs>
    <g id="Landing" stroke="none" stroke-width="1" fill="none" fill-rule="evenodd" transform="translate(-163.000000, -1018.000000)">
        <g id="perfilador" transform="translate(162.000000, 873.000000)" fill="#EB0029" fill-rule="nonzero">
            <g id="Group-4" transform="translate(1.000000, 145.000000)">
                <g id="package">
                    <path d="M61.7929828,7.70048276 C61.7929828,7.69372414 61.7921379,7.68696552 61.7918966,7.68008621 C61.7911724,7.65317241 61.7896034,7.62662069 61.7864655,7.60031034 C61.7852586,7.59065517 61.7834483,7.581 61.782,7.57134483 C61.7783793,7.54708621 61.7739138,7.52318966 61.7683621,7.49977586 C61.7661897,7.49048276 61.7637759,7.48131034 61.7612414,7.47201724 C61.7542414,7.44655172 61.7462759,7.42156897 61.7371034,7.39694828 C61.7354138,7.39224138 61.7343276,7.38741379 61.7325172,7.38282759 L59.2770862,1.09706897 C59.0295517,0.463689655 58.4300862,0.0543103448 57.75,0.0543103448 L53.2791724,0.0543103448 C52.7918276,0.0543103448 52.3968103,0.449327586 52.3968103,0.936672414 C52.3968103,1.42401724 52.7918276,1.81903448 53.2791724,1.81903448 L57.6645517,1.81903448 L59.6186379,6.8215 L41.1441897,6.8215 L39.9866552,1.81903448 L46.8096034,1.81903448 C47.2969483,1.81903448 47.6919655,1.42401724 47.6919655,0.936672414 C47.6919655,0.449327586 47.2969483,0.0543103448 46.8096034,0.0543103448 L38.8767931,0.0543103448 L29.9859483,0.0543103448 L11.1126207,0.0543103448 C10.4324138,0.0543103448 9.83306897,0.463689655 9.58553448,1.09731034 L7.13010345,7.38282759 C7.1282931,7.38753448 7.12732759,7.39236207 7.12551724,7.39694828 C7.11634483,7.42144828 7.10837931,7.44643103 7.10137931,7.47201724 C7.09884483,7.48131034 7.09643103,7.49048276 7.09425862,7.49977586 C7.0887069,7.52331034 7.08424138,7.5472069 7.08062069,7.57134483 C7.07917241,7.581 7.07736207,7.59065517 7.07615517,7.60031034 C7.07313793,7.62662069 7.07144828,7.65317241 7.07072414,7.68008621 C7.07060345,7.68684483 7.06975862,7.69360345 7.06963793,7.70048276 C7.06963793,7.70156897 7.06951724,7.70265517 7.06951724,7.70374138 L7.06951724,20.6670172 C7.06951724,21.1543621 7.46453448,21.5493793 7.95187931,21.5493793 C8.43922414,21.5493793 8.83424138,21.1543621 8.83424138,20.6670172 L8.83424138,8.58622414 L27.5377586,8.58622414 L27.5377586,21.9982241 C27.5377586,22.5227414 27.8467241,23.0006724 28.3250172,23.2158621 C28.5001379,23.2946724 28.6866034,23.3331724 28.8718621,23.3331724 C29.1924138,23.3331724 29.5094655,23.2180345 29.7580862,22.9976552 L34.4313103,18.8575172 L39.1045345,22.9975345 C39.4968966,23.3454828 40.0595517,23.4310517 40.5378448,23.2158621 C41.0160172,23.0005517 41.3249828,22.5227414 41.3249828,21.9982241 L41.3249828,8.58622414 L60.0283793,8.58622414 L60.0283793,48.1631379 C60.0283793,48.7962759 59.5131552,49.3115 58.8800172,49.3115 L42.7012069,49.3115 C42.7012069,49.3014828 42.7,49.2914655 42.6998793,49.2814483 C42.6989138,49.2022759 42.6960172,49.1232241 42.6892586,49.0447759 C44.2083793,49.4475172 45.8315345,48.6667759 46.4402931,47.1738448 C46.7604828,46.3885172 46.7557759,45.5255862 46.4268966,44.744 C46.3958793,44.6703793 46.3617241,44.598931 46.3257586,44.528569 C46.3191207,44.5156552 46.3127241,44.5026207 46.3060862,44.4898276 C46.2707241,44.4227241 46.233069,44.3571897 46.1933621,44.2933448 C46.1856379,44.2809138 46.1776724,44.2688448 46.1698276,44.2565345 C46.1278276,44.191 46.0842586,44.1266724 46.0377931,44.0647586 C46.0369483,44.0635517 46.0359828,44.0624655 46.0351379,44.0613793 C45.9890345,44.0001897 45.9402759,43.9412931 45.8899483,43.8837241 C45.8807759,43.8732241 45.8717241,43.8626034 45.862431,43.8521034 C45.8125862,43.7965862 45.7608103,43.7428793 45.7072241,43.6911034 C45.6967241,43.6809655 45.6861034,43.6711897 45.6754828,43.6612931 C45.6193621,43.6085517 45.5619138,43.5572586 45.5020517,43.5088621 C45.5,43.5072931 45.4979483,43.5057241 45.4958966,43.5041552 C45.437,43.4567241 45.3758103,43.4118276 45.3134138,43.3686207 C45.3021897,43.3607759 45.2910862,43.3528103 45.2796207,43.3450862 C45.2172241,43.3030862 45.1532586,43.2633793 45.0876034,43.2256034 C45.0821724,43.2224655 45.0772241,43.2188448 45.0716724,43.2157069 C45.4446034,42.8929828 45.7389655,42.484569 45.9306207,42.0146034 C46.2508103,41.2292759 46.2461034,40.3663448 45.9172241,39.5846379 C45.6295,38.9006897 45.1236897,38.3505862 44.4758276,38.0092759 C44.3832586,37.9605172 44.2877931,37.9159828 44.1896724,37.8760345 L30.4567586,32.2763966 L36.8492069,30.2978103 C38.3700172,29.827 39.2265517,28.204931 38.7585172,26.6821897 C38.5838793,26.1137414 38.2376207,25.6343621 37.7903448,25.284 C37.1247414,24.7625 36.2351379,24.5270345 35.3528966,24.7122931 C35.3486724,24.7132586 35.344569,24.7139828 35.3403448,24.715069 C35.2914655,24.7260517 30.3909828,25.8279483 25.2728966,26.825931 C25.0458793,26.8702241 24.8246552,26.9129483 24.606569,26.9549483 C24.4320517,26.9885 24.2599483,27.021569 24.0911034,27.0536724 C24.0425862,27.0629655 23.9939483,27.0721379 23.9457931,27.0813103 C23.6476897,27.1379138 23.3588793,27.1921034 23.0781552,27.2442414 C22.9651897,27.2652414 22.8531897,27.286 22.743,27.3062759 C16.315431,28.4903621 14.5097931,28.5116034 14.0086897,28.4437759 C14.0067586,28.4435345 14.005069,28.4432931 14.0031379,28.442931 C13.9955345,28.4418448 13.9880517,28.4407586 13.9810517,28.4396724 C13.9759828,28.4388276 13.9712759,28.4379828 13.966569,28.4372586 C13.9631897,28.4366552 13.959569,28.4360517 13.9563103,28.435569 C13.9250517,28.4298966 13.9006724,28.4239828 13.8818448,28.4183103 L13.7372586,28.3594138 L13.9174483,27.917569 C14.0946207,27.4830862 14.0919655,27.0056379 13.9100862,26.5732069 C13.8645862,26.465069 13.8091897,26.3629655 13.7449828,26.2678621 C13.5523621,25.9826724 13.2799655,25.7606034 12.9541034,25.6277241 L8.21486207,23.6953621 C7.7805,23.518069 7.30293103,23.5208448 6.8705,23.7027241 C6.43794828,23.8846034 6.10231034,24.2241034 5.92513793,24.6584655 L0.129982759,38.8712414 C-0.235706897,39.7680862 0.196482759,40.7951552 1.09332759,41.1609655 L5.83268966,43.0934483 C6.04908621,43.1816724 6.27296552,43.223431 6.49346552,43.223431 C7.18658621,43.223431 7.84482759,42.810431 8.1222931,42.1301034 L8.16586207,42.0232931 L9.25858621,42.4687586 C9.25918966,42.469 9.2597931,42.4693621 9.26051724,42.4696034 C10.3056897,42.8957586 11.2686724,43.5037931 12.1021552,44.2583448 C12.2537414,44.395569 12.4009828,44.5376207 12.5437586,44.6842586 C12.6865345,44.8308966 12.8246034,44.9822414 12.9579655,45.137931 C13.0245862,45.2157759 13.0901207,45.2948276 13.1542069,45.3748448 C14.3687069,46.8892586 15.9608448,48.0772069 17.7582759,48.8101552 L18.9876207,49.3113793 L9.98272414,49.3113793 C9.34958621,49.3113793 8.83436207,48.7961552 8.83436207,48.1630172 L8.83436207,45.9303793 C8.83436207,45.4430345 8.43934483,45.0480172 7.952,45.0480172 C7.46465517,45.0480172 7.06963793,45.4430345 7.06963793,45.9303793 L7.06963793,48.1630172 C7.06963793,49.7692759 8.37634483,51.0761034 9.98272414,51.0761034 L23.3156724,51.0761034 L34.6823448,55.7108276 C35.0736207,55.8703793 35.4784138,55.9460517 35.8770517,55.945931 C37.1296897,55.945931 38.3194483,55.1994655 38.8209138,53.9697586 C39.026569,53.4653966 39.0925862,52.9382241 39.0371897,52.4314483 C39.6284483,52.5162931 40.241431,52.4384483 40.7970862,52.1985172 C41.3617931,51.9546034 41.8298276,51.5661034 42.1622069,51.0759828 L58.8801379,51.0759828 C60.4863966,51.0759828 61.7932241,49.7692759 61.7932241,48.1628966 L61.7932241,7.70386207 C61.7931034,7.70265517 61.7929828,7.70168966 61.7929828,7.70048276 Z M30.6873966,1.81903448 L38.1752241,1.81903448 L39.3327586,6.8215 L29.5298621,6.8215 L30.6873966,1.81903448 Z M27.7185517,6.8215 L9.24398276,6.8215 L11.198069,1.81903448 L28.8760862,1.81903448 L27.7185517,6.8215 Z M39.5605,21.0436897 L39.5603793,21.0436897 L35.3166897,17.2842069 C35.0643276,17.0606897 34.7478793,16.948931 34.4315517,16.948931 C34.1151034,16.948931 33.7985345,17.0606897 33.5461724,17.2842069 L29.3026034,21.0436897 L29.3026034,8.58622414 L39.5605,8.58622414 L39.5605,21.0436897 Z M6.4912931,41.4561724 L1.76713793,39.5299655 L7.55613793,25.3326379 L12.2802931,27.2589655 L6.4912931,41.4561724 Z M41.742931,46.7811207 L40.7302241,46.3681207 C40.7297414,46.3678793 40.7292586,46.3677586 40.7287759,46.3675172 C40.7284138,46.3673966 40.7280517,46.3671552 40.7276897,46.3670345 C40.727569,46.3670345 40.7274483,46.3669138 40.7273276,46.3669138 L30.1807414,42.0666207 C29.7296034,41.8826897 29.2146207,42.0992069 29.030569,42.5505862 C28.8465172,43.0018448 29.0631552,43.5168276 29.5145345,43.7008793 L40.0613621,48.0012931 C40.1054138,48.0192759 40.1480172,48.0391897 40.1891724,48.0610345 C40.2007586,48.0671897 40.2115,48.0746724 40.2228448,48.081069 C40.2518103,48.0974828 40.2808966,48.1138966 40.3082931,48.1321207 C40.3214483,48.140931 40.3335172,48.151069 40.3463103,48.1602414 C40.370569,48.1776207 40.3953103,48.1947586 40.4182414,48.2135862 C40.4321207,48.224931 40.4446724,48.2376034 40.458069,48.249431 C40.4785862,48.2676552 40.4995862,48.2852759 40.5188966,48.3045862 C40.5322931,48.3178621 40.5442414,48.3324655 40.5570345,48.3462241 C40.5747759,48.3652931 40.593,48.384 40.6096552,48.4040345 C40.6223276,48.4193621 40.633431,48.4356552 40.6455,48.4514655 C40.6605862,48.4712586 40.6762759,48.4906897 40.6901552,48.5112069 C40.7018621,48.5283448 40.7118793,48.5464483 40.7227414,48.5639483 C40.7352931,48.5842241 40.748569,48.6041379 40.7600345,48.6250172 C40.7704138,48.6438448 40.7791034,48.6635172 40.7886379,48.6827069 C40.7987759,48.7033448 40.8097586,48.7236207 40.818931,48.7447414 C40.8277414,48.7650172 40.8348621,48.7860172 40.8427069,48.8066552 C40.8506724,48.8275345 40.8593621,48.8480517 40.8663621,48.8692931 C40.8733621,48.8906552 40.8786724,48.9125 40.8845862,48.9341034 C40.8905,48.9554655 40.8971379,48.9764655 40.9020862,48.998069 C40.9070345,49.0199138 40.9101724,49.0421207 40.9141552,49.0640862 C40.9181379,49.0860517 40.9227241,49.1077759 40.9256207,49.1299828 C40.9285172,49.1521897 40.9296034,49.1746379 40.9314138,49.1969655 C40.9332241,49.2194138 40.9358793,49.2417414 40.9366034,49.2641897 C40.9373276,49.2862759 40.9362414,49.3086034 40.936,49.3308103 C40.9357586,49.3537414 40.9361207,49.3766724 40.9346724,49.3997241 C40.9333448,49.421569 40.9300862,49.4434138 40.9276724,49.4652586 C40.9251379,49.4887931 40.9232069,49.5123276 40.9193448,49.5357414 C40.9158448,49.5572241 40.9104138,49.5785862 40.9059483,49.600069 C40.9008793,49.6238448 40.8966552,49.6476207 40.8902586,49.6712759 C40.8847069,49.6921552 40.8772241,49.7129138 40.8705862,49.7336724 C40.8631034,49.7573276 40.8562241,49.7809828 40.8474138,49.8042759 C40.839931,49.8203276 40.832569,49.8365 40.8256897,49.8527931 C40.8241207,49.8565345 40.8232759,49.8603966 40.8218276,49.8640172 C40.684,50.1822759 40.4295862,50.4351207 40.0973276,50.5786207 C39.7316379,50.7363621 39.3129655,50.7419138 38.9484828,50.5932241 L37.0798448,49.8313103 C37.0711552,49.8278103 37.0623448,49.8253966 37.0536552,49.8221379 C37.0448448,49.8181552 37.0365172,49.813569 37.0275862,49.8099483 L28.4494483,46.3122414 C27.9979483,46.1283103 27.4832069,46.3448276 27.2992759,46.7962069 C27.1152241,47.2474655 27.3318621,47.7624483 27.7831207,47.9465 L36.3612586,51.4442069 C36.370431,51.4479483 36.3797241,51.4506034 36.3890172,51.4539828 C36.3973448,51.4576034 36.405069,51.462069 36.4136379,51.4654483 C37.1335517,51.7590862 37.4805345,52.5836379 37.1870172,53.3035517 C36.8933793,54.0237069 36.0691897,54.3708103 35.3489138,54.076931 L23.8236552,49.3775172 C23.8231724,49.3772759 23.8226897,49.3770345 23.8222069,49.3767931 L18.4249655,47.1760172 C17.4748966,46.7886034 16.5926552,46.250931 15.8138448,45.589431 C15.3465345,45.1924828 14.9165172,44.7511207 14.5312759,44.2707759 C14.1517069,43.7975517 13.7353276,43.3561897 13.2873276,42.9505517 C12.3016552,42.0582931 11.1629483,41.3393448 9.9272069,40.8353448 C9.92708621,40.8353448 9.92696552,40.8352241 9.92684483,40.8352241 L8.83267241,40.3891552 L11.0119655,35.0444138 L13.0714138,29.9936724 L13.2233621,30.0555862 C13.3663793,30.1138793 13.5703448,30.1966724 14.1192414,30.217431 C14.805,30.2484483 15.9394828,30.1768793 17.9718966,29.8897586 C19.3543966,29.6944828 21.0502069,29.412069 23.0298793,29.0478276 C23.0786379,29.0388966 23.1270345,29.0299655 23.1762759,29.0209138 C23.2688448,29.0037759 23.3623793,28.9863966 23.4562759,28.9690172 C23.5292931,28.9555 23.6026724,28.9417414 23.6766552,28.9278621 C23.7608966,28.9120517 23.8455,28.8962414 23.9307069,28.8801897 C24.0211034,28.8631724 24.1125862,28.8459138 24.2045517,28.8284138 C24.2781724,28.8144138 24.3516724,28.8005345 24.4260172,28.7864138 C24.5381379,28.7650517 24.6521897,28.7432069 24.7666034,28.7212414 C24.8255,28.7098966 24.8837931,28.6987931 24.9431724,28.6874483 C25.1184138,28.6536552 25.2959483,28.6193793 25.4767414,28.5842586 C30.5772069,27.5921897 35.5001379,26.488 35.7213621,26.4382759 C35.7434483,26.4336897 35.7655345,26.4310345 35.7876207,26.4277759 C36.3543793,26.3438966 36.9096724,26.6716897 37.0722414,27.2005517 C37.1293276,27.3864138 37.1359655,27.5760172 37.1,27.7543966 C37.0209483,28.147 36.7356379,28.4857759 36.3278276,28.6118966 L27.58,31.3194483 C27.2238448,31.4297586 26.9754655,31.7516379 26.9594138,32.1240862 C26.9432414,32.4964138 27.1626552,32.8388103 27.5078276,32.9795345 L43.5238276,39.5101724 C43.8726207,39.6523448 44.1451379,39.9218448 44.2911724,40.269069 C44.4372069,40.6162931 44.4393793,40.9996034 44.2970862,41.3482759 C44.1547931,41.697069 43.8854138,41.9695862 43.5381897,42.1156207 C43.3646379,42.1885172 43.1820345,42.2254483 42.9991897,42.2265345 C42.9965345,42.2265345 42.9938793,42.2261724 42.9912241,42.2261724 C42.9482586,42.2261724 42.9054138,42.2244828 42.862569,42.2205 C42.8498966,42.2192931 42.8373448,42.2166379 42.8246724,42.2151897 C42.7919655,42.2112069 42.7592586,42.2074655 42.7267931,42.2011897 C42.7062759,42.1972069 42.686,42.1911724 42.6656034,42.1863448 C42.6412241,42.1805517 42.6167241,42.1756034 42.5925862,42.1684828 C42.5676034,42.1611207 42.5431034,42.1513448 42.5184828,42.1425345 C42.498931,42.1355345 42.4790172,42.1297414 42.4597069,42.1218966 L31.9119138,37.821 C31.4606552,37.6369483 30.9457931,37.8535862 30.7617414,38.3049655 C30.5776897,38.7562241 30.7943276,39.2712069 31.2457069,39.4552586 L44.0333793,44.6694138 C44.1206379,44.7048966 44.203069,44.7484655 44.2799483,44.7991552 C44.5105862,44.9512241 44.6912586,45.1678621 44.8007241,45.4283103 C44.9285345,45.7320862 44.9461552,46.0635 44.8532241,46.3752414 C44.8399483,46.4197759 44.8243793,46.4639483 44.8066379,46.5075172 C44.7882931,46.5525345 44.7678966,46.5961034 44.745569,46.6381034 C44.6935517,46.7358621 44.6301897,46.8242069 44.5594655,46.9047069 C44.5155345,46.9546724 44.4685862,47.0012586 44.4186207,47.0439828 C44.4106552,47.0507414 44.4034138,47.0584655 44.3953276,47.0649828 C44.0733276,47.3283276 43.6428276,47.4415345 43.2222241,47.356569 C43.1368966,47.3393103 43.0520517,47.3148103 42.9685345,47.2807759 L41.742931,46.7811207 Z" id="Shape"></path>
                </g>
            </g>
        </g>
    </g>
</svg>