<?xml version="1.0" encoding="UTF-8"?>
<svg width="7px" height="20px" viewBox="0 0 7 20" version="1.1" xmlns="http://www.w3.org/2000/svg" xmlns:xlink="http://www.w3.org/1999/xlink">
    <!-- Generator: Sketch 49 (51002) - http://www.bohemiancoding.com/sketch -->
    <title>pencil</title>
    <desc>Created with Sketch.</desc>
    <defs></defs>
    <g id="Page-1" stroke="none" stroke-width="1" fill="none" fill-rule="evenodd">
        <g id="Process_4_succesfull_vistit" transform="translate(-810.000000, -1248.000000)" fill-rule="nonzero">
            <g id="Widget-Copy-2" transform="translate(652.000000, 1172.000000)">
                <g id="pencil" transform="translate(158.000000, 76.000000)">
                    <path d="M0.0204081633,16.1346939 C0.0204081633,16.2244898 0.0489795918,16.3102041 0.102040816,16.3795918 L2.73061224,19.8244898 C2.80816327,19.9265306 2.92653061,19.9836735 3.05306122,19.9836735 C3.17959184,19.9836735 3.29795918,19.9265306 3.3755102,19.8244898 L6.00408163,16.3795918 C6.05714286,16.3102041 6.08571429,16.2244898 6.08571429,16.1346939 L6.08571429,5.06938776 C6.08571429,4.84489796 5.90612245,4.66530612 5.68163265,4.66530612 C5.45714286,4.66530612 5.27755102,4.84489796 5.27755102,5.06938776 L5.27755102,16 L3.05306122,18.9142857 L0.828571429,16 L0.828571429,5.08979592 C0.828571429,4.86530612 0.648979592,4.68571429 0.424489796,4.68571429 C0.2,4.68571429 0.0204081633,4.86530612 0.0204081633,5.08979592 L0.0204081633,16.1346939 Z" id="Shape" fill="#4E4044"></path>
                    <path d="M2.64897959,5.08979592 L2.64897959,15.2530612 C2.64897959,15.477551 2.82857143,15.6571429 3.05306122,15.6571429 C3.27755102,15.6571429 3.45714286,15.477551 3.45714286,15.2530612 L3.45714286,5.08979592 C3.45714286,4.86530612 3.27755102,4.68571429 3.05306122,4.68571429 C2.82857143,4.68571429 2.64897959,4.86530612 2.64897959,5.08979592 Z" id="Shape" fill="#4E4044"></path>
                    <path d="M0.0204081633,1.5877551 L0.0204081633,3.39591837 C0.0204081633,3.62040816 0.2,3.8 0.424489796,3.8 L5.67755102,3.8 C5.90204082,3.8 6.08163265,3.62040816 6.08163265,3.39591837 L6.08163265,1.5877551 C6.08163265,0.714285714 5.37142857,0 4.49387755,0 L1.60816327,0 C0.734693878,0 0.0204081633,0.710204082 0.0204081633,1.5877551 Z M5.27755102,1.5877551 L5.27755102,2.99183673 L0.828571429,2.99183673 L0.828571429,1.5877551 C0.828571429,1.15918367 1.17959184,0.808163265 1.60816327,0.808163265 L4.49387755,0.808163265 C4.92653061,0.808163265 5.27755102,1.15510204 5.27755102,1.5877551 Z" id="Shape" fill="#EB0029"></path>
                </g>
            </g>
        </g>
    </g>
</svg>