<?xml version="1.0" encoding="UTF-8"?>
<svg width="29px" height="40px" viewBox="0 0 29 40" version="1.1" xmlns="http://www.w3.org/2000/svg" xmlns:xlink="http://www.w3.org/1999/xlink">
    <!-- Generator: Sketch 48.2 (47327) - http://www.bohemiancoding.com/sketch -->
    <title>popcorn</title>
    <desc>Created with Sketch.</desc>
    <defs></defs>
    <g id="Process_4_succesfull_sucursal" stroke="none" stroke-width="1" fill="none" fill-rule="evenodd" transform="translate(-697.000000, -1299.000000)">
        <g id="Group-5" transform="translate(632.000000, 1269.000000)" fill-rule="nonzero">
            <g id="popcorn" transform="translate(65.000000, 30.000000)">
                <path d="M28.1297935,8.92035398 C28.1297935,7.4100295 27.1858407,6.2300885 25.7227139,6.2300885 L25.6755162,6.18289086 L25.6755162,5.33333333 C25.6755162,3.82300885 24.4483776,2.64306785 22.9852507,2.64306785 C21.4749263,2.64306785 20.2949853,3.87020649 20.2949853,5.33333333 L20.2949853,5.28613569 C20.2949853,3.72861357 19.020649,2.40707965 17.4159292,2.40707965 C16.660767,2.40707965 15.8584071,2.78466077 15.339233,3.30383481 L15.339233,2.64306785 C15.339233,1.179941 14.159292,0 12.6961652,0 C11.6106195,0 10.6666667,0.660766962 10.2890855,1.60471976 C9.72271386,1.22713864 9.0619469,0.991150442 8.30678466,0.991150442 C6.37168142,0.991150442 4.81415929,2.54867257 4.81415929,4.48377581 C4.81415929,5.00294985 4.95575221,5.52212389 5.14454277,5.99410029 L4.90855457,5.75811209 C4.48377581,5.47492625 3.96460177,5.28613569 3.44542773,5.28613569 C2.02949853,5.28613569 0.707964602,6.4660767 0.707964602,7.8820059 L0.707964602,9.20353982 L28.1297935,8.92035398 Z" id="Shape" fill="#FCCC54"></path>
                <path d="M3.63421829,37.1917404 L3.96460177,39.3156342 C4.01179941,39.6460177 4.29498525,39.9292035 4.57817109,39.9292035 L24.0707965,39.9292035 C24.4011799,39.9292035 24.6843658,39.6460177 24.7315634,39.2684366 L24.9675516,37.1917404 L3.63421829,37.1917404 Z" id="Shape" fill="#E2E7ED"></path>
                <path d="M0.707964602,8.30678466 C0.707964602,9.91150442 0.755162242,11.5162242 0.943952802,13.0737463 L3.63421829,37.2389381 L25.0147493,37.2389381 L27.8938053,12.6961652 C28.0353982,11.3746313 28.1297935,10.0530973 28.1769912,8.73156342 L28.1769912,8.30678466 L0.707964602,8.30678466 Z" id="Shape" fill="#EB0029"></path>
                <path d="M6.4660767,39.3628319 L6.13569322,37.2389381 L3.63421829,37.2389381 L3.96460177,39.3628319 C4.01179941,39.6932153 4.29498525,39.9764012 4.57817109,39.9764012 L7.07964602,39.9764012 C6.79646018,39.9292035 6.51327434,39.6932153 6.4660767,39.3628319 Z" id="Shape" fill="#F6F7F5"></path>
                <path d="M3.25663717,8.30678466 L0.755162242,8.25958702 L0.755162242,8.30678466 C0.755162242,9.91150442 0.802359882,11.4690265 0.991150442,13.0265487 L3.68141593,37.1917404 L6.18289086,37.1917404 L3.49262537,13.0265487 C3.30383481,11.4690265 3.20943953,9.91150442 3.25663717,8.30678466 Z" id="Shape" fill="#E2564B"></path>
                <g id="Group" transform="translate(1.179941, 8.259587)" fill="#FCCC54">
                    <polygon id="Shape" points="7.4100295 0.0471976401 0.0471976401 7.26843658 0.424778761 10.7138643 11.280236 0.0471976401"></polygon>
                    <polygon id="Shape" points="18.9734513 0.0471976401 1.179941 17.5575221 1.55752212 21.0029499 22.8436578 0.0471976401"></polygon>
                    <polygon id="Shape" points="2.31268437 27.8466077 2.45427729 28.9321534 5.09734513 28.9321534 26.2890855 8.07079646 26.8082596 3.72861357"></polygon>
                    <polygon id="Shape" points="16.660767 28.9321534 24.7787611 20.9557522 25.2979351 16.6135693 12.7905605 28.9321534"></polygon>
                </g>
                <g id="Group" transform="translate(1.179941, 13.215339)" fill="#F9E978">
                    <polygon id="Shape" points="0.424778761 5.75811209 2.69026549 3.53982301 2.31268437 0.0943952802 0.0471976401 2.31268437"></polygon>
                    <polygon id="Shape" points="1.72713864 16.0471976 1.72713864 16.0471976 1.22713864 13.120944"></polygon>
                    <polygon id="Shape" points="3.44542773 10.3834808 1.179941 12.6017699 1.22713864 13.120944 1.55752212 16.0471976 3.82300885 13.8289086"></polygon>
                    <path d="M2.31268437,22.8908555 L2.81268437,23.9764012 L2.31268437,22.8908555 Z" id="Shape"></path>
                    <polygon id="Shape" points="2.31268437 22.8908555 2.45427729 23.9764012 4.95575221 23.9764012 4.57817109 20.6725664"></polygon>
                </g>
                <path d="M28.2713864,10.9498525 L0.613569322,10.9498525 C0.330383481,10.9498525 0.0943952802,10.7138643 0.0943952802,10.4306785 L0.0943952802,8.8259587 C0.0943952802,8.54277286 0.330383481,8.30678466 0.613569322,8.30678466 L28.2713864,8.30678466 C28.5545723,8.30678466 28.7905605,8.54277286 28.7905605,8.8259587 L28.7905605,10.4306785 C28.7905605,10.7138643 28.5545723,10.9498525 28.2713864,10.9498525 Z" id="Shape" fill="#E2E7ED"></path>
                <path d="M2.40707965,10.4306785 L2.40707965,8.8259587 C2.40707965,8.54277286 2.64306785,8.30678466 2.92625369,8.30678466 L0.613569322,8.30678466 C0.330383481,8.30678466 0.0943952802,8.54277286 0.0943952802,8.8259587 L0.0943952802,10.4306785 C0.0943952802,10.7138643 0.330383481,10.9498525 0.613569322,10.9498525 L2.92625369,10.9498525 C2.59587021,10.9498525 2.40707965,10.7138643 2.40707965,10.4306785 Z" id="Shape" fill="#F6F7F5"></path>
                <g id="Group" transform="translate(5.427729, 1.061947)" fill="#F9E978">
                    <circle id="Oval" cx="1.4159292" cy="2.85545723" r="1.32153392"></circle>
                    <circle id="Oval" cx="6.56047198" cy="1.10914454" r="1.08554572"></circle>
                    <circle id="Oval" cx="5.19174041" cy="4.41297935" r="1"></circle>
                    <circle id="Oval" cx="10.9026549" cy="3.98820059" r="1.22713864"></circle>
                    <circle id="Oval" cx="16.4247788" cy="3.23303835" r="1"></circle>
                </g>
            </g>
        </g>
    </g>
</svg>