<?xml version="1.0" encoding="UTF-8"?>
<svg width="140px" height="168px" viewBox="0 0 140 168" version="1.1" xmlns="http://www.w3.org/2000/svg" xmlns:xlink="http://www.w3.org/1999/xlink">
    <!-- Generator: Sketch 46.1 (44463) - http://www.bohemiancoding.com/sketch -->
    <title>sad</title>
    <desc>Created with Sketch.</desc>
    <defs></defs>
    <g id="Page-1" stroke="none" stroke-width="1" fill="none" fill-rule="evenodd">
        <g id="ofertas-copy-2" transform="translate(-650.000000, -472.000000)" fill-rule="nonzero">
            <g id="sad" transform="translate(650.000000, 472.000000)">
                <path d="M17.3653594,140.916891 C12.8162344,140.916891 9.12876562,137.229094 9.12876562,132.680297 L9.12876562,92.9286094 C9.12876562,88.3794844 12.8165625,84.6920156 17.3653594,84.6920156 C21.9141563,84.6920156 25.6019531,88.3798125 25.6019531,92.9286094 L25.6019531,132.680953 C25.6019531,137.229422 21.9144844,140.916891 17.3653594,140.916891 Z" id="Shape" fill="#F3C74F"></path>
                <path d="M17.3653594,84.6920156 C12.8162344,84.6920156 9.12876562,88.3798125 9.12876562,92.9286094 L9.12876562,97.9640156 C12.0638437,108.506344 17.8470469,117.866109 25.6019531,125.168859 L25.6019531,92.9286094 C25.6019531,88.3791563 21.9144844,84.6920156 17.3653594,84.6920156 Z" id="Shape" fill="#000000" opacity="0.2"></path>
                <g id="Group" transform="translate(78.750000, 84.656250)" fill="#F3C74F">
                    <path d="M43.0089844,56.2606406 C38.4598594,56.2606406 34.7723906,52.5728438 34.7723906,48.0240469 L34.7723906,8.27235938 C34.7723906,3.72323438 38.4601875,0.035765625 43.0089844,0.035765625 C47.5577812,0.035765625 51.2455781,3.7235625 51.2455781,8.27235938 L51.2455781,48.0247031 C51.24525,52.5731719 47.5577812,56.2606406 43.0089844,56.2606406 Z" id="Shape"></path>
                    <path d="M8.52075,83.34375 C3.971625,83.34375 0.28415625,79.6559531 0.28415625,75.1071563 L0.28415625,43.9169063 C0.28415625,39.3677813 3.97195313,35.6803125 8.52075,35.6803125 C13.0695469,35.6803125 16.7573437,39.3681094 16.7573437,43.9169063 L16.7573437,75.1071563 C16.7576719,79.6559531 13.069875,83.34375 8.52075,83.34375 Z" id="Shape"></path>
                </g>
                <path d="M87.27075,120.336891 C82.721625,120.336891 79.0341563,124.024687 79.0341563,128.573484 L79.0341563,145.847953 C84.8501719,144.919359 90.3843281,143.151094 95.5073438,140.669156 L95.5073438,128.573484 C95.5076719,124.024031 91.819875,120.336891 87.27075,120.336891 Z" id="Shape" fill="#000000" opacity="0.2"></path>
                <path d="M51.8532656,168 C47.3041406,168 43.6166719,164.312203 43.6166719,159.763406 L43.6166719,128.573156 C43.6166719,124.024031 47.3044687,120.336562 51.8532656,120.336562 C56.4020625,120.336562 60.0898594,124.024359 60.0898594,128.573156 L60.0898594,159.763406 C60.0901875,164.312203 56.4023906,168 51.8532656,168 Z" id="Shape" fill="#F3C74F"></path>
                <path d="M51.8532656,120.336891 C47.3041406,120.336891 43.6166719,124.024687 43.6166719,128.573484 L43.6166719,140.669156 C48.7396875,143.151094 54.2741719,144.919359 60.0898594,145.847953 L60.0898594,128.573484 C60.0901875,124.024031 56.4023906,120.336891 51.8532656,120.336891 Z" id="Shape" fill="#000000" opacity="0.2"></path>
                <circle id="Oval" fill="#0081C6" cx="18.923625" cy="36.8369531" r="18.9173906"></circle>
                <circle id="Oval" fill="#F3C74F" cx="18.923625" cy="36.8369531" r="8.83214062"></circle>
                <path d="M27.5270625,19.9923281 C19.5569062,29.3767031 13.1200781,41.0897813 9.01129687,52.9508437 C11.8942031,54.7282969 15.2886562,55.7559844 18.9239531,55.7559844 C29.3717813,55.7559844 37.8413437,47.2864219 37.8413437,36.8385938 C37.8413437,29.4895781 33.6485625,23.1249375 27.5270625,19.9923281 Z" id="Shape" fill="#000000" opacity="0.2"></path>
                <circle id="Oval" fill="#0081C6" cx="120.201375" cy="36.8369531" r="18.9173906"></circle>
                <circle id="Oval" fill="#F3C74F" cx="120.201375" cy="36.8369531" r="8.83214062"></circle>
                <path d="M129.001359,79.8820312 C129.001359,47.1515625 101.714813,0 69.5621719,0 C37.4095313,0 10.1229844,47.1515625 10.1229844,79.8820312 C10.1229844,112.612172 36.7349063,139.145672 69.5621719,139.145672 C102.389437,139.145672 129.001359,112.612172 129.001359,79.8820312 Z" id="Shape" fill="#40BAB3"></path>
                <g id="Group" transform="translate(27.562500, 74.156250)" fill="#0081C6">
                    <path d="M11.7052031,5.39404687 L2.94984375,5.39404687 C1.46540625,5.39404687 0.2625,4.1908125 0.2625,2.70670312 C0.2625,1.22259375 1.46540625,0.019359375 2.94984375,0.019359375 L11.7052031,0.019359375 C13.1896406,0.019359375 14.3925469,1.22259375 14.3925469,2.70670312 C14.3925469,4.1908125 13.1896406,5.39404687 11.7052031,5.39404687 Z" id="Shape"></path>
                    <path d="M81.0491719,5.39404687 L72.2938125,5.39404687 C70.809375,5.39404687 69.6064688,4.1908125 69.6064688,2.70670312 C69.6064688,1.22259375 70.809375,0.019359375 72.2938125,0.019359375 L81.0491719,0.019359375 C82.5332813,0.019359375 83.7365156,1.22259375 83.7365156,2.70670312 C83.7365156,4.1908125 82.5336094,5.39404687 81.0491719,5.39404687 Z" id="Shape"></path>
                </g>
                <path d="M11.1240938,90.7511719 C16.2444844,118.290047 40.459125,139.145672 69.5621719,139.145672 C98.6652188,139.145672 122.880188,118.290047 128.00025,90.7511719 L11.1240938,90.7511719 L11.1240938,90.7511719 Z" id="Shape" fill="#FFFFFF"></path>
                <path d="M21.6464062,114.948422 C32.4646875,129.621188 49.8963281,139.145672 69.5621719,139.145672 C89.2280156,139.145672 106.659656,129.621188 117.477937,114.948422 L21.6464062,114.948422 L21.6464062,114.948422 Z" id="Shape" fill="#0081C6"></path>
                <path d="M75.865125,132.842391 C43.0378594,132.842391 16.4259375,106.309547 16.4259375,73.57875 C16.4259375,53.8738594 26.31825,28.9468594 41.2052813,12.2233125 C22.8706406,28.4087344 10.1226563,57.5114531 10.1226563,79.8817031 C10.1226563,112.611844 36.7345781,139.145344 69.5618438,139.145344 C87.6106875,139.145344 103.778719,131.123016 114.679688,118.461328 C104.265984,127.42275 90.7006406,132.842391 75.865125,132.842391 Z" id="Shape" fill="#000000" opacity="0.2"></path>
                <g id="Group" transform="translate(26.250000, 56.765625)" fill="#394049">
                    <path d="M54.7581562,25.0697344 C53.2737188,25.0697344 52.0708125,23.8665 52.0708125,22.3823906 C52.0708125,17.5527187 48.1415156,13.62375 43.3121719,13.62375 C38.4828281,13.62375 34.5535312,17.5530469 34.5535312,22.3823906 C34.5535312,23.8665 33.350625,25.0697344 31.8661875,25.0697344 C30.38175,25.0697344 29.1788437,23.8665 29.1788437,22.3823906 C29.1788437,14.5894219 35.518875,8.2490625 43.3121719,8.2490625 C51.1054688,8.2490625 57.4455,14.5890937 57.4455,22.3823906 C57.4455,23.8668281 56.2425937,25.0697344 54.7581562,25.0697344 Z" id="Shape"></path>
                    <path d="M8.63985937,11.5575469 C3.892875,11.5575469 0.030515625,7.69551563 0.030515625,2.94820313 C0.030515625,1.46409375 1.23342187,0.260859375 2.71785937,0.260859375 C4.20229687,0.260859375 5.40520312,1.46409375 5.40520312,2.94820313 C5.40520312,4.73189063 6.85617187,6.18285938 8.63985937,6.18285938 C10.4235469,6.18285938 11.8745156,4.73189063 11.8745156,2.94820313 C11.8745156,1.46409375 13.0774219,0.260859375 14.5618594,0.260859375 C16.0462969,0.260859375 17.2492031,1.46409375 17.2492031,2.94820313 C17.2495313,7.69551563 13.3871719,11.5575469 8.63985937,11.5575469 Z" id="Shape"></path>
                    <path d="M77.9844844,11.5575469 C73.2375,11.5575469 69.3751406,7.69551563 69.3751406,2.94820313 C69.3751406,1.46409375 70.5780469,0.260859375 72.0624844,0.260859375 C73.5465937,0.260859375 74.7498281,1.46409375 74.7498281,2.94820313 C74.7498281,4.73189063 76.2007969,6.18285938 77.9844844,6.18285938 C79.7681719,6.18285938 81.2191406,4.73189063 81.2191406,2.94820313 C81.2191406,1.46409375 82.4220469,0.260859375 83.9064844,0.260859375 C85.3909219,0.260859375 86.5938281,1.46409375 86.5938281,2.94820313 C86.5935,7.69551563 82.7314687,11.5575469 77.9844844,11.5575469 Z" id="Shape"></path>
                </g>
            </g>
        </g>
    </g>
</svg>