<?xml version="1.0" encoding="UTF-8"?>
<svg width="23px" height="16px" viewBox="0 0 23 16" version="1.1" xmlns="http://www.w3.org/2000/svg" xmlns:xlink="http://www.w3.org/1999/xlink">
    <!-- Generator: Sketch 48.2 (47327) - http://www.bohemiancoding.com/sketch -->
    <title>send-mail</title>
    <desc>Created with Sketch.</desc>
    <defs></defs>
    <g id="Landing_chat" stroke="none" stroke-width="1" fill="none" fill-rule="evenodd" transform="translate(-1123.000000, -1436.000000)">
        <g id="chat_open" transform="translate(759.000000, 1008.000000)" fill="#EB0029" fill-rule="nonzero">
            <g id="send-mail" transform="translate(364.000000, 428.000000)">
                <path d="M21.9527662,0.648788732 C21.662738,0.253430986 21.2055437,0.0290253521 20.7297352,0.0290704225 C20.606693,0.0290704225 20.4823887,0.0440788732 20.3594366,0.0750422535 L1.14668169,4.91136901 C0.552112676,5.06095775 0.106185915,5.55384789 0.0163605634,6.16027042 C-0.073284507,6.76673803 0.210839437,7.36757183 0.736540845,7.68292958 L4.79932394,10.1206085 L4.79932394,15.4678986 C4.79932394,15.6702648 4.91465915,15.8549634 5.09642817,15.9438873 C5.27824225,16.0327662 5.4948507,16.0103211 5.65453521,15.8860169 L9.46510423,12.9201577 L12.5954704,14.7983324 C12.839707,14.9449014 13.1087324,15.0147155 13.3744676,15.0147155 C13.8841239,15.0147155 14.3813859,14.7578592 14.6677183,14.2925521 L22.0214986,2.34086761 C22.3449239,1.81534648 22.3177014,1.14632113 21.9527662,0.648788732 Z M13.2836056,13.1197746 L8.52020282,10.2616338 L13.3527887,6.09735211 C13.4204845,6.03903099 13.4363493,5.94050704 13.3903775,5.86393239 C13.3444958,5.78735775 13.2501183,5.75490704 13.1668282,5.78713239 L5.80588169,8.63310423 L2.23067042,6.48788732 L20.1377352,1.98025915 L13.2836056,13.1197746 Z" id="Shape"></path>
            </g>
        </g>
    </g>
</svg>