<?xml version="1.0" encoding="UTF-8"?>
<svg width="40px" height="40px" viewBox="0 0 40 40" version="1.1" xmlns="http://www.w3.org/2000/svg" xmlns:xlink="http://www.w3.org/1999/xlink">
    <!-- Generator: Sketch 48.2 (47327) - http://www.bohemiancoding.com/sketch -->
    <title>Shape</title>
    <desc>Created with Sketch.</desc>
    <defs></defs>
    <g id="Process_4_uploading" stroke="none" stroke-width="1" fill="none" fill-rule="evenodd" transform="translate(-952.000000, -560.000000)">
        <g id="form" transform="translate(184.000000, 428.000000)">
            <g id="upload_id" transform="translate(32.000000, 132.000000)">
                <g id="close-button-" transform="translate(736.000000, 0.000000)">
                    <path d="M19.9890147,0 C8.94976939,0 0,8.94976939 0,19.9890147 C0,31.0309434 8.94976939,39.9780294 19.9890147,39.9780294 C31.0309434,39.9780294 39.9780294,31.0309434 39.9780294,19.9890147 C39.9779455,8.94976939 31.0308595,0 19.9890147,0 Z" id="Shape" fill="#EB0029" fill-rule="nonzero"></path>
                    <path d="M29.250566,12.61174 L21.8226415,20.042348 L28.397652,27.3662893 C28.9174004,27.8860377 28.9174004,28.733501 28.397652,29.250566 C27.880587,29.7703145 27.0330398,29.7703145 26.5160587,29.250566 L19.9410482,21.9266247 L12.6144235,29.250566 C12.0946751,29.7703145 11.2498113,29.7703145 10.7301468,29.250566 C10.2103983,28.733501 10.2103983,27.8859539 10.7301468,27.3662893 L18.1580713,19.9383648 L11.5856604,12.61174 C11.0659119,12.0919916 11.0659119,11.2471279 11.5856604,10.7274633 C12.1054088,10.2077987 12.9502725,10.2077149 13.4699371,10.7274633 L20.0449476,18.0540881 L27.3688889,10.7274633 C27.8886373,10.2077149 28.733501,10.2077149 29.2531656,10.7274633 C29.772914,11.2471279 29.7702306,12.0919916 29.250566,12.61174 Z" id="Path" fill="#FFFFFF"></path>
                </g>
            </g>
        </g>
    </g>
</svg>