<?xml version="1.0" encoding="UTF-8"?>
<svg width="24px" height="24px" viewBox="0 0 24 24" version="1.1" xmlns="http://www.w3.org/2000/svg" xmlns:xlink="http://www.w3.org/1999/xlink">
    <!-- Generator: Sketch 48.2 (47327) - http://www.bohemiancoding.com/sketch -->
    <title>shutter</title>
    <desc>Created with Sketch.</desc>
    <defs></defs>
    <g id="Process_2_webcam_shoot" stroke="none" stroke-width="1" fill="none" fill-rule="evenodd" transform="translate(-788.000000, -411.000000)">
        <g id="frente-copy" transform="translate(616.000000, 307.000000)" fill="#EB0029" fill-rule="nonzero">
            <g id="icon" transform="translate(143.000000, 104.000000)">
                <g id="shutter" transform="translate(29.000000, 0.000000)">
                    <path d="M11.9918371,0 C5.37966599,0 0,5.37966599 0,11.9918371 C0,18.6040081 5.37966599,23.9836741 11.9918371,23.9836741 C18.6040081,23.9836741 23.9836741,18.6040081 23.9836741,11.9918371 C23.9836741,5.37966599 18.604057,0 11.9918371,0 Z M11.9918371,22.9409206 C5.95419959,22.9409206 1.04275356,18.0294745 1.04275356,11.9918371 C1.04275356,5.95419959 5.95419959,1.04275356 11.9918371,1.04275356 C18.0294745,1.04275356 22.9409206,5.95419959 22.9409206,11.9918371 C22.9409206,18.0294745 18.0294745,22.9409206 11.9918371,22.9409206 Z" id="Shape"></path>
                    <path d="M11.9918371,6.25661914 C8.82911609,6.25661914 6.25661914,8.82911609 6.25661914,11.9918371 C6.25661914,15.154558 8.82911609,17.727055 11.9918371,17.727055 C15.154558,17.727055 17.727055,15.154558 17.727055,11.9918371 C17.727055,8.82911609 15.154558,6.25661914 11.9918371,6.25661914 Z M11.9918371,16.6843014 C9.40472505,16.6843014 7.29937271,14.5789491 7.29937271,11.9918371 C7.29937271,9.40472505 9.40472505,7.29937271 11.9918371,7.29937271 C14.5789491,7.29937271 16.6843014,9.40472505 16.6843014,11.9918371 C16.6843014,14.5789491 14.5789491,16.6843014 11.9918371,16.6843014 Z" id="Shape"></path>
                    <path d="M21.898167,6.25661914 L11.9918371,6.25661914 C11.7040326,6.25661914 11.4704358,6.49021589 11.4704358,6.77802037 C11.4704358,7.06582485 11.7040326,7.29942159 11.9918371,7.29942159 L21.898167,7.29942159 C22.1859715,7.29942159 22.4195682,7.06582485 22.4195682,6.77802037 C22.4195682,6.49021589 22.1859715,6.25661914 21.898167,6.25661914 Z" id="Shape"></path>
                    <path d="M11.9918371,16.6843014 L2.08555601,16.6843014 C1.79775153,16.6843014 1.56415479,16.9178982 1.56415479,17.2057026 C1.56415479,17.4935071 1.79775153,17.7271039 2.08555601,17.7271039 L11.9918859,17.7271039 C12.2796904,17.7271039 12.5132872,17.4935071 12.5132872,17.2057026 C12.5132872,16.9178982 12.2796415,16.6843014 11.9918371,16.6843014 Z" id="Shape"></path>
                    <path d="M12.6905255,0.354525458 C12.4402607,0.210623218 12.1221996,0.295087576 11.9782974,0.545352342 L7.02515682,9.12425255 C6.88125458,9.37349084 6.96674542,9.69257841 7.21495723,9.83648065 C7.29731976,9.88443177 7.38701426,9.90632994 7.4756334,9.90632994 C7.65604888,9.90632994 7.83123422,9.81350713 7.92821181,9.64565377 L12.8813523,1.06675356 C13.0252546,0.817515275 12.9397149,0.498427699 12.6905255,0.354525458 Z" id="Shape"></path>
                    <path d="M16.7677393,14.1472424 C16.5174745,14.0033401 16.1994134,14.088831 16.0555112,14.3380692 L11.1023707,22.9169695 C10.9584684,23.1662077 11.0439593,23.4852953 11.2931976,23.6291976 C11.3755601,23.6771487 11.4652546,23.6990468 11.5538737,23.6990468 C11.7332138,23.6990468 11.9083992,23.606224 12.0053768,23.4383707 L16.9585662,14.8594705 C17.1024684,14.6102322 17.0169776,14.2911446 16.7677393,14.1472424 Z" id="Shape"></path>
                    <path d="M7.92816293,14.3380692 L2.9750224,5.75921792 C2.83009369,5.50895316 2.50993075,5.42346232 2.2627943,5.56839104 C2.01355601,5.71229328 1.92806517,6.03138086 2.07094094,6.28061914 L7.02408147,14.8594705 C7.12105906,15.0273727 7.2962444,15.1201466 7.47665988,15.1201466 C7.56527902,15.1201466 7.65497352,15.0982485 7.73733605,15.0502974 C7.98657434,14.9063951 8.07206517,14.5873075 7.92816293,14.3380692 Z" id="Shape"></path>
                    <path d="M21.9117067,17.7031039 L16.9585662,9.12425255 C16.8136375,8.87398778 16.4945499,8.78849695 16.2463381,8.93342566 C15.9970998,9.0773279 15.911609,9.39641548 16.0555112,9.64565377 L21.0086517,18.2245051 C21.1056293,18.3924073 21.2808147,18.4851813 21.4612301,18.4851813 C21.5498493,18.4851813 21.6385173,18.4632831 21.7208798,18.415332 C21.9701181,18.2714297 22.055609,17.9523422 21.9117067,17.7031039 Z" id="Shape"></path>
                </g>
            </g>
        </g>
    </g>
</svg>