<?xml version="1.0" encoding="UTF-8"?>
<svg width="56px" height="56px" viewBox="0 0 56 56" version="1.1" xmlns="http://www.w3.org/2000/svg" xmlns:xlink="http://www.w3.org/1999/xlink">
    <!-- Generator: Sketch 49 (51002) - http://www.bohemiancoding.com/sketch -->
    <title>support</title>
    <desc>Created with Sketch.</desc>
    <defs></defs>
    <g id="Page-1" stroke="none" stroke-width="1" fill="none" fill-rule="evenodd">
        <g id="Landing" transform="translate(-452.000000, -1527.000000)" fill="#FFFFFF" fill-rule="nonzero">
            <g id="process" transform="translate(0.000000, 1280.000000)">
                <g id="Group-11" transform="translate(376.000000, 216.000000)">
                    <g id="Group-2" transform="translate(28.000000, 31.000000)">
                        <g id="support" transform="translate(48.000000, 0.000000)">
                            <path d="M24.2666667,17.7333333 C22.7229333,17.7333333 21.4666667,18.9896 21.4666667,20.5333333 L23.3333333,20.5333333 C23.3333333,20.0190667 23.7514667,19.6 24.2666667,19.6 C24.7818667,19.6 25.2,20.0190667 25.2,20.5333333 L27.0666667,20.5333333 C27.0666667,18.9896 25.8104,17.7333333 24.2666667,17.7333333 Z" id="Shape"></path>
                            <path d="M31.7333333,17.7333333 C30.1896,17.7333333 28.9333333,18.9896 28.9333333,20.5333333 L30.8,20.5333333 C30.8,20.0190667 31.2181333,19.6 31.7333333,19.6 C32.2485333,19.6 32.6666667,20.0190667 32.6666667,20.5333333 L34.5333333,20.5333333 C34.5333333,18.9896 33.2770667,17.7333333 31.7333333,17.7333333 Z" id="Shape"></path>
                            <path d="M28,42.9333333 C25.9410667,42.9333333 24.2666667,44.6077333 24.2666667,46.6666667 C24.2666667,48.7256 25.9410667,50.4 28,50.4 C30.0589333,50.4 31.7333333,48.7256 31.7333333,46.6666667 C31.7333333,44.6077333 30.0589333,42.9333333 28,42.9333333 Z M28,48.5333333 C26.9705333,48.5333333 26.1333333,47.6961333 26.1333333,46.6666667 C26.1333333,45.6372 26.9705333,44.8 28,44.8 C29.0294667,44.8 29.8666667,45.6372 29.8666667,46.6666667 C29.8666667,47.6961333 29.0294667,48.5333333 28,48.5333333 Z" id="Shape"></path>
                            <path d="M50.4,54.1333333 L50.4,42 C50.4,34.2804 44.1196,28 36.4,28 L35.3836,28 C35.7158667,27.7078667 36.0285333,27.3961333 36.3244,27.0666667 L37.3333333,27.0666667 C39.9065333,27.0666667 42,24.9732 42,22.4 L42,20.7554667 C43.1246667,20.0013333 43.8666667,18.7189333 43.8666667,17.2666667 C43.8666667,15.8088 43.1190667,14.5245333 41.9888,13.7713333 C41.8646667,6.15813333 35.6430667,0 28,0 C20.3569333,0 14.1353333,6.15813333 14.0112,13.7713333 C12.8809333,14.5245333 12.1333333,15.8088 12.1333333,17.2666667 C12.1333333,19.5822667 14.0177333,21.4666667 16.3333333,21.4666667 L16.9689333,21.4666667 C17.4057333,24.0529333 18.7273333,26.3368 20.6173333,28 L19.6,28 C11.8804,28 5.6,34.2804 5.6,42 L5.6,54.1333333 L0,54.1333333 L0,56 L6.53333333,56 L11.2,56 L44.8,56 L49.4666667,56 L56,56 L56,54.1333333 L50.4,54.1333333 Z M40.1333333,22.4 C40.1333333,23.8158667 39.0730667,24.9769333 37.7076,25.1617333 C38.3544,24.0370667 38.808,22.7910667 39.0310667,21.4666667 L39.6666667,21.4666667 C39.8262667,21.4666667 39.9784,21.4368 40.1333333,21.4190667 L40.1333333,22.4 Z M42,17.2666667 C42,18.5528 40.9537333,19.6 39.6666667,19.6 L39.2,19.6 L39.2,14.9333333 L39.6666667,14.9333333 C40.9537333,14.9333333 42,15.9805333 42,17.2666667 Z M16.8,19.6 L16.3333333,19.6 C15.0462667,19.6 14,18.5528 14,17.2666667 C14,15.9805333 15.0462667,14.9333333 16.3333333,14.9333333 L16.8,14.9333333 L16.8,19.6 Z M16.3333333,13.0666667 C16.1886667,13.0666667 16.0524,13.0946667 15.9114667,13.1096 C16.3706667,6.8348 21.6104,1.86666667 28,1.86666667 C34.3896,1.86666667 39.6293333,6.8348 40.0885333,13.1096 C39.9476,13.0946667 39.8113333,13.0666667 39.6666667,13.0666667 L39.0310667,13.0666667 C38.1388,7.7784 33.5384,3.73333333 28,3.73333333 C22.4616,3.73333333 17.8612,7.7784 16.9689333,13.0666667 L16.3333333,13.0666667 Z M37.3324,14.91 C30.5965333,14.6729333 26.1333333,11.9186667 26.1333333,9.33333333 C26.1333333,8.81813333 25.7161333,8.4 25.2,8.4 C24.6838667,8.4 24.2666667,8.81813333 24.2666667,9.33333333 C24.2666667,11.6657333 21.8549333,13.5986667 18.7208,13.9412 C19.2182667,9.2596 23.1896,5.6 28,5.6 C33.138,5.6 37.3193333,9.7748 37.3324,14.91 Z M18.6666667,19.6 L18.6666667,15.8144 C21.5814667,15.5614667 24.0548,14.1558667 25.2896,12.1874667 C27.2421333,14.7746667 31.8052,16.5956 37.3333333,16.7813333 L37.3333333,19.6 C37.3333333,21.7028 36.6258667,23.6376 35.4489333,25.2 L28,25.2 L28,27.0666667 L33.5757333,27.0666667 C33.04,27.468 32.4622667,27.8133333 31.8462667,28.0933333 C29.3972,29.2058667 26.6018667,29.2058667 24.1518667,28.0933333 C20.9225333,26.6242667 18.6666667,23.3744 18.6666667,19.6 Z M25.1150667,30.4098667 C26.0372,30.6562667 27.0013333,30.8 28,30.8 C28.9986667,30.8 29.9628,30.6562667 30.8849333,30.4098667 L28,36.1797333 L25.1150667,30.4098667 Z M26.4898667,37.3333333 L24.8434667,37.3333333 L21.1101333,29.8666667 L22.7565333,29.8666667 L26.4898667,37.3333333 Z M33.2434667,29.8666667 L34.8898667,29.8666667 L31.1565333,37.3333333 L29.5101333,37.3333333 L33.2434667,29.8666667 Z M10.2666667,42 L10.2666667,54.1333333 L7.46666667,54.1333333 L7.46666667,42 C7.46666667,35.4993333 12.6093333,30.1924 19.0372,29.8956 L22.7565333,37.3333333 L14.9333333,37.3333333 C12.3601333,37.3333333 10.2666667,39.4268 10.2666667,42 Z M43.8666667,54.1333333 L12.1333333,54.1333333 L12.1333333,42 C12.1333333,40.4562667 13.3896,39.2 14.9333333,39.2 L24.2666667,39.2 L28,39.2 L31.7333333,39.2 L41.0666667,39.2 C42.6104,39.2 43.8666667,40.4562667 43.8666667,42 L43.8666667,54.1333333 Z M48.5333333,54.1333333 L45.7333333,54.1333333 L45.7333333,42 C45.7333333,39.4268 43.6398667,37.3333333 41.0666667,37.3333333 L33.2434667,37.3333333 L36.9628,29.8956 C43.3906667,30.1924 48.5333333,35.4993333 48.5333333,42 L48.5333333,54.1333333 Z" id="Shape"></path>
                            <rect id="Rectangle-path" x="40.1333333" y="45.7333333" width="1.86666667" height="6.53333333"></rect>
                            <rect id="Rectangle-path" x="40.1333333" y="42" width="1.86666667" height="1.86666667"></rect>
                            <rect id="Rectangle-path" x="48.5333333" y="8.4" width="1.86666667" height="1.86666667"></rect>
                            <rect id="Rectangle-path" x="48.5333333" y="12.1333333" width="1.86666667" height="1.86666667"></rect>
                            <rect id="Rectangle-path" x="48.5333333" y="15.8666667" width="1.86666667" height="1.86666667"></rect>
                            <rect id="Rectangle-path" x="5.6" y="19.6" width="1.86666667" height="1.86666667"></rect>
                            <rect id="Rectangle-path" x="5.6" y="23.3333333" width="1.86666667" height="1.86666667"></rect>
                            <rect id="Rectangle-path" x="5.6" y="27.0666667" width="1.86666667" height="1.86666667"></rect>
                        </g>
                    </g>
                </g>
            </g>
        </g>
    </g>
</svg>