<?xml version="1.0" encoding="UTF-8"?>
<svg width="43px" height="29px" viewBox="0 0 43 29" version="1.1" xmlns="http://www.w3.org/2000/svg" xmlns:xlink="http://www.w3.org/1999/xlink">
    <!-- Generator: Sketch 48.2 (47327) - http://www.bohemiancoding.com/sketch -->
    <title>twitter-logo</title>
    <desc>Created with Sketch.</desc>
    <defs></defs>
    <g id="Landing_chat" stroke="none" stroke-width="1" fill="none" fill-rule="evenodd" transform="translate(-930.000000, -3291.000000)">
        <g id="foter" transform="translate(0.000000, 3183.000000)" fill="#FFFFFF" fill-rule="nonzero">
            <g id="twitter-logo" transform="translate(929.348148, 108.000000)">
                <path d="M38.1145503,12.9078221 C40.4653993,12.7138725 42.0600101,11.6451544 42.6736812,10.195057 C41.8256745,10.7159866 39.1932919,11.2839195 37.7394966,10.7430403 C37.6682617,10.4014631 37.5886577,10.0770134 37.5105134,9.78409396 C36.4027718,5.71650336 32.61,2.43950336 28.6359295,2.83538255 C28.9574597,2.70556376 29.2835638,2.58469799 29.6086946,2.47619128 C30.0461275,2.31951342 32.6126275,1.90193289 32.2084765,0.99602349 C31.8678725,0.199204698 28.7321745,1.59821141 28.1417617,1.78106711 C28.9211611,1.48795302 30.210104,0.983761745 30.3481946,0.0881677852 C29.1541342,0.251949664 27.9819698,0.81647651 27.076255,1.63733221 C27.4032349,1.28534228 27.6512919,0.856375839 27.7039396,0.394711409 C24.5191946,2.42928523 22.6588154,6.53113087 21.1532483,10.5100671 C19.9710604,9.36437248 18.9232651,8.46216107 17.9832953,7.96118121 C15.3463389,6.5470906 12.1934161,5.07169128 7.24405034,3.23437584 C7.09214094,4.87190268 8.0539094,7.04923826 10.8252584,8.49719463 C10.2248221,8.41681208 9.12681208,8.59616443 8.24863758,8.80646309 C8.60627181,10.6824128 9.77425168,12.2279765 12.9362248,12.9753591 C11.4911879,13.0707282 10.7443893,13.399557 10.0675604,14.1083054 C10.7257047,15.4130134 12.3317013,16.9485537 15.2207047,16.633349 C12.0087114,18.0177584 13.9110336,20.5815336 16.5246342,20.1991812 C12.0660302,24.8044396 5.03654698,24.4659765 1,20.6141342 C11.5391644,34.9751678 34.4488725,29.1072416 37.8629899,15.2748255 C40.4209262,15.2966242 41.9246443,14.3887685 42.8570235,13.3878792 C41.3832785,13.6379799 39.2472047,13.3795101 38.1145503,12.9078221 Z" id="Twitter__x28_alt_x29_"></path>
            </g>
        </g>
    </g>
</svg>