<?xml version="1.0" encoding="UTF-8"?>
<svg width="41px" height="40px" viewBox="0 0 41 40" version="1.1" xmlns="http://www.w3.org/2000/svg" xmlns:xlink="http://www.w3.org/1999/xlink">
    <!-- Generator: Sketch 48.2 (47327) - http://www.bohemiancoding.com/sketch -->
    <title>upload</title>
    <desc>Created with Sketch.</desc>
    <defs></defs>
    <g id="Process_4_uploading" stroke="none" stroke-width="1" fill="none" fill-rule="evenodd" transform="translate(-783.000000, -840.000000)">
        <g id="upload_house-copy" transform="translate(215.000000, 748.000000)" fill-rule="nonzero">
            <g id="drag_drop" transform="translate(463.000000, 73.000000)">
                <g id="upload" transform="translate(105.000000, 19.000000)">
                    <path d="M40.5448485,30.4419913 L0,30.4419913 L0,22.9753247 L6.73575758,11.6999134 C7.11463203,11.0049351 7.84285714,10.5724675 8.63437229,10.5724675 L31.9104762,10.5724675 C32.7019913,10.5724675 33.4302165,11.0049351 33.8090909,11.6998268 L40.5448485,22.9743723 L40.5448485,30.4419913 Z" id="Shape" fill="#FFA400"></path>
                    <polygon id="Shape" fill="#FF671B" points="3.24354978 29.9602597 3.24354978 25.945368 9.24978355 13.8161039 31.2949784 13.8161039 37.3012121 25.9444156 37.3012121 29.9602597"></polygon>
                    <path d="M30.554026,24.0600866 L28.9084848,27.6717749 C28.6805195,28.3218182 28.0668398,28.7569697 27.3780087,28.7569697 L13.1667532,28.7569697 C12.4779221,28.7569697 11.8642424,28.3218182 11.6362771,27.6717749 L9.99073593,24.0600866 C9.76277056,23.4100433 9.14909091,22.9748918 8.46025974,22.9748918 L0,22.9748918 L0,36.1607792 C0,38.2507359 1.69419913,39.9449351 3.78415584,39.9449351 L36.7606061,39.9449351 C38.8505628,39.9449351 40.5447619,38.2507359 40.5447619,36.1607792 L40.5447619,22.9748918 L32.0844156,22.9749784 C31.395671,22.9749784 30.7819913,23.4101299 30.554026,24.0600866 Z" id="Shape" fill="#D4451D"></path>
                    <path d="M26.7549784,8.23281385 L23.4429437,8.23281385 L23.4429437,16.8044156 C23.4429437,17.1029437 23.2009524,17.3450216 22.9023377,17.3450216 L17.6424242,17.3450216 C17.3438961,17.3450216 17.1018182,17.1029437 17.1018182,16.8044156 L17.1018182,8.23281385 L13.7897835,8.23281385 C13.3193939,8.23281385 13.0734199,7.67367965 13.3912554,7.32692641 L19.8738528,0.255670996 C20.0881385,0.021991342 20.4565368,0.021991342 20.6708225,0.255670996 L27.1534199,7.32692641 C27.471342,7.67359307 27.225368,8.23281385 26.7549784,8.23281385 Z" id="Shape" fill="#EB0029"></path>
                </g>
            </g>
        </g>
    </g>
</svg>