<?xml version="1.0" encoding="UTF-8"?>
<svg width="56px" height="56px" viewBox="0 0 56 56" version="1.1" xmlns="http://www.w3.org/2000/svg" xmlns:xlink="http://www.w3.org/1999/xlink">
    <!-- Generator: Sketch 48.2 (47327) - http://www.bohemiancoding.com/sketch -->
    <title>wallet</title>
    <desc>Created with Sketch.</desc>
    <defs></defs>
    <g id="Landing_Cards_2" stroke="none" stroke-width="1" fill="none" fill-rule="evenodd" transform="translate(-174.000000, -1137.000000)">
        <g id="perfilador" transform="translate(162.000000, 873.000000)" fill="#EB0029" fill-rule="nonzero">
            <g id="Group-3" transform="translate(0.000000, 264.000000)">
                <g id="wallet" transform="translate(12.000000, 0.000000)">
                    <path d="M55.5312716,26.0774448 L52.8454448,26.0774448 L52.8454448,13.7225075 C52.8454448,10.7605254 50.4357731,8.35085373 47.473791,8.35085373 L43.8361313,8.35085373 L40.1135522,1.65776716 C39.546197,0.634889552 38.4664836,0 37.2954985,0 C36.7497075,0 36.2082627,0.140752239 35.7301731,0.406041791 L21.4436537,8.35068657 L5.48549254,8.35068657 C2.52351045,8.35068657 0.113838806,10.7603582 0.113838806,13.7223403 L0.113838806,50.6076179 C0.113838806,53.5696 2.52351045,55.9792716 5.48549254,55.9792716 L47.473791,55.9792716 C50.4357731,55.9792716 52.8454448,53.5696 52.8454448,50.6076179 L52.8454448,39.7750448 L55.5312716,39.7750448 L55.5312716,26.0774448 Z M47.473791,10.4994149 C49.1282149,10.4994149 50.4797373,11.7563224 50.6612776,13.364609 L46.6239284,13.364609 L45.0316896,10.4994149 L47.473791,10.4994149 Z M36.7754507,2.28396418 C37.2792836,2.00145672 37.9573015,2.19904478 38.2354627,2.70087164 L44.1657791,13.363606 L16.8498149,13.363606 L36.7754507,2.28396418 Z M50.6967164,50.6076179 C50.6967164,52.3845731 49.2505791,53.8307104 47.4736239,53.8307104 L5.48549254,53.8307104 C3.70853731,53.8307104 2.2624,52.3845731 2.2624,50.6076179 L2.2624,13.7225075 C2.2624,11.9455522 3.70853731,10.4994149 5.48549254,10.4994149 L17.5803224,10.4994149 L12.4278209,13.3647761 L6.15699104,13.3647761 C5.56288955,13.3647761 5.08262687,13.8460418 5.08262687,14.4391403 C5.08262687,15.0322388 5.56288955,15.5135045 6.15699104,15.5135045 L8.56348657,15.5135045 L47.8186507,15.5135045 L50.6967164,15.5135045 L50.6967164,26.0784478 L42.8401672,26.0784478 C39.1916418,26.0784478 36.2223045,29.0479522 36.2223045,32.6963104 L36.2223045,33.1583522 C36.2223045,36.8068776 39.191809,39.7762149 42.8401672,39.7762149 L50.6967164,39.7762149 L50.6967164,50.6076179 Z M53.3825433,37.6264836 L52.8454448,37.6264836 L42.8401672,37.6264836 C40.3756657,37.6264836 38.3708657,35.6218507 38.3708657,33.1571821 L38.3708657,32.6951403 C38.3708657,30.2306388 40.3754985,28.2258388 42.8401672,28.2258388 L52.8454448,28.2258388 L53.3825433,28.2258388 L53.3825433,37.6264836 Z M46.130794,33.0144239 C46.130794,34.3251582 45.0693015,35.3864836 43.7587343,35.3864836 C42.448,35.3864836 41.3866746,34.324991 41.3866746,33.0144239 C41.3866746,31.7038567 42.4481672,30.6423642 43.7587343,30.6423642 C45.0694687,30.642197 46.130794,31.7046925 46.130794,33.0144239 Z" id="Shape"></path>
                </g>
            </g>
        </g>
    </g>
</svg>