<?xml version="1.0" encoding="UTF-8"?>
<svg width="34px" height="38px" viewBox="0 0 34 38" version="1.1" xmlns="http://www.w3.org/2000/svg" xmlns:xlink="http://www.w3.org/1999/xlink">
    <!-- Generator: Sketch 48.2 (47327) - http://www.bohemiancoding.com/sketch -->
    <title>web-cam</title>
    <desc>Created with Sketch.</desc>
    <defs></defs>
    <g id="Process_4_uploading" stroke="none" stroke-width="1" fill="none" fill-rule="evenodd" transform="translate(-320.000000, -841.000000)">
        <g id="upload_house-copy" transform="translate(215.000000, 748.000000)" fill-rule="nonzero">
            <g id="id_capture" transform="translate(82.000000, 73.000000)">
                <g id="Camera_buton-Copy-2">
                    <g id="web-cam" transform="translate(23.000000, 20.000000)">
                        <path d="M2.62550336,37.9501438 C1.11812081,37.9501438 -0.0327900288,36.5965484 0.216299137,35.1100671 C1.56874401,27.0366251 8.5894535,20.8839885 17.0471716,20.8839885 C25.5048897,20.8839885 32.5255992,27.0364334 33.8780441,35.1100671 C34.1271333,36.5967402 32.9760307,37.9501438 31.4688399,37.9501438 L2.62550336,37.9501438 Z" id="Shape" fill="#EB0029"></path>
                        <path d="M33.8778523,35.1098754 C32.5254075,27.0364334 25.504698,20.8839885 17.0469799,20.8839885 C17.0042186,20.8839885 16.9620326,20.8864813 16.9192713,20.8868648 L16.9192713,37.9501438 L31.4686481,37.9501438 C32.9762224,37.9501438 34.1271333,36.5965484 33.8778523,35.1098754 Z" id="Shape" fill="#EB0029"></path>
                        <circle id="Oval" fill="#FFA400" cx="17.0471716" cy="14.7478428" r="14.6692234"></circle>
                        <path d="M17.0471716,0.0786193672 C17.0044104,0.0786193672 16.9622244,0.0814956855 16.9194631,0.0818791946 L16.9194631,29.4138063 C16.9622244,29.4141898 17.0044104,29.4170662 17.0471716,29.4170662 C25.1488015,29.4170662 31.716395,22.8494727 31.716395,14.7478428 C31.716395,6.64621285 25.1488015,0.0786193672 17.0471716,0.0786193672 Z" id="Shape" fill="#FFA400"></path>
                        <circle id="Oval" fill="#EB0029" cx="17.0471716" cy="14.7478428" r="7.3346117"></circle>
                        <path d="M17.0471716,7.41323106 C17.0044104,7.41323106 16.9620326,7.41572387 16.9194631,7.41649089 L16.9194631,22.0791946 C16.9622244,22.0799616 17.0044104,22.0824545 17.0471716,22.0824545 C21.0979866,22.0824545 24.3817833,18.7986577 24.3817833,14.7478428 C24.3817833,10.6970278 21.0979866,7.41323106 17.0471716,7.41323106 Z" id="Shape" fill="#EB0029"></path>
                        <circle id="Oval" fill="#FFA400" cx="17.0471716" cy="14.7478428" r="3.66730585"></circle>
                        <path d="M17.0471716,11.0805369 C17.0040268,11.0805369 16.9622244,11.0855225 16.9194631,11.0870566 L16.9194631,18.4088207 C16.9622244,18.4103547 17.0040268,18.4153404 17.0471716,18.4153404 C19.072675,18.4153404 20.7144775,16.7733461 20.7144775,14.7480345 C20.7144775,12.7227229 19.072675,11.0805369 17.0471716,11.0805369 Z" id="Shape" fill="#FFA400"></path>
                    </g>
                </g>
            </g>
        </g>
    </g>
</svg>