<?xml version="1.0" encoding="UTF-8"?>
<svg width="29px" height="40px" viewBox="0 0 29 40" version="1.1" xmlns="http://www.w3.org/2000/svg" xmlns:xlink="http://www.w3.org/1999/xlink">
    <!-- Generator: Sketch 48.2 (47327) - http://www.bohemiancoding.com/sketch -->
    <title>webcam</title>
    <desc>Created with Sketch.</desc>
    <defs></defs>
    <g id="Process_2" stroke="none" stroke-width="1" fill="none" fill-rule="evenodd" transform="translate(-242.000000, -507.000000)">
        <g id="form" transform="translate(184.000000, 212.000000)" fill="#EB0029" fill-rule="nonzero">
            <g id="id_capture" transform="translate(32.000000, 276.000000)">
                <g id="Camera_buton-Copy-2">
                    <g id="webcam" transform="translate(26.000000, 19.000000)">
                        <path d="M24.0247173,35.9480702 L23.8205848,35.9480702 L20.2730604,26.4802339 C25.011384,24.1196881 28.0092788,19.2846784 28.0169981,13.9909552 C28.0269786,6.27407407 21.7794152,0.0100584795 14.0624561,-1.18718444e-15 C6.34557505,-0.0100584795 0.0816374269,6.23758285 0.0715009747,13.9544639 C0.0645614035,19.2615205 3.06479532,24.1144639 7.81536062,26.4802339 L4.26783626,35.9480702 L4.0637037,35.9480702 C2.96179337,35.9492398 2.06877193,36.8422612 2.06760234,37.9441715 L2.06760234,39.2749318 C2.06752437,39.6423392 2.36522417,39.9401949 2.73263158,39.9402729 C2.73270955,39.9402729 2.7328655,39.9402729 2.73294347,39.9402729 L25.3553996,39.9402729 C25.722807,39.9403509 26.0206628,39.6426511 26.0207407,39.2752437 C26.0207407,39.2751657 26.0207407,39.2750097 26.0207407,39.2749318 L26.0207407,37.9441715 C26.0196491,36.8422612 25.1266277,35.9493177 24.0247173,35.9480702 Z M16.0230799,1.51968811 C15.9347368,2.61255361 14.977154,3.42690058 13.8842885,3.3385575 C12.9140741,3.26011696 12.1438596,2.48990253 12.0654191,1.51968811 C13.3747368,1.29208577 14.7136062,1.29208577 16.0230799,1.51968811 Z M1.40226121,13.9909552 C1.41247563,8.27937622 5.24779727,3.28265107 10.7626511,1.79625731 C11.0002339,3.60865497 12.6619883,4.88522417 14.474386,4.6477193 C15.9610136,4.4528655 17.1309162,3.28288499 17.325848,1.79625731 C24.0640936,3.6120078 28.0546589,10.5463548 26.2389084,17.2846004 C24.4232359,24.022846 17.4888109,28.0134113 10.7505653,26.1977388 C5.23259259,24.7108772 1.39945419,19.705653 1.40226121,13.9909552 Z M16.705653,27.7023782 L16.705653,29.9597661 C16.705653,31.4296296 15.5140741,32.6212086 14.0442105,32.6212086 C12.574347,32.6212086 11.382768,31.4296296 11.382768,29.9597661 L11.382768,27.7023782 C13.139961,28.0507602 14.94846,28.0507602 16.705653,27.7023782 Z M9.03446394,27.0193372 C9.36888889,27.1483821 9.70573099,27.2717349 10.0519298,27.3752827 L10.0519298,29.9598441 C10.0519298,32.1646784 11.8392982,33.9520468 14.0441326,33.9520468 C16.2489669,33.9520468 18.0363353,32.1646784 18.0363353,29.9598441 L18.0363353,27.3752827 C18.3825341,27.2718129 18.7193762,27.14846 19.0538012,27.0193372 L22.3995322,35.9480702 L5.68881092,35.9480702 L9.03446394,27.0193372 Z M24.6900585,38.6095127 L3.39836257,38.6095127 L3.39836257,37.9441715 C3.39875244,37.5768421 3.69637427,37.2791423 4.0637037,37.2788304 L24.0247173,37.2788304 C24.3920468,37.2792203 24.6897466,37.5768421 24.6900585,37.9441715 L24.6900585,38.6095127 Z" id="Shape"></path>
                        <path d="M14.0442105,6.67189084 C10.0020273,6.67189084 6.7251462,9.94877193 6.7251462,13.9909552 C6.7251462,18.0331384 10.0020273,21.3100195 14.0442105,21.3100195 C18.0845224,21.3054191 21.3586745,18.0312671 21.3632749,13.9909552 C21.3632749,9.94877193 18.0863938,6.67189084 14.0442105,6.67189084 Z M14.0442105,19.9792593 C10.7384795,19.9755166 8.05964912,17.2966862 8.05590643,13.9909552 C8.05590643,10.6837427 10.7369981,8.00265107 14.0442105,8.00265107 C17.351423,8.00265107 20.0325146,10.6837427 20.0325146,13.9909552 C20.0325146,17.2981676 17.351423,19.9792593 14.0442105,19.9792593 Z" id="Shape"></path>
                        <path d="M14.0442105,9.33341131 C11.4718908,9.33341131 9.38666667,11.4187135 9.38666667,13.9909552 C9.38666667,16.5631969 11.4719688,18.648499 14.0442105,18.648499 C16.6152827,18.6455361 18.6987914,16.5620273 18.7017544,13.9909552 C18.7017544,11.4186355 16.6165302,9.33341131 14.0442105,9.33341131 Z" id="Shape"></path>
                    </g>
                </g>
            </g>
        </g>
    </g>
</svg>