<?xml version="1.0" encoding="UTF-8"?>
<svg width="27px" height="32px" viewBox="0 0 27 32" version="1.1" xmlns="http://www.w3.org/2000/svg" xmlns:xlink="http://www.w3.org/1999/xlink">
    <!-- Generator: Sketch 48.2 (47327) - http://www.bohemiancoding.com/sketch -->
    <title>youtube-logo</title>
    <desc>Created with Sketch.</desc>
    <defs></defs>
    <g id="Landing_chat" stroke="none" stroke-width="1" fill="none" fill-rule="evenodd" transform="translate(-881.000000, -3288.000000)">
        <g id="foter" transform="translate(0.000000, 3183.000000)" fill="#FFFFFF" fill-rule="nonzero">
            <g id="youtube-logo" transform="translate(881.000000, 105.000000)">
                <path d="M22.7338667,23.4069333 L20.9777778,23.4069333 L20.9859556,22.3868444 C20.9859556,21.9335111 21.3582222,21.5626667 21.8129778,21.5626667 L21.9249778,21.5626667 C22.3808,21.5626667 22.7541333,21.9335111 22.7541333,22.3868444 L22.7338667,23.4069333 Z M16.1468444,21.2209778 C15.7013333,21.2209778 15.3368889,21.5203556 15.3368889,21.8869333 L15.3368889,26.848 C15.3368889,27.2138667 15.7013333,27.5125333 16.1468444,27.5125333 C16.5941333,27.5125333 16.9589333,27.2138667 16.9589333,26.848 L16.9589333,21.8869333 C16.9589333,21.52 16.5941333,21.2209778 16.1468444,21.2209778 Z M26.8444444,18.4458667 L26.8444444,27.8837333 C26.8444444,30.1475556 24.8814222,32 22.4817778,32 L4.5408,32 C2.14044444,32 0.177777778,30.1475556 0.177777778,27.8837333 L0.177777778,18.4458667 C0.177777778,16.1820444 2.14044444,14.3292444 4.5408,14.3292444 L22.4817778,14.3292444 C24.8814222,14.3292444 26.8444444,16.1820444 26.8444444,18.4458667 Z M5.7376,28.9084444 L5.73617778,18.9667556 L7.96017778,18.9674667 L7.96017778,17.4944 L2.03164444,17.4855111 L2.03164444,18.9336889 L3.88231111,18.9390222 L3.88231111,28.9084444 L5.7376,28.9084444 Z M12.4042667,20.4476444 L10.5500444,20.4476444 L10.5500444,25.7564444 C10.5500444,26.5244444 10.5966222,26.9084444 10.5472,27.0439111 C10.3964444,27.4556444 9.71875556,27.8929778 9.45457778,27.0883556 C9.40977778,26.9475556 9.44924444,26.5226667 9.44853333,25.7930667 L9.44106667,20.4476444 L7.59715556,20.4476444 L7.60284444,25.7091556 C7.60426667,26.5155556 7.58471111,27.1168 7.60924444,27.3905778 C7.6544,27.8730667 7.6384,28.4355556 8.08604444,28.7569778 C8.92017778,29.3578667 10.5191111,28.6673778 10.9191111,27.8083556 L10.9155556,28.9045333 L12.4046222,28.9063111 L12.4042667,20.4476444 Z M18.336,26.5269333 L18.3320889,22.1084444 C18.3306667,20.4245333 17.0709333,19.4161778 15.3610667,20.7786667 L15.3685333,17.4936889 L13.5164444,17.4965333 L13.5075556,28.8352 L15.0307556,28.8131556 L15.1694222,28.1070222 C17.1153778,29.8922667 18.3388444,28.6688 18.336,26.5269333 Z M24.1390222,25.9413333 L22.7488,25.9488 C22.7480889,26.0039111 22.7459556,26.0675556 22.7452444,26.1368889 L22.7452444,26.9127111 C22.7452444,27.328 22.4021333,27.6661333 21.9854222,27.6661333 L21.7130667,27.6661333 C21.2956444,27.6661333 20.9525333,27.328 20.9525333,26.9127111 L20.9525333,26.8266667 L20.9525333,25.9733333 L20.9525333,24.8721778 L24.1361778,24.8721778 L24.1361778,23.6739556 C24.1361778,22.7982222 24.1137778,21.9228444 24.0412444,21.4222222 C23.8133333,19.8385778 21.5904,19.5872 20.4675556,20.3978667 C20.1152,20.6510222 19.8460444,20.9898667 19.6896,21.4449778 C19.5317333,21.9004444 19.4531556,22.5226667 19.4531556,23.3130667 L19.4531556,25.9477333 C19.4538667,30.3274667 24.7736889,29.7084444 24.1390222,25.9413333 Z M17.0072889,11.6380444 C17.1029333,11.8705778 17.2515556,12.0590222 17.4531556,12.2012444 C17.6522667,12.3413333 17.9068444,12.4117333 18.2119111,12.4117333 C18.4792889,12.4117333 18.7160889,12.3395556 18.9223111,12.1905778 C19.1278222,12.0423111 19.3009778,11.8208 19.4424889,11.5253333 L19.4072889,12.2528 L21.4741333,12.2528 L21.4741333,3.46311111 L19.8471111,3.46311111 L19.8471111,10.304 C19.8471111,10.6744889 19.5420444,10.9777778 19.1690667,10.9777778 C18.7982222,10.9777778 18.4920889,10.6744889 18.4920889,10.304 L18.4920889,3.46311111 L16.7939556,3.46311111 L16.7939556,9.39164444 C16.7939556,10.1468444 16.8078222,10.6503111 16.8302222,10.9056 C16.8533333,11.1591111 16.9116444,11.4023111 17.0072889,11.6380444 Z M10.7438222,6.67377778 C10.7438222,5.83004444 10.8142222,5.1712 10.9539556,4.69617778 C11.0947556,4.22293333 11.3475556,3.84248889 11.7137778,3.55555556 C12.0789333,3.2672 12.5464889,3.12284444 13.1150222,3.12284444 C13.5932444,3.12284444 14.0028444,3.21671111 14.3448889,3.40053333 C14.6887111,3.58542222 14.9539556,3.82542222 15.1377778,4.1216 C15.3251556,4.41884444 15.4524444,4.72426667 15.5203556,5.0368 C15.5896889,5.3536 15.6238222,5.83146667 15.6238222,6.47608889 L15.6238222,8.69902222 C15.6238222,9.51431111 15.5911111,10.1141333 15.5274667,10.4949333 C15.4645333,10.8768 15.3294222,11.2309333 15.12,11.5630222 C14.9137778,11.8915556 14.6474667,12.1372444 14.3246222,12.2940444 C13.9982222,12.4522667 13.6248889,12.5297778 13.2032,12.5297778 C12.7320889,12.5297778 12.3352889,12.4647111 12.0081778,12.3288889 C11.68,12.1937778 11.4264889,11.9900444 11.2458667,11.7194667 C11.0634667,11.4485333 10.9351111,11.1185778 10.8576,10.7338667 C10.7797333,10.3495111 10.7427556,9.77137778 10.7427556,9.00088889 L10.7438222,6.67377778 Z M12.3626667,10.1653333 C12.3626667,10.6631111 12.7331556,11.0695111 13.1843556,11.0695111 C13.6359111,11.0695111 14.0049778,10.6631111 14.0049778,10.1653333 L14.0049778,5.48622222 C14.0049778,4.98915556 13.6359111,4.58275556 13.1843556,4.58275556 C12.7331556,4.58275556 12.3626667,4.98915556 12.3626667,5.48622222 L12.3626667,10.1653333 Z M6.64248889,12.528 L8.59235556,12.528 L8.59448889,5.78666667 L10.8984889,0.0117333333 L8.76586667,0.0117333333 L7.54097778,4.30115556 L6.29866667,0 L4.18808889,0 L6.63928889,5.78986667 L6.64248889,12.528 Z" id="YouTube"></path>
            </g>
        </g>
    </g>
</svg>